<svg id="Vrstva_1" data-name="Vrstva 1" xmlns="http://www.w3.org/2000/svg" viewBox="0 0 154.86 63.73"><defs><style>.cls-3{fill:#9b6d2f}.cls-5{fill:#ce973d}.cls-9{fill:#111a20}</style></defs><path d="M987.75 561.64s18.61-45.24 35.58-49.88 14.33 13.35 8 21.15c-6.69 8.24-36 37.19-40.65 41.82-3.5-2.56-4.97-9.91-2.93-13.09z" transform="translate(-881.33 -511.01)" fill="#71593a"/><path d="M987.88 570.8c11-13 24.28-30.63 35.8-46.18a1 1 0 00-.21-1.41 1 1 0 00-1.4.21c-11.22 15.14-24.08 32.25-34.91 45.1a14.74 14.74 0 00.72 2.28z" transform="translate(-881.33 -511.01)" fill="#57432d"/><path class="cls-3" d="M925.83 550.42a4.75 4.75 0 00-6.32 2.23v.05c-1.58 2.87-6.45 16.57-6.45 16.57-5.59 0-6.82 4.25-6.82 5.46h11.86l10.2-17.91.08-.16a4.74 4.74 0 00-2.55-6.24z" transform="translate(-881.33 -511.01)"/><path d="M915.94 528.8a51 51 0 0112.92-10.71 46.18 46.18 0 0134.68-5.37c13.53 3.41 27.14 13.34 27.14 36.55v.5a25 25 0 01-25 25h-11.23s-17.31-.71-30.86-7.48a24.92 24.92 0 01-7.65-38.49z" transform="translate(-881.33 -511.01)" fill="#b17f32"/><path class="cls-5" d="M990.67 552.65c0-10.23-30.35-31.29-46.5-5.86-4.79 7.53-2.19 16.58 3.12 22.48h-7.45c-5.51 0-6.2 3.9-6.2 5.46h57s.02-19.45.03-22.08zM933.71 550.42a4.75 4.75 0 00-6.32 2.23v.05c-1.58 2.87-6.45 16.57-6.45 16.57-6 0-6.82 4.29-6.82 5.46H926l10.21-17.91.08-.16a4.74 4.74 0 00-2.58-6.24z" transform="translate(-881.33 -511.01)"/><path class="cls-3" d="M890.29 528.48a4.08 4.08 0 01-6.8 4.5c-1.25-1.87-3.89-5.87-.49-8.12s6.05 1.74 7.29 3.62zM922 528.48a4.08 4.08 0 106.8 4.5c1.24-1.87 3.89-5.87.49-8.12s-6.05 1.74-7.29 3.62z" transform="translate(-881.33 -511.01)"/><path class="cls-5" d="M928.49 542c0 12.35-10 18.8-22.35 18.8s-22.35-6.45-22.35-18.8a22.35 22.35 0 0144.7 0z" transform="translate(-881.33 -511.01)"/><path d="M904.66 562.36h1.48v-16.57h-6.3l3.06 15.13a1.8 1.8 0 001.76 1.44z" transform="translate(-881.33 -511.01)" fill="#f8f1e9"/><path d="M907.62 562.36h-1.48v-16.57h6.31l-3.07 15.13a1.79 1.79 0 01-1.76 1.44z" transform="translate(-881.33 -511.01)" fill="#efe6dd"/><path d="M916.75 540.27c-1-2.67-3.34-5.42-5.65-6.15h-9.91c-2.31.73-4.66 3.48-5.65 6.15-1.69 4.52-2.82 10.59.59 12.25 6.57 3.18 9.43-1.38 10-6.56.59 5.18 3.45 9.74 10 6.56 3.44-1.66 2.31-7.73.62-12.25z" transform="translate(-881.33 -511.01)" fill="#edb35e"/><path class="cls-9" d="M893.94 534.86a2.23 2.23 0 11-2.23-2.23 2.23 2.23 0 012.23 2.23zM918.35 534.86a2.23 2.23 0 102.23-2.23 2.23 2.23 0 00-2.23 2.23z" transform="translate(-881.33 -511.01)"/><rect class="cls-9" x="20.56" y="26.56" width="8.51" height="5.4" rx="1.52"/></svg>