<svg id="Vrstva_1" data-name="Vrstva 1" xmlns="http://www.w3.org/2000/svg" viewBox="0 0 154.86 63.73"><defs><style>.cls-1{fill:#71593a;}.cls-2{fill:#57432d;}.cls-3{fill:#9b6d2f;}.cls-4{fill:#b17f32;}.cls-5{fill:#ce973d;}.cls-6{fill:#f8f1e9;}.cls-7{fill:#efe6dd;}.cls-8{fill:#edb35e;}.cls-9{fill:#111a20;}</style></defs><title>bobr evropský</title><path class="cls-1" d="M987.75,561.64s18.61-45.24,35.58-49.88,14.33,13.35,8,21.15c-6.69,8.24-36,37.19-40.65,41.82C987.18,572.17,985.71,564.82,987.75,561.64Z" transform="translate(-881.33 -511.01)"/><path class="cls-2" d="M987.88,570.8c11-13,24.28-30.63,35.8-46.18a1,1,0,0,0-.21-1.41,1,1,0,0,0-1.4.21c-11.22,15.14-24.08,32.25-34.91,45.1A14.74,14.74,0,0,0,987.88,570.8Z" transform="translate(-881.33 -511.01)"/><path class="cls-3" d="M925.83,550.42a4.75,4.75,0,0,0-6.32,2.23l0,.05c-1.58,2.87-6.45,16.57-6.45,16.57-5.59,0-6.82,4.25-6.82,5.46h11.86l10.2-17.91a0,0,0,0,0,0,0l.08-.16A4.74,4.74,0,0,0,925.83,550.42Z" transform="translate(-881.33 -511.01)"/><path class="cls-4" d="M915.94,528.8a51,51,0,0,1,12.92-10.71,46.18,46.18,0,0,1,34.68-5.37c13.53,3.41,27.14,13.34,27.14,36.55v.5a25,25,0,0,1-25,25H954.45s-17.31-.71-30.86-7.48A24.92,24.92,0,0,1,915.94,528.8Z" transform="translate(-881.33 -511.01)"/><path class="cls-5" d="M990.67,552.65c0-10.23-30.35-31.29-46.5-5.86-4.79,7.53-2.19,16.58,3.12,22.48h-7.45c-5.51,0-6.2,3.9-6.2,5.46h57S990.66,555.28,990.67,552.65Z" transform="translate(-881.33 -511.01)"/><path class="cls-5" d="M933.71,550.42a4.75,4.75,0,0,0-6.32,2.23s0,0,0,.05c-1.58,2.87-6.45,16.57-6.45,16.57-6,0-6.82,4.29-6.82,5.46H926l10.21-17.91v0l.08-.16A4.74,4.74,0,0,0,933.71,550.42Z" transform="translate(-881.33 -511.01)"/><path class="cls-3" d="M890.29,528.48a4.08,4.08,0,0,1-6.8,4.5c-1.25-1.87-3.89-5.87-.49-8.12S889.05,526.6,890.29,528.48Z" transform="translate(-881.33 -511.01)"/><path class="cls-3" d="M922,528.48a4.08,4.08,0,1,0,6.8,4.5c1.24-1.87,3.89-5.87.49-8.12S923.24,526.6,922,528.48Z" transform="translate(-881.33 -511.01)"/><path class="cls-5" d="M928.49,542c0,12.35-10,18.8-22.35,18.8s-22.35-6.45-22.35-18.8a22.35,22.35,0,0,1,44.7,0Z" transform="translate(-881.33 -511.01)"/><path class="cls-6" d="M904.66,562.36h1.48V545.79h-6.3l3.06,15.13A1.8,1.8,0,0,0,904.66,562.36Z" transform="translate(-881.33 -511.01)"/><path class="cls-7" d="M907.62,562.36h-1.48V545.79h6.31l-3.07,15.13A1.79,1.79,0,0,1,907.62,562.36Z" transform="translate(-881.33 -511.01)"/><path class="cls-8" d="M916.75,540.27c-1-2.67-3.34-5.42-5.65-6.15h-9.91c-2.31.73-4.66,3.48-5.65,6.15-1.69,4.52-2.82,10.59.59,12.25,6.57,3.18,9.43-1.38,10-6.56.59,5.18,3.45,9.74,10,6.56C919.57,550.86,918.44,544.79,916.75,540.27Z" transform="translate(-881.33 -511.01)"/><path class="cls-9" d="M893.94,534.86a2.23,2.23,0,1,1-2.23-2.23A2.23,2.23,0,0,1,893.94,534.86Z" transform="translate(-881.33 -511.01)"/><path class="cls-9" d="M918.35,534.86a2.23,2.23,0,1,0,2.23-2.23A2.23,2.23,0,0,0,918.35,534.86Z" transform="translate(-881.33 -511.01)"/><rect class="cls-9" x="20.56" y="26.56" width="8.51" height="5.4" rx="1.52"/></svg>