<svg id="Vrstva_1" data-name="Vrstva 1" xmlns="http://www.w3.org/2000/svg" viewBox="0 0 151.82 82.53"><defs><style>.cls-1{fill:#111a20;}.cls-2{fill:#925226;}.cls-3{fill:#b0642e;}.cls-4{fill:#262f3d;}.cls-5{fill:#d27a3d;}.cls-6{fill:#f09c63;}</style></defs><title>ježura</title><path class="cls-1" d="M904,570.13c-.82.15-4.88,2.3-12.14-2.56-.33-.22-.65.42-.4.77,3.05,4.36,14,8.31,22,1.79-3-1.66-7.35-2.24-9.29-.12A.41.41,0,0,1,904,570.13Z" transform="translate(-883.66 -499.04)"/><path class="cls-2" d="M896.16,559s6.65,9.65,7.8,11.16h9.47c-1-1.3-1.36-5.5-.06-8.18S901.15,552.12,896.16,559Z" transform="translate(-883.66 -499.04)"/><path class="cls-1" d="M914.92,575.75c-1.06.33-5.9,3.32-17.2.18a.45.45,0,0,0-.32.84c5.14,2.55,16.72,5.94,25-.78a.47.47,0,0,0,.06-.65c-1.47-1.67-5.33-2.24-7.31.26A.45.45,0,0,1,914.92,575.75Z" transform="translate(-883.66 -499.04)"/><path class="cls-3" d="M907.25,564.55s6.66,9.65,7.8,11.16h9.47c-1-1.3-1.36-5.5-.06-8.18S912.24,557.7,907.25,564.55Z" transform="translate(-883.66 -499.04)"/><path class="cls-4" d="M921.43,575.71c-.08.73-.2,2.41,3,3.77a4.1,4.1,0,0,0-.52-4.66A1.42,1.42,0,0,0,921.43,575.71Z" transform="translate(-883.66 -499.04)"/><path class="cls-1" d="M994.56,571.2a6.67,6.67,0,0,1,4.46,3c-1.29,0-5.52,0-5.52,0-.55,0-.52-1.9.26-2.79A.85.85,0,0,1,994.56,571.2Z" transform="translate(-883.66 -499.04)"/><path class="cls-2" d="M999.71,547.64S993.2,568,994.6,571.31a3.24,3.24,0,0,1-2.8,4.71h-7.3a1.13,1.13,0,0,1-1.1-1.32c.53-2.94-.87-7.86-7.74-18.19C979.2,554.43,999.71,547.64,999.71,547.64Z" transform="translate(-883.66 -499.04)"/><path class="cls-4" d="M992.86,573a6.65,6.65,0,0,1,4.46,3c-1.28,0-5.52,0-5.52,0-.54,0-.52-1.9.26-2.79A.86.86,0,0,1,992.86,573Z" transform="translate(-883.66 -499.04)"/><path class="cls-1" d="M984.71,576.74a6.7,6.7,0,0,1,4.47,3.06h-5.53c-.54,0-.51-1.9.27-2.8A.84.84,0,0,1,984.71,576.74Z" transform="translate(-883.66 -499.04)"/><path class="cls-3" d="M989.87,553.18s-6.51,20.4-5.11,23.67a3.24,3.24,0,0,1-2.8,4.72h-7.3a1.13,1.13,0,0,1-1.1-1.32c.53-2.94-.88-7.87-7.74-18.2C969.35,560,989.87,553.18,989.87,553.18Z" transform="translate(-883.66 -499.04)"/><path class="cls-4" d="M982.94,578.51a6.7,6.7,0,0,1,4.47,3.06c-1.29,0-5.53,0-5.53,0-.54,0-.51-1.9.27-2.79A.85.85,0,0,1,982.94,578.51Z" transform="translate(-883.66 -499.04)"/><path class="cls-4" d="M1034.36,538.45c-4.94-.79-10.77-1.61-15.33-4-3.67.86-8.86,3.33-7.09,10.4,15.28-3,18.24-3.06,22.71-4C1035.93,540.67,1035.65,538.65,1034.36,538.45Z" transform="translate(-883.66 -499.04)"/><path class="cls-3" d="M1019,534.48a15.31,15.31,0,0,1-4.38-3.27c-6.86-7.59-11.93-8.76-16.84-11.12a12.42,12.42,0,0,1-3.1-2.38,25.92,25.92,0,0,1,.29,18.13c-2.54,7.43.08,10,6.28,12,4.1-1.21,7.62-2.18,10.66-3C1010.17,537.81,1015.36,535.34,1019,534.48Z" transform="translate(-883.66 -499.04)"/><path class="cls-4" d="M1007.21,537.87a1.4,1.4,0,1,1-1.4-1.41A1.4,1.4,0,0,1,1007.21,537.87Z" transform="translate(-883.66 -499.04)"/><path class="cls-5" d="M995,535.84a25.92,25.92,0,0,0-.29-18.13,30.13,30.13,0,0,0-4.4-3.43,20.32,20.32,0,0,0-3.76-4.21,16.09,16.09,0,0,1,1,2.34,19.71,19.71,0,0,0-3.72-4.14,17.26,17.26,0,0,1,1.12,2.82,21.53,21.53,0,0,0-5.1-4.54,19.88,19.88,0,0,1,1.68,3,21.68,21.68,0,0,0-5.39-4.49A22.08,22.08,0,0,1,978,508.3a22,22,0,0,0-5.59-4.71,26.31,26.31,0,0,1,2.24,3.79,21.74,21.74,0,0,0-5.67-4.8,27.83,27.83,0,0,1,2.29,3.87,22.66,22.66,0,0,0-6-5.19,35.57,35.57,0,0,1,2.62,4.47,22.58,22.58,0,0,0-6.41-5,30.86,30.86,0,0,1,2.63,3.93A24.38,24.38,0,0,0,956,499a59.46,59.46,0,0,1,3.76,4.72,24.53,24.53,0,0,0-9-4.47,29.3,29.3,0,0,1,3.37,3.13,23.19,23.19,0,0,0-8.09-2.67,28.5,28.5,0,0,1,3.58,2.62,24.08,24.08,0,0,0-9.36-1.41,29.56,29.56,0,0,1,4.09,2,24.91,24.91,0,0,0-10.34-.34c2.16.39,4.6,1.71,6.86,2.16-4.38-1-10.07-1.17-14.17.3,2.18.12,4.77,1.13,7.07,1.3-4.53-.35-10.34.39-14.24,2.55,2.13-.23,4.76.31,7,.15-4.64.35-10.55,2.11-14.15,5a56.37,56.37,0,0,1,5.93-.85c-4,.92-8.44,2.78-11.26,5.32a52.6,52.6,0,0,1,5.72-1.14,25.15,25.15,0,0,0-9.73,4.93c1.79-.62,4.12-.74,6.13-1.23a24.75,24.75,0,0,0-9.34,4.82c2.07-.72,4.84-.77,7-1.49a25,25,0,0,0-9.44,4.86c2-.7,4.62-.77,6.78-1.42a25,25,0,0,0-9.33,4.82c2.07-.72,4.85-.77,7-1.49a24.58,24.58,0,0,0-8.78,4.66c2-.7,4.65-.77,6.81-1.42a24.4,24.4,0,0,0-8.58,4.59c2-.7,4.66-.77,6.83-1.43a24.37,24.37,0,0,0-8.54,4.59c2-.72,4.78-.77,7-1.47l0,.09a24.77,24.77,0,0,0-8.63,5.9c2-1,4.71-1.36,6.81-2.34l.26-.13,0,.08a25,25,0,0,0-7.72,7.26c1.7-1.2,4.18-2,6.06-3.19,0,0,0,0,0,0-2.6,2.33-5.36,4.82-7,7.27a50.75,50.75,0,0,1,5.14-2.32c-.29.73-.52,1.76-.83,2.74a33.71,33.71,0,0,1-5.16,2.29,16.42,16.42,0,0,0,4.53-.2l-.27.95a34.64,34.64,0,0,1-5.52,1.11,16.08,16.08,0,0,0,5,.79c-.08.32-.17.64-.26,1a32.86,32.86,0,0,1-5.34.11,14.57,14.57,0,0,0,8.53,1.74,41.68,41.68,0,0,1-4.76,1.15c3.53.87,7.62,1.17,11,.13A41.94,41.94,0,0,1,894,567a23.1,23.1,0,0,0,9.52-1.06,50.22,50.22,0,0,1-4.65,2.33,23.28,23.28,0,0,0,9.08-1.54,37.8,37.8,0,0,1-4.09,2.3,23.88,23.88,0,0,0,8.69-1.83,31.94,31.94,0,0,1-3.34,1.83,24.28,24.28,0,0,0,8.17-1.61c-.75.44-1.55.88-2.45,1.3a25.59,25.59,0,0,0,6.8-1.12c-.44.24-.9.48-1.39.7a26.52,26.52,0,0,0,5.4-.72c23.35.95,53-2.37,75.53-19.74h0C995.08,545.86,992.46,543.27,995,535.84Z" transform="translate(-883.66 -499.04)"/><path class="cls-5" d="M930.52,569.53a16.77,16.77,0,0,0,13.22-5.67A16.76,16.76,0,0,0,930.52,569.53Z" transform="translate(-883.66 -499.04)"/><path class="cls-5" d="M918.76,569.64a16.75,16.75,0,0,0,13.38-5.28A16.78,16.78,0,0,0,918.76,569.64Z" transform="translate(-883.66 -499.04)"/><path class="cls-5" d="M998.25,526c-2.86,2.1-3.35,6.45-3.19,9.67C996.92,531.77,998.36,529.51,998.25,526Z" transform="translate(-883.66 -499.04)"/><path class="cls-6" d="M981.68,553.05A16.77,16.77,0,0,0,995,547.5,16.73,16.73,0,0,0,981.68,553.05Z" transform="translate(-883.66 -499.04)"/><path class="cls-6" d="M969.48,561.39a16.77,16.77,0,0,0,12.72-6.71A16.74,16.74,0,0,0,969.48,561.39Z" transform="translate(-883.66 -499.04)"/><path class="cls-6" d="M938.32,555.48a16.77,16.77,0,0,0,14.33,1.23A16.79,16.79,0,0,0,938.32,555.48Z" transform="translate(-883.66 -499.04)"/><path class="cls-6" d="M921.78,559a16.73,16.73,0,0,0,14.32-1.3A16.73,16.73,0,0,0,921.78,559Z" transform="translate(-883.66 -499.04)"/><path class="cls-6" d="M957.64,561.35A16.77,16.77,0,0,0,971,556.11,16.73,16.73,0,0,0,957.64,561.35Z" transform="translate(-883.66 -499.04)"/><path class="cls-6" d="M915.7,565.17a16.75,16.75,0,0,0,14-3.46A16.76,16.76,0,0,0,915.7,565.17Z" transform="translate(-883.66 -499.04)"/><path class="cls-6" d="M904.41,563.75A15,15,0,0,0,917.12,562,15,15,0,0,0,904.41,563.75Z" transform="translate(-883.66 -499.04)"/><path class="cls-6" d="M893.33,562.56a13.25,13.25,0,0,0,11.32-1.16A13.25,13.25,0,0,0,893.33,562.56Z" transform="translate(-883.66 -499.04)"/><path class="cls-6" d="M930.1,563.47a16.79,16.79,0,0,0,13.79-4.09A16.76,16.76,0,0,0,930.1,563.47Z" transform="translate(-883.66 -499.04)"/><path class="cls-6" d="M974.67,550.1a16.78,16.78,0,0,0,13.71-4.36A16.74,16.74,0,0,0,974.67,550.1Z" transform="translate(-883.66 -499.04)"/><path class="cls-6" d="M958.34,551a16.73,16.73,0,0,0,14.21-2.25A16.79,16.79,0,0,0,958.34,551Z" transform="translate(-883.66 -499.04)"/><path class="cls-6" d="M943,550a16.72,16.72,0,0,0,14.25,1.9A16.76,16.76,0,0,0,943,550Z" transform="translate(-883.66 -499.04)"/><path class="cls-6" d="M927.83,550.79a16.77,16.77,0,0,0,14.34,1.11A16.74,16.74,0,0,0,927.83,550.79Z" transform="translate(-883.66 -499.04)"/><path class="cls-6" d="M911.24,553.61a16.79,16.79,0,0,0,14.25,1.92A16.73,16.73,0,0,0,911.24,553.61Z" transform="translate(-883.66 -499.04)"/><path class="cls-6" d="M896.58,554.23a16.76,16.76,0,0,0,14.25,1.92A16.76,16.76,0,0,0,896.58,554.23Z" transform="translate(-883.66 -499.04)"/><path class="cls-6" d="M955.38,542.44a16.8,16.8,0,0,0,14.22,2.19A16.75,16.75,0,0,0,955.38,542.44Z" transform="translate(-883.66 -499.04)"/><path class="cls-6" d="M939.81,543.54a16.76,16.76,0,0,0,14.38,0A16.76,16.76,0,0,0,939.81,543.54Z" transform="translate(-883.66 -499.04)"/><path class="cls-6" d="M920.23,547.69a16.78,16.78,0,0,0,14.24-2.06A16.78,16.78,0,0,0,920.23,547.69Z" transform="translate(-883.66 -499.04)"/><path class="cls-6" d="M913.82,547.08A16.76,16.76,0,0,0,926.33,540,16.74,16.74,0,0,0,913.82,547.08Z" transform="translate(-883.66 -499.04)"/><path class="cls-6" d="M978.23,536.41a16.75,16.75,0,0,0,13.84,3.9A16.77,16.77,0,0,0,978.23,536.41Z" transform="translate(-883.66 -499.04)"/><path class="cls-6" d="M981,525.83a16.75,16.75,0,0,0,12.8,6.55A16.77,16.77,0,0,0,981,525.83Z" transform="translate(-883.66 -499.04)"/><path class="cls-6" d="M968.14,522.78A16.77,16.77,0,0,0,981,529.33,16.77,16.77,0,0,0,968.14,522.78Z" transform="translate(-883.66 -499.04)"/><path class="cls-6" d="M954.34,522.28a16.76,16.76,0,0,0,13.84,3.92A16.76,16.76,0,0,0,954.34,522.28Z" transform="translate(-883.66 -499.04)"/><path class="cls-6" d="M954.92,514.93a16.74,16.74,0,0,0,13.1,5.94A16.78,16.78,0,0,0,954.92,514.93Z" transform="translate(-883.66 -499.04)"/><path class="cls-6" d="M958.88,507.34a16.78,16.78,0,0,0,11.4,8.77A16.74,16.74,0,0,0,958.88,507.34Z" transform="translate(-883.66 -499.04)"/><path class="cls-6" d="M948.43,506.27a16.75,16.75,0,0,0,12.35,7.38A16.79,16.79,0,0,0,948.43,506.27Z" transform="translate(-883.66 -499.04)"/><path class="cls-6" d="M975.75,510.5a16.77,16.77,0,0,0,10.64,9.69A16.79,16.79,0,0,0,975.75,510.5Z" transform="translate(-883.66 -499.04)"/><path class="cls-6" d="M940,523.87a16.75,16.75,0,0,0,14.36.74A16.76,16.76,0,0,0,940,523.87Z" transform="translate(-883.66 -499.04)"/><path class="cls-6" d="M937.05,516.84a16.72,16.72,0,0,0,14,3.25A16.8,16.8,0,0,0,937.05,516.84Z" transform="translate(-883.66 -499.04)"/><path class="cls-6" d="M936.56,510.74a16.77,16.77,0,0,0,14,3.26A16.76,16.76,0,0,0,936.56,510.74Z" transform="translate(-883.66 -499.04)"/><path class="cls-6" d="M926.53,520.52a16.76,16.76,0,0,0,14.38.33A16.76,16.76,0,0,0,926.53,520.52Z" transform="translate(-883.66 -499.04)"/><path class="cls-6" d="M913.51,519.19a16.76,16.76,0,0,0,14.3-1.51A16.73,16.73,0,0,0,913.51,519.19Z" transform="translate(-883.66 -499.04)"/><path class="cls-6" d="M927.31,528.62a16.73,16.73,0,0,0,14.25-1.9A16.75,16.75,0,0,0,927.31,528.62Z" transform="translate(-883.66 -499.04)"/><path class="cls-6" d="M909.92,533.62a16.78,16.78,0,0,0,13.4-5.24A16.76,16.76,0,0,0,909.92,533.62Z" transform="translate(-883.66 -499.04)"/><path class="cls-6" d="M898.37,541.27A16.74,16.74,0,0,0,911.31,535,16.77,16.77,0,0,0,898.37,541.27Z" transform="translate(-883.66 -499.04)"/><path class="cls-6" d="M911.22,526.38a16.75,16.75,0,0,0,13.57-4.77A16.79,16.79,0,0,0,911.22,526.38Z" transform="translate(-883.66 -499.04)"/><path class="cls-6" d="M969.32,529.24a16.74,16.74,0,0,0,13.47,5A16.76,16.76,0,0,0,969.32,529.24Z" transform="translate(-883.66 -499.04)"/><path class="cls-6" d="M975.33,519.3a16.76,16.76,0,0,0,13.2,5.69A16.71,16.71,0,0,0,975.33,519.3Z" transform="translate(-883.66 -499.04)"/><path class="cls-6" d="M966,538.29a16.76,16.76,0,0,0,14.17,2.44A16.76,16.76,0,0,0,966,538.29Z" transform="translate(-883.66 -499.04)"/><path class="cls-6" d="M954,530.34a16.73,16.73,0,0,0,14.37.52A16.76,16.76,0,0,0,954,530.34Z" transform="translate(-883.66 -499.04)"/><path class="cls-6" d="M940.47,534.12a16.76,16.76,0,0,0,14.32-1.35A16.74,16.74,0,0,0,940.47,534.12Z" transform="translate(-883.66 -499.04)"/><path class="cls-6" d="M930.08,537.79a16.77,16.77,0,0,0,14.32-1.35A16.77,16.77,0,0,0,930.08,537.79Z" transform="translate(-883.66 -499.04)"/><path class="cls-6" d="M916.6,538.94a16.77,16.77,0,0,0,13.75-4.24A16.82,16.82,0,0,0,916.6,538.94Z" transform="translate(-883.66 -499.04)"/><path class="cls-6" d="M904.31,549a16.75,16.75,0,0,0,11.9-8.07A16.76,16.76,0,0,0,904.31,549Z" transform="translate(-883.66 -499.04)"/><path class="cls-6" d="M895.11,548.92a16.8,16.8,0,0,0,12.08-7.81A16.73,16.73,0,0,0,895.11,548.92Z" transform="translate(-883.66 -499.04)"/><path class="cls-6" d="M944,563a16.78,16.78,0,0,0,13.71-4.36A16.75,16.75,0,0,0,944,563Z" transform="translate(-883.66 -499.04)"/><path class="cls-6" d="M973.35,544a10.58,10.58,0,0,0,9.1,0A10.65,10.65,0,0,0,973.35,544Z" transform="translate(-883.66 -499.04)"/><path class="cls-6" d="M951.44,547.05a10.68,10.68,0,0,0,9.11,0A10.6,10.6,0,0,0,951.44,547.05Z" transform="translate(-883.66 -499.04)"/><path class="cls-6" d="M957.12,536.94a10.57,10.57,0,0,0,8.58,3A10.62,10.62,0,0,0,957.12,536.94Z" transform="translate(-883.66 -499.04)"/><path class="cls-6" d="M946,529a10.62,10.62,0,0,0,9-1.29A10.62,10.62,0,0,0,946,529Z" transform="translate(-883.66 -499.04)"/><path class="cls-6" d="M957.67,533.94a10.64,10.64,0,0,0,8.93,1.79A10.61,10.61,0,0,0,957.67,533.94Z" transform="translate(-883.66 -499.04)"/><path class="cls-6" d="M935.92,547.38a10.6,10.6,0,0,0,9.1.38A10.62,10.62,0,0,0,935.92,547.38Z" transform="translate(-883.66 -499.04)"/><path class="cls-6" d="M930.45,542.73a10.63,10.63,0,0,0,9-1.34A10.61,10.61,0,0,0,930.45,542.73Z" transform="translate(-883.66 -499.04)"/><path class="cls-6" d="M943.33,539.14a10.62,10.62,0,0,0,9.1.27A10.63,10.63,0,0,0,943.33,539.14Z" transform="translate(-883.66 -499.04)"/><path class="cls-6" d="M948.58,537.23a10.59,10.59,0,0,0,8.79-2.35A10.58,10.58,0,0,0,948.58,537.23Z" transform="translate(-883.66 -499.04)"/><path class="cls-6" d="M905.82,551.9a10.62,10.62,0,0,0,8.92-1.86A10.65,10.65,0,0,0,905.82,551.9Z" transform="translate(-883.66 -499.04)"/><path class="cls-6" d="M908.78,540.31a10.61,10.61,0,0,0,7.82-4.66A10.6,10.6,0,0,0,908.78,540.31Z" transform="translate(-883.66 -499.04)"/><path class="cls-6" d="M935,533a10.57,10.57,0,0,0,8.75-2.51A10.6,10.6,0,0,0,935,533Z" transform="translate(-883.66 -499.04)"/><path class="cls-6" d="M920.47,532.57a10.64,10.64,0,0,0,9-1.59A10.64,10.64,0,0,0,920.47,532.57Z" transform="translate(-883.66 -499.04)"/><path class="cls-6" d="M930.16,512.52a10.64,10.64,0,0,0,9,1.56A10.62,10.62,0,0,0,930.16,512.52Z" transform="translate(-883.66 -499.04)"/><path class="cls-6" d="M934.39,506.63a10.6,10.6,0,0,0,8.92,1.83A10.62,10.62,0,0,0,934.39,506.63Z" transform="translate(-883.66 -499.04)"/><path class="cls-6" d="M926.91,509.82a10.59,10.59,0,0,0,9.05.93A10.6,10.6,0,0,0,926.91,509.82Z" transform="translate(-883.66 -499.04)"/><path class="cls-6" d="M950.79,502.46a10.59,10.59,0,0,0,7.18,5.6A10.6,10.6,0,0,0,950.79,502.46Z" transform="translate(-883.66 -499.04)"/><path class="cls-6" d="M962.15,504.84a10.64,10.64,0,0,0,6.71,6.16A10.6,10.6,0,0,0,962.15,504.84Z" transform="translate(-883.66 -499.04)"/><path class="cls-6" d="M923,525.69a10.62,10.62,0,0,0,9-1A10.56,10.56,0,0,0,923,525.69Z" transform="translate(-883.66 -499.04)"/><path class="cls-6" d="M907.24,524.8a10.62,10.62,0,0,0,8.34-3.64A10.57,10.57,0,0,0,907.24,524.8Z" transform="translate(-883.66 -499.04)"/><path class="cls-6" d="M906.09,531.32a10.63,10.63,0,0,0,8.35-3.65A10.64,10.64,0,0,0,906.09,531.32Z" transform="translate(-883.66 -499.04)"/><path class="cls-6" d="M899.79,536.24a10.59,10.59,0,0,0,8.34-3.65A10.62,10.62,0,0,0,899.79,536.24Z" transform="translate(-883.66 -499.04)"/><path class="cls-6" d="M924.83,514.21a10.66,10.66,0,0,0,8.81,2.33A10.6,10.6,0,0,0,924.83,514.21Z" transform="translate(-883.66 -499.04)"/><path class="cls-6" d="M967,533.34a10.61,10.61,0,0,0,8.58,3A10.62,10.62,0,0,0,967,533.34Z" transform="translate(-883.66 -499.04)"/><path class="cls-6" d="M984.42,532.16a10.6,10.6,0,0,0,8.11,4.14A10.64,10.64,0,0,0,984.42,532.16Z" transform="translate(-883.66 -499.04)"/><path class="cls-6" d="M988.23,521.08a10.63,10.63,0,0,0,6.17,6.69A10.57,10.57,0,0,0,988.23,521.08Z" transform="translate(-883.66 -499.04)"/><path class="cls-6" d="M986,514.66a10.62,10.62,0,0,0,6.18,6.69A10.59,10.59,0,0,0,986,514.66Z" transform="translate(-883.66 -499.04)"/><path class="cls-6" d="M967.87,517.4a10.58,10.58,0,0,0,7.39,5.31A10.6,10.6,0,0,0,967.87,517.4Z" transform="translate(-883.66 -499.04)"/><path class="cls-6" d="M942.29,505.34a10.6,10.6,0,0,0,7.4,5.31A10.62,10.62,0,0,0,942.29,505.34Z" transform="translate(-883.66 -499.04)"/><path class="cls-6" d="M970.07,513.23a10.59,10.59,0,0,0,7.84,4.64A10.63,10.63,0,0,0,970.07,513.23Z" transform="translate(-883.66 -499.04)"/><path class="cls-6" d="M969.42,507.13a10.62,10.62,0,0,0,6.27,6.6A10.6,10.6,0,0,0,969.42,507.13Z" transform="translate(-883.66 -499.04)"/><path class="cls-6" d="M947.89,516.21a10.62,10.62,0,0,0,8.84,2.17A10.61,10.61,0,0,0,947.89,516.21Z" transform="translate(-883.66 -499.04)"/><path class="cls-6" d="M982.46,542.27a10.59,10.59,0,0,0,9.06,1A10.66,10.66,0,0,0,982.46,542.27Z" transform="translate(-883.66 -499.04)"/><path class="cls-6" d="M968.88,553.59a10.64,10.64,0,0,0,9-1.2A10.62,10.62,0,0,0,968.88,553.59Z" transform="translate(-883.66 -499.04)"/><path class="cls-6" d="M955,556.33a10.6,10.6,0,0,0,9-1.2A10.62,10.62,0,0,0,955,556.33Z" transform="translate(-883.66 -499.04)"/><path class="cls-6" d="M912.63,558.57a10.62,10.62,0,0,0,9,1.55A10.59,10.59,0,0,0,912.63,558.57Z" transform="translate(-883.66 -499.04)"/><path class="cls-6" d="M923,552a10.59,10.59,0,0,0,8.74,2.57A10.64,10.64,0,0,0,923,552Z" transform="translate(-883.66 -499.04)"/><path class="cls-6" d="M893.3,552.49a10.63,10.63,0,0,0,8.86-2.1A10.57,10.57,0,0,0,893.3,552.49Z" transform="translate(-883.66 -499.04)"/><path class="cls-6" d="M901.55,559.08a10.6,10.6,0,0,0,9.09.53A10.59,10.59,0,0,0,901.55,559.08Z" transform="translate(-883.66 -499.04)"/><path class="cls-6" d="M890.22,560.85a9.16,9.16,0,0,0,7.41-2.71A9.22,9.22,0,0,0,890.22,560.85Z" transform="translate(-883.66 -499.04)"/><path class="cls-6" d="M950.64,565.26a10.64,10.64,0,0,0,8.63-2.91A10.59,10.59,0,0,0,950.64,565.26Z" transform="translate(-883.66 -499.04)"/></svg>