<svg id="Vrstva_1" data-name="Vrstva 1" xmlns="http://www.w3.org/2000/svg" xmlns:xlink="http://www.w3.org/1999/xlink" viewBox="0 0 205.52 107.78"><defs><style>.cls-1{fill:#7e4f48;}.cls-2{fill:#cf802f;}.cls-3{fill:url(#linear-gradient);}.cls-4{fill:#432825;}.cls-5{fill:#ea7626;}.cls-6{fill:#262f3d;}.cls-7{fill:#ffeea5;}.cls-8{fill:#111a20;}</style><linearGradient id="linear-gradient" x1="857.72" y1="544.46" x2="1061.28" y2="544.46" gradientUnits="userSpaceOnUse"><stop offset="0.44" stop-color="#7e4f48"/><stop offset="0.45" stop-color="#805148"/><stop offset="0.63" stop-color="#b47140"/><stop offset="0.79" stop-color="#da883b"/><stop offset="0.92" stop-color="#f19737"/><stop offset="1" stop-color="#f99c36"/></linearGradient></defs><title>mravencojed žíhaný</title><path class="cls-1" d="M988.69,545.06c2.43,0,4.9,5.52,4,17.36a5.69,5.69,0,0,0,.38,2.77c.59,1.34,1.64,2.14,3.91,2.14h5.34a.84.84,0,0,0,.77-1.17,2.72,2.72,0,0,0-2.59-1.42c-2.14-.08-3.56-1-2.26-8.07.65-3.57,1-7.7,4.12-13.61C1002.36,543.06,995.77,539.79,988.69,545.06Z" transform="translate(-857.72 -486.74)"/><path class="cls-2" d="M1032.22,486.74c-1.17.19-3.2,6-3.16,8.9a8.41,8.41,0,0,0,2,5.54,1.35,1.35,0,0,0,.27.2l2.45-1.07C1034.79,494.05,1033.31,486.57,1032.22,486.74Z" transform="translate(-857.72 -486.74)"/><path class="cls-3" d="M1059.09,506.53c-3.92-1.56-9.35-3.67-10.3-4.71s-5.35-5.15-13.2-5.89a14.21,14.21,0,0,1,.5-1.52l-1.07,1.47a30.71,30.71,0,0,0-8.9.72H972.35c-15.81,0-28.69,3.95-42.23,30.6-16.06,31.61-38,51.64-50.87,45.44-4.78-2.29-8.77-8.62-6.3-14.63-3.55-.11-8.28,3.27-9.18,7.76-1.32-.52-1.41-3.16-1.23-3.59s-2.09,3.54.3,6.91c-1,0-2.39-1.48-2.39-1.48-.47.8,1,3.92,2.09,4.85-1,.55-4.07-1.42-4.35-1.79s-.09,2,3.4,4.62c-.87.71-3.5-.78-3.85-1.23-.29,1.34,2.49,3.56,4.22,4.82-.78.94-3.67-.5-3.77-.7.14,2.1,3.36,4.24,4.43,4.46-.83.81-3-.21-3.39-.57.18,2.67,4.64,3.6,5.34,3.74-.48,1.15-3.91.52-4.46,0-.13,1.46,4.19,3.58,6.75,2.55-.51,1.23-2.89,1.28-2.89,1.28,1,1.44,4.08.49,4.94.45,0,.82-1.27,1.94-2.55,2.06.83,1.65,5.44.21,6.22.21.16.61-1,1.31-1.81,1.77,1.16.65,5.72-.79,5.72-.79a2.09,2.09,0,0,1-.58,1.14c11.07.53,29.78-4,39.72-21.76,10.7-19.1,17.62-31.77,21.9-32.1,2-.16,4.76,2,8,4.55-.2.82-.46,2-.6,2.84.59-.24,2.14-.9,2.89-1.17a23,23,0,0,1-1.42,4.78,14.84,14.84,0,0,1,4.26-2.63c.35.23.69.45,1,.66-.87,1.39-1.77,3.27-1.77,3.27a20.19,20.19,0,0,1,3.9-2.11l.87.39c-.39,1.47-2.53,3.43-2.53,3.43,1.69-.94,4.4-2.47,5.33-2.57-2.16,2-4,5.92-4.52,9.09,0,0,2.19,1.32,8.76.17,4.24-.88,11-7.7,10.87-16.13,2.91,0,25.56-.13,28.11-.13s5,7.77,4,17.41a5.36,5.36,0,0,0,.4,2.74c.59,1.32,1.64,2.12,3.9,2.12h5.34a.84.84,0,0,0,.77-1.17,2.73,2.73,0,0,0-2.59-1.42c-2.14-.08-3.76-1.08-2.47-8.18s.66-16,25.33-36.5a15.8,15.8,0,0,1,3.52-2.24c5.76-2.62,18.79-6.92,21.84-7.44a3.83,3.83,0,0,0,.58-.16A3.67,3.67,0,0,1,1059.09,506.53Z" transform="translate(-857.72 -486.74)"/><path class="cls-4" d="M1042.1,488.39c-1.15-.3-5.3,4.19-6.44,6.9a8.34,8.34,0,0,0-.34,5.89,1.64,1.64,0,0,0,.16.29h2.67C1041.55,496.11,1043.17,488.67,1042.1,488.39Z" transform="translate(-857.72 -486.74)"/><path class="cls-4" d="M952.77,562.56a12.43,12.43,0,0,1,.16-1.41c.55-3.17,2.36-7.08,4.52-9.09-1.42-.26-2.47-1.53-4.22-1.53-2.17,2-4.69,7.45-5.24,10.62a12.43,12.43,0,0,0-.16,1.41,2.82,2.82,0,0,0,2.83,2.92h4.94A2.82,2.82,0,0,1,952.77,562.56Z" transform="translate(-857.72 -486.74)"/><path class="cls-5" d="M952.93,561.15a12.43,12.43,0,0,0-.16,1.41,2.82,2.82,0,0,0,2.83,2.92h23.91a.44.44,0,0,0,.27-.79c-3.64-2.58-18.09-3.37-18.09-3.37C955.12,562.47,952.94,561.16,952.93,561.15Z" transform="translate(-857.72 -486.74)"/><path class="cls-6" d="M1063.23,508.4c.08-.17-1.74-.91-4.14-1.87a3.67,3.67,0,0,0,2.19,3.69A3.83,3.83,0,0,0,1063.23,508.4Z" transform="translate(-857.72 -486.74)"/><path class="cls-7" d="M1039.42,506.6c.06,1.15.42,3.62,2.26,3.62,2.41,0,14.39-.49,14.39-2.41C1053.13,508,1040.54,506.89,1039.42,506.6Z" transform="translate(-857.72 -486.74)"/><path class="cls-4" d="M1038.26,503.5l.26,2.89a45.39,45.39,0,0,0,17.55,1.42C1052.48,507.5,1039.53,504,1038.26,503.5Z" transform="translate(-857.72 -486.74)"/><path class="cls-7" d="M1050.79,506.6a3.37,3.37,0,1,1-3.36-3.36A3.36,3.36,0,0,1,1050.79,506.6Z" transform="translate(-857.72 -486.74)"/><path class="cls-6" d="M1049.1,506.6a1.67,1.67,0,1,1-1.67-1.67A1.67,1.67,0,0,1,1049.1,506.6Z" transform="translate(-857.72 -486.74)"/><path class="cls-8" d="M964.57,530.05c-1.4-3.2-3-6.29-4.75-9.35s-3.57-6-5.5-9l-1.46-2.19-1.5-2.16c-.79-1.11-2.16-2.63-3.25-3.93a37,37,0,0,0-3.63,3.07c2.22,2.29,5,5.12,6.92,7.41,2.21,2.63,4.36,5.31,6.38,8.08,4,5.55,7.78,11.38,10.19,17.86A60.28,60.28,0,0,0,964.57,530.05Z" transform="translate(-857.72 -486.74)"/><path class="cls-8" d="M956.74,538.57a74.79,74.79,0,0,1-7.33-6.79c-2.28-2.42-4.42-5-6.45-7.59-.51-.66-1-1.31-1.5-2s-1-1.34-1.44-2c-.74-1-2.24-2.94-3.27-4.36-.88,1.3-1.77,2.68-2.66,4.16.88,1,1.82,2,2.6,2.87.57.64,1.15,1.27,1.74,1.9s1.19,1.24,1.79,1.85c2.4,2.44,4.91,4.77,7.53,7a77,77,0,0,0,8.3,6,46.65,46.65,0,0,0,9.21,4.35A46.26,46.26,0,0,1,956.74,538.57Z" transform="translate(-857.72 -486.74)"/><path class="cls-8" d="M1002.3,505.52c-.24,3.17-.56,6.33-1,9.47-.19,1.58-.46,3.14-.71,4.71s-.57,3.12-1,4.65a42.57,42.57,0,0,1-3,9,42.65,42.65,0,0,0,4.16-8.66c.59-1.51,1.06-3.05,1.57-4.58s.93-3.1,1.33-4.66q1.24-4.68,2.22-9.44c.45-2.23.88-6.15,1.26-9.42h-4.5C1002.6,499.74,1002.46,503.42,1002.3,505.52Z" transform="translate(-857.72 -486.74)"/><path class="cls-8" d="M990.19,526.61a95.13,95.13,0,0,1-1.67,11,95,95,0,0,0,2.87-10.81c.8-3.66,1.41-7.35,2-11s1-7.41,1.47-11.13c.24-2.07.68-5.09,1.07-8h-4.34c-.17,2.86-.37,5.8-.38,7.81,0,3.71-.08,7.41-.25,11.12S990.57,522.93,990.19,526.61Z" transform="translate(-857.72 -486.74)"/><path class="cls-8" d="M975.06,539.14a90.48,90.48,0,0,0-.77-11.37c-.52-3.77-1.19-7.54-2-11.27s-1.85-7.44-3-11.1c-.56-1.84-1.14-3.67-1.77-5.49-.27-.8-.67-1.92-1.09-3.07a42.67,42.67,0,0,0-4.69.65c.67,1.45,1.37,3,1.83,4q1.19,2.55,2.29,5.14,2.2,5.18,4.06,10.51c1.23,3.56,2.28,7.17,3.19,10.83A88.92,88.92,0,0,1,975.06,539.14Z" transform="translate(-857.72 -486.74)"/><path class="cls-8" d="M976.85,497.73c.21.93.39,1.86.6,2.79l.54,2.81q1,5.63,1.63,11.33a110.88,110.88,0,0,1,.16,23,111.45,111.45,0,0,0,2.27-23.1q0-5.83-.44-11.69l-.25-2.92c-.1-1-.19-1.94-.31-2.92,0-.12,0-.26,0-.4h-4.42C976.68,497,976.78,497.42,976.85,497.73Z" transform="translate(-857.72 -486.74)"/></svg>