<svg id="Vrstva_1" data-name="Vrstva 1" xmlns="http://www.w3.org/2000/svg" viewBox="0 0 163.97 171.44"><defs><style>.cls-1{fill:#0f1314;}.cls-2{fill:#152026;}.cls-3{fill:#dfe8e7;}.cls-4{fill:#676767;}.cls-5{fill:#f04c3d;}.cls-6{fill:#262f3d;}.cls-7{fill:#e6d89a;}.cls-8{fill:#9c2720;}</style></defs><title>tasmánský čert</title><path class="cls-1" d="M943,605.51c-2.56-2.44-10.73-6-21.88,4.36-5.08,4.73-12.85,6.1-19.55,4.57a16.9,16.9,0,0,1-9.86-6.05,14.57,14.57,0,0,1-2.39-12.85c1.9-6.46,7.86-10.6,14.13-12.24a76.7,76.7,0,0,1,9.86-1.19h3.49c0-.62-.91-7-1.34-7-.75-.06-1.51-.11-2.26-.15a48.87,48.87,0,0,0-7.84.28,44.28,44.28,0,0,0-7.11,1.5,26.72,26.72,0,0,0-17,14.69,24.41,24.41,0,0,0,4.51,25.77c5.7,6.33,14.62,9.5,23,9.39,9-.12,17.65-4.14,24.35-10C933.4,616.28,943.62,606.08,943,605.51Z" transform="translate(-879.36 -455.11)"/><path class="cls-2" d="M1028.75,457.26a11.38,11.38,0,0,1-3.85-.34c-6.16-1.64-20.28-2.46-35.89,15.53-6.28,7.24-11.32,13.53-17.4,11-12.23-5-81.23-3-55.1,98.63h52s-1.43-6.17-12.7-6.17c9.12-1.31,18.12-21.55,19.64-24.77,2.59,4.11,8,28.61,8,30.94h17.79c-.8-3.49-5.81-6.26-10.46-5.54,0-4.57-1.46-33.06,4.62-36.76s24.92-29.57,25.88-45.54c.16-4.56,6.38-5.32,13.87-4.6a3.85,3.85,0,0,0,3.89-2.13c.16-.35.21-.61.12-.71-.27-.27-13.86-3.26-17.62-7.11.72-2.21,3.23-5.43,6.19-7.82C1022.69,467.09,1026.28,460.58,1028.75,457.26Z" transform="translate(-879.36 -455.11)"/><path class="cls-3" d="M994.14,498.14c.24,1.33,4.65,9.58,9,13a4.67,4.67,0,0,1,2.07,3.49c0,5.34,1.29,8.69,4.75,7.5a107.34,107.34,0,0,0,6.24-11.2C1005.05,507.34,996.73,501.36,994.14,498.14Z" transform="translate(-879.36 -455.11)"/><path class="cls-4" d="M995.76,473.82l.12-.1Z" transform="translate(-879.36 -455.11)"/><path class="cls-2" d="M1003,463.4c-2.14-2.43-7.55-3.82-7.56-3.82,1.82.94-1.26,2.06-.6,4.08a20.89,20.89,0,0,0,1.37,3.66c.6,1.4,1.9,4,0,6.05C998.14,471.55,1004.59,465.21,1003,463.4Z" transform="translate(-879.36 -455.11)"/><path class="cls-5" d="M996.61,466.82a.36.36,0,0,0-.41.5c.7,1.63,2.23,5-1.05,6.92-4.23,2.44-5.09-2.57-6.14-5.85-.64-2-2.37-6.14,0-9,1.69-2,9-.27,10.56,4.65C1000.59,467.18,998.12,467.15,996.61,466.82Z" transform="translate(-879.36 -455.11)"/><path class="cls-6" d="M1043.25,459.14c-.78.26-6,1.53-5.2-2.13a3.25,3.25,0,0,1,1.12-1.9c-1.12.25-5.84,1.53-9.65,2.07-.26,0-.52.06-.77.08-2.47,3.32-6.06,9.83-1,14.64,2.18-1.75,4.62-3.06,6.78-3.18,5.1-.27,8.76-6.53,8.76-8.94A3.48,3.48,0,0,0,1043.25,459.14Z" transform="translate(-879.36 -455.11)"/><path class="cls-7" d="M1034.42,468.73s1.52,4,1.52,4l1.87-5A7.19,7.19,0,0,1,1034.42,468.73Z" transform="translate(-879.36 -455.11)"/><path class="cls-7" d="M1033.81,481l-2.91,3.31c1,.34,2,.65,2.92.92Z" transform="translate(-879.36 -455.11)"/><path class="cls-7" d="M1038.38,481.94l-3.28,3.71,3.29.92Z" transform="translate(-879.36 -455.11)"/><path class="cls-8" d="M1031.92,469.37a17.53,17.53,0,0,0-4.14,2.53c-3,2.39-5.47,5.61-6.19,7.82,1.5,1.54,4.57,2.93,7.73,4.08A16.66,16.66,0,0,1,1031.92,469.37Z" transform="translate(-879.36 -455.11)"/><path class="cls-5" d="M1027.78,471.9c2.18-1.75,4.62-3.06,6.78-3.18,2.89-.15,5.32-2.24,6.89-4.46a56.45,56.45,0,0,0-12.87,5.29,19.13,19.13,0,0,0-7,8.26c-.2.43-.86,1.45-.77,1.94.29,1.73,9,7.84,18.42,7.08-.27-.27-13.86-3.26-17.62-7.11C1022.31,477.51,1024.82,474.29,1027.78,471.9Z" transform="translate(-879.36 -455.11)"/></svg>