<svg xmlns="http://www.w3.org/2000/svg" xmlns:xlink="http://www.w3.org/1999/xlink" viewBox="0 0 218.03 197.81"><defs><style>.cls-1{isolation:isolate;}.cls-2{fill:#a79632;}.cls-3,.cls-8{fill:#89782e;}.cls-4{fill:#bfae30;}.cls-5{fill:#d8c347;}.cls-6{fill:#cf6a28;}.cls-7{fill:url(#linear-gradient);}.cls-8{mix-blend-mode:screen;}.cls-9{mix-blend-mode:multiply;}.cls-10{fill:#aea69f;}.cls-11{fill:#ce6f51;}.cls-12{fill:#dee89a;}.cls-13{fill:#f3f3f3;}.cls-14{fill:#152026;}.cls-15{fill:#f79984;}</style><linearGradient id="linear-gradient" x1="1013.35" y1="546.35" x2="942.9" y2="459.88" gradientUnits="userSpaceOnUse"><stop offset="0" stop-color="#ea7626"/><stop offset="1" stop-color="#a79632"/></linearGradient></defs><title>agama límcová</title><g class="cls-1"><g id="Vrstva_1" data-name="Vrstva 1"><path class="cls-2" d="M1068.55,563.43c-1-1-7.87,4.91-8.51,4.46-.4-.28,2-2.7,1.49-2.88-1.51-.49-6.62,4.51-10.15,7.5a1.8,1.8,0,0,1-2.08,0L1024,557.42a5.42,5.42,0,0,1-.83-.59l-6,13,.36.18,29.31,12.75c2.52,1.09,15.47-4.66,9.38-5.8,2.43-1.15,12.52-6.59,5.24-6.14C1063.08,569.77,1069.49,564.41,1068.55,563.43Z" transform="translate(-850.61 -442.09)"/><path class="cls-3" d="M1025.71,602.14c-2.11-1.34-5.79-.82-5.92-1.43-.08-.39,4.15-.22,5.11-.36a.34.34,0,0,0,.14-.61c-1.43-1.12-6.61-1.53-7.51-1.78,6.87-1.18-4.18-2.15-10.84-2.3,3.15-2.59-5.53-.78-6.44-1.72-.37-.37-2-5.05-3.92-10.54l-9.19,9.19c.34.85.63,1.57.85,2,1,2.18-.61,3.16.44,4.94,5,4.94,16,5.61,19.37,5.91s3-.86,1.1-2.2c4.65.28,13.55.42,16.65-.24A.5.5,0,0,0,1025.71,602.14Z" transform="translate(-850.61 -442.09)"/><path class="cls-4" d="M982.4,526.68c-16.59,41.17-44.24,56.79-79.93,63.1-8.64,1.53-14.42,1.21-19.23,2.41-6,1.5-11.83,7.31-10.48,12.14a9.91,9.91,0,0,0,6.48,7.11h50.5l.36,0c32.11-3.59,55.31-29.45,58.16-32.6,2.38-2.63,13.2-15.57,30-18.78a65.84,65.84,0,0,0,5.06-25.55C1023.27,487.6,983.31,524.44,982.4,526.68Z" transform="translate(-850.61 -442.09)"/><path class="cls-2" d="M988.26,578.82c-2.85,3.15-26,29-58.16,32.6,7.09-.33,13-.6,16.25-.6,16.71,0,57.54-16.49,71.86-50.78C1001.46,563.25,990.64,576.19,988.26,578.82Z" transform="translate(-850.61 -442.09)"/><path class="cls-5" d="M1011.82,630.21a.5.5,0,0,0,.35-.86c-1.8-1.74-5.5-2-5.5-2.61,0-.4,4.1.63,5.06.7a.35.35,0,0,0,.27-.58c-1.17-1.38-6.15-2.84-7-3.27,7,.25-3.66-3-10.15-4.46,3.61-1.9-5.25-1.9-6-3-.48-.77-2.2-15.09-3.2-23.8a7.45,7.45,0,0,0-7.41-6.6H957.23a10.58,10.58,0,0,0-10.63,10.56A10.36,10.36,0,0,0,957,606.46c9.07.06,15.33-3.51,17.6-3.56.67,1.46,1.68,9.08,2.21,11.41s-1.24,3-.58,4.92C980.1,625.09,990.72,628,994,629s3.13-.22,1.53-1.93C1000,628.27,1008.66,630.22,1011.82,630.21Z" transform="translate(-850.61 -442.09)"/><path class="cls-5" d="M1047.22,610.12c0-1.37-9.07-1.92-9.22-2.68-.1-.49,3.35-.54,3.07-1.05-.75-1.4-7.9-1.34-12.52-1.63a1.82,1.82,0,0,1-1.5-1.43c-1.37-5-6.13-22.47-7.74-28.4a6.7,6.7,0,0,1,.11-3.94s8.84-18.83,9.16-24c.4-6.38-2.39-10.06-7-10.39h-.5c-4,0-6.09,3.41-7.31,7.67l-8.14,30.87a6.8,6.8,0,0,0,.3,4.32c2.8,6.74,11.4,27.42,12.29,29.52,1,2.53,14.38,7.37,10.77,2.32,2.55.86,13.6,3.94,8-.79C1038.89,610.89,1047.22,611.48,1047.22,610.12Z" transform="translate(-850.61 -442.09)"/><path class="cls-5" d="M893.37,617.92a22,22,0,0,0-3.52-4.1c-15.62-14.42-12-19.1-12-19.1-15.25,11.72-1.59,24.65,2.39,26.91s6.61,6,7.21,9A14.54,14.54,0,0,0,893.37,617.92Z" transform="translate(-850.61 -442.09)"/><path class="cls-4" d="M893.37,617.92a14.54,14.54,0,0,1-5.92,12.73c-5.38,4.31-29.23,5.9-34.15,6.19a2.92,2.92,0,0,0-2.47,1.54c-.38.76-.31,1.52.6,1.52h24.43c5.7,0,11.61-1.67,14.44-3.82C894,633.32,898.6,626,893.37,617.92Z" transform="translate(-850.61 -442.09)"/><path class="cls-3" d="M970.71,581.07c-1.72.89-3.58.7-4.15-.42s.35-2.74,2.07-3.62,3.58-.69,4.15.42S972.43,580.19,970.71,581.07Z" transform="translate(-850.61 -442.09)"/><path class="cls-3" d="M972.75,571.61c-.94.87-2.16,1.08-2.72.47s-.26-1.82.68-2.68,2.16-1.09,2.72-.48S973.69,570.74,972.75,571.61Z" transform="translate(-850.61 -442.09)"/><path class="cls-3" d="M926.36,605.87c-1.46.49-2.9.12-3.22-.83s.61-2.11,2.07-2.6,2.9-.11,3.21.83S927.81,605.39,926.36,605.87Z" transform="translate(-850.61 -442.09)"/><path class="cls-3" d="M919.36,603.61c-.83-.07-1.47-.58-1.42-1.12s.77-.92,1.61-.85,1.47.59,1.42,1.13S920.2,603.69,919.36,603.61Z" transform="translate(-850.61 -442.09)"/><path class="cls-3" d="M929.38,597.48c-.47,0-.82-.32-.79-.63s.42-.51.89-.47.82.33.79.63S929.84,597.52,929.38,597.48Z" transform="translate(-850.61 -442.09)"/><path class="cls-3" d="M898.15,598.21c-.65-.07-1.14-.46-1.1-.88s.6-.71,1.25-.65,1.14.45,1.1.87S898.8,598.27,898.15,598.21Z" transform="translate(-850.61 -442.09)"/><path class="cls-3" d="M894.63,600.26c-.44.21-.9.15-1-.13s.11-.68.54-.89.9-.14,1,.14S895.06,600.06,894.63,600.26Z" transform="translate(-850.61 -442.09)"/><path class="cls-3" d="M972.32,564.37c-.58.27-1.2.19-1.38-.19s.15-.9.73-1.18,1.2-.19,1.37.19S972.9,564.1,972.32,564.37Z" transform="translate(-850.61 -442.09)"/><path class="cls-3" d="M965.35,575.43c-.63.1-1.2-.15-1.27-.56s.39-.83,1-.93,1.2.14,1.26.56S966,575.32,965.35,575.43Z" transform="translate(-850.61 -442.09)"/><path class="cls-6" d="M1039.37,531.05c-16.32-24.95-7.77-41-5.9-43.94l-6.37.41c-8.11,11.21-6.41,40.75,1.28,51.41,1,1.36,3.13,2.15,4.23,1.38s.78-2.75-.24-4.35c1,1.6,2.65,2.67,3.75,1.9s.77-2.75-.25-4.36c1,1.61,2.65,2.69,3.76,1.92S1040.42,532.65,1039.37,531.05Z" transform="translate(-850.61 -442.09)"/><path class="cls-2" d="M1003.81,462.38a58.8,58.8,0,0,1,8.81-4.24,14.19,14.19,0,0,1,1.79-4.86c1.26-2.22,1.1-2.62-.6-2.52,2.6-3.21.3-3.66-.91-3.76,2.46-7-2.55-4.16-3.15-3.16-.58-3.3-1.93-1.18-2.7.23-3.68,6.49-5,20.05-5,20.05A11.31,11.31,0,0,1,1003.81,462.38Z" transform="translate(-850.61 -442.09)"/><path class="cls-7" d="M1027.1,487.52c-5.43.31-10.92.6-12.44.6-15.3,0-15.56-14.93-12.89-23.67l-.06-.33A31.08,31.08,0,0,1,996,452.86c-.28-.95-.55-1.9-.84-2.61s-.62-1.19-1.09-1.23c-.83-.08-1.69,1.29-2.14,3h-.06a7,7,0,0,0,0-2.11c-.14-.77-.42-1.32-.92-1.45-.88-.24-1.91,1-2.56,2.64l-.05,0a7.19,7.19,0,0,0,.22-2.09c0-.78-.28-1.36-.85-1.55-1-.33-2,.95-2.63,2.6h0c.36-1.71.15-3.35-.88-3.6s-2,1.14-2.4,2.84h0c.22-1.74-.12-3.37-1.17-3.53s-1.86,1.31-2.17,3h0c.08-1.76-.39-3.36-1.46-3.44s-1.75,1.46-1.9,3.22h0c-.06-1.76-.67-3.34-1.74-3.31s-1.63,1.62-1.61,3.39c-.26-1.75-1-3.28-2.08-3.14s-1.47,1.78-1.29,3.54c-.41-1.72-1.32-3.18-2.37-2.94s-1.29,1.92-.92,3.66h0a6.37,6.37,0,0,0-1-2c-.5-.61-1.09-.95-1.64-.75a1.57,1.57,0,0,0-.88,1.56,6.11,6.11,0,0,0,.35,2.18h0c-.74-1.62-1.92-2.84-2.91-2.41s-.87,2.14-.15,3.77c-.92-1.53-2.21-2.6-3.16-2.07-.52.27-.66.95-.53,1.72a6.35,6.35,0,0,0,.78,2l0,0c-1-1.42-2.48-2.4-3.33-1.75a1.57,1.57,0,0,0-.37,1.76,6.33,6.33,0,0,0,1,1.94l0,0c-1.18-1.32-2.66-2.11-3.48-1.42s-.19,2.28.95,3.62l0,0a6.41,6.41,0,0,0-1.78-1.2c-.74-.31-1.4-.31-1.79.12-.72.78,0,2.27,1.25,3.51l0,0c-1.4-1.08-3-1.59-3.65-.77s.18,2.25,1.52,3.39l0,0c-1.46-1-3.07-1.34-3.68-.5s.35,2.23,1.74,3.27l0,0c-1.53-.84-3.16-1.13-3.69-.24s.48,2.19,1.94,3.14l0,.05a6.67,6.67,0,0,0-2-.62c-.79-.08-1.43.09-1.68.6-.46.92.6,2.15,2.1,3V472c-1.62-.66-3.27-.76-3.69.19s.73,2.12,2.28,2.89l0,0c-1.64-.55-3.29-.53-3.64.44s.85,2.06,2.44,2.74c0,0,0,0,0,0-1.68-.44-3.31-.32-3.61.66s1,2,2.59,2.58v.05c-1.69-.34-3.32-.14-3.56.86s1.07,1.94,2.73,2.44V485c-1.71-.26-3.31,0-3.51,1s1.16,1.88,2.84,2.3v0c-1.72-.16-3.3.21-3.45,1.22s1.26,1.82,3,2.16v0c-1.73-.08-3.28.38-3.38,1.39s1.34,1.76,3,2v.05c-1.73,0-3.26.53-3.31,1.55s1.43,1.68,3.15,1.85v0c-1.72.09-3.24.69-3.22,1.71s1.51,1.62,3.24,1.69v.05c-1.72.18-3.19.86-3.14,1.88s1.6,1.54,3.33,1.52v0c-1.71.27-3.14,1-3,2s1.69,1.45,3.42,1.33V509c-1.7.36-3.09,1.2-2.92,2.21s1.77,1.36,3.49,1.14c0,0,0,0,0,0-1.67.46-3,1.38-2.79,2.39s1.85,1.25,3.56.92v0c-1.64.56-2.94,1.57-2.65,2.56s1.94,1.13,3.63.69l0,0c-1.62.66-2.84,1.75-2.49,2.73s2,1,3.68.43c0,0,0,0,0,0-1.58.78-2.73,1.95-2.29,2.91s2.1.84,3.71.15l0,0c-1.51.9-2.59,2.17-2.07,3.09s2.17.68,3.72-.15l0,0c-1.43,1-2.42,2.38-1.82,3.26a1.58,1.58,0,0,0,1.74.42,6.55,6.55,0,0,0,2-.89l0,0c-1.36,1.13-2.21,2.57-1.55,3.41s2.27.29,3.66-.8c-1.23,1.27-1.95,2.78-1.22,3.56s2.31.08,3.59-1.14l0,0a6.49,6.49,0,0,0-1.14,1.87,1.33,1.33,0,0,0,2,1.71,6.43,6.43,0,0,0,1.66-1.41l0,0a6.56,6.56,0,0,0-1,2c-.2.77-.11,1.43.38,1.75a1.57,1.57,0,0,0,1.78-.22,6.5,6.5,0,0,0,1.53-1.56l0,0c-.87,1.54-1.15,3.21-.24,3.77s2.24-.56,3.15-2.09c-.7,1.64-.84,3.32.13,3.78.53.26,1.14,0,1.71-.55a6.27,6.27,0,0,0,1.23-1.79h0c-.58,1.67-.59,3.39.42,3.74s2.1-.91,2.74-2.57c-.41,1.73-.27,3.4.75,3.7s2-1.08,2.54-2.76h0c-.31,1.73,0,3.42,1,3.62s1.94-1.21,2.34-2.94h0c-.2,1.77.18,3.39,1.22,3.54s1.85-1.33,2.15-3.07h0c-.08,1.77.4,3.37,1.44,3.47s1.76-1.44,1.95-3.2h0c0,1.77.59,3.37,1.63,3.37s1.68-1.52,1.78-3.29h0a6.69,6.69,0,0,0,.45,2.13c.31.71.77,1.17,1.34,1.15,1,0,1.6-1.59,1.62-3.36h0c.19,1.75.91,3.26,1.94,3.19s1.53-1.67,1.47-3.44h0c.27,1.74,1,3.22,2.07,3.11s1.46-1.74,1.34-3.5h0c.33,1.73,1.16,3.18,2.19,3s1.38-1.79,1.2-3.55h0c.4,1.72,1.28,3.14,2.29,3s1.33-1.84,1.08-3.59h0c.46,1.71,1.38,3.1,2.39,2.9s1.27-1.89,1-3.64h0c.5,1.7,1.47,3.07,2.47,2.83s1.22-1.93.87-3.67h0c.55,1.69,1.56,3,2.55,2.77s1.17-2,.78-3.69c.62,1.67,1.66,3,2.65,2.7s1.12-2,.68-3.71c.67,1.66,1.74,3,2.72,2.64s1.07-2,.6-3.73c.7,1.65,1.8,3,2.77,2.6s1-2,.52-3.77c.73,1.64,1.86,2.93,2.83,2.57s1-2.08.44-3.79c.76,1.63,1.92,2.89,2.88,2.52s1-2.1.37-3.81c.78,1.63,2,2.87,2.92,2.48s1.56-2,.89-4.52C1022.15,516.24,1021.52,497.24,1027.1,487.52Z" transform="translate(-850.61 -442.09)"/><path class="cls-8" d="M1014.51,488.12l-3.59-.7c-4,9.66-20.47,55.79-21,58.91C989.89,546.33,1010,497.45,1014.51,488.12Z" transform="translate(-850.61 -442.09)"/><path class="cls-8" d="M1006.79,486.35l-2.74-2.32c-9.42,8.09-54,48.22-55.15,50C948.9,534,997,494,1006.79,486.35Z" transform="translate(-850.61 -442.09)"/><path class="cls-8" d="M999.82,476.77c-5,.69-10,1.21-15,1.62s-10.08.67-15.13.76a144.13,144.13,0,0,1-15.13-.5c-2.51-.25-5-.58-7.49-1.07a39.11,39.11,0,0,1-7.26-2.09A39,39,0,0,0,947,478a76.1,76.1,0,0,0,7.48,1.49,143.65,143.65,0,0,0,15.21,1.35c5.1.2,10.19.21,15.29.08s10.69-.33,15.81-.75Z" transform="translate(-850.61 -442.09)"/><g class="cls-9"><path class="cls-10" d="M947,505.75a2.11,2.11,0,1,1-2.11-2.11A2.11,2.11,0,0,1,947,505.75Z" transform="translate(-850.61 -442.09)"/><path class="cls-10" d="M959.92,507.85a1.86,1.86,0,1,1-1.86-1.85A1.85,1.85,0,0,1,959.92,507.85Z" transform="translate(-850.61 -442.09)"/><path class="cls-10" d="M970.26,499.74a2,2,0,1,1-2-2A2,2,0,0,1,970.26,499.74Z" transform="translate(-850.61 -442.09)"/><path class="cls-10" d="M964.07,512.26a1.2,1.2,0,1,1-1.2-1.21A1.2,1.2,0,0,1,964.07,512.26Z" transform="translate(-850.61 -442.09)"/><path class="cls-10" d="M979.6,525.48a1.2,1.2,0,1,1-2.4,0,1.2,1.2,0,1,1,2.4,0Z" transform="translate(-850.61 -442.09)"/><path class="cls-10" d="M975.54,535a2.13,2.13,0,1,1-2.13-2.12A2.12,2.12,0,0,1,975.54,535Z" transform="translate(-850.61 -442.09)"/><path class="cls-10" d="M988.26,530.31a.73.73,0,0,1-.72.73.73.73,0,0,1-.73-.73.73.73,0,0,1,.73-.72A.72.72,0,0,1,988.26,530.31Z" transform="translate(-850.61 -442.09)"/><path class="cls-10" d="M992.67,511.56a1.25,1.25,0,1,1-1.25-1.26A1.25,1.25,0,0,1,992.67,511.56Z" transform="translate(-850.61 -442.09)"/><path class="cls-10" d="M1019,522.27a1.65,1.65,0,1,1-1.65-1.65A1.65,1.65,0,0,1,1019,522.27Z" transform="translate(-850.61 -442.09)"/><path class="cls-10" d="M1015,512.94a1,1,0,1,1-1-1A1,1,0,0,1,1015,512.94Z" transform="translate(-850.61 -442.09)"/><path class="cls-10" d="M1010.55,532.19a2.51,2.51,0,1,1-2.5-2.51A2.5,2.5,0,0,1,1010.55,532.19Z" transform="translate(-850.61 -442.09)"/><path class="cls-10" d="M1002.61,527.66a.9.9,0,1,1-.9-.91A.9.9,0,0,1,1002.61,527.66Z" transform="translate(-850.61 -442.09)"/><path class="cls-10" d="M1011.38,523.45a.83.83,0,1,1-.83-.83A.83.83,0,0,1,1011.38,523.45Z" transform="translate(-850.61 -442.09)"/><path class="cls-10" d="M1000.25,502.49a1.15,1.15,0,1,1-1.15-1.15A1.14,1.14,0,0,1,1000.25,502.49Z" transform="translate(-850.61 -442.09)"/><path class="cls-10" d="M1011.38,507.07a.83.83,0,1,1-.83-.82A.83.83,0,0,1,1011.38,507.07Z" transform="translate(-850.61 -442.09)"/><circle class="cls-10" cx="128.58" cy="57.25" r="0.95"/></g><path class="cls-11" d="M1043.05,461.24c-2.87,1.28-12.37,6.39-20.34,10.48L1012.45,477c1.39.27,13.76,3.06,15.34,3.42C1027.07,477.38,1028.47,471.83,1043.05,461.24Z" transform="translate(-850.61 -442.09)"/><path class="cls-12" d="M1036.58,466.29c.37.48.78.75,1.13.61s.49-.93.28-1.76C1037.5,465.53,1037,465.92,1036.58,466.29Z" transform="translate(-850.61 -442.09)"/><path class="cls-12" d="M1035.18,467.51c.38.51.82.81,1.18.67s.49-1,.24-1.9C1036.1,466.7,1035.63,467.11,1035.18,467.51Z" transform="translate(-850.61 -442.09)"/><path class="cls-12" d="M1033.77,468.84c.4.6.88,1,1.28.81s.49-1.18.16-2.16C1034.7,468,1034.21,468.4,1033.77,468.84Z" transform="translate(-850.61 -442.09)"/><path class="cls-12" d="M1032.46,470.18c.4.56.85.91,1.23.75s.5-1.19.16-2.17C1033.35,469.25,1032.89,469.72,1032.46,470.18Z" transform="translate(-850.61 -442.09)"/><path class="cls-12" d="M1030.85,472.08c.45.5.94.76,1.35.59.64-.26.68-1.37.34-2.57C1031.9,470.79,1031.34,471.45,1030.85,472.08Z" transform="translate(-850.61 -442.09)"/><path class="cls-4" d="M1040.7,483.51c-1-.4-24.64-5.81-28.25-6.51,0,0,24.1-12.46,30.49-15.48a.59.59,0,0,0,.16-1c-14-13.79-39.29,1.83-39.29,1.83-6,3.92-8.26,19.63-6.65,21.23,3.24,3.24,11,4.51,17.5,4.51,3.1,0,22.63-1.2,24.64-1.31S1041.7,483.91,1040.7,483.51Z" transform="translate(-850.61 -442.09)"/><path class="cls-12" d="M1037.56,481.25c-.44-.09-.85.46-1.1,1.19l1.62.39C1038.16,482.05,1038,481.35,1037.56,481.25Z" transform="translate(-850.61 -442.09)"/><path class="cls-12" d="M1035.84,480.28c-.59-.12-1.15.67-1.45,1.67l2.08.5C1036.62,481.39,1036.43,480.41,1035.84,480.28Z" transform="translate(-850.61 -442.09)"/><path class="cls-12" d="M1033.79,479.34c-.71-.15-1.38.85-1.71,2.07l2.41.57C1034.7,480.71,1034.51,479.49,1033.79,479.34Z" transform="translate(-850.61 -442.09)"/><path class="cls-12" d="M1031.43,478.51c-.78-.17-1.52,1-1.87,2.32l2.63.61C1032.43,480,1032.22,478.68,1031.43,478.51Z" transform="translate(-850.61 -442.09)"/><path class="cls-13" d="M1030.32,469c.34-.14.38-.7.21-1.28l-1.17.6C1029.64,468.79,1030,469.12,1030.32,469Z" transform="translate(-850.61 -442.09)"/><path class="cls-13" d="M1029.17,469.87c.38-.15.4-.83.19-1.55L1028,469C1028.37,469.59,1028.81,470,1029.17,469.87Z" transform="translate(-850.61 -442.09)"/><path class="cls-13" d="M1027.79,470.77c.45-.17.48-.94.25-1.78l-1.56.8C1026.87,470.47,1027.38,470.93,1027.79,470.77Z" transform="translate(-850.61 -442.09)"/><path class="cls-13" d="M1026.18,472c.55-.21.59-1.18.3-2.22l-1.93,1C1025,471.63,1025.67,472.22,1026.18,472Z" transform="translate(-850.61 -442.09)"/><path class="cls-5" d="M1017.46,464.44a3.36,3.36,0,1,1-3.36-3.35A3.35,3.35,0,0,1,1017.46,464.44Z" transform="translate(-850.61 -442.09)"/><path class="cls-14" d="M1015.6,464.44a1.5,1.5,0,1,1-1.5-1.49A1.5,1.5,0,0,1,1015.6,464.44Z" transform="translate(-850.61 -442.09)"/><path class="cls-14" d="M1036.88,459.6a.8.8,0,1,1-.8-.81A.8.8,0,0,1,1036.88,459.6Z" transform="translate(-850.61 -442.09)"/><path class="cls-15" d="M1022.71,471.72,1012.45,477c1.39.27,5.77,1.24,10.67,2.35h-.06C1020.81,477.76,1020.9,474.14,1022.71,471.72Z" transform="translate(-850.61 -442.09)"/></g></g></svg>