<svg id="Vrstva_1" data-name="Vrstva 1" xmlns="http://www.w3.org/2000/svg" viewBox="0 0 218.3 189.56"><defs><style>.cls-1{fill:#ad6728;}.cls-2{fill:#d28029;}.cls-3{fill:#fcbf86;}.cls-4{fill:#262f3d;}.cls-5{fill:#ee9136;}</style></defs><title>klokan</title><path class="cls-1" d="M1002.06,621.84H985.24c-2.49,0-4.79-1-4.47-5l3.78-46.74a12.26,12.26,0,0,0,.16-1.93c0-.28,0-.56,0-.84l-18.42,14.92a6,6,0,0,1,5,6.22v33.42a5.54,5.54,0,0,0,5.54,5.54H1006v-1.66A3.92,3.92,0,0,0,1002.06,621.84Z" transform="translate(-851.29 -445.91)"/><path class="cls-1" d="M1040.26,553.31l-14.5-13.14-8.34,6.32,16.65,10.85c2.5,1.13,2.36,2.85,1.52,4.35l-.45.83a2.69,2.69,0,0,0,1,3.65l.24.13a.84.84,0,0,0,.66.07.86.86,0,0,0,.52-.41l4.15-7.48C1042.76,556.64,1041.87,554.74,1040.26,553.31Z" transform="translate(-851.29 -445.91)"/><path class="cls-1" d="M1041.8,470.1c2.57-5.27,10.27-16.89,19.6-20.54-1.76,7-6.62,19.6-13.79,21.76A40.24,40.24,0,0,0,1041.8,470.1Z" transform="translate(-851.29 -445.91)"/><path class="cls-2" d="M1039.37,471.72c-.68-8.24-4.87-17-17.43-25.81-1.9,8-1.49,24.46,10.67,30C1035.86,474,1039.37,471.72,1039.37,471.72Z" transform="translate(-851.29 -445.91)"/><path class="cls-1" d="M1023.82,453.79c0,6.59,1.73,15.06,8.7,19,1.48-.89,2.91-1.78,3.93-2.43-1-7.24-5-13.57-12.5-19.59C1023.88,451.74,1023.82,452.72,1023.82,453.79Z" transform="translate(-851.29 -445.91)"/><path class="cls-2" d="M1057,477.36c-2.79-6.4-10.4-8.64-14.62-8.64-14.53,0-18,18-18,21.69v12.51c0,3.49-3.5,5.83-7.36,5.83H991.39a62,62,0,0,0-62.16,61.93v28.76c0,23-21.49,27.45-76,33.77a2.31,2.31,0,0,0-1.92,2.27h60.19c34,0,43-42.14,58.29-52,16.76-10.81,78.66-41.08,78.66-69.74v-8.37h-.06l.06-.07v-11s2.75,2.48,11.3,2.48,9.86-8.55,9.86-11.43C1067,482.7,1059.51,479.43,1057,477.36Z" transform="translate(-851.29 -445.91)"/><path class="cls-3" d="M1047.88,518.44c-.73-1.87-2.73-5.2-12.43,3.51s-26.22,7-43.29,34c-7.18,11.37-8.28,16.43-7.15,18.48C1007.8,561.2,1043.14,539.7,1047.88,518.44Z" transform="translate(-851.29 -445.91)"/><path class="cls-3" d="M1068.91,489.65l-4.84-4.65c-4,1-16.7,4.91-9.85,11.76h5.51C1065.39,496.76,1067.87,493,1068.91,489.65Z" transform="translate(-851.29 -445.91)"/><path class="cls-4" d="M1051,480.19a1.77,1.77,0,1,0-1.77,1.76A1.77,1.77,0,0,0,1051,480.19Z" transform="translate(-851.29 -445.91)"/><path class="cls-4" d="M1064.45,481.81c-1.37,4.44,1,8.91,3.75,9.67a15.08,15.08,0,0,0,1.39-6.15A27.25,27.25,0,0,0,1064.45,481.81Z" transform="translate(-851.29 -445.91)"/><path class="cls-5" d="M1016.12,621.84H999.3c-2.5,0-4.79-1-4.47-5l3.77-46.74a12.26,12.26,0,0,0,.16-1.93,12,12,0,0,0-2.67-7.56c-6.3-10.45-24.52-14.67-36.86-14.67s-19,6.58-18.47,19.19,9.19,26.58,23.61,20.27,21-3.15,21,3.07v33.42a5.54,5.54,0,0,0,5.53,5.54H1020v-1.66A3.91,3.91,0,0,0,1016.12,621.84Z" transform="translate(-851.29 -445.91)"/><path class="cls-5" d="M1026.37,567.52,1014.23,548c5.95-6,17.64-19.8,9.46-28-4.05-4.05-16.62,1.49-21.48,11.62s-3.18,16-1.16,18.31L1018.42,570c2.36,2,1.67,3.82.3,5.18l-.75.75a3,3,0,0,0,0,4.27l.22.21a1,1,0,0,0,.69.29,1,1,0,0,0,.69-.28l6.8-6.81C1028,571.89,1027.67,569.56,1026.37,567.52Z" transform="translate(-851.29 -445.91)"/></svg>