<svg id="Vrstva_1" data-name="Vrstva 1" xmlns="http://www.w3.org/2000/svg" viewBox="0 0 182.28 82.29"><defs><style>.cls-1{fill:#262f3d;}.cls-2{fill:#7d4f49;}.cls-3{fill:#af6937;}.cls-4{fill:#cc7337;}.cls-5{fill:#8d716d;}.cls-6{fill:#6c5856;}.cls-7{fill:#a58a88;}</style></defs><title>ptakopysk</title><path class="cls-1" d="M928.18,575.67a3,3,0,0,1,.84,1,6.12,6.12,0,0,1,.9,3.59,8.85,8.85,0,0,1-4.07-3.86C925.48,575.56,927.8,575.41,928.18,575.67Z" transform="translate(-869.84 -499.7)"/><path class="cls-1" d="M921.39,577.34c.15.45-.2,3.49-1.49,4.65a8.91,8.91,0,0,1-.93-5.53C919.17,575.56,921.24,576.91,921.39,577.34Z" transform="translate(-869.84 -499.7)"/><path class="cls-1" d="M914.9,576.79c0,.47-1.27,3.25-2.86,4a9,9,0,0,1,.83-5.55C913.35,574.41,914.9,576.33,914.9,576.79Z" transform="translate(-869.84 -499.7)"/><path class="cls-1" d="M909.69,575.17c-.2.43-2.67,2.52-4.4,2.47a9,9,0,0,1,3.12-4.66C909.18,572.47,909.88,574.76,909.69,575.17Z" transform="translate(-869.84 -499.7)"/><path class="cls-1" d="M912,571.28c-.4.25-3.43.65-4.87-.32a8.87,8.87,0,0,1,5.15-2.24C913.2,568.7,912.4,571,912,571.28Z" transform="translate(-869.84 -499.7)"/><path class="cls-2" d="M924,565.8a22.55,22.55,0,0,0-3.59-3.37c-1.79-1.38-6.07,1.52-6.12,1.76a4.33,4.33,0,0,0-.08.51c-.44,2.27-2.38,5.14-6.46,8.88,1.44,1.75,8.71,6.42,21.32,3.09C927.7,574.43,924.27,566.26,924,565.8Z" transform="translate(-869.84 -499.7)"/><path class="cls-1" d="M1016.11,556.85c.33,0,2.52-.17,3.46.66a6.49,6.49,0,0,1-3.89,1.15C1015,558.59,1015.78,556.86,1016.11,556.85Z" transform="translate(-869.84 -499.7)"/><path class="cls-1" d="M1015.48,560.71c.33,0,2.52-.17,3.46.66a6.49,6.49,0,0,1-3.88,1.15C1014.4,562.45,1015.15,560.72,1015.48,560.71Z" transform="translate(-869.84 -499.7)"/><path class="cls-1" d="M1013,566.39c.3.14,2.32,1,2.78,2.16a6.43,6.43,0,0,1-4-.74C1011.24,567.44,1012.7,566.25,1013,566.39Z" transform="translate(-869.84 -499.7)"/><path class="cls-1" d="M1007.3,570.5c.21.26,1.63,1.93,1.53,3.17a6.46,6.46,0,0,1-3.24-2.43C1005.26,570.67,1007.09,570.25,1007.3,570.5Z" transform="translate(-869.84 -499.7)"/><path class="cls-1" d="M998,573.8c.1.32.83,2.39.29,3.51a6.41,6.41,0,0,1-2.15-3.43C996.07,573.23,997.94,573.49,998,573.8Z" transform="translate(-869.84 -499.7)"/><path class="cls-2" d="M1016.11,556.85c-2.73.09-14.44,2.32-16.45.69,0,0-.48-.15-2.57-.69s-5.24,5.4-5.24,5.4c1,2.26,3.64,9.66,4.44,12.06C1002.93,573.7,1017.43,569.37,1016.11,556.85Z" transform="translate(-869.84 -499.7)"/><path class="cls-2" d="M1052.12,530.53c-2.07,1.94-10.92,13.05-26.83,9.92s-24.39,1-24.39,1v-21.8s8.48,4.1,24.39,1S1050.05,528.59,1052.12,530.53Z" transform="translate(-869.84 -499.7)"/><path class="cls-3" d="M896.1,541.87c0,2.79,1.16,11.58,13.21,12.85A124.6,124.6,0,0,0,896.1,541.87Z" transform="translate(-869.84 -499.7)"/><path class="cls-4" d="M991.91,513.73c-11.11-3.58-25.42,2.07-56.86,7.72-8.29,1.6-18.55-2.83-28.62-6.31s-15.5,22.4-13.5,24.07,22.16,18,21.31,25a18.6,18.6,0,0,0,2.5,4,4,4,0,0,1,.7-3.06c.52,1,3.23,2.49,3.86,2.73a16.42,16.42,0,0,1-.54-2.26,14.28,14.28,0,0,0,3.19.24c-.94-2-1.47-3.7-.19-5.27a4.35,4.35,0,0,1,3.39-1.55h55.54c1.63,0,5.08-.81,9.16,3.27,0,0,2.23,1.28,2.7,1.42a5,5,0,0,1,.37-3.48,5.17,5.17,0,0,1,2.55,1.74c.31-2.22-.05-2.3-.62-3.72.83.1,2.24.36,2.59.38a4.91,4.91,0,0,0,.2-1.07c-2-1.65-1.53-5.82.18-8.77C1001.07,546.59,1019.4,527.1,991.91,513.73Z" transform="translate(-869.84 -499.7)"/><path class="cls-5" d="M906.61,517.59c-.65-7.16-6.81-3.36-7.72-3.39s-2-1.19-3.07-1.29c-.86-.08-1.19-.06-3.3.5,0,0-1.71,5.76.54,8.6s1.63,9.29-3.52,9a14,14,0,0,1-3.9-1.17c.23.26.45.52.64.76,2.36,3,2.66,5.43,3.44,7a3.47,3.47,0,0,0,3.35,1.88c6.43-.42,4.21-5.21,2.34-8,13.28.38,10.45-6.31,7.81-8C903.51,519.94,906.43,520.41,906.61,517.59Z" transform="translate(-869.84 -499.7)"/><path class="cls-6" d="M885.64,529.82a14,14,0,0,0,3.9,1.17,4.62,4.62,0,0,0,2.28-.4C882.7,523.86,873,509.54,873,509.54l-.12-.11c-.63-.48-2.59-.91-2.94,1.66C868.86,517,881.81,523.94,885.64,529.82Z" transform="translate(-869.84 -499.7)"/><path class="cls-7" d="M893.06,522c-2.25-2.84-.54-8.6-.54-8.6-2.61-1.06-15.41-14.43-18.79-13.68s-2.41,7.61-.77,9.81c0,0,9.74,14.32,18.86,21.05C894.81,529.17,894.91,524.36,893.06,522Z" transform="translate(-869.84 -499.7)"/><path class="cls-3" d="M914.43,526.63c-.74,1.27-6.16-.28-7.44-1a2.66,2.66,0,0,1-1-3.65,2.58,2.58,0,0,1,4.16-.37c.63.82.68,2,1.2,2.51C913.38,526.08,915,525.68,914.43,526.63Z" transform="translate(-869.84 -499.7)"/><path class="cls-1" d="M909.31,523.21a1.16,1.16,0,1,1-1.16-1.16A1.16,1.16,0,0,1,909.31,523.21Z" transform="translate(-869.84 -499.7)"/><path class="cls-1" d="M878.39,503.65c.22-.23.85,0,1.42.54s.84,1.14.62,1.38-.85,0-1.41-.54S878.18,503.88,878.39,503.65Z" transform="translate(-869.84 -499.7)"/></svg>