<svg id="Vrstva_1" data-name="Vrstva 1" xmlns="http://www.w3.org/2000/svg" viewBox="0 0 176.93 109.44"><defs><style>.cls-1{fill:#98765e;}.cls-2{fill:#b58e77;}.cls-3{fill:#262f3d;}.cls-4{fill:#d0a384;}</style></defs><title>wombat</title><path class="cls-1" d="M986.9,569.33c3.63,5.94,5.06,17.34,5.06,18.93-1.53.66-4.18,2.65-7.29,5.78-.47.47-.34,1.21.33,1.21,6.14,0,22,0,25.4,0,0-.06,1.81-17,5.36-23.38.45-.82.88-1.61,1.29-2.41C1005.54,557.64,991.11,563.3,986.9,569.33Z" transform="translate(-869.2 -485.84)"/><path class="cls-1" d="M902.86,548.62c.9,23.31,7,35.73,8.93,38.9a19.38,19.38,0,0,0-5.14,3.32.75.75,0,0,0,.56,1.25c3.27,0,18.5,0,18.82,0,1.5-3.44,10.25-22.32,10.81-23.24C926.23,549.7,902.86,548.62,902.86,548.62Z" transform="translate(-869.2 -485.84)"/><path class="cls-2" d="M1043.08,524.61c.9.54,2.51,1.6,2.69,1.73s-7.59-12-9.86-14.29a14.22,14.22,0,0,1,4.62,2.54c-17.16-20.75-44-24.35-50.19-24.35s-49.11-1.81-52.72-1.51a27.8,27.8,0,0,1,5.18-2.89c-1.22.11-17.53,3.11-21.17,4.11a45.1,45.1,0,0,1,4.32-2.53c-38.4,4.82-46.59,23-50,30.11-3.17,6.69-1.76,14.77-5.9,19.71,2.4.59,6.45,2.18,6.75,6.31.14,2-2.66,2.73-6.4,2.77,2.66,4.71,8.8,1.81,10.86,1.81h19.07a2.51,2.51,0,0,1,2.14,1.18c2.73,4.42,13.35,17,15.51,17.41-.39-.39-3.8-5.36-3.71-6.84.6,1.3,8.56,7.56,11.33,8-.18-.19-2.53-2.54-2.29-3.77.56.23,6.32,3.52,8.82,1.9a.34.34,0,0,1,.54.21c.89,5.88,6.1,18.88,7.66,21.31-.38.1-4.27,2.07-5.39,3.6a.6.6,0,0,0,.47,1c3.33,0,17,.07,19,0,.63-2.34,6.14-12,6.78-13a13.23,13.23,0,0,1,.66,3c.6-1.2,1.78-12.2,2-13a10.09,10.09,0,0,1,.84,3.22c.18-.45.45-2.14.69-3.4,8,1,34,.9,40,0,3.85,5.78,5.36,17.77,5.36,19.4a30.13,30.13,0,0,0-7.29,5.78c-.46.48-.34,1.21.32,1.21,6.14,0,22,0,25.41,0,0-.06,1.81-17,5.36-23.38C1051.85,540.43,1045.23,527.88,1043.08,524.61Z" transform="translate(-869.2 -485.84)"/><path class="cls-3" d="M876.83,543.55c-.3-4.13-4.34-5.72-6.74-6.31-.55.68-.87,3.14-.89,4-.05,3.15.42,3.64,1.23,5.07C874.17,546.28,877,545.58,876.83,543.55Z" transform="translate(-869.2 -485.84)"/><path class="cls-1" d="M925.63,499.45c-5.42-.6-12.86,4.31-12.41,4.94a4.55,4.55,0,0,1,.64,1.67,14.25,14.25,0,0,1-.46,6,4.86,4.86,0,0,1-.18.51C922.56,512.59,927.08,504,925.63,499.45Z" transform="translate(-869.2 -485.84)"/><path class="cls-3" d="M922.1,502.84c-2.81-.31-6.54,2-8.25,3.16a.13.13,0,0,0,0,.06,14.25,14.25,0,0,1-.46,6C919.67,511.61,923.12,506.05,922.1,502.84Z" transform="translate(-869.2 -485.84)"/><path class="cls-1" d="M892.24,498.37c-.53-1.51-1.18-3.34-1.49-4.1-7.07,4.43-7.65,9.74-7.57,11.85A43.84,43.84,0,0,1,892.24,498.37Z" transform="translate(-869.2 -485.84)"/><path class="cls-4" d="M929.48,535.6a22,22,0,0,0-2-3.52c3.3-.82,13.11,3.39,13.15,3.75s-4.07.18-4.93,1.17,8.68,6.1,10.17,6.87a84.35,84.35,0,0,1-14-3.61.18.18,0,0,0-.21.29c1.84,2,5.32,4.78,5,4.68-3.33-1-15.11-6.31-16.1-10,1.63.8,6.44,1.07,8.68,1C929.56,536.29,929.62,535.94,929.48,535.6Z" transform="translate(-869.2 -485.84)"/><path class="cls-4" d="M892.22,529.64c1.43,3,1.08,6.12-.78,7s-4.53-.79-6-3.76-1.09-6.12.77-7S890.78,526.67,892.22,529.64Z" transform="translate(-869.2 -485.84)"/><path class="cls-3" d="M890.52,531.26a1.67,1.67,0,1,1-1.67-1.67A1.68,1.68,0,0,1,890.52,531.26Z" transform="translate(-869.2 -485.84)"/></svg>