<svg id="Vrstva_1" data-name="Vrstva 1" xmlns="http://www.w3.org/2000/svg" xmlns:xlink="http://www.w3.org/1999/xlink" viewBox="0 0 106.36 208.42"><defs><style>.cls-1{fill:url(#linear-gradient);}.cls-2{fill:#262e3e;}.cls-3{fill:#111a20;}.cls-4{fill:#0f1314;}.cls-5{fill:#f68a32;}</style><linearGradient id="linear-gradient" x1="960.75" y1="646.34" x2="960.75" y2="437.92" gradientUnits="userSpaceOnUse"><stop offset="0.72" stop-color="#efeae7"/><stop offset="0.75" stop-color="#f0e8dd"/><stop offset="0.81" stop-color="#f2e3c3"/><stop offset="0.88" stop-color="#f6db99"/><stop offset="0.96" stop-color="#fccf5f"/><stop offset="1" stop-color="#ffc940"/></linearGradient></defs><title>tučňák císařský</title><path class="cls-1" d="M983.65,457.16c7.62-7.58,22.44-8.45,30.28-8.31-7.54-6.75-20.11-4.56-30.31-7.71-6.06-1.88-10.24-5.59-24.2-1.07-19.8,6.42-23,25.22-24.63,26.63h0c-14.72,13.38-27.22,37.9-27.22,76.14,0,59.3,29.72,101.71,31.25,103.5h13.36c-.47-2.32-3-4.58-4.19-5.91,0,0,2.24-4.59,3.28-7.11a30,30,0,0,0,8.15,1.09,28.7,28.7,0,0,0,8.14-1.12c1,2.51,3.3,7.14,3.3,7.14-1.2,1.33-3.73,3.59-4.19,5.91H980c1.53-1.79,22.47-44.2,22.47-103.5,0-36.48-12.09-65.34-29.88-74.9h0C979.32,465.78,978.74,462.05,983.65,457.16Z" transform="translate(-907.57 -437.92)"/><path class="cls-2" d="M992.89,492.17c4.42,19.16,3.63,24.88-1.36,40.77-5.93,18.9-21.14,49.65-19.94,76.18,3.19-1.6,19.89-19.57,25.72-34.3C1006.89,550.64,1003.3,513.33,992.89,492.17Z" transform="translate(-907.57 -437.92)"/><path class="cls-3" d="M920.54,574.62c0-7.31-5.07-33.58-12.74-40.33-.14,2.77-.23,5.62-.23,8.55a187.48,187.48,0,0,0,8.29,54.54C918.23,592.34,920.54,582.42,920.54,574.62Z" transform="translate(-907.57 -437.92)"/><path class="cls-2" d="M927.78,609.12c3.58,0,14.09-23.73,13.3-41.55s-14.74-42.12-12.5-57.43c2.39-16.36,9-26.06,12.54-30.58,4.17-5.3,8.2-6.25,9.93-12.23-3.46-.53-9.77-1-12,1.73s-3.85,1.92-4.52,1.52.53-4.29.53-4.29h0a1.68,1.68,0,0,1-.29.41h0c-14.72,13.38-27.22,37.9-27.22,76.14,2.79,22.5,12.16,32.92,17.95,55.21C926.82,603,927.32,606.42,927.78,609.12Z" transform="translate(-907.57 -437.92)"/><path class="cls-2" d="M983.65,457.16c7.62-7.58,22.44-8.45,30.28-8.31-7.54-6.75-20.11-4.56-30.31-7.71-6.06-1.88-10.24-5.59-24.2-1.07A34.42,34.42,0,0,0,940,455.82c4.72-4.18,12.4-9.23,16.58-3.65s-3.89,10.57-4.09,12,12.35.51,20.18,3.8C979.32,465.78,978.74,462.05,983.65,457.16Z" transform="translate(-907.57 -437.92)"/><circle class="cls-4" cx="66.21" cy="7.47" r="2.26"/><path class="cls-5" d="M978.1,455.3c3.56-2.68,9.59-6.33,20.81-7.65-3.58-.65-7.73-1.56-13.43.87A14.37,14.37,0,0,0,978.1,455.3Z" transform="translate(-907.57 -437.92)"/></svg>