<svg id="Vrstva_1" data-name="Vrstva 1" xmlns="http://www.w3.org/2000/svg" viewBox="0 0 212.59 189.64"><defs><style>.cls-1{fill:#f1a436;}.cls-2{fill:#e58a38;}.cls-3{fill:#a06627;}.cls-4{fill:#ffc940;}.cls-5{fill:#262f3d;}.cls-6{fill:#fcdd52;}.cls-7{fill:#fbf06e;}.cls-8{fill:#fdec63;}</style></defs><title>velbloud dvouhrbý</title><path class="cls-1" d="M1049.41,742.16c2.08-3.53,1.95-9.39,3.65-15.36s4.6-14.12,7.25-17.62,3.43-15.75,3.43-15.75-4.61-7.86-8.77-9-8.92,3.46-8.07,6.85c.46,1.87,2.24,7.34,2,8.62s-1.5,5-1.09,6.56,1.4,2.11,1.3,3.59-3.92,24.65-10.5,31.91C1041.1,744.05,1046,744.07,1049.41,742.16Z" transform="translate(-1003.3 -561.32)"/><path class="cls-2" d="M1053.87,654.74c-2.74,1.57-9.13,9.29-11,14.1,1.73-.84,3.64-2,4.63-1.92-1.31,1.51-5.73,16.47-1,26.84a21.08,21.08,0,0,1,2.62-5.37c-.12,1.75,2.08,6,3.59,7.67a17.39,17.39,0,0,1,1.52-4.26c0,1.52,1.93,4.56,1.93,4.56.56-1.58,4.5-4.66,5.06-3.88a18.29,18.29,0,0,1,2.58,4.6c.67-1.09,6.89-11.62,7.76-13.72s3.39-16.16.55-19.87S1056.54,653.19,1053.87,654.74Z" transform="translate(-1003.3 -561.32)"/><path class="cls-3" d="M1049.41,742.16a14.87,14.87,0,0,1-10.83-.18,5.93,5.93,0,0,0-3.64,1.38c-1.67,1.38-3.78,6.29-3.78,7.6h20.72C1052.11,748.49,1050.6,744.8,1049.41,742.16Z" transform="translate(-1003.3 -561.32)"/><path class="cls-1" d="M1091.39,742.16c1.09-3.95-.56-9.57-.46-15.78s.77-14.83,2.42-18.9-.78-16.1-.78-16.1-6.49-6.4-10.8-6.4-7.72,5.66-6,8.72c.94,1.68,4.08,6.5,4.15,7.81s-.15,5.24.65,6.62,1.89,1.67,2.18,3.13,1.82,24.1-2.18,30.72A14.9,14.9,0,0,0,1091.39,742.16Z" transform="translate(-1003.3 -561.32)"/><path class="cls-3" d="M1091.39,742.16a14.9,14.9,0,0,1-10.84-.18,5.92,5.92,0,0,0-3.63,1.38c-1.68,1.38-3.78,6.29-3.78,7.6h20.72C1094.09,748.49,1092.57,744.8,1091.39,742.16Z" transform="translate(-1003.3 -561.32)"/><path class="cls-4" d="M1037.08,584.49c6.18,2,11.5,4.56,15.26,10.57a32.18,32.18,0,0,0-3.27-1.15,44,44,0,0,1,5.81,8.57,20.06,20.06,0,0,0-4.5-1.55,24.4,24.4,0,0,1,3.16,7.15c-1.35-.76-3.87-1.9-3.87-1.9A72.31,72.31,0,0,1,1053,613c-2.33-1.55-7.46-2.36-7.46-2.36Z" transform="translate(-1003.3 -561.32)"/><path class="cls-4" d="M1194.28,620.15a54.65,54.65,0,0,1,10.57,11.41l-2.72-.63a35.16,35.16,0,0,1,4.22,12.61,14.82,14.82,0,0,0-3.2-2.33,90.59,90.59,0,0,1,1.55,11.22c-.53-.8-2.67-3.32-2.67-3.32a21.64,21.64,0,0,1-.92,6.55L1198.3,652Z" transform="translate(-1003.3 -561.32)"/><path class="cls-2" d="M1174.79,648.29l-23.41,18.61c2.17,3.53,5.41,9.43,7.22,12.9,1.7,3.24,4.16,18.4,4.22,29.42,0,7.77-19.73,30.83-21,33.45a13.35,13.35,0,0,0,9,1.08c-.15-7.11,24.64-24,26.06-29.15C1179.3,705.66,1185.26,668.07,1174.79,648.29Z" transform="translate(-1003.3 -561.32)"/><path class="cls-3" d="M1141.78,742.67c-4.51,0-7.9,5.67-7.32,8.29h17.84s-.41-2.54-1.46-6.61a2.35,2.35,0,0,1-.07-.6A13.35,13.35,0,0,1,1141.78,742.67Z" transform="translate(-1003.3 -561.32)"/><path class="cls-1" d="M1213.57,742.77c-2.33-3.49-1-22.69.58-27.93s.78-13.37,0-19.19-9.69-17.07-14.15-30.25c-1.92-5.67-.39-15.13-1.55-32s-11.06-24.23-23.51-29.91c-5.16-2.34-19.35-39.41-28.36-39.41s-17.31,31.29-25.89,31.29-12.36-34-26-34-27.58,56.38-38.83,56.38c-12.12,0-8.58-24.7-14.11-28.31L1012.27,597s-10.25,22.76,1.12,45.16,32.55,21.52,44.18,20.21,28.94,5,32.58,6.84,15.27,11.49,32.87,11.49c27.63,0,47.41-23.27,50.9-30.54a121.35,121.35,0,0,0,1.31,17c1.3,7.86,21.67,21.23,27.77,37.67,3.28,8.81,2.33,35.19,1,37.81C1205.62,743.54,1208.87,744,1213.57,742.77Z" transform="translate(-1003.3 -561.32)"/><path class="cls-3" d="M1213.57,742.77c-4.7,1.26-8,.77-9.55-.1-3.63.15-6.54,5.67-6,8.29h17.84A16.77,16.77,0,0,0,1213.57,742.77Z" transform="translate(-1003.3 -561.32)"/><path class="cls-4" d="M1073,656.58c-2.23,2.23-6.4,11.34-7,16.48,1.45-1.26,3-2.86,4-3.06-.87,1.8-1.26,17.4,6,26.18a21.05,21.05,0,0,1,1.13-5.86c.34,1.72,3.57,5.23,5.46,6.47a17.59,17.59,0,0,1,.36-4.51c.44,1.45,3.06,3.9,3.06,3.9.12-1.67,3.12-5.67,3.87-5.06a18,18,0,0,1,3.69,3.78c.36-1.24,3.63-13,3.92-15.27s-1.81-10.62-5.52-13.46S1075.17,654.39,1073,656.58Z" transform="translate(-1003.3 -561.32)"/><path class="cls-4" d="M1043,592.33c0-3-1.91-5.36-4.26-5.36l-.24,0c-4.28-8.83-12-10.18-13.25-10.18-1.57,0-9,1.35-13.25,10.18l-.25,0c-2.35,0-4.25,2.4-4.25,5.36a5.7,5.7,0,0,0,2.1,4.61,65.22,65.22,0,0,0,.9,11.35c.56,4.35,8.93,8.39,14.75,3.18,5.81,5.21,13.92,1.17,14.75-3.18a46.84,46.84,0,0,0,.89-11.35A5.7,5.7,0,0,0,1043,592.33Z" transform="translate(-1003.3 -561.32)"/><path class="cls-5" d="M1012.27,593a1.51,1.51,0,1,1-1.51-1.51A1.5,1.5,0,0,1,1012.27,593Z" transform="translate(-1003.3 -561.32)"/><path class="cls-5" d="M1041.29,593a1.51,1.51,0,0,1-3,0,1.51,1.51,0,1,1,3,0Z" transform="translate(-1003.3 -561.32)"/><path class="cls-1" d="M1011.78,587l.25,0a20.49,20.49,0,0,1,1.44-2.5c-1.23-1-3.38-2.83-4.2-3.49-1.32-1-5.33.14-5.7.67s-.38,4.65.48,5.51a27.82,27.82,0,0,0,3.85,3A4.34,4.34,0,0,1,1011.78,587Z" transform="translate(-1003.3 -561.32)"/><path class="cls-6" d="M1034.45,596.24c-2.24-4.55-7.13-8.58-9.17-8.58s-6.94,4-9.18,8.58c-1,1.8.36,2.45,2.1,2.45s6.33-1,7.08,1.11c.75-2.15,5.33-1.11,7.07-1.11S1035.41,598,1034.45,596.24Z" transform="translate(-1003.3 -561.32)"/><path class="cls-5" d="M1025.28,599.8c-.2-3.2-4.22-5.1-4.84-5.43a1,1,0,1,0-1,1.8.74.74,0,0,0,.27.1c.44.09.88.2,1.32.28C1024.39,597.16,1024.63,599.11,1025.28,599.8Z" transform="translate(-1003.3 -561.32)"/><path class="cls-5" d="M1025.28,599.8c.19-3.2,4.22-5.1,4.84-5.43a1,1,0,1,1,1,1.8.7.7,0,0,1-.26.1c-.45.09-.88.2-1.32.28C1026.16,597.16,1025.92,599.11,1025.28,599.8Z" transform="translate(-1003.3 -561.32)"/><path class="cls-1" d="M1038.77,587l-.24,0a20.51,20.51,0,0,0-1.45-2.5c1.23-1,3.38-2.83,4.21-3.49,1.32-1,5.32.14,5.69.67s.38,4.65-.48,5.51a28.33,28.33,0,0,1-3.84,3A4.36,4.36,0,0,0,1038.77,587Z" transform="translate(-1003.3 -561.32)"/><path class="cls-4" d="M1025.28,611.47a9.46,9.46,0,0,1-9,2.08c1.17,2.21,3.72,5.11,9,5.11s7.86-2.9,9-5.11A9.44,9.44,0,0,1,1025.28,611.47Z" transform="translate(-1003.3 -561.32)"/><path class="cls-7" d="M1018.2,598.69a6.73,6.73,0,0,1-.8-.05,13.15,13.15,0,0,0-3.73,12,4,4,0,0,0,3,3.07,9.48,9.48,0,0,0,8.63-2.19V599.8C1024.53,597.65,1019.94,598.69,1018.2,598.69Z" transform="translate(-1003.3 -561.32)"/><path class="cls-8" d="M1033.15,598.64a6.73,6.73,0,0,1-.8.05c-1.74,0-6.32-1-7.07,1.11v11.67a9.45,9.45,0,0,0,8.62,2.19,4,4,0,0,0,3-3.07A13.13,13.13,0,0,0,1033.15,598.64Z" transform="translate(-1003.3 -561.32)"/></svg>