<svg id="Vrstva_1" data-name="Vrstva 1" xmlns="http://www.w3.org/2000/svg" xmlns:xlink="http://www.w3.org/1999/xlink" viewBox="0 0 215.14 177.22"><defs><style>.cls-1{fill:#777062;}.cls-2{fill:#262e3e;}.cls-3{fill:#efe4cc;}.cls-4{fill:#979080;}.cls-5{fill:#c5b9a5;}.cls-6{fill:url(#linear-gradient);}.cls-7{fill:#e69577;}.cls-8{fill:#cc7359;}.cls-9{fill:#f3ca6e;}</style><linearGradient id="linear-gradient" x1="1065.46" y1="592.19" x2="1109.81" y2="616.02" gradientUnits="userSpaceOnUse"><stop offset="0.16" stop-color="#979080"/><stop offset="1" stop-color="#c5b9a5"/></linearGradient></defs><title>slon indický</title><path class="cls-1" d="M1206.72,608.62c6.41,17.25,5.54,51.25,5,73.75-.15,5.74-.27,10.7-.27,14.72h2.48c0-4,.13-8.93.28-14.66.58-22.69,1.45-57-5.12-74.68Z" transform="translate(-1000.55 -567.64)"/><polygon class="cls-2" points="212.12 127.09 209.09 131.29 209.09 143.18 215.15 143.18 215.15 131.29 212.12 127.09"/><path class="cls-1" d="M1095.36,660,1060,632.25V732.63h0a12.86,12.86,0,0,0-8.06,12.22h28.83a10.66,10.66,0,0,0-4.22-8.64C1076.65,719.64,1081.23,678.67,1095.36,660Z" transform="translate(-1000.55 -567.64)"/><path class="cls-3" d="M1034.12,651c-4.3,10.23-13.39,23.85-33.57,37.9a70.59,70.59,0,0,0,33.57-24.14Z" transform="translate(-1000.55 -567.64)"/><path class="cls-1" d="M1165.4,736.21c0-6.57,3.46-18.87,7.6-34.11-1.27-7.44-8.74-17.55-12-17.55H1136.6c3.62,0,12.24,12.12,12.24,19.58v28.5h0a12.86,12.86,0,0,0-8.06,12.22h24.35a13.62,13.62,0,0,1,1.95-7.07A10,10,0,0,0,1165.4,736.21Z" transform="translate(-1000.55 -567.64)"/><path class="cls-4" d="M1189.75,736.21c0-16.57,21.86-69.69,21.86-114.35,0-29.84-20.51-41.86-34.6-42.9s-63.42-7.73-86.79-7.73a21.24,21.24,0,0,0-11.86-3.59H1056.5a27.67,27.67,0,0,0-24.58,14.94h0c-10.39,16.17-3.53,80.66-.39,100.73h0c2.36,16,12.39,22.9,25,22.9,7.44,0,17.82-8,17.82-19.38,0-4.19-1.16-7.42-3.46-9.62a10.12,10.12,0,0,0-7.06-2.71,9.46,9.46,0,0,0-9.17,9.25,3.11,3.11,0,0,0,6.22,0,3.24,3.24,0,0,1,3-3,4,4,0,0,1,2.77,1c1,1,1.53,2.73,1.53,5.12,0,7.46-6.87,10.93-11.6,10.93-11.09,0-10.88-11.38-10.88-22l7.67-15.69a2.19,2.19,0,0,0,1.8-2.16,40.79,40.79,0,0,1,1-7.87l1.43,0a35,35,0,0,0,15.75-3.72h0c.79,0,5.12,6.18,11.31,13.57v72.73h0a12.86,12.86,0,0,0-8.06,12.22h28.83a10.66,10.66,0,0,0-4.22-8.64c0-16.57,4.63-40.42,18.75-51.66h41c3.62,0,12.24,12.12,12.24,19.58v28.5h0a12.86,12.86,0,0,0-8.06,12.22H1194A10.66,10.66,0,0,0,1189.75,736.21Z" transform="translate(-1000.55 -567.64)"/><path class="cls-3" d="M1054.32,658.8c-.17-.61-2.37-.53-4.91.18s-4.46,1.77-4.3,2.38c0,7.75.22,29.87-28.71,57.85C1041,706,1052.81,682.7,1054.3,659A.44.44,0,0,0,1054.32,658.8Z" transform="translate(-1000.55 -567.64)"/><path class="cls-5" d="M1043.85,615.23a7.47,7.47,0,1,1,7.47,7.47A7.46,7.46,0,0,1,1043.85,615.23Z" transform="translate(-1000.55 -567.64)"/><path class="cls-2" d="M1048.61,615.23a2.71,2.71,0,1,1,2.71,2.71A2.71,2.71,0,0,1,1048.61,615.23Z" transform="translate(-1000.55 -567.64)"/><path class="cls-6" d="M1098,574.31c-9.51,0-16.4,4.24-24.49,8.59s-1.19,20.26-.2,21.24,2.48,2.49,1.65,5c-5.07,14.81-1,25.83.83,25.83s5.36-6.15,15.13-13.09c14.67-10.41,23.42-11.71,23.42-28.64C1114.32,582.77,1107,574.31,1098,574.31Z" transform="translate(-1000.55 -567.64)"/><path class="cls-7" d="M1168.65,578.17c-9.63-1-23.77-2.69-38.06-4.14,11.91,2.71,21.13,21.86,21.13,45.09H1188C1188,597.91,1179.55,580.45,1168.65,578.17Z" transform="translate(-1000.55 -567.64)"/><path class="cls-8" d="M1168.46,578.15c-7.59-.8-17.94-2-28.94-3.19,11.2,9.85,14.72,25.79,15.24,41h30.09C1184.16,598.73,1178.9,584.84,1168.46,578.15Z" transform="translate(-1000.55 -567.64)"/><polygon class="cls-9" points="168.97 34.07 164.55 39.62 168.97 45.17 173.4 39.62 168.97 34.07"/><polygon class="cls-9" points="158.72 37.18 156.77 39.62 158.72 42.05 160.66 39.62 158.72 37.18"/><polygon class="cls-9" points="178.82 37.18 176.88 39.62 178.82 42.05 180.76 39.62 178.82 37.18"/><polygon class="cls-9" points="163.14 20.22 160.53 26.03 165.79 30.73 168.41 24.92 163.14 20.22"/><polygon class="cls-9" points="153.63 23.17 152.48 25.71 154.79 27.78 155.94 25.23 153.63 23.17"/><polygon class="cls-9" points="173.73 23.17 172.58 25.72 174.89 27.78 176.04 25.23 173.73 23.17"/><polygon class="cls-9" points="157.18 9.34 154.56 13.22 160.38 16.76 162.74 12.69 157.18 9.34"/><polygon class="cls-9" points="147.67 10.3 146.64 12.09 149.2 13.64 150.23 11.86 147.67 10.3"/><polygon class="cls-9" points="167.68 12.23 166.65 14.01 169.21 15.57 170.24 13.78 167.68 12.23"/></svg>