<svg id="Vrstva_1" data-name="Vrstva 1" xmlns="http://www.w3.org/2000/svg" viewBox="0 0 218.91 148.11"><defs><style>.cls-1{fill:#bfbab7;}.cls-2{fill:#928c89;}.cls-3{fill:#2c9494;}.cls-4{fill:#aeaba8;}.cls-5{fill:#d8c8a6;}.cls-6{fill:#9c9896;}.cls-7{fill:#272733;}</style></defs><title>slon africký</title><path class="cls-1" d="M1207.54,688.09H1205c-6-4-13.21-12.94-16.12-24.52l-2.43.61c3.1,12.28,10.56,21.59,17.15,26l.76,2.33,10.65,7.72,3.19-4.41Z" transform="translate(-999.28 -582.37)"/><path class="cls-2" d="M1081.59,721V707.18c0-7.77,3.43-15.83,7.76-22.11-2.38-4.17-7.76-6.87-7.76-6.87h-15.46V721c-2.24,0-7.31,4.25-7.31,9.49h27.42C1086.24,725.24,1083.38,721,1081.59,721Z" transform="translate(-999.28 -582.37)"/><polygon class="cls-3" points="150.69 40.24 136.1 40.24 136.1 59.8 150.69 40.24"/><path class="cls-4" d="M1150,622.6c-10,0-19.1,4.14-26.37,11.07h-31.83v17.91c-17.56,0-31.8,10.58-31.8,23.63s14.24,23.64,31.8,23.64h.41v21c-2.49,0-8.15,4.74-8.15,10.58h30.71c0-5.84-3.32-10.58-5.33-10.58V704.51a31.88,31.88,0,0,1,.53-5.66h50.25a10.91,10.91,0,0,0,7.08-2.6c4.51,2.9,8.32,5,8.32,8.76V719.9c-2.5,0-8.16,4.74-8.16,10.58h20.42a5,5,0,0,0,5-5V674.88C1192.82,646,1173.63,622.6,1150,622.6Z" transform="translate(-999.28 -582.37)"/><path class="cls-2" d="M1138.45,698.85c2.56,1.81,4.34,3.61,4.34,6.16V719.9c-2.5,0-8.15,4.74-8.15,10.58h20.41a5,5,0,0,0,5-5V698.85Z" transform="translate(-999.28 -582.37)"/><path class="cls-5" d="M1072.76,662.89c0,8.86-3.34,20-10.21,29.09,7.49-3,17.51-10.27,19.3-30.17C1078.42,658.38,1072.76,662.89,1072.76,662.89Z" transform="translate(-999.28 -582.37)"/><path class="cls-5" d="M1043.39,651.88c-2.23,7.74-8,16.6-16.25,22.82,7.3-.72,17.87-4.55,24.46-21.46C1049.48,649.37,1043.39,651.88,1043.39,651.88Z" transform="translate(-999.28 -582.37)"/><path class="cls-1" d="M1153.7,624.82h0a24.72,24.72,0,0,0,2.5-10.84c0-14.94-13.38-27.05-29.88-27.05S1096.43,599,1096.43,614c0,7.55,7.6,19.28,7.6,19.28v24.82a5.2,5.2,0,0,0,5.2,5.2l.52,0h0c9-.82,32.69-21.23,41.74-34.74a26.82,26.82,0,0,0,2-3.29Z" transform="translate(-999.28 -582.37)"/><path class="cls-4" d="M1001.2,619.62h0a23.68,23.68,0,0,1-1.92-9.35,23,23,0,1,1,46,0c0,6.51-5.85,16.62-5.85,16.62v21.42a4.26,4.26,0,0,1-4,4.48l-.4,0h0c-6.92-.71-25.16-18.31-32.12-30a22.73,22.73,0,0,1-1.52-2.84Z" transform="translate(-999.28 -582.37)"/><path class="cls-1" d="M1072.76,582.37c-21.77,0-39.42,18-39.42,40.26a40.74,40.74,0,0,0,5.61,20.71h0l0,0c.44.74.91,1.47,1.4,2.18a33.83,33.83,0,0,1,5,16.5v40.62a7.62,7.62,0,0,1-7.44,7.6h-8.46V718h8.28c11,0,19.85-6.86,19.85-15.31V685.86c0-6.32,6.49-23,15.12-23,21.77,0,39.43-18,39.43-40.26S1094.53,582.37,1072.76,582.37Z" transform="translate(-999.28 -582.37)"/><path class="cls-6" d="M1034.42,642V632a41.13,41.13,0,0,1,4.17-29.47,18,18,0,0,0-16.32-10.63,18.2,18.2,0,0,0-18,18.35,18.42,18.42,0,0,0,1.52,7.37h0l.06.12,0,.11a18.22,18.22,0,0,0,1.22,2.28l.06.1c4.77,8,14.32,17.71,21.22,23.22C1030.85,645.41,1034.42,646.16,1034.42,642Z" transform="translate(-999.28 -582.37)"/><path class="cls-4" d="M1151.2,614c0-12.16-11.17-22.06-24.89-22.06a26,26,0,0,0-20.22,9.22,41,41,0,0,1,2.93,37.31V653.4c0,4.12,4.09,3.66,6.92,1.91,9.48-5.88,24.53-19.28,31.43-29.58l.06-.1A20.61,20.61,0,0,0,1149,623l.2-.37,0,0A19.78,19.78,0,0,0,1151.2,614Z" transform="translate(-999.28 -582.37)"/><path class="cls-7" d="M1074.71,635.05a2.17,2.17,0,1,0-2.17,2.17A2.18,2.18,0,0,0,1074.71,635.05Z" transform="translate(-999.28 -582.37)"/><path class="cls-7" d="M1040.56,635.05a2.18,2.18,0,1,0-2.18,2.17A2.19,2.19,0,0,0,1040.56,635.05Z" transform="translate(-999.28 -582.37)"/><path class="cls-6" d="M1045.41,669.63v1.5h4.24v-1.5Zm0,5.83h4.24V674h-4.24Zm0,4.33h4.24v-1.5h-4.24Zm0,4.32h4.24v-1.49h-4.24Zm0,4.33h4.24v-1.5h-4.24Z" transform="translate(-999.28 -582.37)"/></svg>