<svg id="Vrstva_1" data-name="Vrstva 1" xmlns="http://www.w3.org/2000/svg" viewBox="0 0 130.9 167.32"><defs><style>.cls-1{fill:#272733}.cls-2{fill:#c0ae9c}.cls-3{fill:#efe3d5}.cls-4{fill:#4f566a}</style></defs><path class="cls-1" d="M933.3 459.59l-1.53.48.26-1.21c-.43-.22-.85-.44-1.29-.63l-1 1 .09-1.42a21.51 21.51 0 00-2.68-.87c-.6 1.05-1.78 2.86-1.78 2.86l-.72-3.32a21.17 21.17 0 00-2.78-.18 20.56 20.56 0 00-7.25 1.24 18 18 0 011.06 6.08 13.83 13.83 0 016.19-1.33c10.87 0 17.76 10.74 17.76 19.82v33.2c.87 2.16 1.77 4.23 6 4.5v-37.7c-.03-8.68-4.69-17.8-12.33-22.52z" transform="translate(-894.98 -456.32)"/><path class="cls-2" d="M1003.08 526.79a53.66 53.66 0 0014.92-10.26c.3.3.87.76.87.76-3.23 3.68-6.22 7.35-13.69 11.39a3.61 3.61 0 01-2.1-1.89z" transform="translate(-894.98 -456.32)"/><path class="cls-1" d="M1017.22 518.1c-.81-10.39 6.94-8 8.47-10.82.81 4.98-.69 9.88-8.47 10.82zM1003.69 617.4c-2.54 0-4.6 2.79-4.6 6.24h9.19c0-3.45-2.05-6.24-4.59-6.24zM986.86 617.4c-2.53 0-4.59 2.79-4.59 6.24h9.19c0-3.45-2.06-6.24-4.6-6.24zM939.46 617.4c-2.53 0-4.59 2.79-4.59 6.24h9.19c0-3.45-2.06-6.24-4.6-6.24z" transform="translate(-894.98 -456.32)"/><path class="cls-2" d="M991.33 590.6c-8.64-6.46-11.31-16.27-12.27-21.23h-5.33c0 3.17 4.67 12.5 8.76 18.11 6.38 8.77 2.4 19.94 2.4 25.45V618h4c.47-6.51 4.16-16.5 6.18-24.17a30 30 0 00-3.74-3.23zM917.29 569.37a13 13 0 01-2.25-1.58c2.08 8.69 2.75 18.19 3.22 25.16a42.16 42.16 0 01.48 6.47V618h4c2.8-13.48 5.73-30.11 5.86-41.22a43.36 43.36 0 00-11.31-7.41z" transform="translate(-894.98 -456.32)"/><path class="cls-1" d="M920.72 617.4c-2.54 0-4.6 2.79-4.6 6.24h9.19c0-3.45-2.06-6.24-4.59-6.24z" transform="translate(-894.98 -456.32)"/><path class="cls-3" d="M1007.41 586.71a6.64 6.64 0 00-5-5.58c-4.61-16.31 8.75-14.8 8.75-39.45 0-11.32-12.71-21.8-29.2-21.8H946.6c-5.1 0-6.06-2.22-7-4.54v-33.2c0-11.16-23 22.49-24 28.31s-2.66 15.5-5.83 30.49 1.71 25.44 7.53 28.43c15.07 7.17 20.2 17 20.2 30V618h4c3.53-17 5.43-39 3.5-48.64h34.11c1 5 3.63 14.77 12.27 21.23 10.38 7.76 10.38 16.82 10.38 22.33V618h4c.65-9.17 1.6-21.3 1.73-29.52a7 7 0 00.07-.92 7.54 7.54 0 00-.06-.83zM914.53 469.47c.83-2.09-.93-3.4-7.55-11.76-2.41 3-4.49 8.37 2.24 13.85 1.22-.56 5.31-2.09 5.31-2.09z" transform="translate(-894.98 -456.32)"/><path class="cls-2" d="M913 470.06c-.42-2.44-2.21-5-3.35-4.55s.55 4.39 1.58 5.24c1.01-.44 1.77-.69 1.77-.69z" transform="translate(-894.98 -456.32)"/><path class="cls-3" d="M939.6 482.14c0-9.08-6.89-19.82-17.76-19.82s-13.12 9.74-13.12 11.86c0 3.38-3.72 9.59-9.87 15.74A13.83 13.83 0 00895 500c0 4.63 4.25 12.5 13.87 12.5 10.2 0 17.65-5.08 17.65-12.5a14 14 0 017.21-12.11c4.52-2.59 5.87-5.75 5.87-5.75z" transform="translate(-894.98 -456.32)"/><path class="cls-3" d="M930.4 467.75c0-2.25 2.12-2.81 11.36-8.12 1.13 3.68 1.07 9.43-7.21 12-.94-.91-4.15-3.88-4.15-3.88z" transform="translate(-894.98 -456.32)"/><path class="cls-2" d="M931.6 468.86c1.3-2.11 3.92-3.86 4.79-3s-2.13 3.87-3.41 4.28a35.81 35.81 0 00-1.38-1.28z" transform="translate(-894.98 -456.32)"/><path class="cls-4" d="M911 487c-3.08 0-8.37 0-12.16 2.95A13.83 13.83 0 00895 500c0 4.63 4.25 12.5 13.87 12.5 10.2 0 17.65-5.08 17.65-12.5-.02-10.82-12.43-13-15.52-13z" transform="translate(-894.98 -456.32)"/><path class="cls-1" d="M924.28 476.47a2 2 0 10-2 2 2 2 0 002-2zM916.81 499.67c0-1.31-.54-2.37-1.22-2.37s-1.22 1.06-1.22 2.37.55 2.37 1.22 2.37 1.22-1.04 1.22-2.37zM895.14 501.69a.85.85 0 00.63.35c.68 0 1.22-1.06 1.22-2.37s-.54-2.37-1.22-2.37a.84.84 0 00-.63.35A17.34 17.34 0 00895 500a8.77 8.77 0 00.14 1.69zM911.7 476.47a2 2 0 10-2 2 2 2 0 002-2z" transform="translate(-894.98 -456.32)"/><path class="cls-4" d="M927.58 463.4a15.43 15.43 0 00-5.74-1.08 13.12 13.12 0 00-7.71 2.22 30 30 0 00.1 6.67 36.25 36.25 0 012.45-5.73 55.46 55.46 0 00-1.42 10.58c2-3.56 4.25-7.93 7.74-11.29a31.72 31.72 0 00-.77 5.85c1.34-2.32 2.77-5.26 5.35-7.22z" transform="translate(-894.98 -456.32)"/><path class="cls-1" d="M917.53 583.66c.09 1 .18 1.92.25 2.85 1-1.32 2.46-2.09 3.93-3.18a8.86 8.86 0 00-4.18.33zm-.53-5.16c.16 1.29.31 2.56.44 3.82a28.48 28.48 0 014.73-4.35 10.39 10.39 0 00-5.17.53zm-.9-5.5c.23 1.25.42 2.51.6 3.75a19.19 19.19 0 016.19-2.44 13.47 13.47 0 00-6.79-1.31z" transform="translate(-894.98 -456.32)"/><path class="cls-4" d="M992.28 563.1a56.64 56.64 0 00-13.22 6.27 42.69 42.69 0 001.55 5.87c3.87-4.83 8.54-9.89 11.67-12.14zm-25.09-43.22h-6.75c-3 5.52-7.24 18.52-7.24 26.76 2.49-4.74 9.8-22.53 13.99-26.76zm38.34 43.85a37.38 37.38 0 004.58-11.27c-5.58.18-12.36 2.27-19.35 5.72 5.24.46 10.33 3.08 14.77 5.55zm-20.11-17.84c3.84-7.83 10.06-16.09 15.81-20.44a31.51 31.51 0 00-7.82-3.78c-4.95 6.7-13.39 18.58-14.82 33.46 6.09-4.39 13.21-10.86 19.08-13.36-6.18 1.12-8.54 1.92-12.25 4.12zm-3.45-26h-2.68c-2.78 6.35-5.9 16.9-5.9 24 2.11-4 7.58-17.22 11.79-23.84-1.05-.12-2.12-.17-3.18-.17zm5.71 67.45a25.23 25.23 0 017-10.37c-5.2 1.9-8.33 3.74-10.57 5.72a29.73 29.73 0 003.57 4.64zm2.23 2.13c.45.39.92.77 1.42 1.14q1 .75 1.89 1.53c-.81-2.43.21-4.62.81-7.21a11.33 11.33 0 00-4.12 4.53zm-19.75-38.72c-2.07 4.9-3.29 12.31-3.73 18.63h4.23a163.91 163.91 0 01-.5-18.64zm40.92-10.63c-6 2-19.12 8.16-24.78 16.4 5.12-3.43 17.35-8.23 24.66-9.76.13-1.56.21-3.24.21-5.07 0-.54-.04-1.06-.09-1.58zm-1.22-4.7a20.21 20.21 0 00-3.19-5.14 34.49 34.49 0 00-9.41 6.05 25.34 25.34 0 0112.6-.92zm-8.13 36.58a20.91 20.91 0 012.69-6.4c-4.36.41-8.35 1.63-15.13 7.34a25.21 25.21 0 0112.44-.94zm-62.13-84.8a21 21 0 01-8.69 10.21 20.56 20.56 0 008.69-2.88zm-7 17.08a37.66 37.66 0 01-14.26.07 42.11 42.11 0 00-2.32 4.6c4.41 1.05 9.89.52 16.61-4.63zm37.6 15.56c-5.17 8.15-13.16 26.12-13.16 49.49h4.5c0-9.44 5.33-34.91 13.49-49.49zM941.07 518a8.8 8.8 0 01-1.47-2.67V514c-2.44 4.83-9.24 8.3-17.26 8.3a25.49 25.49 0 01-8.59-1.44c-.33 1.82-.71 3.8-1.12 5.95a25.28 25.28 0 0010 2c9.44-.03 17.2-4.72 18.44-10.81zm-1.47-9.84v-8.83c-2.79 6.21-10.64 13.47-17.43 16.28 9.76.32 14.61-3.38 17.43-7.44zm.7 29.11a31.39 31.39 0 00-4.09 14.48c1.82-5.91 7-13.14 13.79-21a29.81 29.81 0 002-2.3 28.67 28.67 0 004.54-8.54H948c-3.25 6-10.64 19-36.82 14.47q-.5 2.42-1 5c6.55 1.74 19.39 2.55 30.21-2.12zm-11.36 39.89a28.15 28.15 0 013.21 3.7c.35-2.49 1.84-5 3.29-7.75a13.27 13.27 0 00-6.5 4.06zm24-7.8a164.7 164.7 0 012.72-18.62c-3 4.7-5.59 12.27-7.09 18.62zm-18.32-.61c-3.16-.34-7.66 1-11.49 3.8a37.93 37.93 0 014.85 3.66c1.25-3.01 3.42-5.05 6.6-7.45zm0 16.17c.26-2.14 1.69-3.78 2.89-5.83a10.75 10.75 0 00-4.74 2.59 27.54 27.54 0 011.8 3.25z" transform="translate(-894.98 -456.32)"/><path class="cls-1" d="M979.46 582.84l.58.95a23 23 0 012.31-2 23.6 23.6 0 00-2.89 1.05zm-.4-13.47h-2.65c-.75.78-1.49 1.58-2.21 2.41a41.75 41.75 0 002.29 5.55c.88-2.29 1.84-4.62 2.82-6.76-.1-.42-.18-.83-.25-1.2zm2 7.07c-1.3.63-2.63 1.36-3.92 2.14.49 1 1 1.93 1.55 2.89 1-1.2 2-2.37 3-3.42-.24-.54-.45-1.05-.69-1.61z" transform="translate(-894.98 -456.32)"/></svg>