<svg id="Vrstva_1" data-name="Vrstva 1" xmlns="http://www.w3.org/2000/svg" xmlns:xlink="http://www.w3.org/1999/xlink" viewBox="0 0 367.79 132.14"><defs><style>.cls-1{fill:#7f6d5d;}.cls-2{fill:#62584f;}.cls-3{fill:url(#linear-gradient);}.cls-4{fill:#262f3d;}.cls-5{fill:#94806e;}.cls-6{fill:#aa927e;}.cls-7{fill:#ece3e5;}.cls-8{fill:#50463e;}</style><linearGradient id="linear-gradient" x1="984.09" y1="503.39" x2="1101.84" y2="503.39" gradientUnits="userSpaceOnUse"><stop offset="0.18" stop-color="#7f6d5d"/><stop offset="1" stop-color="#262f3d"/></linearGradient></defs><title>mravenečník</title><path class="cls-1" d="M903,529.58c.09,0,1.88,13.68,1.88,16.08s-5.19,7.75-6.1,11.17c2.17-2.05,5.19-5.3,6.55-5.81,0,2.68-3.47,8-4.9,10.6a13.57,13.57,0,0,0,4.9-4.33c.4,3.3-10.71,22.23-12.08,26.84,2.74-2.47,5.51-5.12,6.05-6.66-.75,3.67-3.57,8.46-4.77,10.17a9,9,0,0,0,4.11-4.45c-.26,5,0,15.31,0,20.44h37c-3.93-4.87-20.69-5.21-23.86-5.9s-4.44-8.72,2.06-10.52,16.39-5.75,20.49-10.08c-1.71,3-2.57,4.61-4,5.92,3.95-1.86,11.43-10.37,12.8-12.08a24.68,24.68,0,0,1-1.54,4.61c3.29-2.13,7.67-8.15,9-10.48a21.8,21.8,0,0,1-1.2,6.21c2.66-1.84,5.59-11.23,10.26-14.93.4,1.36-.49,3.4-1.2,4.78,2.32-2.18,4.62-5.07,5.3-7.69.35,3.08-1.31,7.12-2,8.83,2.74-4,9.06-13.45,12.2-14.19,0,1.74-1.2,4.9-1.84,5.44,1.75-.45,6.75-7.72,9.15-8.58-.22,1.8-2.87,5-4.88,7,3.08-.52,7.79-5.77,8.68-6.93a7.69,7.69,0,0,1-2.68,5.1c4.62-2.79,7.84-5.19,12.83-7.07s30.21-8,52.79,3.94c2.73-27-34.72-72.51-77.39-72.85s-69,20.63-87.24,20.63H834c-12.09,0-57.92-3-57.92,73.19.12,6.22,1.48,11.52,1.6,15.17A39.61,39.61,0,0,0,778.77,572c.8,6.62.11,14.6.11,17.33,1.6-7.06,3.08-12.77,3.76-16.64A89.44,89.44,0,0,1,781.05,590c2.62-6.61,3.65-10.72,3.76-13a92.78,92.78,0,0,1-1.37,13.45c2.28-5.81,6.16-17.55,6.16-19.26.11,5.81-1.94,17.9-2.51,20.29,3.31-9.92,5.7-15.85,7-17.67-.57,5.93-1.6,15.5-2.63,18.35,3.31-10.26,6.61-18.37,7.52-22.59-.91,10.26-5,21.8-6.26,24.87a113,113,0,0,0,8.43-20.06c-.22,6-2.39,13.45-3.42,16.87,2.86-5.47,6.5-12.54,7.07-16-.34,5.13-1.82,14-2.73,16.65,3.07-6.39,8.49-17.22,9.35-20.56.59,2.91-1.12,16.25-2.06,19.16,2.23-4,6.84-16.85,7.1-19.07.6,5.3-2.14,17.62-3.25,19.41,3.42-4.87,7.78-16.76,8-18.72.17,5-3.08,17.35-4.36,19.06,3.42-3,6.33-13.76,6.76-16.5,1.11,3.59-.69,13.6-1.11,15.31a86.87,86.87,0,0,0,5-14.46,84.4,84.4,0,0,1-.17,16.42c2.74-7.44,5.73-15.39,6-17.1a98.3,98.3,0,0,1-.42,12.57,81.07,81.07,0,0,0,4.44-12.23c1.2,4.11.52,10,.26,12.83,2.39-3.42,4.62-12.4,5.73-13.94-.17,5.13-1.71,11.46-2.91,13.85,2.14-2.65,5-10,6.24-13.42.69,3.33-3.08,13.25-4.36,15.13,3.94-4,9.07-18.56,9.07-16.16,0,5.3-1.71,11.63-3.34,13.77,2.57-2.22,7.27-12.14,7.7-14.37.85,5.31-3.08,15.4-4.79,17.45,5-3.94,9.58-14.88,10.35-17.27,1.19,2.73-4,16.76-5.31,18.21,3.85-3.25,10.18-17.44,11.29-19.93,0,4.62-3,13.86-4.87,16,3.67-1.62,9.4-14.87,10.17-16.84.34,4.36-2,11-3.59,14.37,4.53-4.41,9.49-13.94,10.09-17.11.26,7.1-3.08,15.22-4.7,17.62,3.42-4.45,7.44-16.08,9-20.61,1.12,6.07-1.28,16.76-3.41,19.75,4.87-4.61,6.66-12.48,7.43-17.87a40.93,40.93,0,0,1-.34,7.61C886.76,575.61,903,529.59,903,529.58Z" transform="translate(-776.03 -474.17)"/><path class="cls-2" d="M976.44,552c2-2,4.66-5.22,4.88-7-2.4.86-7.4,8.13-9.15,8.58.64-.54,1.8-3.7,1.84-5.44-3.14.74-9.46,10.2-12.2,14.19.68-1.71,2.34-5.75,2-8.83-.68,2.62-3,5.51-5.3,7.69.71-1.38,1.6-3.42,1.2-4.78-4.67,3.7-7.6,13.09-10.26,14.93a21.8,21.8,0,0,0,1.2-6.21c-1.37,2.33-5.75,8.35-9,10.48a24.68,24.68,0,0,0,1.54-4.61c-1.37,1.71-8.85,10.22-12.8,12.08,1.48-1.31,2.34-3,4-5.92-2.48,2.61-7,5.08-11.72,7-.14,3.85,0,10,0,14.83,5.33.77,11,2.07,13,4.64h24c-3.93-4.87-20.69-5.21-23.86-5.9s-4.44-8.72,2.06-10.52,16.38-5.75,20.49-10.08c-1.71,3-2.57,4.61-4,5.92,4-1.86,11.43-10.37,12.8-12.08a24.68,24.68,0,0,1-1.54,4.61c3.29-2.13,7.67-8.15,9-10.48a21.86,21.86,0,0,1-1.19,6.21c2-1.4,5.36-14.2,8.25-22.65C980,550.22,978,551.72,976.44,552Z" transform="translate(-776.03 -474.17)"/><path class="cls-3" d="M1097,517.87a20.85,20.85,0,0,1-.89,7.94c-.14-4.32-3.5-12.53-4.87-14.41.4,4.84,0,6.33-.23,7.3-.57-3.71-2.68-8.78-3.59-9.64,0,3.25-.11,5.47-.52,6.67-.9-4.5-4.73-11.23-6-12.71a14.87,14.87,0,0,1,0,5.87,29.21,29.21,0,0,0-5.3-6.67,7.56,7.56,0,0,1-.8,4.11c-2.79-2.06-6.1-5.48-6.61-8.16-.63,2.28-1.71,3-2.4,3.37a10.7,10.7,0,0,1-5.87-7.81c-.45,2.51-.74,3.7-1.59,4.27-2.57-1.65-5.48-5.75-5-9.69a10.14,10.14,0,0,1-3.08,5.13,15.18,15.18,0,0,1-7.81-8.38c0,3.48.86,5.11,1.54,6-2.73-1.19-8.72-4.78-9.58-7.35a10.11,10.11,0,0,0,1.08,5.28c-16.9-5.91-51.36-13.28-51.36-13.28A78.38,78.38,0,0,1,1008.46,486s31.15,4.74,39.27,8.33h0A209.1,209.1,0,0,1,1101.84,531S1098.68,522.09,1097,517.87Z" transform="translate(-776.03 -474.17)"/><path class="cls-4" d="M1135.9,600.08c1.61,3.56,2.75,6.12,7.92,6.23a34.38,34.38,0,0,0-1.16-7.16A19.1,19.1,0,0,1,1135.9,600.08Z" transform="translate(-776.03 -474.17)"/><path class="cls-5" d="M1120.32,550.9a206.34,206.34,0,0,0-72.59-56.54c-8.12-3.59-40.49-12.65-51.66-6.85,0,0,21.59,16.76,26,29.76,4.19,12.28,10.32,29.26,26,29.76,4.61-.17,26-1,44,7.69s42,41.22,43.72,45l.17.38a19.1,19.1,0,0,0,6.76-.93C1139,584.77,1127.77,560.82,1120.32,550.9Z" transform="translate(-776.03 -474.17)"/><path class="cls-2" d="M1090.44,552.38c-3.29-2-6.39-3.87-8.77-6.72-27.16-34.27-65.28-49.32-85.42-58h0c1.93,1.52,21.65,17.26,25.85,29.62s10.32,29.26,26,29.76c4.61-.17,26-1,44,7.69a54.79,54.79,0,0,1,10.24,6.82l-.14-.12C1098.22,557.09,1094.14,554.62,1090.44,552.38Z" transform="translate(-776.03 -474.17)"/><path class="cls-4" d="M1123.3,567.09a1.37,1.37,0,1,1-1.37-1.37A1.37,1.37,0,0,1,1123.3,567.09Z" transform="translate(-776.03 -474.17)"/><path class="cls-6" d="M1114.75,554.64c-.08-.46-1.11-7-2.82-6.59s-1.8,6-1.2,8.21C1112.64,556.26,1114.83,555.09,1114.75,554.64Z" transform="translate(-776.03 -474.17)"/><path class="cls-7" d="M996.25,487.65c20.14,8.69,58.26,23.74,85.42,58,2.38,2.85,5.48,4.73,8.77,6.72,3.7,2.24,7.78,4.71,11.67,9,.82.67,1.65,1.36,2.47,2.08a.18.18,0,0,1,.07,0l1.08,1,.21.18c2.19,2,4.38,4.07,6.51,6.25-5.29-8.25-15.39-17.75-20.59-20.91-3.22-1.95-6-3.63-8.07-6.1-20.31-25.63-46-43.77-87.72-56.42A.31.31,0,0,0,996.25,487.65Z" transform="translate(-776.03 -474.17)"/><path class="cls-5" d="M1038,597.73c4.78-6.58,5.65-29.84,5.13-35-.52-5.81,4.1-9.15,5-15.73-6.91-1.82-10.09-3.49-15.38-12.79-7.06-12.4-11.57-38.45-36.61-46.73-1.18,1.06-1.6,2.28-3.48,7-1.2,2.63-3,5.33-4.52,6.14a14.65,14.65,0,0,0,7.06-.73,26.26,26.26,0,0,1-6.07,5.13c2.39.6,6.24-.25,7-.51a11.84,11.84,0,0,1-5.47,5.22c3.5.25,5.58-.52,6.59-1.2-1.46,2.82-5.4,7.61-7.71,8.38a17.12,17.12,0,0,0,7.71-1.54c-.86,2.91-4.59,5.81-6,7.1,3.64-.09,6.16,0,7.65,0a91.74,91.74,0,0,0-7.52,5.38c4.79-.11,7.07-.45,8.67-.57-3.54,1.71-8.1,3.94-9.92,4.79a63,63,0,0,0,11,0,24.12,24.12,0,0,1-5.87,5.25,24.81,24.81,0,0,0,8.89-.75c-.12,2.57-1.48,5.91-3.62,7.36a10.44,10.44,0,0,0,6.24-1.8,15.67,15.67,0,0,1-3.59,7.27c3.08-1.2,4.79-2.31,5.3-3.08-.77,3.34-4.62,7.44-6.41,8.72a16.05,16.05,0,0,0,6.41-1.79c-.94,3.16-7.14,7.52-10.15,9.23,2,1.11,9.3-2.48,10.66-3.59a9,9,0,0,1-4.61,4.79,25.38,25.38,0,0,1,7,1.4c-3.31.45-5.87.4-6.78,0a50.37,50.37,0,0,0,9.75,5.58c-2.45,1.71-7.93-1-8.84-1.88,2,3.19,8.84,8.44,11.57,10-4.44.12-11.63-3.64-13.79-4.78,2.5,3.64,12,8.66,13.79,9.12a10.74,10.74,0,0,1-9.58-1.49c3,4.22,7.87,3.65,11.75,8s5.53,9.86,6.38,14h33.35C1054.21,600.3,1042.33,598.33,1038,597.73Z" transform="translate(-776.03 -474.17)"/><path class="cls-8" d="M1063.62,562.76c-.49-5.53,3.66-8.83,4.8-14.81a115.53,115.53,0,0,0-20.36-.92c-.86,6.58-5.48,9.92-5,15.73.4,4,0,18.64-2.42,28.2a27.34,27.34,0,0,1,4.06,7.92c5.06,1,11.1,2.59,14.09,4.75h20.52c-4.62-3.33-16.5-5.3-20.86-5.9C1063.28,591.15,1064.14,567.89,1063.62,562.76Z" transform="translate(-776.03 -474.17)"/></svg>