<svg id="Vrstva_1" data-name="Vrstva 1" xmlns="http://www.w3.org/2000/svg" viewBox="0 0 94.49 96.96"><defs><style>.cls-1{fill:#111a20;}.cls-2{fill:#e1ad2a;}.cls-3{fill:#f7d038;}.cls-4{fill:#fff;}.cls-5{fill:#f1ea3f;}</style></defs><title>pralesnička zlatá</title><path class="cls-1" d="M935.15,540.64c-1-.12-1.51-1.17-1.76-2.28-1.08,1.3-6.25,2.59-8.18,3.14a.88.88,0,0,0,.38,1.71c1.08-.17,2.44-.5,3.34-.74a.2.2,0,0,1,.2.34,117,117,0,0,0-8,8.9.73.73,0,0,0,.08,1,.75.75,0,0,0,1,.06c2.3-1.81,9.17-8,10.85-9.52a.21.21,0,0,1,.35.15c0,1.18.17,2.8.31,4a1,1,0,0,0,2-.09c.06-1.23,0-2.56-.08-3.63a1.08,1.08,0,0,1,.37-.85c2-1.66,6.41-6.56,7.8-7.93C943.81,534.84,937.38,540.91,935.15,540.64Z" transform="translate(-913.83 -491.67)"/><path class="cls-2" d="M939.37,529.68l-5.92,8.59a.47.47,0,0,1-.06.09c.25,1.11.76,2.16,1.76,2.28,2.23.27,8.66-5.8,8.66-5.8C942.26,533.18,940.76,531.45,939.37,529.68Z" transform="translate(-913.83 -491.67)"/><path class="cls-2" d="M1008,538.38c-7.41-18.41-21.82-22.44-27-23.3a42.4,42.4,0,0,1,12.8,25.7c4.62,1.07,11.35.79,13.77-.84A1.29,1.29,0,0,0,1008,538.38Z" transform="translate(-913.83 -491.67)"/><path class="cls-3" d="M938.46,494.73c-1.89-.94-2-2.14-3-2.7s-2.69-.4-5.07,0-2.79,2.59-4.87,3.14c-6,.71-12.47,4.47-11.56,7.61,1.35,9.87,20.41,19.33,20.41,19.33a52.35,52.35,0,0,0,5,7.57c7.12,9.06,17.29,17.4,21.73,19.2,5.68,2.3,7.68,10.58,13.36,7.74s18.81-10.39,19.36-15.51C989.57,503,940.35,495.68,938.46,494.73Z" transform="translate(-913.83 -491.67)"/><path class="cls-1" d="M940.08,510.29c-.4,2.22-3,3.62-5.17,3.22s-6.3-3.11-5.9-5.33,5.14-3.12,7.36-2.71S940.49,508.07,940.08,510.29Z" transform="translate(-913.83 -491.67)"/><path class="cls-4" d="M936,507a1,1,0,1,1-1-1A1,1,0,0,1,936,507Z" transform="translate(-913.83 -491.67)"/><path class="cls-1" d="M920.45,507.44a1.3,1.3,0,0,1-2.32-1.1,1.2,1.2,0,0,1,1.62-.42A1.19,1.19,0,0,1,920.45,507.44Z" transform="translate(-913.83 -491.67)"/><path class="cls-1" d="M948.17,565.9a24.24,24.24,0,0,0-3.92-1.56.35.35,0,0,0-.35.57c.31.35.63.76,1,1.22a.25.25,0,0,1-.18.4,85.67,85.67,0,0,0-12.38,2,.35.35,0,0,0,.07.69c3.67.22,9.8.36,12.36.83a.26.26,0,0,1,.11.45,17,17,0,0,0-3.07,3,.36.36,0,0,0,.41.56c3-1.27,7.8-3.19,7.8-3.19C944.83,569.5,948.17,565.9,948.17,565.9Z" transform="translate(-913.83 -491.67)"/><path class="cls-5" d="M949.34,526.17c-6.42-2.2-9,1.14-10,3.51,7.12,9.06,17.29,17.4,21.73,19.2-2.29,2-8.55,12.94-10.83,17a4.73,4.73,0,0,1-2.1,0s-3.34,3.6,1.82,4.92l.51-.18a5.37,5.37,0,0,1,1.44-.23,3.74,3.74,0,0,0,2.21-.87c4.47-3.83,14.64-15.82,14.39-19C968.27,547,958.81,529.41,949.34,526.17Z" transform="translate(-913.83 -491.67)"/><path class="cls-2" d="M964.72,569s-2.23-13,5.07-19.78c4.77-2.84,12.37-4.66,18.15-9.94,2-1.31,4.82,5.68,2.64,11.26-1.27,3.25-2.46,8.69-5.16,13.37a15.4,15.4,0,0,1-14.93,7.54C967.37,571.13,964.88,570.46,964.72,569Z" transform="translate(-913.83 -491.67)"/><path class="cls-1" d="M980.51,578.46a30.53,30.53,0,0,0-3.1-2.89.88.88,0,0,0-.94,1.37c.42.61.86,1.27,1.3,1.86-1,0-6.39.26-8.62.36a.75.75,0,0,0-.71.65.77.77,0,0,0,.64.86c1.51.21,4.92.24,7.1.57-1.27.56-8,3.82-10.74,5.09a.8.8,0,0,0,.62,1.47c3-1.13,11.34-4.15,13.2-5.08-.67.66-3.27,3.38-4.61,4.68a.71.71,0,0,0,0,1,.73.73,0,0,0,.94,0,95.84,95.84,0,0,0,8.13-7.2,57.12,57.12,0,0,0,6.08-2,24.91,24.91,0,0,1-6.38-1.27A9.68,9.68,0,0,1,980.51,578.46Z" transform="translate(-913.83 -491.67)"/><path class="cls-2" d="M1008.33,565c-1.43-1.52-5.28-5.37-17.65-4.87-23.93,0-23.23,10.78-23.23,10.78,3,1.29,20.09,2,26.41,1.16C993.86,572.11,1003,571,1008.33,565Z" transform="translate(-913.83 -491.67)"/><path class="cls-2" d="M993.86,572.11c-1.62,1.88-6.48,4.84-10.41,5.93a24.91,24.91,0,0,0,6.38,1.27c9.76-3.75,17.71-9.25,18.5-14.27C1003,571,993.86,572.11,993.86,572.11Z" transform="translate(-913.83 -491.67)"/></svg>