<svg id="Vrstva_1" data-name="Vrstva 1" xmlns="http://www.w3.org/2000/svg" viewBox="0 0 154.55 201.99"><defs><style>.cls-1{fill:#4d2e22;}.cls-2{fill:#98765e;}.cls-3{fill:none;stroke:#010101;stroke-miterlimit:10;stroke-width:0.75px;}.cls-4{fill:#262f3d;}.cls-5{fill:#f2d6c4;}.cls-6{fill:#b58e77;}.cls-7{fill:#7d5c46;}</style></defs><title>lenochod</title><path class="cls-1" d="M1129,556.15c-5.65,7.82-14.93,17.84-20.62,27.55S1102.67,600,1090.77,615s-21.42,41.3-25.57,48.43-28.76,52.24-34.39,59.76c14.52,3.32,8.1,36.5,37.35,34.6,4.8-10.44,104.12-168,107-173.89C1152.36,589.53,1161.63,552.43,1129,556.15Z" transform="translate(-1030.81 -555.88)"/><path class="cls-2" d="M1181.2,661.65a28.81,28.81,0,1,0-53.41-16.45c-.06,1.08-.17,2.16-.28,3.24-.35,3.41-.08,6.73-.89,9.47-7.65,25.76-23.23,26.7-25,30.79-2,4.59-7.83,20.15-14.71,19.73-21.09-3.24-26.1-32.87-26.1-34.43s2-6.29,4.39-10.56c-2.09.42-17.33,2.51-19.62,30.48s18.65,39.69,25.77,38.75a16.8,16.8,0,0,1-4.46,6.57,10.79,10.79,0,0,0,6.62-2.5,13.82,13.82,0,0,0-1.73,3.36,15,15,0,0,0,5.41-.78c-.63,1-3,5-2.27,8.22.87-2.22,2.54-3.52,5-4.62.2.79.51,2-1,4.35,1-.67,2.42-1.37,5.13-3-.24,1.41-1.14,3.45-2.71,7.2a31.1,31.1,0,0,1,7.91-3.52,18,18,0,0,1-2,3,26,26,0,0,0,8-.58c-.63.9-1.1,1.64-2.48,3.34,4.18-.79,8.14-.71,12.08-1.49-.28.52-1,1.7-1.43,2.37,73.89-1.87,82-62,76.28-81-.16-.51-.29-1-.4-1.55A14.43,14.43,0,0,1,1181.2,661.65Z" transform="translate(-1030.81 -555.88)"/><path class="cls-3" d="M1161.38,655.71c0,1.46-2.16,1.77-4.83,1.77s-4.82-.31-4.82-1.77,2.16-3,4.82-3S1161.38,654.24,1161.38,655.71Z" transform="translate(-1030.81 -555.88)"/><path class="cls-4" d="M1144.21,650.52a1.67,1.67,0,1,1-1.67-1.67A1.67,1.67,0,0,1,1144.21,650.52Z" transform="translate(-1030.81 -555.88)"/><path class="cls-5" d="M1179.1,646.63a4.89,4.89,0,0,0-1.69-2.86c-3.4-2.95-10-4.16-12.69-2.14a13.24,13.24,0,0,1-16.34,0c-2.66-2-9.28-.81-12.68,2.14a5,5,0,0,0-1.7,2.86c-.48,2.79,2,3.68,5.85,2.2,3.29-1.27,5.39-1.56,7.05-.81a2.27,2.27,0,0,1,1,3.18c-1.4,2.37-5.14,3-10.1,2.84a.61.61,0,0,0-.43,1.05c2.13,2.07,5.88,2.44,8.17,2.59a3,3,0,0,1,1.83.78c2,1.85,6.14,2,9.13,2s7.13-.18,9.13-2a3,3,0,0,1,1.83-.78c2.3-.15,6-.52,8.17-2.59a.61.61,0,0,0-.43-1.05c-5,.13-8.69-.47-10.1-2.84a2.28,2.28,0,0,1,1.06-3.18c1.66-.75,3.76-.46,7,.81C1177.08,650.31,1179.58,649.42,1179.1,646.63Z" transform="translate(-1030.81 -555.88)"/><path class="cls-2" d="M1167.51,657.68c-3.57-8.16-11-7.12-11-7.12s-7.38-1-11,7.12a3,3,0,0,1,1.83.78c2,1.85,6.14,2,9.13,2s7.13-.18,9.13-2A3,3,0,0,1,1167.51,657.68Z" transform="translate(-1030.81 -555.88)"/><path class="cls-6" d="M1175.7,655.09c-2.15,2.08-5.9,2.44-8.19,2.59a3,3,0,0,0-1.83.78c-2,1.85-6.14,2-9.13,2s-7.12-.18-9.13-2a3,3,0,0,0-1.82-.78c-2.3-.15-6-.51-8.18-2.59a1.62,1.62,0,0,0-1.08,2.93c4.15,3,11.24,7.09,20.21,7.09s16.07-4.09,20.21-7.09A1.62,1.62,0,0,0,1175.7,655.09Z" transform="translate(-1030.81 -555.88)"/><path class="cls-4" d="M1151.73,655.71c0,1.46,2.16,1.77,4.82,1.77s4.83-.31,4.83-1.77-2.16-3-4.83-3S1151.73,654.24,1151.73,655.71Z" transform="translate(-1030.81 -555.88)"/><path class="cls-4" d="M1168.9,650.52a1.67,1.67,0,1,0,1.67-1.67A1.67,1.67,0,0,0,1168.9,650.52Z" transform="translate(-1030.81 -555.88)"/><path class="cls-7" d="M1063.19,695.86a9,9,0,0,0-.93-.45,5.92,5.92,0,0,0-5.84.52c.37.09.94.09,1.52.16a17.19,17.19,0,0,1,1.71.36A3.79,3.79,0,0,0,1063.19,695.86Z" transform="translate(-1030.81 -555.88)"/><path class="cls-7" d="M1067.3,701.6a8.7,8.7,0,0,0-1.19-.37,7.6,7.6,0,0,0-5.52.61,8,8,0,0,0-1.32,1,12.12,12.12,0,0,0,1.73-.11,19.39,19.39,0,0,1,2.16,0A5.53,5.53,0,0,0,1067.3,701.6Z" transform="translate(-1030.81 -555.88)"/><path class="cls-7" d="M1072.22,707.24l-.14-.06-.37-.13a10.19,10.19,0,0,0-1.29-.38c-2.82-.68-6.05-.33-8.21,1.77a11.5,11.5,0,0,0-1.51,2c.49-.17,1.18-.74,2.1-1.22a11.83,11.83,0,0,1,4.75-1.13A11.92,11.92,0,0,0,1072.22,707.24Z" transform="translate(-1030.81 -555.88)"/><path class="cls-7" d="M1077.07,711h-.18l-.44,0a13.11,13.11,0,0,0-1.55.28,9.16,9.16,0,0,0-6.5,5.07,9.52,9.52,0,0,0-.6,2.57,6.15,6.15,0,0,0,0,.84c0,.49,0,.83,0,1a5.68,5.68,0,0,0,.45-1c1.09-3.15,3.24-5.1,6.07-6.7A9.8,9.8,0,0,0,1077.07,711Z" transform="translate(-1030.81 -555.88)"/><path class="cls-6" d="M1090.77,615c-28.81,1.57-19.52,61.17-13.54,66.93-.4-3.76,1.09-8,1.09-5.79s1.49,11.9,3.76,16.36a13.07,13.07,0,0,1,1.25-8.14c-.08,1.88,1.41,10.8,4.78,14.32-.55-1.72-2-7-.94-10.56.7,2.58,4.07,14,8.61,17.14-1-1.57-2.74-6.11-1.18-8.06,2.51,1.17,6.19,7.43,8.54,13.38-.4-1.72-1.18-5.09.23-7.75,2,.86,5.72,8.38,6.34,13.54,0-2.11.47-7,3.13-9.54.79.39,3.13,6.34,3.37,11.66.47-2.74,2-8.06,4.15-9.71.62,1,1,6.26,1.17,11.51.63-3,3.6-8.06,6.26-9.71a65,65,0,0,1,.55,9.55c.39-1.25,3.68-6.57,6.26-8.14a82.49,82.49,0,0,1-1.33,9.79c1.26-3,6.5-8.22,8.69-9.79-.15,2.27,0,2.66-.39,5.79,1.41-1.48,2.74-2.11,5.09-4.3,7.83.94,30.5-5.27,33.75-18.46,1.35-8.33.41-14.54-1.7-19a14.48,14.48,0,0,0-16.81-7.76c-13,3.56-40-2-54.69-9.62C1100.27,655.93,1091.71,647.79,1090.77,615Z" transform="translate(-1030.81 -555.88)"/><path class="cls-2" d="M1138,671.82c-.1.08-1.58-.26-1.83-.26-3.57,0-5.71,3.12-6.32,6.31-.07.37-.13.63-.15.73a4.5,4.5,0,0,0,.62-.69c1.22-1.66,2.36-3.4,4.24-4.39A23.4,23.4,0,0,0,1138,671.82Z" transform="translate(-1030.81 -555.88)"/><path class="cls-2" d="M1146.31,674.78a4.48,4.48,0,0,0-.61.27,10,10,0,0,0-1.45.87,9,9,0,0,0-1.8,1.65,6.45,6.45,0,0,0-1.38,5.59,9.77,9.77,0,0,0,.88,2.45,16.12,16.12,0,0,0,1.59,2.46,28.37,28.37,0,0,0-.71-2.79,8.34,8.34,0,0,1,0-4.92,12.08,12.08,0,0,1,1.78-3c.3-.4.61-.79.9-1.2C1145.65,676,1146.09,674.86,1146.31,674.78Z" transform="translate(-1030.81 -555.88)"/><path class="cls-2" d="M1152,675.51l.11.12c.08.09.19.22.33.41a15.13,15.13,0,0,1,2.3,14.6,10.38,10.38,0,0,1-.4,1l-.5,1.1a6.39,6.39,0,0,0,1-1,5.5,5.5,0,0,0,.6-.81c.18-.31.38-.65.57-1a12.1,12.1,0,0,0,1.31-5.73,11.5,11.5,0,0,0-1.78-5.92C1154.44,676.62,1153.06,675.57,1152,675.51Z" transform="translate(-1030.81 -555.88)"/><path class="cls-2" d="M1160.19,675.71a6.16,6.16,0,0,1,1.41.85,9.88,9.88,0,0,1,3.68,6.78c0,.3.06.57.09.82s0,.49,0,.69c0,.4,0,.68,0,.79a3.72,3.72,0,0,0,.46-.87,6.15,6.15,0,0,0,.22-.65c.06-.25.11-.51.15-.79a8.24,8.24,0,0,0,.08-1.89,8.85,8.85,0,0,0-.46-2.08,6.56,6.56,0,0,0-2.57-3.34,4.18,4.18,0,0,0-1.67-.62A2,2,0,0,0,1160.19,675.71Z" transform="translate(-1030.81 -555.88)"/><path class="cls-2" d="M1115.09,664.32a9.06,9.06,0,0,0-2.69,1.83,14.86,14.86,0,0,0-3.65,5.86c-.18.6-.39,1.21-.53,1.82s-.26,1.22-.37,1.81-.14,1.18-.2,1.74-.06,1.1-.09,1.6,0,1,0,1.4,0,.82,0,1.15c0,.67,0,1.14,0,1.34.55-1.29,1-5.47,2.35-9.33a39.71,39.71,0,0,1,4.51-8.33C1114.69,664.91,1114.84,664.63,1115.09,664.32Z" transform="translate(-1030.81 -555.88)"/><path class="cls-2" d="M1108.22,662.87a6.42,6.42,0,0,0-1.08.33,10.64,10.64,0,0,0-2.37,1.37c-3.48,2.63-5.12,7.08-5.67,11.27-.16,1.21-.19,2.43-.28,3.65s0,2.2,0,3,0,1.34,0,1.57a11.26,11.26,0,0,0,.42-1.7c1-5.13,1.81-10.36,4.72-14.82a19.53,19.53,0,0,1,3.32-3.83A10.44,10.44,0,0,1,1108.22,662.87Z" transform="translate(-1030.81 -555.88)"/><path class="cls-2" d="M1104.73,662.16c-5-.51-9.69,2.57-12.92,6.05,2.1-.48,4.17-2,6.15-2.8,1.29-.56,2.6-1,3.76-1.55A12.09,12.09,0,0,0,1104.73,662.16Z" transform="translate(-1030.81 -555.88)"/><path class="cls-2" d="M1103.23,659.32a11,11,0,0,0-1.21-.39,15.38,15.38,0,0,0-2.68-.49,15.2,15.2,0,0,0-2.86,0c-.82.07-1.41.2-1.57.22a6,6,0,0,0,1.59.72c.7.23,1.49.46,2.28.64a7.66,7.66,0,0,0,2.31.21A4,4,0,0,0,1103.23,659.32Z" transform="translate(-1030.81 -555.88)"/><path class="cls-2" d="M1087,615.6a18.57,18.57,0,0,1,3.77-.59c4.77-6.26,13.07-14.24,20.82-13.3s10.26-4.62,10.65-8.54c-.16-6-8.61-13.85-17.62-10.25C1083.72,591.06,1087,615.6,1087,615.6Z" transform="translate(-1030.81 -555.88)"/><path class="cls-5" d="M1113.44,593.86l1-1.48a1,1,0,0,1,1.43-.17c3.11,2.83,10.88,10.45,12.19,11.78-3-1.73-10.77-6.59-14.32-8.79A1,1,0,0,1,1113.44,593.86Z" transform="translate(-1030.81 -555.88)"/><path class="cls-5" d="M1116.51,588.92l1.25-1.27a1,1,0,0,1,1.44.1c2.52,3.36,8.74,12.29,9.78,13.85-2.65-2.27-9.36-8.48-12.43-11.31A1,1,0,0,1,1116.51,588.92Z" transform="translate(-1030.81 -555.88)"/><path class="cls-5" d="M1111.15,598.73c.22-.53.46-1.08.7-1.63a1,1,0,0,1,1.38-.44c3.56,2.22,12.59,8.3,14.13,9.37-3.29-1.15-11.79-4.51-15.68-6A.94.94,0,0,1,1111.15,598.73Z" transform="translate(-1030.81 -555.88)"/></svg>