<svg id="Vrstva_1" data-name="Vrstva 1" xmlns="http://www.w3.org/2000/svg" viewBox="0 0 106.23 128.03"><defs><style>.cls-1{fill:#776151;}.cls-2{fill:#675549;}.cls-3{fill:#c19a74;}.cls-4{fill:#8a6e5c;}.cls-5{fill:#262f3d;}.cls-6{fill:#9e7f66;}.cls-7{fill:#d3b298;}.cls-8{fill:#272733;}</style></defs><title>kobra královská</title><path class="cls-1" d="M990.34,576.8h-35.6c-13.63,0-16.43,15.82-33.33,15.42a124,124,0,0,1-13.88-1.43c-.28.84,10.33,5.72,23.09,4.36,8.22-.88,14.73-6.4,19.83-7.54s39.89-6.71,39.89-6.71v-4.1Z" transform="translate(-907.52 -476.44)"/><path class="cls-2" d="M987.39,579.79H956.24c-2.72,0-7.08.11-9.91,5.39-.81,1.51-4.69,1.15-8.18.46-4.22,3.54-9,6.76-16.74,6.58a124,124,0,0,1-13.88-1.43c-.28.84,10.33,5.72,23.09,4.36,6.35-.68,11.68-4.13,16.13-6.19h0a12.58,12.58,0,0,1,.94-2.84c1.25-2.63,3.73-5.16,8.55-5.16H990l.37-.06C990.26,580.06,988.91,579.79,987.39,579.79Z" transform="translate(-907.52 -476.44)"/><path class="cls-1" d="M1013.19,591.63c-2-5-8.61-5.57-11.8-5.57h-3.21c1.51-5.57-3.59-9.26-7.84-9.26v4.1H956.25c-4.81,0-7.29,2.53-8.54,5.16a12.85,12.85,0,0,0-1.21,5.17c-2.85-.66-5.88-2.28-7-5.83-.66,3.58.14,11.14,4.29,14.63a21.79,21.79,0,0,0,8.21,4.44h49.39c4.72,0,12.37-1.61,12.37-9.63A8.64,8.64,0,0,0,1013.19,591.63Z" transform="translate(-907.52 -476.44)"/><path class="cls-2" d="M997.92,581.53c.41,2.85-1.77,3.29-3.9,3.29H960.33c-2.31,0-3.74,0-4.09,1.3h41.92l0-.06A6.76,6.76,0,0,0,997.92,581.53Z" transform="translate(-907.52 -476.44)"/><path class="cls-2" d="M998.45,590.29H949.9a5,5,0,0,1-3.25-.72,10.81,10.81,0,0,0-.15,1.66h0v.07a15.15,15.15,0,0,0,3.43.39h51.46C1001.38,591,1000.8,590.29,998.45,590.29Z" transform="translate(-907.52 -476.44)"/><path class="cls-3" d="M958.41,501.54a25.11,25.11,0,0,0-50.21,0c0,27.15,12.93,30.83,16.89,50.52.27,1.32.49,2.73.69,4.17h15.06c.19-1.44.42-2.85.68-4.17C945.49,532.37,958.41,528.69,958.41,501.54Z" transform="translate(-907.52 -476.44)"/><path class="cls-4" d="M939.68,571.18s.19-7.82,1.16-14.95h0c0-.32.08-.7.11-1.12-1.85,0-4.38,2.26-7.64,2.26s-6.23-2.26-7.64-2.26c0,.42.07.8.11,1.12h0c1,7.13,1.15,14.95,1.15,14.95,0,29,4.49,33.29,25.07,33.29C940.86,598.14,939.68,590.4,939.68,571.18Z" transform="translate(-907.52 -476.44)"/><circle class="cls-5" cx="924.91" cy="512.87" r="8.15" transform="translate(-639.89 864.99) rotate(-80.58)"/><path class="cls-5" d="M933.76,512.87a8.15,8.15,0,1,1,8.15,8.15A8.14,8.14,0,0,1,933.76,512.87Z" transform="translate(-907.52 -476.44)"/><path class="cls-6" d="M941,555.11c.83-10.93-1.87-54.74-1.87-63.85-2.47-3.69-5.77-3.31-5.77-3.31s-3.31-.38-5.77,3.31c0,9.11-2.71,52.92-1.87,63.85,1.41,0,4.38,2.26,7.64,2.26S939.1,555.11,941,555.11Z" transform="translate(-907.52 -476.44)"/><path class="cls-5" d="M934,499.11h-1.33c0,.85-.92,3.57-.29,7.06a14,14,0,0,1,1-4,14.38,14.38,0,0,1,1,4C934.9,502.68,934,500,934,499.11Z" transform="translate(-907.52 -476.44)"/><path class="cls-7" d="M933.31,476.44a25,25,0,0,0-17,6.67c2.12-1.58,3.63-2.33,7.12-1.55s4,6.69,4.15,9.7,2.58,6.13,2.94,7.19.75,1,2.83,1,2.48,0,2.83-1,2.8-4.18,2.94-7.19.64-8.92,4.14-9.7,5,0,7.12,1.55A25,25,0,0,0,933.31,476.44Z" transform="translate(-907.52 -476.44)"/><path class="cls-8" d="M930.94,492.62a1.22,1.22,0,1,1-1.22-1.22A1.21,1.21,0,0,1,930.94,492.62Z" transform="translate(-907.52 -476.44)"/><circle class="cls-8" cx="29.37" cy="16.18" r="1.22"/><path class="cls-7" d="M926.37,520.67a8.49,8.49,0,0,1-1.14.09,7.89,7.89,0,0,1,0-15.77,7.75,7.75,0,0,1,1.82.22c0-.46,0-.92.06-1.36a9.54,9.54,0,0,0-3.79-.77,9.8,9.8,0,1,0,3,19.12C926.32,521.69,926.35,521.18,926.37,520.67Z" transform="translate(-907.52 -476.44)"/><path class="cls-7" d="M940.25,520.67a8.47,8.47,0,0,0,1.13.09,7.89,7.89,0,1,0-1.82-15.55c0-.46,0-.92-.06-1.36a9.63,9.63,0,0,1,3.8-.77,9.8,9.8,0,1,1-3,19.12Z" transform="translate(-907.52 -476.44)"/><path class="cls-4" d="M949.33,593.13c0-.3.49-.55,1.11-.55s1.1.25,1.1.55-.49.56-1.1.56S949.33,593.44,949.33,593.13Z" transform="translate(-907.52 -476.44)"/><path class="cls-4" d="M952.29,595.92c0-.31.5-.56,1.11-.56s1.1.25,1.1.56-.49.55-1.1.55S952.29,596.22,952.29,595.92Z" transform="translate(-907.52 -476.44)"/><path class="cls-4" d="M956.36,596.47c0-.31.49-.55,1.1-.55s1.11.24,1.11.55-.5.55-1.11.55S956.36,596.78,956.36,596.47Z" transform="translate(-907.52 -476.44)"/><path class="cls-4" d="M955.25,598.7c0-.3.5-.55,1.11-.55s1.1.25,1.1.55-.49.55-1.1.55S955.25,599,955.25,598.7Z" transform="translate(-907.52 -476.44)"/><path class="cls-4" d="M953.4,601.48c0-.3.49-.55,1.1-.55s1.11.25,1.11.55-.5.56-1.11.56S953.4,601.79,953.4,601.48Z" transform="translate(-907.52 -476.44)"/><path class="cls-4" d="M958.21,601.48c0-.3.5-.55,1.11-.55s1.1.25,1.1.55-.49.56-1.1.56S958.21,601.79,958.21,601.48Z" transform="translate(-907.52 -476.44)"/><path class="cls-4" d="M959.69,602.88c0-.31.5-.56,1.11-.56s1.1.25,1.1.56-.49.55-1.1.55S959.69,603.18,959.69,602.88Z" transform="translate(-907.52 -476.44)"/><path class="cls-4" d="M960.42,593.13c0-.3.5-.55,1.11-.55s1.1.25,1.1.55-.49.56-1.1.56S960.42,593.44,960.42,593.13Z" transform="translate(-907.52 -476.44)"/><path class="cls-4" d="M962.63,594.53c0-.31.5-.56,1.11-.56s1.11.25,1.11.56-.5.55-1.11.55S962.63,594.83,962.63,594.53Z" transform="translate(-907.52 -476.44)"/><path class="cls-4" d="M963.38,595.92c0-.31.5-.56,1.11-.56s1.11.25,1.11.56-.5.55-1.11.55S963.38,596.22,963.38,595.92Z" transform="translate(-907.52 -476.44)"/><path class="cls-4" d="M961.53,597.31c0-.31.49-.55,1.1-.55s1.11.24,1.11.55-.49.55-1.11.55S961.53,597.61,961.53,597.31Z" transform="translate(-907.52 -476.44)"/><path class="cls-4" d="M966.35,598.7c0-.3.49-.55,1.1-.55s1.11.25,1.11.55-.5.55-1.11.55S966.35,599,966.35,598.7Z" transform="translate(-907.52 -476.44)"/><ellipse class="cls-4" cx="61.03" cy="123.65" rx="1.11" ry="0.55"/><path class="cls-4" d="M970.74,602c0-.31.5-.56,1.11-.56s1.1.25,1.1.56-.49.55-1.1.55S970.74,602.34,970.74,602Z" transform="translate(-907.52 -476.44)"/><path class="cls-4" d="M971.52,593.13c0-.3.49-.55,1.1-.55s1.11.25,1.11.55-.5.56-1.11.56S971.52,593.44,971.52,593.13Z" transform="translate(-907.52 -476.44)"/><path class="cls-4" d="M972.62,594.53c0-.31.5-.56,1.11-.56s1.1.25,1.1.56-.49.55-1.1.55S972.62,594.83,972.62,594.53Z" transform="translate(-907.52 -476.44)"/><path class="cls-4" d="M972.08,596.76c0-.31.5-.56,1.11-.56s1.1.25,1.1.56-.49.55-1.1.55S972.08,597.06,972.08,596.76Z" transform="translate(-907.52 -476.44)"/><path class="cls-4" d="M977.06,597.31c0-.31.5-.55,1.11-.55s1.11.24,1.11.55-.5.55-1.11.55S977.06,597.61,977.06,597.31Z" transform="translate(-907.52 -476.44)"/><path class="cls-4" d="M977.44,598.7c0-.3.49-.55,1.11-.55s1.1.25,1.1.55-.49.55-1.1.55S977.44,599,977.44,598.7Z" transform="translate(-907.52 -476.44)"/><path class="cls-4" d="M977.81,600.09c0-.3.5-.55,1.11-.55s1.11.25,1.11.55-.5.56-1.11.56S977.81,600.4,977.81,600.09Z" transform="translate(-907.52 -476.44)"/><path class="cls-4" d="M981.88,600.25c0-.31.5-.56,1.11-.56s1.1.25,1.1.56-.49.55-1.1.55S981.88,600.55,981.88,600.25Z" transform="translate(-907.52 -476.44)"/><path class="cls-4" d="M981.88,602.88c0-.31.5-.56,1.11-.56s1.1.25,1.1.56-.49.55-1.1.55S981.88,603.18,981.88,602.88Z" transform="translate(-907.52 -476.44)"/><path class="cls-4" d="M983.36,594.53c0-.31.5-.56,1.11-.56s1.1.25,1.1.56-.49.55-1.1.55S983.36,594.83,983.36,594.53Z" transform="translate(-907.52 -476.44)"/><path class="cls-4" d="M985.57,595.92c0-.31.5-.56,1.11-.56s1.1.25,1.1.56-.49.55-1.1.55S985.57,596.22,985.57,595.92Z" transform="translate(-907.52 -476.44)"/><path class="cls-4" d="M986.68,597.31c0-.31.49-.55,1.1-.55s1.11.24,1.11.55-.5.55-1.11.55S986.68,597.61,986.68,597.31Z" transform="translate(-907.52 -476.44)"/><path class="cls-4" d="M990.39,597.31c0-.31.49-.55,1.1-.55s1.11.24,1.11.55-.5.55-1.11.55S990.39,597.61,990.39,597.31Z" transform="translate(-907.52 -476.44)"/><path class="cls-4" d="M989.64,600.09c0-.3.49-.55,1.1-.55s1.11.25,1.11.55-.5.56-1.11.56S989.64,600.4,989.64,600.09Z" transform="translate(-907.52 -476.44)"/><path class="cls-4" d="M989.28,602c0-.31.5-.56,1.11-.56s1.1.25,1.1.56-.49.55-1.1.55S989.28,602.34,989.28,602Z" transform="translate(-907.52 -476.44)"/><path class="cls-4" d="M993.71,602.88c0-.31.49-.56,1.1-.56s1.11.25,1.11.56-.5.55-1.11.55S993.71,603.18,993.71,602.88Z" transform="translate(-907.52 -476.44)"/><path class="cls-4" d="M991.85,593.13c0-.3.49-.55,1.11-.55s1.1.25,1.1.55-.49.56-1.1.56S991.85,593.44,991.85,593.13Z" transform="translate(-907.52 -476.44)"/><path class="cls-4" d="M994.46,594.53c0-.31.49-.56,1.1-.56s1.11.25,1.11.56-.5.55-1.11.55S994.46,594.83,994.46,594.53Z" transform="translate(-907.52 -476.44)"/><path class="cls-4" d="M996.67,595.92c0-.31.49-.56,1.1-.56s1.11.25,1.11.56-.5.55-1.11.55S996.67,596.22,996.67,595.92Z" transform="translate(-907.52 -476.44)"/><path class="cls-4" d="M997,597.86c0-.3.5-.55,1.11-.55s1.1.25,1.1.55-.49.55-1.1.55S997,598.17,997,597.86Z" transform="translate(-907.52 -476.44)"/><path class="cls-4" d="M1001.11,598.41c0-.3.49-.55,1.1-.55s1.11.25,1.11.55-.5.56-1.11.56S1001.11,598.72,1001.11,598.41Z" transform="translate(-907.52 -476.44)"/><path class="cls-4" d="M1000,600.09c0-.3.5-.55,1.11-.55s1.1.25,1.1.55-.49.56-1.1.56S1000,600.4,1000,600.09Z" transform="translate(-907.52 -476.44)"/><path class="cls-4" d="M1002.59,601.48c0-.3.49-.55,1.1-.55s1.11.25,1.11.55-.5.56-1.11.56S1002.59,601.79,1002.59,601.48Z" transform="translate(-907.52 -476.44)"/><path class="cls-6" d="M918.21,501.05c0-.34.5-.69,1.21-.79s1.32.09,1.37.42-.49.69-1.2.79S918.26,501.38,918.21,501.05Z" transform="translate(-907.52 -476.44)"/><path class="cls-6" d="M913.52,500.12c-.11-.26.26-.64.8-.86s1.08-.19,1.18.07-.26.64-.81.86S913.62,500.38,913.52,500.12Z" transform="translate(-907.52 -476.44)"/><path class="cls-6" d="M911.72,511.16c-.26-.11-.28-.64-.06-1.18s.61-.91.87-.8.28.63.06,1.18S912,511.26,911.72,511.16Z" transform="translate(-907.52 -476.44)"/><path class="cls-6" d="M911.64,514.8c-.22.05-.48-.31-.56-.79s0-.9.24-.94.48.31.57.79S911.87,514.76,911.64,514.8Z" transform="translate(-907.52 -476.44)"/><path class="cls-6" d="M913.89,518.64c-.18.09-.49-.14-.69-.52s-.22-.77,0-.86.48.14.69.52S914.07,518.54,913.89,518.64Z" transform="translate(-907.52 -476.44)"/><path class="cls-6" d="M910.07,509.28c-.18,0-.36-.29-.4-.68s.08-.72.27-.74.36.29.4.68S910.26,509.26,910.07,509.28Z" transform="translate(-907.52 -476.44)"/><path class="cls-6" d="M911.53,498.76c-.15-.11-.09-.45.14-.77s.54-.49.69-.39.08.46-.15.78S911.68,498.87,911.53,498.76Z" transform="translate(-907.52 -476.44)"/><path class="cls-6" d="M920.11,493.94c0-.18.27-.37.66-.43s.72.05.75.23-.27.38-.66.43S920.14,494.12,920.11,493.94Z" transform="translate(-907.52 -476.44)"/><path class="cls-6" d="M924.47,495.41c0-.18.39-.25.77-.16s.66.31.62.49-.39.25-.77.16S924.43,495.59,924.47,495.41Z" transform="translate(-907.52 -476.44)"/><path class="cls-6" d="M914.47,493.5c-.08-.16.14-.43.49-.6s.71-.18.79,0-.14.44-.5.61S914.55,493.67,914.47,493.5Z" transform="translate(-907.52 -476.44)"/><path class="cls-6" d="M920.31,529.92c.13-.13.46,0,.74.27s.4.6.27.73-.46,0-.74-.26S920.18,530.05,920.31,529.92Z" transform="translate(-907.52 -476.44)"/><path class="cls-6" d="M923.64,533.51c.09-.16.44-.13.78.06s.54.49.45.65-.44.13-.78-.07S923.55,533.66,923.64,533.51Z" transform="translate(-907.52 -476.44)"/><path class="cls-6" d="M920.78,533.07c.14-.12.46,0,.73.3s.37.62.24.75-.46,0-.73-.3S920.65,533.2,920.78,533.07Z" transform="translate(-907.52 -476.44)"/><path class="cls-6" d="M922.66,491.34c0-.18.34-.31.73-.27s.7.2.69.39-.35.3-.74.27S922.64,491.52,922.66,491.34Z" transform="translate(-907.52 -476.44)"/><path class="cls-6" d="M916.8,522.22c-.15.14-.5,0-.8-.32s-.41-.69-.26-.82.51,0,.8.32S917,522.08,916.8,522.22Z" transform="translate(-907.52 -476.44)"/><path class="cls-6" d="M917.49,524.68c-.12.17-.5.09-.84-.17s-.53-.6-.41-.76.5-.08.85.17S917.61,524.52,917.49,524.68Z" transform="translate(-907.52 -476.44)"/><path class="cls-6" d="M924.61,524.75c0,.2-.41.29-.83.21s-.74-.3-.7-.5.41-.29.83-.21S924.65,524.55,924.61,524.75Z" transform="translate(-907.52 -476.44)"/><path class="cls-6" d="M915,525c-.16.12-.5-.05-.77-.39s-.35-.71-.19-.84.5,0,.77.39S915.15,524.83,915,525Z" transform="translate(-907.52 -476.44)"/><path class="cls-6" d="M918.43,528.23c-.16.13-.51-.05-.77-.39s-.36-.71-.2-.84.51,0,.77.39S918.59,528.11,918.43,528.23Z" transform="translate(-907.52 -476.44)"/><path class="cls-6" d="M924.27,529.6c-.07.19-.45.23-.86.09s-.68-.41-.62-.6.45-.23.86-.09S924.34,529.41,924.27,529.6Z" transform="translate(-907.52 -476.44)"/><path class="cls-6" d="M910.88,503.84c-.2,0-.3-.41-.22-.83s.31-.74.51-.7.29.41.21.83S911.07,503.88,910.88,503.84Z" transform="translate(-907.52 -476.44)"/><path class="cls-6" d="M923.68,501.21c0-.2.38-.34.81-.3s.76.22.75.42-.38.34-.81.31S923.66,501.41,923.68,501.21Z" transform="translate(-907.52 -476.44)"/><path class="cls-6" d="M911.31,507c-.27-.05-.4-.57-.29-1.15s.41-1,.69-.95.4.56.29,1.14S911.58,507,911.31,507Z" transform="translate(-907.52 -476.44)"/><path class="cls-6" d="M914.57,521.9c-.22.16-.68-.11-1-.59s-.44-1-.21-1.16.68.1,1,.59S914.8,521.74,914.57,521.9Z" transform="translate(-907.52 -476.44)"/><path class="cls-6" d="M920.39,524.19c-.16.23-.68.15-1.17-.18s-.76-.79-.6-1,.67-.14,1.16.19S920.54,524,920.39,524.19Z" transform="translate(-907.52 -476.44)"/><path class="cls-6" d="M922.62,526.92c-.1.26-.63.28-1.17.06s-.91-.62-.8-.87.63-.28,1.17-.06S922.73,526.67,922.62,526.92Z" transform="translate(-907.52 -476.44)"/><path class="cls-6" d="M921.78,498.08c0-.34.63-.56,1.35-.5s1.27.37,1.24.71-.63.56-1.34.5S921.75,498.41,921.78,498.08Z" transform="translate(-907.52 -476.44)"/><path class="cls-6" d="M916.08,496c0-.34.56-.64,1.28-.67s1.31.22,1.32.55-.55.64-1.27.67S916.1,496.31,916.08,496Z" transform="translate(-907.52 -476.44)"/><path class="cls-6" d="M913.73,504.86c-.18-.28.16-.82.76-1.21s1.25-.47,1.43-.19-.16.83-.77,1.22S913.91,505.15,913.73,504.86Z" transform="translate(-907.52 -476.44)"/><path class="cls-6" d="M948.4,501.05c.05-.34-.49-.69-1.2-.79s-1.33.09-1.38.42.5.69,1.21.79S948.36,501.38,948.4,501.05Z" transform="translate(-907.52 -476.44)"/><path class="cls-6" d="M953.1,500.12c.1-.26-.26-.64-.81-.86s-1.07-.19-1.17.07.25.64.8.86S953,500.38,953.1,500.12Z" transform="translate(-907.52 -476.44)"/><path class="cls-6" d="M954.9,511.16c.25-.11.28-.64.06-1.18s-.62-.91-.87-.8-.28.63-.06,1.18S954.64,511.26,954.9,511.16Z" transform="translate(-907.52 -476.44)"/><path class="cls-6" d="M955,514.8c.22.05.47-.31.56-.79s0-.9-.25-.94-.47.31-.56.79S954.75,514.76,955,514.8Z" transform="translate(-907.52 -476.44)"/><path class="cls-6" d="M952.73,518.64c.18.09.49-.14.69-.52s.22-.77,0-.86-.49.14-.69.52S952.55,518.54,952.73,518.64Z" transform="translate(-907.52 -476.44)"/><path class="cls-6" d="M956.54,509.28c.19,0,.36-.29.4-.68s-.08-.72-.26-.74-.36.29-.4.68S956.36,509.26,956.54,509.28Z" transform="translate(-907.52 -476.44)"/><path class="cls-6" d="M955.09,498.76c.15-.11.08-.45-.15-.77s-.53-.49-.68-.39-.09.46.14.78S954.94,498.87,955.09,498.76Z" transform="translate(-907.52 -476.44)"/><path class="cls-6" d="M946.51,493.94c0-.18-.27-.37-.66-.43s-.73.05-.75.23.27.38.66.43S946.48,494.12,946.51,493.94Z" transform="translate(-907.52 -476.44)"/><path class="cls-6" d="M942.15,495.41c0-.18-.39-.25-.77-.16s-.66.31-.62.49.39.25.77.16S942.19,495.59,942.15,495.41Z" transform="translate(-907.52 -476.44)"/><path class="cls-6" d="M952.15,493.5c.08-.16-.14-.43-.5-.6s-.7-.18-.78,0,.14.44.49.61S952.07,493.67,952.15,493.5Z" transform="translate(-907.52 -476.44)"/><path class="cls-6" d="M946.31,529.92c-.13-.13-.46,0-.74.27s-.4.6-.27.73.46,0,.74-.26S946.44,530.05,946.31,529.92Z" transform="translate(-907.52 -476.44)"/><path class="cls-6" d="M943,533.51c-.09-.16-.44-.13-.78.06s-.55.49-.45.65.44.13.78-.07S943.07,533.66,943,533.51Z" transform="translate(-907.52 -476.44)"/><path class="cls-6" d="M945.84,533.07c-.14-.12-.46,0-.73.3s-.38.62-.24.75.46,0,.73-.3S946,533.2,945.84,533.07Z" transform="translate(-907.52 -476.44)"/><path class="cls-6" d="M944,491.34c0-.18-.35-.31-.74-.27s-.69.2-.68.39.35.3.74.27S944,491.52,944,491.34Z" transform="translate(-907.52 -476.44)"/><path class="cls-6" d="M949.81,522.22c.15.14.51,0,.8-.32s.41-.69.27-.82-.51,0-.8.32S949.67,522.08,949.81,522.22Z" transform="translate(-907.52 -476.44)"/><path class="cls-6" d="M949.13,524.68c.12.17.49.09.84-.17s.53-.6.41-.76-.5-.08-.85.17S949,524.52,949.13,524.68Z" transform="translate(-907.52 -476.44)"/><path class="cls-6" d="M942,524.75c0,.2.41.29.84.21s.74-.3.7-.5-.41-.29-.84-.21S942,524.55,942,524.75Z" transform="translate(-907.52 -476.44)"/><path class="cls-6" d="M951.63,525c.15.12.5-.05.77-.39s.35-.71.19-.84-.5,0-.77.39S951.47,524.83,951.63,525Z" transform="translate(-907.52 -476.44)"/><path class="cls-6" d="M948.19,528.23c.16.13.5-.05.77-.39s.35-.71.19-.84-.5,0-.77.39S948,528.11,948.19,528.23Z" transform="translate(-907.52 -476.44)"/><path class="cls-6" d="M942.35,529.6c.06.19.45.23.85.09s.69-.41.62-.6-.45-.23-.85-.09S942.28,529.41,942.35,529.6Z" transform="translate(-907.52 -476.44)"/><path class="cls-6" d="M955.74,503.84c.2,0,.29-.41.21-.83s-.3-.74-.5-.7-.29.41-.21.83S955.54,503.88,955.74,503.84Z" transform="translate(-907.52 -476.44)"/><path class="cls-6" d="M942.94,501.21c0-.2-.38-.34-.81-.3s-.77.22-.75.42.38.34.81.31S943,501.41,942.94,501.21Z" transform="translate(-907.52 -476.44)"/><path class="cls-6" d="M955.31,507c.27-.05.4-.57.29-1.15s-.42-1-.69-.95-.4.56-.29,1.14S955,507,955.31,507Z" transform="translate(-907.52 -476.44)"/><path class="cls-6" d="M952,521.9c.23.16.69-.11,1-.59s.43-1,.21-1.16-.69.1-1,.59S951.82,521.74,952,521.9Z" transform="translate(-907.52 -476.44)"/><path class="cls-6" d="M946.23,524.19c.15.23.68.15,1.16-.18s.76-.79.61-1-.68-.14-1.17.19S946.07,524,946.23,524.19Z" transform="translate(-907.52 -476.44)"/><path class="cls-6" d="M944,526.92c.11.26.64.28,1.18.06s.91-.62.8-.87-.63-.28-1.18-.06S943.89,526.67,944,526.92Z" transform="translate(-907.52 -476.44)"/><path class="cls-6" d="M944.84,498.08c0-.34-.63-.56-1.35-.5s-1.27.37-1.25.71.63.56,1.35.5S944.87,498.41,944.84,498.08Z" transform="translate(-907.52 -476.44)"/><path class="cls-6" d="M950.53,496c0-.34-.55-.64-1.27-.67s-1.31.22-1.33.55.56.64,1.28.67S950.52,496.31,950.53,496Z" transform="translate(-907.52 -476.44)"/><path class="cls-6" d="M952.89,504.86c.18-.28-.16-.82-.77-1.21s-1.24-.47-1.42-.19.16.83.77,1.22S952.71,505.15,952.89,504.86Z" transform="translate(-907.52 -476.44)"/></svg>