<svg id="Vrstva_1" data-name="Vrstva 1" xmlns="http://www.w3.org/2000/svg" viewBox="0 0 298.74 86.41"><defs><style>.cls-1{fill:#e6e6e5;}.cls-2{fill:#4d803b;}.cls-3{fill:#5fa344;}.cls-4{fill:#78c046;}.cls-5{fill:#262e3e;}</style></defs><title>gaviál indický</title><path class="cls-1" d="M1239.44,642.27l.61,2.47a.31.31,0,0,1-.3.39h-1.23a.31.31,0,0,1-.31-.39l.62-2.47A.32.32,0,0,1,1239.44,642.27Z" transform="translate(-961.12 -613.68)"/><path class="cls-1" d="M1234,641.13l.63,2.94a.31.31,0,0,1-.3.38h-1.27a.31.31,0,0,1-.3-.38l.63-2.94A.31.31,0,0,1,1234,641.13Z" transform="translate(-961.12 -613.68)"/><path class="cls-1" d="M1226.55,640.24l.61,2.47a.32.32,0,0,1-.3.39h-1.24a.32.32,0,0,1-.3-.39l.62-2.47A.31.31,0,0,1,1226.55,640.24Z" transform="translate(-961.12 -613.68)"/><path class="cls-1" d="M1219.76,639.56l.62,2.47a.31.31,0,0,1-.31.39h-1.23a.31.31,0,0,1-.3-.39l.61-2.47A.31.31,0,0,1,1219.76,639.56Z" transform="translate(-961.12 -613.68)"/><path class="cls-1" d="M1212.3,638.88l.61,2.47a.31.31,0,0,1-.3.39h-1.23a.31.31,0,0,1-.31-.39l.62-2.47A.32.32,0,0,1,1212.3,638.88Z" transform="translate(-961.12 -613.68)"/><path class="cls-1" d="M1205.51,638.2l.62,2.47a.31.31,0,0,1-.31.39h-1.23a.31.31,0,0,1-.3-.39l.61-2.47A.32.32,0,0,1,1205.51,638.2Z" transform="translate(-961.12 -613.68)"/><path class="cls-1" d="M1198.05,636.85l.61,2.46a.31.31,0,0,1-.3.39h-1.23a.31.31,0,0,1-.31-.39l.62-2.46A.31.31,0,0,1,1198.05,636.85Z" transform="translate(-961.12 -613.68)"/><path class="cls-1" d="M1191.94,636.17l.62,2.47a.31.31,0,0,1-.31.38H1191a.31.31,0,0,1-.3-.38l.61-2.47A.31.31,0,0,1,1191.94,636.17Z" transform="translate(-961.12 -613.68)"/><path class="cls-1" d="M1188.55,636.17l.62,2.47a.31.31,0,0,1-.31.38h-1.23a.31.31,0,0,1-.31-.38l.62-2.47A.31.31,0,0,1,1188.55,636.17Z" transform="translate(-961.12 -613.68)"/><path class="cls-1" d="M1192.75,632.39,1192,630a.32.32,0,0,1,.29-.4l1.23,0a.31.31,0,0,1,.32.38l-.51,2.49A.31.31,0,0,1,1192.75,632.39Z" transform="translate(-961.12 -613.68)"/><path class="cls-1" d="M1199.54,630.36l-.72-2.44a.31.31,0,0,1,.29-.4l1.23,0a.31.31,0,0,1,.32.37l-.51,2.49A.32.32,0,0,1,1199.54,630.36Z" transform="translate(-961.12 -613.68)"/><path class="cls-1" d="M1207.68,629l-.72-2.44a.32.32,0,0,1,.29-.4l1.23,0a.31.31,0,0,1,.32.37l-.51,2.49A.32.32,0,0,1,1207.68,629Z" transform="translate(-961.12 -613.68)"/><path class="cls-1" d="M1214.47,627.64l-.72-2.44a.31.31,0,0,1,.28-.4l1.24,0a.32.32,0,0,1,.32.38l-.52,2.49A.31.31,0,0,1,1214.47,627.64Z" transform="translate(-961.12 -613.68)"/><path class="cls-1" d="M1221.93,626.29l-.72-2.44a.31.31,0,0,1,.29-.4l1.23-.06a.32.32,0,0,1,.32.38l-.51,2.49A.32.32,0,0,1,1221.93,626.29Z" transform="translate(-961.12 -613.68)"/><path class="cls-1" d="M1228.08,625.43l-.72-2.44a.31.31,0,0,1,.29-.4l1.23-.05a.32.32,0,0,1,.32.38l-.51,2.49A.32.32,0,0,1,1228.08,625.43Z" transform="translate(-961.12 -613.68)"/><path class="cls-1" d="M1233.46,624.93l-.71-2.44a.31.31,0,0,1,.28-.4l1.23-.05a.3.3,0,0,1,.32.37l-.51,2.49A.32.32,0,0,1,1233.46,624.93Z" transform="translate(-961.12 -613.68)"/><path class="cls-1" d="M1240.29,624.75l-.72-2.44a.32.32,0,0,1,.29-.4l1.23,0a.31.31,0,0,1,.32.38l-.51,2.49A.32.32,0,0,1,1240.29,624.75Z" transform="translate(-961.12 -613.68)"/><path class="cls-1" d="M1246.87,624.2l-.72-2.44a.33.33,0,0,1,.29-.41l1.23-.05a.32.32,0,0,1,.32.38l-.51,2.49A.32.32,0,0,1,1246.87,624.2Z" transform="translate(-961.12 -613.68)"/><path class="cls-1" d="M1251.12,624.08l-.72-2.43a.32.32,0,0,1,.29-.41l1.23,0a.31.31,0,0,1,.32.38l-.51,2.49A.31.31,0,0,1,1251.12,624.08Z" transform="translate(-961.12 -613.68)"/><path class="cls-1" d="M1191.94,636.17l.62,2.47a.31.31,0,0,1-.31.38H1191a.31.31,0,0,1-.3-.38l.61-2.47A.31.31,0,0,1,1191.94,636.17Z" transform="translate(-961.12 -613.68)"/><path class="cls-2" d="M1138.65,640.49c-1.62-8.42,5.8-6.22,13.74-3.07,5,2,6.77,4.14,9.55,6.45,3,2.45,6.51,3.3,6.29,4s-4,.51-7.84-1.48c4.76,2.66,6.7,4.19,6.48,4.87s-5.08.08-9.19-4.62c4.12,5.83,5.34,5.51,4.44,6s-4.41-2.58-8.16-5.32C1151.18,645.24,1139.8,646.48,1138.65,640.49Z" transform="translate(-961.12 -613.68)"/><path class="cls-3" d="M1253.72,621.38s5.75,2,6.11-1.35c.58-5.44-6.79-4.75-8.14-2.72-5.43.68-46.82,6.11-55.64,4.75-2-4.75-5.43-8.82-13.57-4.07-12.81-.8-25.4-.38-28.5,2.71-6.79-.67-19,0-24.43,0s-37.32-6.1-51.56-6.78-54-.87-89.57,13.57c-25.1,10.18-31.89,27.82-8.14,42.75-2.71-5.43-4.07-11.54,10.86-17.65,10-4.08,30.26-2.4,42.61-.84a45.22,45.22,0,0,1,11,2.88s46.14,0,67.85,2c2.08.19,4-3.88,5.43-4.08,7.19-1,15,.28,24.42-1.35,10.12-1.76,21.29-5.11,32.57-8.14,17.64-4.75,56.32,3.39,61.07,4.07s6.11,2.71,7.46-2c-4.75-1.36-63.1-8.14-77.35-8.82,24.43-4.75,41.91-10,55.48-12C1237.23,622,1247.84,622,1253.72,621.38Z" transform="translate(-961.12 -613.68)"/><path class="cls-4" d="M969.42,640.38s-12.57,12.85-6.78,26.46c10.57,24.89,68.53,33.25,92.28,33.25-7.11-2.71-51.87-12-74.64-29.85C969.72,661.93,962.64,650.56,969.42,640.38Z" transform="translate(-961.12 -613.68)"/><path class="cls-2" d="M967,645.83a5.87,5.87,0,0,0,2.3-1.81c.33-.54.19-2.37.54-2.69,1.35-1.23,4.68-1.15,6.18-1.46,2.52-.53,3.65-1,3.43-3.91,2.06,2,4,2,6.62,1.48a14.05,14.05,0,0,0,3.76-1.12,5,5,0,0,0,2.23-3c1.78,2.13,10.62,3.56,13.73-2.48.86,3.42,6.42,1.88,8.87,1.31,3.44-.81,4.44-2,4.87-5.52.67,7.72,10.52,4.84,13.19-.26,1.29,3.78,6.39,3.86,9.62,3.17,3.81-.82,5.31-3.62,6.73-7-.74,4.24,1.84,6.63,5.9,6.84,4.28.21,6.44-2.24,8.37-5.76-2,4.89,1.54,5.93,6,6s7.6-2.57,9.72-6.34c-.83,3.88,3.73,4.88,6.65,5.17,4,.4,6.56-1.33,8.43-4.79-.86,5.16,1.93,5.94,6.38,6.55,4.1.57,7.45.22,9.85-3.49-1,7.63,13.88,7,15.66.5.57,5.89,9.64,2.56,11.73-1.69,0,4.85,8.51,1.86,10.61.6s3.29-3.19,5.6-5.41c-7.92-.85-19.54,0-24.43,0-5.43,0-37.32-6.1-51.56-6.78s-54-.87-89.57,13.57C976.61,632.27,968.22,638.66,967,645.83Z" transform="translate(-961.12 -613.68)"/><path class="cls-2" d="M968.76,649.7c1.33.08,1.44,2.4-1,4.67a17.44,17.44,0,0,1-.93-4.67A18.68,18.68,0,0,1,968.76,649.7Z" transform="translate(-961.12 -613.68)"/><path class="cls-2" d="M971.38,661.23a25,25,0,0,1-2.69-4.47C971.52,656.56,973.37,656,971.38,661.23Z" transform="translate(-961.12 -613.68)"/><path class="cls-2" d="M973.37,663.73c5.4-2.33,4.59,1.27,3.9,4A36.47,36.47,0,0,1,973.37,663.73Z" transform="translate(-961.12 -613.68)"/><path class="cls-2" d="M979.61,669.7c1.31-.71,4-.76,4.62-.26s1,2.87,1.12,4.42A42.36,42.36,0,0,1,979.61,669.7Z" transform="translate(-961.12 -613.68)"/><path class="cls-2" d="M991.86,674.39a24.82,24.82,0,0,1,.94,3.86c-2-1.12-3.29-1.77-5.49-3.15C989,674.44,991.46,673.12,991.86,674.39Z" transform="translate(-961.12 -613.68)"/><path class="cls-2" d="M996,679.9c2.12-1.5,4-3,4.48-.65.19,1,.47,1.93.72,3.12A54.69,54.69,0,0,1,996,679.9Z" transform="translate(-961.12 -613.68)"/><path class="cls-2" d="M1007.51,682c1.09-.69,1.79,1.56,2,3.82-1.82-.67-3.16-1.27-4.69-1.91C1005.71,683.25,1006.43,682.73,1007.51,682Z" transform="translate(-961.12 -613.68)"/><path class="cls-2" d="M1015.41,686.3c2-1.14,2,.58,2.51,2.68-1.46-.45-3-1.12-4.4-1.56C1014.08,687,1014.67,686.72,1015.41,686.3Z" transform="translate(-961.12 -613.68)"/><path class="cls-2" d="M1026.15,689.19a17,17,0,0,1,1.14,2.89c-1.74-.51-3.33-1.06-5.06-1.63C1023.82,689.07,1025.39,687.79,1026.15,689.19Z" transform="translate(-961.12 -613.68)"/><path class="cls-2" d="M1033.79,691.47c.52-.41,1.23-.35,1.41.28a25,25,0,0,1,.44,2.85l-3.64-1.07A10.27,10.27,0,0,1,1033.79,691.47Z" transform="translate(-961.12 -613.68)"/><path class="cls-2" d="M1041.36,693.07a.81.81,0,0,1,1.27,0,13.33,13.33,0,0,1,2.1,4.09c-1.63-.49-3.38-.91-5.22-1.45A18.74,18.74,0,0,1,1041.36,693.07Z" transform="translate(-961.12 -613.68)"/><path class="cls-3" d="M1040.91,635.63c5.26.71,10.61,7.15,10.22,14.21-.54,9.58-14.53,11.58-23.35,12.93,12.89,0,21,3.37,21,3.37l-9-.13s10.34,2.87,11.69,5.58a80.75,80.75,0,0,0-9.19-2s5.75,2.53,6.87,5c-4.07-1.12-5.82-2.32-11.25-3s-21.42-3.13-20.78-9.24c.48-4.6,1.26-7.15,16.71-10.12-11.58-.87-14.43-.67-18.32-6.42S1013.6,632,1040.91,635.63Z" transform="translate(-961.12 -613.68)"/><path class="cls-2" d="M1017.85,636.49c-4.79,2.23-4.43,6.15-2.29,9.32,1.66,2.45,3.12,3.81,5.16,4.65-1.34-.1-2.7-.18-4.06-.24a14,14,0,0,1-3.29-3.62C1011,643,1010.81,638.46,1017.85,636.49Z" transform="translate(-961.12 -613.68)"/><path class="cls-2" d="M1051.13,649.84a14.72,14.72,0,0,0-5.74-12.24,14.48,14.48,0,0,1,7.67,13.42,8.74,8.74,0,0,1-1,3.64h-2.66A8.75,8.75,0,0,0,1051.13,649.84Z" transform="translate(-961.12 -613.68)"/><path class="cls-3" d="M1126.84,640.38s-11.81-4.33-19.68-2c-11.07,3.23-3.88,10.76,4.75,18.32,5.43,4.75,9.11,5.55,13.57,7.46,4.75,2,7.47,5.43,8.14,4.75s-1.35-4.75-6.1-8.14c6.1,3.5,9.8,3.77,10.17,3.39.68-.68-3.39-4.75-11.53-6.79,9.5,1.36,11.53,1.36,11.53,0s-7.46-2-13-4.84C1120.53,650.41,1114.63,641.74,1126.84,640.38Z" transform="translate(-961.12 -613.68)"/><path class="cls-2" d="M1126.84,640.38c-8.91,3.24-2.31,10.26,1,11.78-1.28,0-2.52,0-3.75,0C1120.05,649.68,1115.15,641.68,1126.84,640.38Z" transform="translate(-961.12 -613.68)"/><path class="cls-2" d="M1102.5,640.86c-3.36,3.82,2.51,9.76,9.33,15.74-1.29-.12-2.66-.23-4.1-.33C1100.92,650.08,1096.05,644.15,1102.5,640.86Z" transform="translate(-961.12 -613.68)"/><ellipse class="cls-4" cx="113.65" cy="24.96" rx="2.8" ry="1.17"/><path class="cls-4" d="M1007.55,638.7c-.12-.64-1.45-.92-3-.63s-2.66,1-2.54,1.67,1.45.91,3,.62S1007.67,639.33,1007.55,638.7Z" transform="translate(-961.12 -613.68)"/><path class="cls-4" d="M1069,635.45c0-.42-.72-.87-1.74-1s-1.88.1-1.94.52.72.88,1.74,1S1069,635.88,1069,635.45Z" transform="translate(-961.12 -613.68)"/><path class="cls-4" d="M998.6,637.53c-.06-.43-.93-.66-1.94-.53s-1.79.58-1.74,1,.93.65,1.94.52S998.65,638,998.6,637.53Z" transform="translate(-961.12 -613.68)"/><path class="cls-4" d="M1088.17,637.92c0-.42-.76-.84-1.78-.92s-1.88.18-1.91.61.76.84,1.78.93S1088.13,638.35,1088.17,637.92Z" transform="translate(-961.12 -613.68)"/><path class="cls-4" d="M1115.14,636.32c0-.43-.76-.84-1.78-.93s-1.87.19-1.91.61.76.84,1.78.93S1115.11,636.74,1115.14,636.32Z" transform="translate(-961.12 -613.68)"/><path class="cls-4" d="M1040.16,635.23c-.08-.59-1.27-.91-2.67-.73s-2.46.8-2.38,1.38,1.26.91,2.66.73S1040.23,635.81,1040.16,635.23Z" transform="translate(-961.12 -613.68)"/><path class="cls-4" d="M1134.3,635.83c0-.43-.87-.73-1.9-.67s-1.83.45-1.8.87.87.73,1.89.67S1134.32,636.25,1134.3,635.83Z" transform="translate(-961.12 -613.68)"/><path class="cls-4" d="M1060.53,637.49c0-.53-1.09-.9-2.36-.83s-2.27.55-2.25,1.08,1.09.9,2.36.83S1060.56,638,1060.53,637.49Z" transform="translate(-961.12 -613.68)"/><path class="cls-4" d="M1070.13,642.11c0-.26-.43-.53-1-.61s-1.12.06-1.16.31.43.52,1,.61S1070.1,642.36,1070.13,642.11Z" transform="translate(-961.12 -613.68)"/><path class="cls-4" d="M1049.23,631.35c0-.25-.42-.52-1-.6s-1.12,0-1.15.31.43.52,1,.6S1049.2,631.6,1049.23,631.35Z" transform="translate(-961.12 -613.68)"/><path class="cls-4" d="M1030.4,637.91c0-.25-.43-.52-1-.6s-1.12.06-1.15.31.43.52,1,.6S1030.36,638.17,1030.4,637.91Z" transform="translate(-961.12 -613.68)"/><path class="cls-4" d="M1000.75,642.89c-.08-.25-.61-.29-1.19-.11s-1,.53-.92.77.61.29,1.19.11S1000.82,643.13,1000.75,642.89Z" transform="translate(-961.12 -613.68)"/><path class="cls-4" d="M986.73,641.49c-.11-.23-.64-.21-1.19,0s-.92.66-.81.89.64.2,1.2,0S986.84,641.72,986.73,641.49Z" transform="translate(-961.12 -613.68)"/><path class="cls-4" d="M994.42,641.61c-.1-.31-.78-.37-1.52-.14s-1.26.67-1.16,1,.77.37,1.51.14S994.51,641.91,994.42,641.61Z" transform="translate(-961.12 -613.68)"/><path class="cls-4" d="M1090.8,643.62c0-.25-.42-.52-1-.6s-1.12.05-1.15.31.43.52,1,.6S1090.77,643.87,1090.8,643.62Z" transform="translate(-961.12 -613.68)"/><path class="cls-4" d="M1061.61,631.47c0-.25-.55-.39-1.16-.32s-1.06.35-1,.6.55.39,1.15.32S1061.64,631.72,1061.61,631.47Z" transform="translate(-961.12 -613.68)"/><path class="cls-4" d="M1101.65,636.36c0-.24-.4-.54-1-.65s-1.13,0-1.17.24.4.55,1,.66S1101.61,636.61,1101.65,636.36Z" transform="translate(-961.12 -613.68)"/><path class="cls-4" d="M1139.52,638.88c0-.25-.55-.39-1.16-.31s-1.06.35-1,.6.55.39,1.15.31S1139.55,639.13,1139.52,638.88Z" transform="translate(-961.12 -613.68)"/><path class="cls-4" d="M1143.15,632c-.1-.23-.64-.22-1.2,0s-.93.63-.82.86.63.23,1.19,0S1143.25,632.2,1143.15,632Z" transform="translate(-961.12 -613.68)"/><path class="cls-4" d="M1130.57,641.82c0-.26-.55-.4-1.15-.32s-1.07.35-1,.6.54.39,1.15.32S1130.61,642.07,1130.57,641.82Z" transform="translate(-961.12 -613.68)"/><path class="cls-4" d="M1082.32,633.47c0-.32-.63-.59-1.42-.59s-1.43.27-1.43.59.64.6,1.43.6S1082.32,633.8,1082.32,633.47Z" transform="translate(-961.12 -613.68)"/><path class="cls-4" d="M1097.18,639.81c0-.33-.64-.59-1.43-.59s-1.42.26-1.42.59.63.6,1.42.6S1097.18,640.14,1097.18,639.81Z" transform="translate(-961.12 -613.68)"/><path class="cls-2" d="M1164.16,624.78s25.1.67,25.1-2C1189.26,617.31,1189.26,624.1,1164.16,624.78Z" transform="translate(-961.12 -613.68)"/><circle class="cls-5" cx="1188.24" cy="621.72" r="2.37" transform="translate(-1045.1 -416.11) rotate(-9.18)"/></svg>