<svg id="Vrstva_1" data-name="Vrstva 1" xmlns="http://www.w3.org/2000/svg" xmlns:xlink="http://www.w3.org/1999/xlink" viewBox="0 0 164.36 183.71"><defs><style>.cls-1{fill:#9da5b9;}.cls-2{fill:#d9deef;}.cls-3{fill:#b5bacc;}.cls-4{fill:url(#linear-gradient);}.cls-5{fill:#fff;}.cls-6{fill:#e7eaf6;}.cls-7{fill:url(#linear-gradient-2);}.cls-8{fill:#383c4a;}.cls-9{fill:#af847b;}.cls-10{fill:url(#linear-gradient-3);}</style><linearGradient id="linear-gradient" x1="1108.75" y1="685.81" x2="1178.35" y2="685.81" gradientUnits="userSpaceOnUse"><stop offset="0" stop-color="#9da5b9"/><stop offset="0.91" stop-color="#b5bacc"/></linearGradient><linearGradient id="linear-gradient-2" x1="1054.77" y1="605.87" x2="1054.77" y2="563.3" gradientUnits="userSpaceOnUse"><stop offset="0" stop-color="#b5bacc"/><stop offset="1" stop-color="#d9deef"/></linearGradient><linearGradient id="linear-gradient-3" x1="1054.77" y1="594.49" x2="1054.77" y2="563.45" gradientUnits="userSpaceOnUse"><stop offset="0" stop-color="#b5bacc"/><stop offset="0.16" stop-color="#b1b5c7"/><stop offset="0.34" stop-color="#a3a8ba"/><stop offset="0.53" stop-color="#8d92a3"/><stop offset="0.73" stop-color="#6f7383"/><stop offset="0.93" stop-color="#484c5b"/><stop offset="1" stop-color="#383c4a"/></linearGradient></defs><title>irbis</title><path class="cls-1" d="M1048.24,660.86a135.3,135.3,0,0,1-3.13,45.43c-18.8-4.7-13.06,9.4-13.06,9.4h28.2c4.7-6.26,9.92-23.49,9.92-23.49l2.09,3.13.82-6.27.75-5.74,1.56,5.22,1.57-13,2.61,3.65L1078,666.61l2.61,3.65v-4.91c-9.57-8.39-21.43-13.76-33.66-17.91C1047.36,651.37,1047.8,655.89,1048.24,660.86Z" transform="translate(-1025.12 -561.23)"/><path class="cls-2" d="M1040.67,606.25s-4.7,18.8-2.09,30.29a11.79,11.79,0,0,1,2.09-3.66,71.68,71.68,0,0,0,5.75,22.46,29.4,29.4,0,0,1,1-6.79s3.14,15.66,8.88,22.45a42.94,42.94,0,0,1-.42-6.91s7.21,12.66,9.3,14.75a16.78,16.78,0,0,1,0-5.23s6.78,8.36,10.44,8.88-1-63.71-1-63.71l-7.84-14.1Z" transform="translate(-1025.12 -561.23)"/><path class="cls-2" d="M1092.89,684.06l16.33,17.61s-1.66-7.67-1.14-11.38c1.57,2.61,8.28,10,13,12a35.49,35.49,0,0,1-1.57-9.4s9.93,13.06,20.89,9.4,3.13-43.34,3.13-43.34l-38.64-14.1Z" transform="translate(-1025.12 -561.23)"/><path class="cls-3" d="M1188.45,699.2c-3.13,15.67-11.48,28.72-35.51,35.51s-67.88,17.75-72.58,2.61,41.25-14.1,55.35-17.75,17.23-7.84,17.23-7.84l-6.72-24.81-7-26.4c-3.64.55-12.74,7.93-14.88,10.07a44.53,44.53,0,0,1,7.71-14.73c-5.75,4.7-10.45,10.44-12.54,15.14.52-6.68,4.57-16.91,4.7-17.22l-9.92,13,4.18-15.14-9.4,16.71,3.13-19.84L1108.56,659l-3.48-13.4-.18-1.74v26.63l-2.61-3.66,1.57,12.54-2.61-3.66-1.57,13.06-1.57-5.23-.74,5.74-.82,6.28-2.09-3.14s-5.22,17.23-9.92,23.5h-28.2s-5.74-14.1,13.05-9.4c1.81-15.9,4.7-27.67,3.14-45.43s-3.14-29.76-3.14-29.76a54.82,54.82,0,0,0-1.56,5.74,22.42,22.42,0,0,1-.52-11.81c-1.8,1.64-2.29,2.61-3.66,5,0-2.11,2.1-16.71,6.79-29.24s3.13-25.59,3.13-25.59,9.92,5.22,14.1,5.22,14.62,1.05,26.63,12,29.24,5.23,51.7,27.16S1191.59,683.53,1188.45,699.2Z" transform="translate(-1025.12 -561.23)"/><path class="cls-4" d="M1109.08,715.91s-2.61-8.35,6.79-10.44,14,.38,19.32,0c-2.61-3.14-9.92-9.4-8.88-20.89s6.27-24.54,22.46-27.68,20.36.53,24,3.14,12.94,30.89-5.75,45.43a67.57,67.57,0,0,1-20.6,10.44Z" transform="translate(-1025.12 -561.23)"/><path class="cls-2" d="M1031.69,571.52c-2.53-1-5.24.36-6.57,1.45a7.31,7.31,0,0,1,5,.93c-2,.12-2.38,2.42-2.38,2.42,1.37-.53,5.56-.24,7.9,1.33C1035.68,575.47,1031.69,571.52,1031.69,571.52Z" transform="translate(-1025.12 -561.23)"/><path class="cls-2" d="M1077.85,571.52c2.53-1,5.25.36,6.58,1.45a7.28,7.28,0,0,0-5,.93c2,.12,2.38,2.42,2.38,2.42-1.38-.53-5.57-.24-7.91,1.33C1073.86,575.47,1077.85,571.52,1077.85,571.52Z" transform="translate(-1025.12 -561.23)"/><path class="cls-3" d="M1071.48,576.55s6.06,1.63,9.65-6.07a15.39,15.39,0,0,0,1.08-8.8.54.54,0,0,0-1-.22c-1.65,2.25-6.53,6.51-17.07,3.67C1050.6,561.48,1071.48,576.55,1071.48,576.55Z" transform="translate(-1025.12 -561.23)"/><path class="cls-3" d="M1038.06,576.55s-6,1.63-9.64-6.07a15.3,15.3,0,0,1-1.08-8.8.53.53,0,0,1,1-.22c1.66,2.25,6.53,6.51,17.07,3.67C1059,561.48,1038.06,576.55,1038.06,576.55Z" transform="translate(-1025.12 -561.23)"/><path class="cls-2" d="M1081.16,592.48c-4.35-19.34-12.53-25.09-16.41-27.23-5.6-1.69-10,3-10,3s-4.38-4.67-10-3c-3.89,2.14-12.06,7.89-16.42,27.23-1.05,4.69,0,8.72,3.06,11.87a5.17,5.17,0,0,0-1.93,1.12,11.82,11.82,0,0,1,3.84.61,5.17,5.17,0,0,0-3.63,1.57,30,30,0,0,1,6.76.24,27.66,27.66,0,0,0,3.18,1.32c3.75,1.31,15.11,2.07,15.11,2.07h0s11.36-.76,15.12-2.07a29.23,29.23,0,0,0,3.18-1.32,30,30,0,0,1,6.75-.24,5.16,5.16,0,0,0-3.63-1.57,11.84,11.84,0,0,1,3.85-.61,5.24,5.24,0,0,0-1.93-1.12C1081.19,601.2,1082.22,597.17,1081.16,592.48Z" transform="translate(-1025.12 -561.23)"/><path class="cls-5" d="M1054.36,611.84l-10,1s.75,9.93,10.44,9.93,10.57-9.93,10.57-9.93l-10-1Z" transform="translate(-1025.12 -561.23)"/><path class="cls-6" d="M1054.83,614c2.13,2.67,6.07,3.39,9,3.55a13.54,13.54,0,0,0,1.53-4.75l-10-1h-.94l-10,1a13.39,13.39,0,0,0,1.47,4.75C1048.72,617.44,1052.69,616.73,1054.83,614Z" transform="translate(-1025.12 -561.23)"/><path class="cls-5" d="M1066.88,593.52a13.3,13.3,0,0,1-3-5.22l-9.14.71-9.13-.71a12.8,12.8,0,0,1-2.88,5.22c-2.09,2.09-6.79,16.19,0,19.84a11.13,11.13,0,0,0,12-.52,11.3,11.3,0,0,0,12.11.52C1073.72,609.71,1069,595.61,1066.88,593.52Z" transform="translate(-1025.12 -561.23)"/><path class="cls-7" d="M1063.64,586.21c-.75-6.12.53-15,1.11-21a34.68,34.68,0,0,0-10-2h0a34.69,34.69,0,0,0-10,2c.57,6,1.86,14.84,1.11,21-1.1,8.88-2.67,17.23,2.79,18.8,3.66,1,5.35.93,6.07.73.73.2,2.42.32,6.08-.73C1066.31,603.44,1064.73,595.09,1063.64,586.21Z" transform="translate(-1025.12 -561.23)"/><path class="cls-8" d="M1057.51,605.79a1.83,1.83,0,1,0,1.82-1.83A1.82,1.82,0,0,0,1057.51,605.79Z" transform="translate(-1025.12 -561.23)"/><path class="cls-8" d="M1052.16,605.79a1.83,1.83,0,1,1-1.83-1.83A1.83,1.83,0,0,1,1052.16,605.79Z" transform="translate(-1025.12 -561.23)"/><path class="cls-9" d="M1062.85,603.43c-.8-2.1-8.08-2.6-8.08-2.6s-7.27.5-8.07,2.6,4.27,1.22,4.86,2.44.08,7,3.21,7,2.61-5.74,3.21-7S1063.65,605.53,1062.85,603.43Z" transform="translate(-1025.12 -561.23)"/><circle class="cls-8" cx="18.17" cy="25.44" r="2.09"/><path class="cls-8" d="M1064.17,586.68a2.09,2.09,0,1,0,2.09-2.09A2.09,2.09,0,0,0,1064.17,586.68Z" transform="translate(-1025.12 -561.23)"/><path class="cls-8" d="M1047.48,608.8a.44.44,0,0,1,.44-.44.44.44,0,0,1,.44.44.44.44,0,0,1-.44.44A.43.43,0,0,1,1047.48,608.8Z" transform="translate(-1025.12 -561.23)"/><path class="cls-8" d="M1045.11,608.8a.44.44,0,0,1,.44-.44.44.44,0,0,1,.44.44.43.43,0,0,1-.44.44A.44.44,0,0,1,1045.11,608.8Z" transform="translate(-1025.12 -561.23)"/><path class="cls-8" d="M1042.75,608.8a.44.44,0,0,1,.44-.44.44.44,0,0,1,.44.44.44.44,0,0,1-.44.44A.43.43,0,0,1,1042.75,608.8Z" transform="translate(-1025.12 -561.23)"/><path class="cls-8" d="M1047.48,611.17a.43.43,0,0,1,.44-.44.44.44,0,0,1,.44.44.44.44,0,0,1-.44.44A.44.44,0,0,1,1047.48,611.17Z" transform="translate(-1025.12 -561.23)"/><path class="cls-8" d="M1045.11,611.17a.44.44,0,0,1,.44-.44.43.43,0,0,1,.44.44.44.44,0,0,1-.44.44A.44.44,0,0,1,1045.11,611.17Z" transform="translate(-1025.12 -561.23)"/><path class="cls-8" d="M1042.75,611.17a.43.43,0,0,1,.44-.44.44.44,0,0,1,.44.44.44.44,0,0,1-.44.44A.44.44,0,0,1,1042.75,611.17Z" transform="translate(-1025.12 -561.23)"/><path class="cls-8" d="M1046.3,610a.43.43,0,0,1,.44-.44.44.44,0,0,1,.44.44.44.44,0,0,1-.44.44A.44.44,0,0,1,1046.3,610Z" transform="translate(-1025.12 -561.23)"/><path class="cls-8" d="M1043.93,610a.44.44,0,0,1,.88,0,.44.44,0,0,1-.88,0Z" transform="translate(-1025.12 -561.23)"/><path class="cls-8" d="M1062.07,608.8a.44.44,0,0,0-.44-.44.44.44,0,0,0-.44.44.43.43,0,0,0,.44.44A.44.44,0,0,0,1062.07,608.8Z" transform="translate(-1025.12 -561.23)"/><path class="cls-8" d="M1064.43,608.8a.44.44,0,0,0-.44-.44.44.44,0,0,0-.44.44.44.44,0,0,0,.44.44A.43.43,0,0,0,1064.43,608.8Z" transform="translate(-1025.12 -561.23)"/><path class="cls-8" d="M1066.8,608.8a.44.44,0,0,0-.44-.44.44.44,0,0,0-.44.44.43.43,0,0,0,.44.44A.44.44,0,0,0,1066.8,608.8Z" transform="translate(-1025.12 -561.23)"/><path class="cls-8" d="M1062.07,611.17a.44.44,0,0,0-.44-.44.43.43,0,0,0-.44.44.44.44,0,0,0,.44.44A.44.44,0,0,0,1062.07,611.17Z" transform="translate(-1025.12 -561.23)"/><path class="cls-8" d="M1064.43,611.17a.43.43,0,0,0-.44-.44.44.44,0,0,0-.44.44.44.44,0,0,0,.44.44A.44.44,0,0,0,1064.43,611.17Z" transform="translate(-1025.12 -561.23)"/><path class="cls-8" d="M1066.8,611.17a.44.44,0,0,0-.44-.44.43.43,0,0,0-.44.44.44.44,0,0,0,.44.44A.44.44,0,0,0,1066.8,611.17Z" transform="translate(-1025.12 -561.23)"/><path class="cls-8" d="M1063.25,610a.44.44,0,0,0-.88,0,.44.44,0,1,0,.88,0Z" transform="translate(-1025.12 -561.23)"/><path class="cls-8" d="M1065.62,610a.44.44,0,0,0-.45-.44.43.43,0,0,0-.43.44.44.44,0,0,0,.43.44A.45.45,0,0,0,1065.62,610Z" transform="translate(-1025.12 -561.23)"/><path class="cls-8" d="M1067.47,700.24c1.62-4.48,2.7-8,2.7-8l.92,1.37c.14-1,.27-2,.4-3a14.36,14.36,0,0,0-2.35-3c-3.87-3.81-9-4.89-11.41-2.42s-1.25,7.56,2.62,11.36A12.5,12.5,0,0,0,1067.47,700.24Z" transform="translate(-1025.12 -561.23)"/><path class="cls-8" d="M1051.44,681.41c2.63-.38,4.27-4,3.66-8.18s-3.23-7.16-5.87-6.77a2.65,2.65,0,0,0-.57.15,138.34,138.34,0,0,1,.11,14A3.61,3.61,0,0,0,1051.44,681.41Z" transform="translate(-1025.12 -561.23)"/><path class="cls-8" d="M1046.39,703.49c1.52.39,3.25-1.24,3.85-3.63s-.14-4.64-1.67-5a2,2,0,0,0-1.26.12c-.43,2.71-.94,5.45-1.53,8.26A1.7,1.7,0,0,0,1046.39,703.49Z" transform="translate(-1025.12 -561.23)"/><path class="cls-8" d="M1105.63,598.78c1.86-1.9,1-5.81-2-8.73s-6.9-3.76-8.77-1.86-1,5.81,2,8.73S1103.76,600.68,1105.63,598.78Z" transform="translate(-1025.12 -561.23)"/><path class="cls-8" d="M1142.11,626.46c1.3-2.32-.6-5.85-4.24-7.89s-7.65-1.81-8.95.51.6,5.86,4.24,7.9S1140.81,628.79,1142.11,626.46Z" transform="translate(-1025.12 -561.23)"/><path class="cls-8" d="M1124.06,633c2.42-2.47,1.25-7.56-2.62-11.36s-9-4.89-11.41-2.42-1.26,7.56,2.62,11.36S1121.63,635.51,1124.06,633Z" transform="translate(-1025.12 -561.23)"/><path class="cls-8" d="M1180,681.63c3.86-.14,6.81-5.16,6.59-11.21s-3.53-10.85-7.39-10.71-6.81,5.17-6.59,11.22S1176.15,681.77,1180,681.63Z" transform="translate(-1025.12 -561.23)"/><path class="cls-8" d="M1090.15,643.52c2.63-.38,4.27-4,3.67-8.18s-3.24-7.16-5.88-6.77-4.27,4-3.66,8.18S1087.51,643.91,1090.15,643.52Z" transform="translate(-1025.12 -561.23)"/><path class="cls-8" d="M1076.5,664.39c2.2.2,4.24-2.45,4.54-5.9s-1.23-6.42-3.44-6.61-4.23,2.45-4.54,5.9S1074.3,664.2,1076.5,664.39Z" transform="translate(-1025.12 -561.23)"/><path class="cls-8" d="M1121.78,605.57c1-1.67-.32-4.29-2.93-5.85s-5.55-1.48-6.55.19.32,4.29,2.94,5.85S1120.78,607.24,1121.78,605.57Z" transform="translate(-1025.12 -561.23)"/><path class="cls-8" d="M1108.21,610c1.16-.44,1.55-2.27.86-4.08s-2.19-2.94-3.35-2.5-1.54,2.27-.85,4.09S1107.06,610.46,1108.21,610Z" transform="translate(-1025.12 -561.23)"/><path class="cls-8" d="M1153.92,624.6c.76-1,.15-2.74-1.37-3.94s-3.39-1.4-4.16-.43-.15,2.74,1.37,3.95S1153.15,625.57,1153.92,624.6Z" transform="translate(-1025.12 -561.23)"/><path class="cls-8" d="M1084.41,620.71c1.2-.3,1.78-2.08,1.3-4s-1.85-3.16-3-2.85-1.78,2.08-1.3,4S1083.21,621,1084.41,620.71Z" transform="translate(-1025.12 -561.23)"/><path class="cls-8" d="M1080.54,647.4c1.57,0,2.87-2,2.91-4.43s-1.21-4.48-2.78-4.51-2.88,2-2.92,4.43S1079,647.37,1080.54,647.4Z" transform="translate(-1025.12 -561.23)"/><path class="cls-8" d="M1094.83,668.53c1.94-.68,2.64-3.69,1.57-6.73s-3.5-4.94-5.43-4.26-2.64,3.69-1.57,6.73S1092.9,669.21,1094.83,668.53Z" transform="translate(-1025.12 -561.23)"/><path class="cls-8" d="M1097.46,654.9c1.56-.24,2.52-2.41,2.15-4.85s-1.94-4.22-3.49-4-2.52,2.4-2.14,4.84S1095.91,655.13,1097.46,654.9Z" transform="translate(-1025.12 -561.23)"/><path class="cls-8" d="M1081.33,673c1.53.38,3.25-1.25,3.86-3.64s-.15-4.64-1.67-5-3.25,1.24-3.86,3.63S1079.81,672.61,1081.33,673Z" transform="translate(-1025.12 -561.23)"/><path class="cls-8" d="M1080.1,688.56c1.52.38,3.25-1.25,3.85-3.64s-.14-4.64-1.67-5-3.25,1.24-3.85,3.63S1078.57,688.17,1080.1,688.56Z" transform="translate(-1025.12 -561.23)"/><path class="cls-8" d="M1099.89,611.58c1.45-1.34.93-4.27-1.17-6.55s-5-3-6.44-1.7-.93,4.28,1.17,6.55S1098.44,612.92,1099.89,611.58Z" transform="translate(-1025.12 -561.23)"/><path class="cls-8" d="M1171.62,645.26c1.82-.78,2.3-3.72,1.08-6.57s-3.69-4.52-5.5-3.74-2.3,3.72-1.08,6.57S1169.81,646,1171.62,645.26Z" transform="translate(-1025.12 -561.23)"/><path class="cls-8" d="M1141,674.66c1.41,1.39,4.31.73,6.5-1.47s2.81-5.11,1.41-6.5-4.31-.74-6.49,1.46S1139.57,673.26,1141,674.66Z" transform="translate(-1025.12 -561.23)"/><path class="cls-8" d="M1130.71,688.63c1.91.51,4.21-1.89,5.13-5.37s.11-6.69-1.8-7.2-4.2,1.9-5.12,5.37S1128.8,688.12,1130.71,688.63Z" transform="translate(-1025.12 -561.23)"/><path class="cls-8" d="M1083.43,596.18a8.37,8.37,0,0,0-1.93-1.56,11.91,11.91,0,0,1-1.79,7.72c1.81,1.2,3.78,1.42,4.9.39C1086.06,601.39,1085.54,598.45,1083.43,596.18Z" transform="translate(-1025.12 -561.23)"/><path class="cls-8" d="M1075.6,633.91c1.91.51,4.11-1.5,4.91-4.49s-.1-5.84-2-6.35-4.1,1.5-4.91,4.49S1073.69,633.4,1075.6,633.91Z" transform="translate(-1025.12 -561.23)"/><path class="cls-8" d="M1095.73,626c1.87-.66,2.55-3.56,1.52-6.48s-3.37-4.77-5.24-4.11-2.54,3.55-1.52,6.48S1093.87,626.67,1095.73,626Z" transform="translate(-1025.12 -561.23)"/><path class="cls-8" d="M1143.21,641.63c1.58-1.18,1.37-4.15-.49-6.64s-4.63-3.54-6.22-2.36-1.37,4.15.48,6.64S1141.62,642.81,1143.21,641.63Z" transform="translate(-1025.12 -561.23)"/><path class="cls-8" d="M1159,642.82c2.31-1.61,2.15-5.85-.37-9.48s-6.44-5.26-8.75-3.65-2.15,5.85.37,9.47S1156.69,644.42,1159,642.82Z" transform="translate(-1025.12 -561.23)"/><path class="cls-8" d="M1172.26,694.23c2.31-1.61,2.14-5.85-.38-9.47s-6.43-5.27-8.75-3.66-2.14,5.85.38,9.48S1170,695.84,1172.26,694.23Z" transform="translate(-1025.12 -561.23)"/><path class="cls-8" d="M1119.56,647.44c1.69-.13,2.89-2.39,2.68-5s-1.75-4.69-3.44-4.56-2.9,2.39-2.69,5S1117.87,647.58,1119.56,647.44Z" transform="translate(-1025.12 -561.23)"/><path class="cls-8" d="M1121.84,615.45c.73-.67.46-2.13-.59-3.27s-2.49-1.52-3.22-.85-.46,2.14.59,3.27S1121.11,616.12,1121.84,615.45Z" transform="translate(-1025.12 -561.23)"/><path class="cls-8" d="M1100.55,633c1,0,1.86-1.16,2-2.7s-.64-2.85-1.63-2.91-1.86,1.16-1.94,2.7S1099.57,632.94,1100.55,633Z" transform="translate(-1025.12 -561.23)"/><path class="cls-8" d="M1129.49,649.16c1-.17,1.56-1.54,1.3-3.07s-1.26-2.63-2.23-2.46-1.56,1.53-1.3,3.06S1128.52,649.32,1129.49,649.16Z" transform="translate(-1025.12 -561.23)"/><path class="cls-8" d="M1157.73,679.49c1-.17,1.55-1.54,1.29-3.07s-1.26-2.63-2.23-2.47-1.56,1.54-1.3,3.07S1156.75,679.65,1157.73,679.49Z" transform="translate(-1025.12 -561.23)"/><path class="cls-8" d="M1177.83,696.49c.78.2,1.66-.62,2-1.83s0-2.35-.82-2.56-1.66.62-2,1.83S1177.06,696.28,1177.83,696.49Z" transform="translate(-1025.12 -561.23)"/><path class="cls-8" d="M1159.24,669.21c-.06.79.91,1.52,2.15,1.61s2.31-.47,2.37-1.27-.9-1.51-2.15-1.61S1159.31,668.41,1159.24,669.21Z" transform="translate(-1025.12 -561.23)"/><path class="cls-8" d="M1154.67,684.13c-.73.32-.93,1.51-.43,2.66s1.5,1.82,2.23,1.5.92-1.5.42-2.65S1155.4,683.82,1154.67,684.13Z" transform="translate(-1025.12 -561.23)"/><path class="cls-8" d="M1155.67,702.84c1.42.61,3.27-.54,4.15-2.57s.44-4.17-1-4.78-3.27.54-4.14,2.57S1154.26,702.23,1155.67,702.84Z" transform="translate(-1025.12 -561.23)"/><path class="cls-8" d="M1143.49,658.41a27.28,27.28,0,0,1,2.73-.9,4.18,4.18,0,0,0,0-1.5c-.26-1.52-1.26-2.63-2.23-2.46s-1.56,1.54-1.3,3.06A3.88,3.88,0,0,0,1143.49,658.41Z" transform="translate(-1025.12 -561.23)"/><path class="cls-8" d="M1152.26,650.5c1.16-.57,1.39-2.51.51-4.34s-2.55-2.86-3.72-2.29-1.4,2.5-.51,4.34S1151.09,651.06,1152.26,650.5Z" transform="translate(-1025.12 -561.23)"/><path class="cls-8" d="M1147.86,686.63c1.17-.57,1.4-2.51.51-4.34s-2.55-2.86-3.72-2.3-1.4,2.51-.51,4.34S1146.69,687.19,1147.86,686.63Z" transform="translate(-1025.12 -561.23)"/><path class="cls-8" d="M1160.17,662.32c.31-1.26-1.05-2.67-3-3.15s-3.82.16-4.13,1.42,1,2.67,3,3.15S1159.86,663.58,1160.17,662.32Z" transform="translate(-1025.12 -561.23)"/><path class="cls-8" d="M1146.62,698.68c1.43-1.41.8-4.35-1.4-6.59s-5.13-2.91-6.56-1.51-.8,4.35,1.4,6.59S1145.2,700.08,1146.62,698.68Z" transform="translate(-1025.12 -561.23)"/><path class="cls-8" d="M1088.45,678.07c.79.1,1.57-.83,1.73-2.07s-.35-2.34-1.15-2.45-1.57.83-1.73,2.07S1087.65,678,1088.45,678.07Z" transform="translate(-1025.12 -561.23)"/><path class="cls-8" d="M1074.94,701.66c.8.11,1.57-.82,1.73-2.07s-.35-2.34-1.14-2.44-1.57.82-1.73,2.07S1074.15,701.56,1074.94,701.66Z" transform="translate(-1025.12 -561.23)"/><path class="cls-8" d="M1097.57,678.9c1,.05,1.86-1.16,1.94-2.7s-.64-2.85-1.62-2.91-1.86,1.16-2,2.7S1096.58,678.84,1097.57,678.9Z" transform="translate(-1025.12 -561.23)"/><path class="cls-8" d="M1086.58,654.89c1.13.4,2.55-.7,3.17-2.47s.23-3.51-.9-3.91-2.54.7-3.17,2.47S1085.46,654.49,1086.58,654.89Z" transform="translate(-1025.12 -561.23)"/><path class="cls-8" d="M1087.15,693.91c-1.93.68-2.64,3.69-1.57,6.73.89,2.53,2.73,4.27,4.44,4.39,1-2.42,1.84-4.83,2.56-6.88C1091.5,695.13,1089.08,693.23,1087.15,693.91ZM1074,646.15c.09-1.55-.64-2.85-1.62-2.91a1.74,1.74,0,0,0-1.51,1.06c.15,1.33.29,2.74.45,4.24a1.32,1.32,0,0,0,.74.31C1073.06,648.9,1073.94,647.69,1074,646.15Zm-1,25.66c0,2.6-.12,5.1-.29,7.53a2.75,2.75,0,0,0,2.85.91c1.46-.57,1.92-2.9,1-5.19C1075.79,673.11,1074.3,671.82,1073,671.81Z" transform="translate(-1025.12 -561.23)"/><path class="cls-8" d="M1088.75,610.68c.6-.55.38-1.76-.49-2.7s-2.06-1.25-2.66-.7-.38,1.76.49,2.7S1088.15,611.24,1088.75,610.68Z" transform="translate(-1025.12 -561.23)"/><path class="cls-8" d="M1073.62,620.92c.58.57,1.78.29,2.67-.63s1.15-2.12.56-2.69-1.78-.29-2.67.63S1073,620.35,1073.62,620.92Z" transform="translate(-1025.12 -561.23)"/><path class="cls-8" d="M1091,593.11c.41-.7-.14-1.8-1.24-2.46s-2.32-.62-2.74.08.13,1.8,1.23,2.46S1090.62,593.81,1091,593.11Z" transform="translate(-1025.12 -561.23)"/><path class="cls-8" d="M1129.83,609.21c.46-.47.24-1.43-.49-2.15s-1.7-.92-2.16-.45-.23,1.43.5,2.14S1129.37,609.68,1129.83,609.21Z" transform="translate(-1025.12 -561.23)"/><path class="cls-8" d="M1109.5,636.06c.6-.26.75-1.24.33-2.17s-1.24-1.49-1.83-1.22-.75,1.24-.34,2.17S1108.9,636.33,1109.5,636.06Z" transform="translate(-1025.12 -561.23)"/><path class="cls-8" d="M1148,616.81c.23-.61-.36-1.4-1.31-1.76s-1.93-.17-2.16.44.36,1.41,1.32,1.77S1147.76,617.42,1148,616.81Z" transform="translate(-1025.12 -561.23)"/><path class="cls-8" d="M1130.25,637.6c.62-.23.83-1.19.49-2.15s-1.13-1.57-1.75-1.35-.83,1.19-.48,2.15S1129.64,637.82,1130.25,637.6Z" transform="translate(-1025.12 -561.23)"/><path class="cls-8" d="M1161.85,624.39c.49-.43.35-1.4-.32-2.18s-1.62-1.05-2.12-.62-.35,1.4.33,2.18S1161.35,624.82,1161.85,624.39Z" transform="translate(-1025.12 -561.23)"/><path class="cls-8" d="M1142.72,604.4l-.21.05c-3.3.91-5.51,3.35-4.93,5.46s3.72,3.08,7,2.17c2.81-.77,4.82-2.65,5-4.49A66.06,66.06,0,0,0,1142.72,604.4Z" transform="translate(-1025.12 -561.23)"/><path class="cls-8" d="M1189.38,682a8,8,0,0,0-2.44,1.7c-2.19,2.2-2.82,5.12-1.42,6.51.89.87,2.36.94,3.88.32C1189.51,687.91,1189.51,685.05,1189.38,682Z" transform="translate(-1025.12 -561.23)"/><path class="cls-8" d="M1173.46,629.93a2,2,0,0,0,.48-.44,62.36,62.36,0,0,0-5.4-7c-1.16.93-1.12,3.18.13,5.18S1172.13,630.77,1173.46,629.93Z" transform="translate(-1025.12 -561.23)"/><path class="cls-8" d="M1119.47,729.91c-5.47.8-6.19,8.64-7.27,14,4.8-.66,9.81-1.58,14.76-2.63C1126.81,735.64,1124.7,729.16,1119.47,729.91Z" transform="translate(-1025.12 -561.23)"/><path class="cls-8" d="M1103.44,744.78c1.76-6.37,1.17-11.19.45-13.23a18.34,18.34,0,0,1-1.88,3.8c-1.1-2.85-3.55-6.38-6.71-10.13-9.87,2.2-16.93,5.7-14.94,12.1S1091.64,745.51,1103.44,744.78Z" transform="translate(-1025.12 -561.23)"/><path class="cls-8" d="M1147.31,736.27c-.4-6.19-2.46-16.8-9.35-14.82-6.49,1.85-2.68,12.84-4.07,18.25C1138.59,738.59,1143.14,737.41,1147.31,736.27Z" transform="translate(-1025.12 -561.23)"/><path class="cls-8" d="M1186.43,706.71c-3.61-1-8.59-1.8-10.91.16-3.44,2.9-.58,7.9,3,13.4A39.35,39.35,0,0,0,1186.43,706.71Z" transform="translate(-1025.12 -561.23)"/><path class="cls-8" d="M1167.17,729.06c-.37-4.92-1.91-14.7-7.93-13.37-7,1.55-2.17,11.44-4.61,18.52A65.88,65.88,0,0,0,1167.17,729.06Z" transform="translate(-1025.12 -561.23)"/><path class="cls-10" d="M1039.49,578.26c-.43.31-.64.78-.45,1s.69.21,1.12-.11.64-.78.46-1S1039.93,577.94,1039.49,578.26Zm15.28-7c-.58,0-1.06.33-1.06.74s.48.75,1.06.75,1.06-.33,1.06-.75S1055.36,571.23,1054.77,571.23Zm-9.84,4.21c0,.2.28.36.62.36s.62-.16.62-.36-.28-.36-.62-.36S1044.93,575.24,1044.93,575.44Zm-3.19-.3c-.17-.53-.92-.76-1.68-.52s-1.23.88-1,1.41.92.77,1.68.53S1041.92,575.68,1041.74,575.14Zm.18,16.69c-.32-.13-.63-.09-.71.1s.12.43.43.57.63.09.71-.1S1042.23,592,1041.92,591.83Zm3.51-14.49c-.52.12-.9.46-.83.77s.55.46,1.07.35.9-.46.84-.76S1046,577.23,1045.43,577.34Zm-2.92,0c-.26.22-.36.52-.24.68s.45.09.71-.13.37-.52.24-.67S1042.78,577.15,1042.51,577.37ZM1036,591.18c-.39.21-.41.93,0,1.6s1,1,1.37.82.41-.93,0-1.6S1036.34,591,1036,591.18Zm3.16,1.73c-.24.21-.16.7.19,1.12s.83.57,1.07.37.15-.7-.2-1.11S1039.35,592.71,1039.11,592.91Zm-7-6.35c-.2,0-.39.23-.43.57s.09.63.28.65.39-.23.44-.57S1032.33,586.58,1032.13,586.56Zm1.26-5.15a1.44,1.44,0,0,0-1.13-1.09c-.26.59-.51,1.2-.76,1.83.27.68.85,1.1,1.36.94S1033.63,582.17,1033.39,581.41Zm6.36-8.62c.48-.35.7-.85.5-1.12s-.74-.23-1.22.11-.69.85-.49,1.12S1039.28,573.13,1039.75,572.79Zm4-3.83c.65,0,1.18-.31,1.18-.69s-.53-.68-1.18-.68-1.17.3-1.17.68S1043.09,569,1043.74,569Zm1.46,2.14c-.16-.51-1-.69-1.88-.41s-1.44.93-1.28,1.44,1,.69,1.88.4S1045.37,571.61,1045.2,571.1Zm3.65-2.44c-.1-.3-.59-.4-1.11-.24s-.85.55-.75.85.59.4,1.1.24S1048.94,569,1048.85,568.66Zm-1.27-2.52c1.19-.39,2-1.27,1.75-2a.71.71,0,0,0-.08-.15c-1.26.27-2.68.65-4.24,1.15a.77.77,0,0,0,0,.4C1045.25,566.27,1046.39,566.52,1047.58,566.14Zm1.56,4.65c-.92.11-1.61.72-1.54,1.38s.89,1.09,1.81,1,1.62-.72,1.54-1.38S1050.07,570.68,1049.14,570.79Zm-9.34,20.79c.15-.13.09-.45-.14-.7s-.53-.36-.67-.23-.09.45.13.7S1039.65,591.71,1039.8,591.58Zm14.67-25c0-.38-.53-.69-1.18-.69s-1.17.31-1.17.69.52.69,1.17.69S1054.47,567,1054.47,566.57Zm-20.35,18c-.55.06-.94.75-.85,1.54s.6,1.38,1.16,1.32.94-.75.86-1.54S1034.68,584.53,1034.12,584.59Zm17.46-15.07c-.34,0-.62.16-.62.36s.28.36.62.36.62-.16.62-.36S1051.92,569.52,1051.58,569.52Zm-12.7,17.68c-.37-1.22-1.25-2-2-1.82s-1,1.38-.63,2.6,1.25,2,2,1.82S1039.25,588.42,1038.88,587.2Zm-.6-2.72c.2,0,.3-.34.23-.67s-.28-.58-.48-.54-.3.35-.23.68S1038.09,584.52,1038.28,584.48Zm-2.07-2c.09-.53-.09-1-.4-1.06s-.63.33-.73.86.09,1,.4,1.06S1036.11,583,1036.21,582.49Zm.68-3.86a1.3,1.3,0,0,0,.13-1.76,1.53,1.53,0,0,0-1.83,2.22C1035.62,579.45,1036.38,579.24,1036.89,578.63ZM1034,589c-.28.14-.32.64-.09,1.13s.65.77.93.64.33-.64.1-1.13S1034.31,588.82,1034,589Zm31.77-16.17c1,.32,1.92.11,2.11-.46s-.46-1.29-1.44-1.61-1.93-.11-2.11.46S1064.8,572.46,1065.79,572.78Zm-2.42,2.66c0,.2.28.36.62.36s.62-.16.62-.36-.28-.36-.62-.36S1063.37,575.24,1063.37,575.44Zm.36-10a1.48,1.48,0,0,0,.55-.32c-.5-.16-1-.31-1.46-.44a.54.54,0,0,0-.2.52C1062.72,565.48,1063.22,565.59,1063.73,565.42Zm.38,11.92c-.53-.11-1,0-1.07.36s.31.65.83.76,1-.05,1.08-.35S1064.64,577.46,1064.11,577.34Zm1.69-8.71c.34,0,.62-.16.62-.36s-.28-.36-.62-.36-.62.16-.62.36S1065.46,568.63,1065.8,568.63Zm-3.92-.43c-.73-.24-1.43-.09-1.57.34s.34,1,1.07,1.19,1.43.09,1.56-.34S1062.6,568.43,1061.88,568.2Zm3.93,6.44c-.29-.19-.61-.2-.71,0s0,.45.32.64.61.19.71,0S1066.1,574.82,1065.81,574.64Zm-5.43-9.76c0-.08-.05-.41-.12-.86-1.3-.28-2.43-.46-3.36-.57a1.65,1.65,0,0,0-1.19,1.43c0,.91,1,1.65,2.33,1.65S1060.38,565.79,1060.38,564.88Zm9,28.41c-.35.41-.43.91-.19,1.11s.71,0,1.06-.37.44-.91.2-1.12S1069.72,592.88,1069.37,593.29Zm-9-22.5c-.92-.11-1.73.34-1.81,1s.62,1.27,1.54,1.38,1.74-.34,1.81-1S1061.33,570.9,1060.4,570.79Zm13.2,20.39c-.39-.22-1,.15-1.38.82s-.35,1.38,0,1.6,1-.16,1.38-.82S1074,591.39,1073.6,591.18Zm-3.72-.3c-.22.25-.29.57-.14.7s.46,0,.68-.23.29-.57.14-.7S1070.11,590.62,1069.88,590.88Zm-13-22.44c-.67,0-1.21.38-1.21.85s.54.85,1.21.85,1.2-.38,1.2-.85S1057.5,568.44,1056.84,568.44Zm14,3.63c-.32-.34-.75-.47-.95-.29s-.1.62.22,1,.74.47.94.29S1071.16,572.41,1070.85,572.07Zm2.59,6.24c.47-.17.63-1,.35-1.78s-.89-1.35-1.37-1.18-.64.95-.36,1.77S1073,578.47,1073.44,578.31Zm1,4c-.09-.53-.42-.91-.73-.86s-.48.53-.39,1.06.42.92.73.86S1074.56,582.82,1074.46,582.29Zm-5.08-3.11c.44.32.94.37,1.13.11s0-.72-.46-1-.94-.37-1.12-.12S1068.94,578.86,1069.38,579.18Zm6.14,9.77c-.28-.13-.7.15-.93.64s-.19,1,.09,1.13.71-.15.94-.64S1075.81,589.09,1075.52,589Zm1.9-2.39c-.2,0-.33.31-.29.65s.23.6.43.57.33-.32.29-.65S1077.61,586.53,1077.42,586.56Zm-2-2c-.56-.06-1.08.53-1.16,1.32s.3,1.48.85,1.54,1.08-.53,1.17-1.32S1076,584.65,1075.42,584.59Zm-3.14-3.82c.2,0,.36-.27.37-.62s-.16-.62-.36-.62-.36.28-.37.62S1072.08,580.77,1072.28,580.77Zm-5.25-3.4c-.26-.22-.58-.27-.7-.12s0,.46.24.67.57.28.7.13S1067.29,577.59,1067,577.37Zm4.48,5.9c-.19,0-.41.2-.47.54s0,.63.22.67.41-.2.48-.53S1071.71,583.31,1071.51,583.27ZM1069,576.5c.71.23,1.42,0,1.58-.49s-.28-1.1-1-1.33a1.22,1.22,0,0,0-1.59.49C1067.8,575.67,1068.24,576.27,1069,576.5Zm9.08,5.65q-.37-.95-.75-1.83a1.45,1.45,0,0,0-1.14,1.09c-.24.76,0,1.51.54,1.68S1077.78,582.83,1078,582.15Zm-10.41,9.68c-.32.13-.51.39-.43.57s.39.23.71.1.5-.39.43-.57S1067.94,591.7,1067.63,591.83Z" transform="translate(-1025.12 -561.23)"/></svg>