<svg id="Vrstva_1" data-name="Vrstva 1" xmlns="http://www.w3.org/2000/svg" viewBox="0 0 209.05 147.32"><defs><style>.cls-1{fill:#e4d2be;}.cls-2{fill:#262e3e;}.cls-3{fill:#a67c52;}.cls-4{fill:#efe6d9;}.cls-5{fill:#797572;}.cls-6{fill:#8c6239;}</style></defs><title>kiang</title><path class="cls-1" d="M720.26,533.41c.88,2.51,2,16.3,2.5,18.72s-.89,7.09-1.92,10a10.39,10.39,0,0,0-.36,5.58,232.43,232.43,0,0,0,6.59,23.41l.46,3.94,5.76.41,1.36-2.75s-4.89-16.81-3.94-24.36C732,558,740.92,547.17,742,532.15,742,532.15,728.94,526,720.26,533.41Z" transform="translate(-679.92 -457.32)"/><path class="cls-1" d="M804,569.78c-.15,3.14,7.53,11.54,9.69,24.22v2.7l5.39,1.85,2.51-2.66s-14.75-35.44-7.55-51.1c1.47-3.2,5.91-15,10.08-20.14,0,0-9.51,6-13.8,11.62-8.73,11.45-6.9,13.82-10.77,9.08C801,551.25,804.38,561.56,804,569.78Z" transform="translate(-679.92 -457.32)"/><path class="cls-2" d="M828,604.64s-2-6.75-6.41-8.75c-2.51,1.31-7.2-.29-7.9-1.89l-1.34,3.28a.8.8,0,0,0,.55,1.08c1.49.34,4.15,1.61,3.73,6.28Z" transform="translate(-679.92 -457.32)"/><path class="cls-2" d="M743.55,604.64c-1-5.1-5-10.64-8.9-12-2.18,1.32-6.56.15-7.58-1.6l-1.44,4.31a.8.8,0,0,0,.61,1c3.42.69,7.14,5,7.54,8.21Z" transform="translate(-679.92 -457.32)"/><path class="cls-3" d="M874.43,479.79c-4.87-10.8-13.82-11-29.28-5.59-14.09,4.91-18.95,6.27-31.6,6.27-11.14,0-55.42.77-87.51.58-14.87-.09-23.82,7.94-28.54,18.14-6.56,14.14,4.36,31.3,9.61,47,9-4.93,15.45-18.79,20.37-17.76,5.89,1.23,51.1,2.89,54.94,9.26a27.81,27.81,0,0,0,2.55,3.47c2-.16,4-.34,6.17-.55,0,0,1,3.42,2.05,8.3,3.73,2.77,7.28,4.35,8.82,2.81a32.76,32.76,0,0,1,6-4,27.27,27.27,0,0,1,1.13-2.94c4.27-9.28,22-30.58,40.79-41.18,6.49,12.13,16,4,24.73,20.23,1,1.89,11.41,4.64,14.14-8C890.29,509,882.22,497.09,874.43,479.79Z" transform="translate(-679.92 -457.32)"/><path class="cls-4" d="M768.43,531c-16.33-1.75-34.81-2.14-33.69-11,.64-5.09-4-7.73-8.22-1.16-8.2,12.72-11.23,23.92-19.92,25.84a66.35,66.35,0,0,1,2.2,7.41c.53,2.4-.9,7.09-1.92,10a10.3,10.3,0,0,0-.37,5.58,235.18,235.18,0,0,0,6.59,23.41l.47,3.94,5.75.41,1.37-2.75s-4.9-16.81-3.94-24.36C718.06,558,727,547.17,728,532.15c0,0-.14,14.59,63.16,8.46C792,529.86,780.08,532.28,768.43,531Z" transform="translate(-679.92 -457.32)"/><path class="cls-5" d="M852.74,494.37c-2.43,1-7.53,9-8.19,12.56h0q2.67-1.79,5.37-3.32C849.24,498.46,852.74,494.37,852.74,494.37Z" transform="translate(-679.92 -457.32)"/><path class="cls-4" d="M795.52,569.78c-.15,3.14,6.32,10.58,4.2,24.22v2.7l5.39,1.85,2.51-2.66s-5.69-35.44,1.51-51.1a69.12,69.12,0,0,1,8.72-13h0c-2.64-.21-5.74,1.85-10,7.48-8.73,11.45-11.58,10.79-15.44,6.05C793.8,551.25,795.9,561.56,795.52,569.78Z" transform="translate(-679.92 -457.32)"/><path class="cls-2" d="M814,604.64s-2.06-6.75-6.42-8.75c-2.51,1.31-7.19-.29-7.9-1.89l-1.34,3.28a.81.81,0,0,0,.56,1.08c1.48.34,4.15,1.61,3.72,6.28Z" transform="translate(-679.92 -457.32)"/><path class="cls-2" d="M729.59,604.64c-1-5.1-5-10.64-8.9-12-2.19,1.32-6.57.15-7.59-1.6l-1.43,4.31a.8.8,0,0,0,.6,1c3.43.69,7.14,5,7.54,8.21Z" transform="translate(-679.92 -457.32)"/><path class="cls-4" d="M876.86,507.39c-3.34,3.36-5.24,1.82-7.54,4.05s-.16,5.05-.16,5.05h0a27,27,0,0,1,5.49,7.35c1,1.89,11.41,4.64,14.14-8,.77-3.51-1-8.34-3.87-14.52C880.41,501.37,878.69,505.56,876.86,507.39Z" transform="translate(-679.92 -457.32)"/><path class="cls-2" d="M885.48,517.5c-.54-.38-.41-1.14-.11-2.24s.82-2.55,2-2.55S886.15,518,885.48,517.5Z" transform="translate(-679.92 -457.32)"/><circle class="cls-2" cx="191.33" cy="33.34" r="1.76"/><path class="cls-6" d="M852.49,466.42a21.75,21.75,0,0,1,4.65-.49h0a25.78,25.78,0,0,1-2.72-8.35.31.31,0,0,0-.57-.1c-1.42,2.42-2.3,7.24-1.36,8.94Z" transform="translate(-679.92 -457.32)"/><path d="M845.15,474.2c15.08-5.25,24-5.21,28.91,4.82h0c-8.6-20.91-27.57-10.5-27.57-10.5-.14-1.21,1.13-2.85,1.13-2.85-3.24.88-8.67,5.91-8.67,5.91-.48-1.09.43-2.73.43-2.73a27.61,27.61,0,0,0-7.69,6.38c-.51-1.1.34-3.42.34-3.42-1.26.59-4.38,4.77-4.58,7.63C832.44,478.52,837.4,476.9,845.15,474.2Z" transform="translate(-679.92 -457.32)"/><path class="cls-6" d="M861.15,482.27a.31.31,0,0,1-.57-.2c.38-4.25-1.45-9.66-1.81-12.69s0-7.09,4.26-11a1,1,0,0,1,1.6.33,17.46,17.46,0,0,1,.9,9c-.47,3.45-2.77,6.8-2.82,10.79A7.41,7.41,0,0,1,861.15,482.27Z" transform="translate(-679.92 -457.32)"/><path d="M696.8,500.9h0c-3.46.38-1.76,17-6.93,23.13-2.72,3.21-8.94,4-8.94,4a9.09,9.09,0,0,0,5.34.81s-1.49,2.9-6.34,4.89c0,0,3.72,1.13,9.41-2.52a4.28,4.28,0,0,0-1,2.48s6.19-4,8.79-14h0C695.32,513.16,694.67,506.79,696.8,500.9Z" transform="translate(-679.92 -457.32)"/></svg>