<svg id="Vrstva_1" data-name="Vrstva 1" xmlns="http://www.w3.org/2000/svg" viewBox="0 0 165.92 157.22"><defs><style>.cls-1{fill:#111a20;}.cls-2{fill:#e4eaeb;}.cls-3{fill:#262e3e;}.cls-4{fill:#515e73;}.cls-5{fill:#fff;}</style></defs><title>panda</title><rect class="cls-1" x="24.59" y="134.44" width="24.89" height="22.77"/><rect class="cls-2" x="49.48" y="76.23" width="66.96" height="80.99"/><rect class="cls-1" x="116.44" y="134.44" width="24.89" height="22.77"/><path class="cls-3" d="M914.17,602.66h0c-1-6.52-6.76-23.26-9.73-28.56-1.12-2-3.15-3-4.52-2.24a2.75,2.75,0,0,0-1.18,2.64,6.35,6.35,0,0,0-.46-1c-1.23-2.19-3.43-3.28-4.93-2.44-1.07.6-1.49,2-1.2,3.57-1.27-1.74-3.17-2.53-4.51-1.78-1.5.84-1.72,3.29-.5,5.48.1.17.2.33.31.49-1.08-1.37-2.63-2-3.73-1.35-1.29.72-1.48,2.82-.43,4.69h0a2.6,2.6,0,0,0-2.81-.45c-1.29.72-1.48,2.82-.43,4.69a5.69,5.69,0,0,0,.33.52,2.16,2.16,0,0,0-2.19-.19c-1.15.64-1.32,2.52-.39,4.19l11.62,20.73a13.34,13.34,0,0,0,24.75-9Z" transform="translate(-877.2 -461.23)"/><path class="cls-4" d="M895.19,572.57a4,4,0,0,1,1.66,1.69c.86,1.52.64,3,.13,3.25s-1.86-.29-2.71-1.81-.64-3-.13-3.26A1.31,1.31,0,0,1,895.19,572.57Z" transform="translate(-877.2 -461.23)"/><path class="cls-4" d="M903,574.9c.76,1.36.54,2.59.16,2.8s-1.53-.24-2.3-1.61-.54-2.59-.17-2.8S902.25,573.53,903,574.9Z" transform="translate(-877.2 -461.23)"/><path class="cls-4" d="M901.79,584.91c-4.45-.39-10.67,3-13.36,9.28h0a2.72,2.72,0,0,1-5-2.13h0c3.81-8.91,12.55-13.12,18.85-12.57h0a2.72,2.72,0,0,1-.48,5.42Z" transform="translate(-877.2 -461.23)"/><path class="cls-3" d="M1006.15,602.66h0c1.05-6.52,6.76-23.26,9.73-28.56,1.12-2,3.15-3,4.52-2.24a2.73,2.73,0,0,1,1.18,2.64,6.35,6.35,0,0,1,.46-1c1.23-2.19,3.44-3.28,4.93-2.44,1.07.6,1.49,2,1.2,3.57,1.27-1.74,3.17-2.53,4.51-1.78,1.5.84,1.72,3.29.5,5.48-.1.17-.2.33-.31.49,1.08-1.37,2.63-2,3.73-1.35,1.29.72,1.48,2.82.43,4.69h0a2.6,2.6,0,0,1,2.81-.45c1.29.72,1.48,2.82.43,4.69a5.69,5.69,0,0,1-.33.52,2.16,2.16,0,0,1,2.19-.19c1.15.64,1.32,2.52.39,4.19l-11.61,20.73a13.34,13.34,0,0,1-24.76-9Z" transform="translate(-877.2 -461.23)"/><path class="cls-4" d="M1039.79,589.36c-.6,1.07-.37,1.9-.25,2s1-.17,1.55-1.24.37-1.9.25-2S1040.38,588.29,1039.79,589.36Z" transform="translate(-877.2 -461.23)"/><path class="cls-4" d="M1038.36,583.21a3.37,3.37,0,0,0-1.32,1.35c-.67,1.2-.51,2.3-.2,2.48s1.34-.26,2-1.46a3.37,3.37,0,0,0,.46-1.84.85.85,0,0,0-.26-.64A.89.89,0,0,0,1038.36,583.21Z" transform="translate(-877.2 -461.23)"/><path class="cls-4" d="M1035.12,579a3.37,3.37,0,0,0-1.32,1.35c-.67,1.2-.51,2.3-.2,2.48s1.34-.26,2-1.46a3.37,3.37,0,0,0,.46-1.84.85.85,0,0,0-.26-.64A.89.89,0,0,0,1035.12,579Z" transform="translate(-877.2 -461.23)"/><path class="cls-4" d="M1030.83,574.36a4.13,4.13,0,0,0-1.66,1.68c-.85,1.53-.64,3-.13,3.26s1.86-.29,2.71-1.81.64-3,.13-3.25A1.28,1.28,0,0,0,1030.83,574.36Z" transform="translate(-877.2 -461.23)"/><path class="cls-4" d="M1025.13,572.57a4,4,0,0,0-1.66,1.69c-.85,1.52-.64,3-.13,3.25s1.86-.29,2.71-1.81.64-3,.13-3.26A1.31,1.31,0,0,0,1025.13,572.57Z" transform="translate(-877.2 -461.23)"/><path class="cls-4" d="M1017.3,574.9c-.76,1.36-.54,2.59-.16,2.8s1.53-.24,2.3-1.61.54-2.59.17-2.8S1018.07,573.53,1017.3,574.9Z" transform="translate(-877.2 -461.23)"/><path class="cls-4" d="M1018.53,584.91c4.45-.39,10.67,3,13.36,9.28h0a2.72,2.72,0,1,0,5-2.13h0c-3.81-8.91-12.55-13.12-18.85-12.57h0a2.72,2.72,0,0,0,.48,5.42Z" transform="translate(-877.2 -461.23)"/><path class="cls-3" d="M1019.05,540.48c-.49-3.31-2.61-8-4.37-10.8a10.57,10.57,0,0,1,2.76,1.22,51.73,51.73,0,0,0-5.65-9.38c1,.38,1.88.67,2.67,1-2.71-5.62-9-12.33-13.3-16.65l-41,25.87-41-25.87c-4.31,4.32-10.59,11-13.3,16.65.79-.35,1.65-.64,2.67-1a51.73,51.73,0,0,0-5.65,9.38,10.47,10.47,0,0,1,2.77-1.22c-1.77,2.85-3.89,7.49-4.38,10.8.93-.93,1.67-1.62,2.25-1.62-3.32,24.22,2.63,55.47,18.74,79.58h17c2.29,0,4.14-2.23,4.14-5a5.16,5.16,0,0,0-2.28-4.45s-3.9-3.75-5.43-6.7c-11.06-26.27-.52-49.52,5-60.22l1,1.79,2-3.61,2,3.61,2.05-3.61,2,3.61,2.06-3.61,2,3.61,2-3.61,2.05,3.61,2-3.61,2.05,3.61,2-3.61,2,3.61,2.06-3.61,2,3.61,2.05-3.61,2,3.61,2.05-3.61,2,3.61,1-1.79c5.51,10.7,16.05,33.95,5,60.22-1.52,3-5.43,6.69-5.43,6.7a5.16,5.16,0,0,0-2.28,4.45c0,2.76,1.86,5,4.15,5h17c16.11-24.11,22.06-55.36,18.75-79.58C1017.38,538.86,1018.12,539.55,1019.05,540.48Z" transform="translate(-877.2 -461.23)"/><path class="cls-3" d="M923,469.6a8.11,8.11,0,1,1,8.11,8.11A8.11,8.11,0,0,1,923,469.6Z" transform="translate(-877.2 -461.23)"/><path class="cls-3" d="M997.29,469.6a8.11,8.11,0,1,0-8.11,8.11A8.11,8.11,0,0,0,997.29,469.6Z" transform="translate(-877.2 -461.23)"/><path class="cls-2" d="M999.74,494.11h0a2,2,0,0,0-.09-.22,29.68,29.68,0,0,0-1.65-3.8c-4.46-9.52-13.35-23.33-26.74-27.14h0a36.74,36.74,0,0,0-22.22,0h0c-13.39,3.81-22.28,17.63-26.74,27.14a30.17,30.17,0,0,0-1.65,3.79l-.09.23h0a27.74,27.74,0,0,0-1.55,9.1c0,18.49,18.41,33.48,41.13,33.48s41.13-15,41.13-33.48A27.74,27.74,0,0,0,999.74,494.11Z" transform="translate(-877.2 -461.23)"/><path class="cls-4" d="M952.85,493.35a5.22,5.22,0,0,0-7.86-4.51h0c-7.59,3.56-12.48,9.69-7.91,18.05.06.12.13.24.2.36l0,.05h0a5.21,5.21,0,0,0,9.5-1.41h0c.51-2,1.93-6.27,4.56-8.91h0A5.2,5.2,0,0,0,952.85,493.35Z" transform="translate(-877.2 -461.23)"/><path class="cls-5" d="M972.81,513a14.69,14.69,0,0,0-4-9.24c-1.85-1.86-5-3-8.63-3s-6.77,1.11-8.63,3a14.74,14.74,0,0,0-4,9.24,15,15,0,0,0,1.53,8.2c2,3,5.63,5.4,11.12,5.4s9.08-2.42,11.12-5.4A15,15,0,0,0,972.81,513Z" transform="translate(-877.2 -461.23)"/><path class="cls-4" d="M967.47,493.35a5.22,5.22,0,0,1,7.86-4.51h0c7.59,3.56,12.48,9.69,7.91,18.05-.06.12-.13.24-.2.36l0,.05h0a5.21,5.21,0,0,1-9.5-1.41h0c-.51-2-1.93-6.27-4.56-8.91h0A5.2,5.2,0,0,1,967.47,493.35Z" transform="translate(-877.2 -461.23)"/><path class="cls-1" d="M960.16,514.64c-1.61,0-5.61,0-7.87,1.18,0,4.11,5.26,5.38,7.87,5.38s7.87-1.27,7.87-5.38C965.77,514.64,961.78,514.64,960.16,514.64Z" transform="translate(-877.2 -461.23)"/><path class="cls-1" d="M941.05,498.45a2.22,2.22,0,1,1,2.22,2.22A2.21,2.21,0,0,1,941.05,498.45Z" transform="translate(-877.2 -461.23)"/><path class="cls-1" d="M979.27,498.45a2.22,2.22,0,1,0-2.22,2.22A2.21,2.21,0,0,0,979.27,498.45Z" transform="translate(-877.2 -461.23)"/></svg>