<svg id="Vrstva_1" data-name="Vrstva 1" xmlns="http://www.w3.org/2000/svg" viewBox="0 0 210.33 158.49"><defs><style>.cls-1{fill:#e19329;}.cls-2{fill:#f9ab39;}.cls-3{fill:#ffca6e;}.cls-4{fill:#383c4a;}.cls-5{fill:#272733;}.cls-6{fill:#eae6e4;}.cls-7{fill:#dbd7d5;}.cls-8{fill:#fff;}.cls-9{fill:#0f0b0e;}.cls-10{fill:#ffc554;}.cls-11{fill:#e87658;}</style></defs><title>tygr</title><path class="cls-1" d="M1055.55,626.53c-7.38,2.3-19.07,9.9-29.66,24.28C1015.43,665,1006.78,705,1005.38,709c-3,8.49,4.61,9.9,7.4,1.95,3.48-9.94,13.55-42.29,20.61-51.71,4.29-5.72,7.21-6.15,7.21-6.15Z" transform="translate(-1004.69 -576.97)"/><path class="cls-1" d="M1175.89,683.42c-.65,4.9,5.26,39.76,8.2,46.15,3.53,0,9.2-1.26,10.32,4.27a1.34,1.34,0,0,1-1.3,1.62h-18.64c-1.59,0-13.36-32.56-13.91-39S1171.27,674.76,1175.89,683.42Z" transform="translate(-1004.69 -576.97)"/><path class="cls-2" d="M1027.85,698.47c6-2.9,8.88-13.79,8.88-19.41V651c0-22.85,27.48-28.29,38.09-28.29h33.55c43,0,54.26-27,54.26-27,4.57,0,35.83,11.8,41.93,16.28.1,16,.86,62.37-35.62,75.38-5.28,2.34-51.63,2.67-62.43,2.67h-33.78c-2.79,6.16-23.13,17.3-31.46,20.56a4.16,4.16,0,0,0-2.6,3.45c-.46,4.53-.51,12.05.15,15.18,1.22.35,2.86-.05,4.34-.17a5.81,5.81,0,0,1,5.44,2.75,3.19,3.19,0,0,1,.31.66,2.35,2.35,0,0,1-2.26,3h-16.81C1028.21,731.29,1021.86,701.37,1027.85,698.47Z" transform="translate(-1004.69 -576.97)"/><path class="cls-2" d="M1168.94,687.36c-1.18,6.39-3.4,40.31-3.4,42.21,3.4,0,9.2-1.26,10.32,4.27a1.34,1.34,0,0,1-1.3,1.62h-18.64c-1.6,0-8.29-39.71-8.83-46.12S1164.32,678.69,1168.94,687.36Z" transform="translate(-1004.69 -576.97)"/><path class="cls-1" d="M1072.73,690H1087c-5,7.74-11,16-15.08,19.58a9.86,9.86,0,0,0-3.35,6.84c-.27,4.44-.22,10.14.33,12.77,1.23.35,2.87-.05,4.34-.17a5.8,5.8,0,0,1,5.44,2.75,2.82,2.82,0,0,1,.32.66,2.35,2.35,0,0,1-2.26,3H1059.9c-1.29-3.28-5.5-22.55-4.3-32C1063.37,699,1071.09,693.66,1072.73,690Z" transform="translate(-1004.69 -576.97)"/><path class="cls-3" d="M1168.94,687.36c36.48-13,35.72-59.37,35.62-75.38-3.19-2.34-13.27-6.69-22.81-10.31l-15.16,29.08c5.45,10.84,12.71,20.51,12.79,33.38C1179.44,673.73,1174.92,681.37,1168.94,687.36Z" transform="translate(-1004.69 -576.97)"/><path class="cls-4" d="M1057.65,661.3c1.18-.67-5.38-20.65-6.75-32.59-.71.39-1.42.81-2.1,1.24C1050.2,643.27,1056.48,662,1057.65,661.3ZM1047.39,655c-1.58,1.25,3.49,15.67,21.93,39.15a20.64,20.64,0,0,0,2.38-2.46C1055.33,673.49,1048.74,653.9,1047.39,655Zm2.92,37c1.71-.58-8.57-14.91-13.58-21.5v4.77C1041.69,682.14,1048.8,692.45,1050.31,691.93Zm-5.48-40.15c.5-.49-2.29-5.35-5.72-11.47A24,24,0,0,0,1038,643C1041.43,648.43,1044.36,652.24,1044.83,651.78Zm-1.71,19.49c-1.2,1.28,4.1,11.62,19.81,27.67.85-.57,1.67-1.14,2.45-1.71C1051.32,683.63,1044.13,670.19,1043.12,671.27Zm23.64-15.33c-1.44,0,3.66,22.4,10,34.09h2.46C1073.73,680.29,1068.24,655.9,1066.76,655.94Zm-36.64,52.74c-1.48-.29-3.54-.72-4.79-1,0,.67,0,1.36.06,2.06h5.39C1032.2,709.75,1032.41,709.12,1030.12,708.68Zm5-3.84c-2-1-6.47-2.36-9.2-3.46a15.78,15.78,0,0,0-.47,2.68l9.13,1.92C1035.46,706.16,1037.77,706.14,1035.14,704.84Zm15.46-53.23c.71-.54-3.13-8.86-6.73-17.79-.64.63-1.24,1.29-1.82,2C1045.76,644.67,1049.91,652.16,1050.6,651.61Zm-12.14,32.1c-1,.5,7.25,11.7,16,20.41.72-.4,1.43-.81,2.14-1.22C1048.38,694.52,1039.46,683.21,1038.46,683.71Zm27.92-17.07c.42-.51-4.11-7.87-4.65-20.83-.24-5.83-.29-15.92-.63-21.14-.5.14-1,.28-1.5.44a148,148,0,0,0-.3,23.72C1060.2,663.72,1065.55,667.65,1066.38,666.64Zm35.64-8.3c1.89-.35-3.12-17.62,1.29-35.68h-2.82C1096.43,641.76,1100.12,658.69,1102,658.34Zm-8.73,9.17c1.72.22-2.82-20.48,2.19-44.85H1092C1088.24,652.28,1091.29,667.26,1093.29,667.51Zm-26.07-14.63c1.2-.29.6-17.75,2-29.82-.77.09-1.56.21-2.37.35C1065.13,636.37,1066,653.17,1067.22,652.88Zm15.92-30.22c-5.57,25-.71,47.37,1.77,46.91s-4.22-23.3,1.9-46.91Zm-7.25,36.49c1.91-.36-3.28-18.14,1.49-36.49h-2.85C1070.18,642.1,1074,659.5,1075.89,659.15Zm-20.55,21.24c.9-1.09-13.45-18.55-18.61-29.12v4.81C1043.1,667.68,1054.53,681.37,1055.34,680.39Zm77.53-26.32c-1.71.38.88,21.28,7.32,35.49l3.42-.1C1135.85,677.21,1135.38,653.53,1132.87,654.07Zm-7.95,9.51c-1.9-.13,2.55,18.85,4.52,26.23l2.88-.06C1130.53,683.32,1126.93,663.73,1124.92,663.58Zm-9.11-8.31c-1.42-.14.68,22.15,5.32,34.66l2.3,0C1119.45,679.11,1117.24,655.42,1115.81,655.27Zm38.69,54.33c-1.37-.26-3.21-.65-4.47-.92.11.67.23,1.33.35,2h4.77C1156.57,710.68,1156.78,710,1154.5,709.6Zm5.4,5.14c-2-.52-6.14-.91-9.05-1.38.16.88.31,1.74.47,2.61h8.28C1160.48,716,1162.74,715.48,1159.9,714.74Zm12-35.11c.18-.63-6.9-5.58-12.56-17.25-3.55-7.33-10.06-22.41-10.87-22s3.09,12.42,9.84,25.71S1171.59,680.89,1171.94,679.63Zm-63.28-6.13c-1.29-.09.35,8.61,2.15,16.52l3,0C1112,682.29,1110,673.59,1108.66,673.5Zm62.88,11c-11.29-4.35-16.49-22.85-18.25-22.13-2.44,1,7,21.35,15.65,25,1.64-.59,3.21-1.25,4.7-2Q1172.78,685,1171.54,684.53Zm-92.81-23c-1.22-.09.58,16.1,4.24,28.54h2.41C1082.15,678.36,1079.94,661.58,1078.73,661.49Zm19.18-6.22c-1.41-.18,0,22.12,4.31,34.76h2.28C1100.85,679.1,1099.34,655.46,1097.91,655.27Zm-8.46,14.22c-1-.07,0,10.12,2.23,20.54h2.49C1092,679.93,1090.4,669.55,1089.45,669.49Zm29.76-15.42c1.87-.44-2.57-16.42-1.39-31.87-.94.09-1.91.17-2.89.24C1114.38,638.73,1117.32,654.5,1119.21,654.07Zm-7.16,12.69c1.71.07-4.4-19.76-1.67-44.12l-2,0H1107C1105.78,652.16,1110,666.67,1112.05,666.76Zm17.51-1.09c1.74,0-5.38-19.94-3.51-44.73q-1.68.34-3.45.63C1122.64,651.28,1127.55,665.68,1129.56,665.67Zm13-2.59c1.1-.31-1-13.77-2-18.56-1.34-6.92-2-9.51-.86-28-1.24.56-2.53,1.09-3.9,1.6-1.28,8.46-.35,19.81,1,25.91C1137.78,649,1141.42,663.4,1142.51,663.08Zm1.33-26.05c1.73-.59.65-12.71,3.37-24.61q-2,1.3-4.29,2.54C1142.49,622.08,1141.71,637.75,1143.84,637Z" transform="translate(-1004.69 -576.97)"/><path class="cls-5" d="M1033.14,653.64c.49-.48-.89-3.44-3.26-7.87-.67.78-1.33,1.58-2,2.42C1030.66,652,1032.65,654.12,1033.14,653.64Zm.37-11.91c-.58.61-1.16,1.24-1.75,1.88,1.62,3,2.84,4.77,3.26,4.46S1034.79,645.37,1033.51,641.73Zm-24.75,54.43c2.38.77,5.2,1.58,8.21,2.34.25-.75.51-1.51.78-2.29-3.06-.71-6-1.43-8.46-2Zm3.11-11.19c3.13,1.2,6.23,2.35,8.71,3.12.26-.73.52-1.46.79-2.2-2.38-1.14-5.5-2.45-8.67-3.7C1012.42,683.12,1012.14,684.05,1011.87,685Zm-2,7.23c2.74.52,5.7,1,8.78,1.49.43-1.23.86-2.48,1.31-3.74-3.17-.41-6.25-.84-9.12-1.24C1010.46,689.9,1010.14,691.07,1009.83,692.2ZM1005.38,709c-3,8.49,4.61,9.9,7.4,1.95.35-1,.76-2.23,1.24-3.63-2.06-.76-5-1.84-7.48-2.56C1006,706.85,1005.6,708.34,1005.38,709Zm1.92-7.18c2.58,1.6,5.1,3.12,7.15,4.21l.77-2.29c-2-1.46-4.54-3.16-7.17-4.85C1007.78,699.89,1007.53,700.87,1007.3,701.78Zm16.57-47.87c3.24,2,6.62,4.13,9.3,5.6l.22-.31c.44-.58.85-1.09,1.26-1.57-2.48-1.83-5.88-4.07-9.22-6.17C1024.91,652.21,1024.39,653,1023.87,653.91Zm-3.56,7c3,.94,6.55,1.94,10.3,2.81.42-.79.83-1.53,1.24-2.21-3.79-.86-7.51-1.78-10.65-2.52C1020.9,659.64,1020.6,660.29,1020.31,660.94Zm-5.1,13.37c3,.81,6.24,1.62,9.63,2.39.49-1.25,1-2.47,1.48-3.66-3.45-.73-6.82-1.47-9.93-2.15C1016,672,1015.59,673.16,1015.21,674.31Zm-1.84,5.69c2.58.85,5.76,1.79,9.19,2.65.28-.76.56-1.52.85-2.27-3.46-.81-6.75-1.62-9.45-2.25C1013.76,678.75,1013.57,679.37,1013.37,680Zm4-11.75c3.28.42,6.85.8,10.56,1.1.6-1.33,1.19-2.6,1.77-3.79-3.8-.25-7.53-.54-11-.81C1018.25,665.9,1017.79,667.07,1017.35,668.25Z" transform="translate(-1004.69 -576.97)"/><path class="cls-1" d="M1163.41,582a4.2,4.2,0,1,1,4.19,4.2A4.19,4.19,0,0,1,1163.41,582Z" transform="translate(-1004.69 -576.97)"/><path class="cls-1" d="M1207.52,582a4.2,4.2,0,1,0-4.19,4.2A4.19,4.19,0,0,0,1207.52,582Z" transform="translate(-1004.69 -576.97)"/><path class="cls-6" d="M1215,618.71c.23-3.29-.84-8.2-1.78-11.62h0a43.58,43.58,0,0,0-1.92-5.82l-3-5.57-22.83-10.5-22.84,10.5-3,5.57a43.58,43.58,0,0,0-1.92,5.82h0c-.94,3.42-2,8.33-1.78,11.62l1-1.3.06.5c0,3.5.18,8.15,1.16,11.11.37-1,1.42-3.45,1.42-3.45v0l0,0,0,0c1.43,3.25,3.7,7.73,6,10.14-.06-1-.16-3.72-.16-3.73l.48.31c2.9,2,6.91,4.34,9.92,5.15-.55-.78-1.9-2.8-2.08-3.06,4.56,0,8.89-1.65,11.81-1.65s7.24,1.61,11.8,1.65c-.18.26-1.53,2.28-2.08,3.06,3-.81,7-3.19,9.93-5.15l.47-.31s-.1,2.7-.15,3.73c2.25-2.41,4.52-6.89,6-10.14l0,0,0,0v0s1,2.49,1.42,3.45c1-3,1.2-7.61,1.16-11.11l.06-.5Z" transform="translate(-1004.69 -576.97)"/><path class="cls-2" d="M1212.13,602.05a94.9,94.9,0,0,0-4.59-11.23h0a24.52,24.52,0,0,0-44.15,0h0a94.9,94.9,0,0,0-4.59,11.23,44.54,44.54,0,0,1,4.84-3.89c-1.44,4.56-2.4,9.09-2.4,9.09a64.41,64.41,0,0,1,6.4-6.31c-1.2,3.92-2,7.88-2,7.88a53.42,53.42,0,0,1,5.38-5.39h0c-1.27,3.63-2.17,7.33-2.17,7.33a38.55,38.55,0,0,1,4-3.84,5.56,5.56,0,0,1-.12.75c-.37,1.11-2.53,8.26-1.54,11.36,1.39,4.37,7.13,6.54,9.63,6.54,2.14,0,4.63-3.76,4.63-3.76s2.48,3.76,4.63,3.76c2.5,0,8.23-2.17,9.62-6.54,1-3.1-1.17-10.25-1.54-11.36a5.56,5.56,0,0,1-.12-.75,38.55,38.55,0,0,1,4,3.84s-.9-3.7-2.17-7.33h0a53.42,53.42,0,0,1,5.38,5.39s-.8-4-2-7.88a65.5,65.5,0,0,1,6.41,6.31s-1-4.53-2.41-9.09A44.54,44.54,0,0,1,1212.13,602.05Z" transform="translate(-1004.69 -576.97)"/><path class="cls-7" d="M1194,624l-8.5-2.22L1177,624c-.65,1.16-1.71,5.23-.51,5.65a7.23,7.23,0,0,0,2.14.09,7.23,7.23,0,0,0,1.61,4,11.91,11.91,0,0,1,1.18-4.13,4.29,4.29,0,0,0,1.14,2.67,5.57,5.57,0,0,1,.84-2.68,3.86,3.86,0,0,0,1.54,2.22,7.22,7.22,0,0,1-.18-2.51h.75c2.79,0,7.8.78,9,.37S1194.62,625.19,1194,624Z" transform="translate(-1004.69 -576.97)"/><path class="cls-8" d="M1197.74,602.05a2.27,2.27,0,1,0-2.27,2.27A2.27,2.27,0,0,0,1197.74,602.05Z" transform="translate(-1004.69 -576.97)"/><circle class="cls-9" cx="190.77" cy="25.08" r="1.32"/><path class="cls-8" d="M1190.42,614l-.83,2.46c1.69-.41,7.31-1.88,9.71-4.64.55,2.49,1,5.47.42,7.19-1.39,4.37-7.12,6.54-9.62,6.54-2.15,0-4.63-3.76-4.63-3.76v-4.94Z" transform="translate(-1004.69 -576.97)"/><path class="cls-8" d="M1173.2,602.05a2.27,2.27,0,1,1,2.27,2.27A2.27,2.27,0,0,1,1173.2,602.05Z" transform="translate(-1004.69 -576.97)"/><path class="cls-9" d="M1174.15,602.05a1.32,1.32,0,1,1,1.32,1.32A1.32,1.32,0,0,1,1174.15,602.05Z" transform="translate(-1004.69 -576.97)"/><path class="cls-10" d="M1190.65,604.74c-.93-1.76-.79-5.47-.7-6.94a4.21,4.21,0,0,0,0-.62c0-2.51-2-8.4-4.53-8.4s-4.54,5.89-4.54,8.4a4.21,4.21,0,0,0,0,.62c.09,1.47.23,5.18-.7,6.94-1.17,2.22-1.27,6.85-1.27,7.38s.75,1.14,1.5,1.9l5-.55,5,.55c.76-.76,1.5-1.38,1.5-1.9S1191.82,607,1190.65,604.74Z" transform="translate(-1004.69 -576.97)"/><path class="cls-8" d="M1180.51,614l.83,2.46c-1.69-.41-7.31-1.88-9.71-4.64-.55,2.49-1,5.47-.42,7.19,1.39,4.37,7.13,6.54,9.63,6.54,2.14,0,4.63-3.76,4.63-3.76v-4.94Z" transform="translate(-1004.69 -576.97)"/><path class="cls-11" d="M1185.47,613.47c-1.79-1.48-4.6-2.38-5.44-.8-.12,1.54,2.47,3.21,3.65,3.77-.07,2.4,1.17,3.58,1.79,3.58s1.85-1.18,1.79-3.58c1.17-.56,3.76-2.23,3.64-3.77C1190.06,611.09,1187.26,612,1185.47,613.47Z" transform="translate(-1004.69 -576.97)"/><path class="cls-5" d="M1179.34,619a.53.53,0,0,1,.69-.3.53.53,0,0,1,.3.69.53.53,0,0,1-.69.31A.54.54,0,0,1,1179.34,619Z" transform="translate(-1004.69 -576.97)"/><path class="cls-5" d="M1176.67,618a.53.53,0,0,1,.69-.3.53.53,0,1,1-.69.3Z" transform="translate(-1004.69 -576.97)"/><path class="cls-5" d="M1174,616.9a.52.52,0,0,1,.69-.3.53.53,0,0,1,.3.69.53.53,0,0,1-.69.3A.53.53,0,0,1,1174,616.9Z" transform="translate(-1004.69 -576.97)"/><path class="cls-5" d="M1178.29,621.67a.53.53,0,1,1,.3.7A.53.53,0,0,1,1178.29,621.67Z" transform="translate(-1004.69 -576.97)"/><path class="cls-5" d="M1175.62,620.62a.53.53,0,0,1,.69-.3.54.54,0,1,1-.69.3Z" transform="translate(-1004.69 -576.97)"/><path class="cls-5" d="M1172.94,619.57a.54.54,0,0,1,.7-.3.53.53,0,0,1,.3.69.53.53,0,0,1-.69.3A.54.54,0,0,1,1172.94,619.57Z" transform="translate(-1004.69 -576.97)"/><path class="cls-5" d="M1177.48,619.81a.53.53,0,0,1,.69-.3.53.53,0,0,1,.3.69.53.53,0,1,1-1-.39Z" transform="translate(-1004.69 -576.97)"/><path class="cls-5" d="M1174.81,618.76a.53.53,0,0,1,.69-.3.53.53,0,0,1,.3.69.53.53,0,1,1-1-.39Z" transform="translate(-1004.69 -576.97)"/><path class="cls-5" d="M1191.59,619a.53.53,0,0,0-.69-.3.53.53,0,0,0-.3.69.53.53,0,0,0,.69.31A.54.54,0,0,0,1191.59,619Z" transform="translate(-1004.69 -576.97)"/><path class="cls-5" d="M1194.26,618a.53.53,0,0,0-.69-.3.53.53,0,1,0,.69.3Z" transform="translate(-1004.69 -576.97)"/><path class="cls-5" d="M1196.93,616.9a.52.52,0,0,0-.69-.3.53.53,0,0,0-.3.69.53.53,0,0,0,.69.3A.53.53,0,0,0,1196.93,616.9Z" transform="translate(-1004.69 -576.97)"/><path class="cls-5" d="M1192.64,621.67a.53.53,0,1,0-.3.7A.53.53,0,0,0,1192.64,621.67Z" transform="translate(-1004.69 -576.97)"/><path class="cls-5" d="M1195.31,620.62a.53.53,0,0,0-.69-.3.54.54,0,1,0,.69.3Z" transform="translate(-1004.69 -576.97)"/><path class="cls-5" d="M1198,619.57a.54.54,0,0,0-.7-.3.53.53,0,1,0,.4,1A.54.54,0,0,0,1198,619.57Z" transform="translate(-1004.69 -576.97)"/><path class="cls-5" d="M1193.45,619.81a.53.53,0,0,0-.69-.3.53.53,0,0,0-.3.69.54.54,0,0,0,.69.31A.53.53,0,0,0,1193.45,619.81Z" transform="translate(-1004.69 -576.97)"/><path class="cls-5" d="M1196.12,618.76a.53.53,0,0,0-.69-.3.53.53,0,0,0-.3.69.53.53,0,1,0,1-.39Z" transform="translate(-1004.69 -576.97)"/><path class="cls-4" d="M1185.47,583c0,1-.22,4.77-2.91,5s-8.84,1.72-8.6,1.31C1175.47,586.75,1183.86,588,1185.47,583Z" transform="translate(-1004.69 -576.97)"/><path class="cls-4" d="M1185.47,580.44c0,1-.21,3.73-2.91,3.73-5.43,0-11.27,2.12-11,1.71C1173,583.32,1184.66,582.27,1185.47,580.44Z" transform="translate(-1004.69 -576.97)"/><path class="cls-4" d="M1185.47,577.84c0,1-.21,2.8-2.91,2.8-5.43,0-9.49,2.12-9.25,1.71C1174.82,579.79,1184.85,578.45,1185.47,577.84Z" transform="translate(-1004.69 -576.97)"/><path class="cls-4" d="M1165.4,621.22a14.17,14.17,0,0,1-1.25-11.44c.24,2.52,1.46,6.8,4.34,8.64.37-.94-.75-2.35-1.38-3.73-1.22-2.7-1.21-7.4-.09-11.62,1.36-2.42,4.25-6.08,2.83-8.42-1.11,1.66-6.44,8.72-7.78,14.44s-1.42,12.26,8.88,19.94C1171.53,627.78,1167.2,624.5,1165.4,621.22Z" transform="translate(-1004.69 -576.97)"/><path class="cls-4" d="M1185.47,583c0,1,.21,4.77,2.9,5s8.84,1.72,8.6,1.31C1195.47,586.75,1187.07,588,1185.47,583Z" transform="translate(-1004.69 -576.97)"/><path class="cls-4" d="M1185.47,580.44c0,1,.2,3.73,2.9,3.73,5.43,0,11.27,2.12,11,1.71C1197.89,583.32,1186.27,582.27,1185.47,580.44Z" transform="translate(-1004.69 -576.97)"/><path class="cls-4" d="M1185.47,577.84c0,1,.2,2.8,2.9,2.8,5.43,0,9.49,2.12,9.25,1.71C1196.11,579.79,1186.08,578.45,1185.47,577.84Z" transform="translate(-1004.69 -576.97)"/><path class="cls-4" d="M1205.53,621.22a14.17,14.17,0,0,0,1.25-11.44c-.24,2.52-1.45,6.8-4.34,8.64-.37-.94.75-2.35,1.38-3.73,1.22-2.7,1.21-7.4.09-11.62-1.36-2.42-4.25-6.08-2.83-8.42,1.11,1.66,6.44,8.72,7.78,14.44s1.42,12.26-8.88,19.94C1199.41,627.78,1203.73,624.5,1205.53,621.22Z" transform="translate(-1004.69 -576.97)"/></svg>