<svg id="Vrstva_1" data-name="Vrstva 1" xmlns="http://www.w3.org/2000/svg" viewBox="0 0 187.68 260.76"><defs><style>.cls-1{fill:#262e3e;}.cls-2{fill:#856241;}.cls-3{fill:#ce925b;}.cls-4{fill:#99754d;}.cls-5{fill:#938d89;}.cls-6{fill:#bcb6b0;}.cls-7{fill:#d4cfca;}.cls-8{fill:#a39c97;}.cls-9{fill:#eae6e4;}.cls-10{fill:#674f3c;}.cls-11{fill:#48362a;}.cls-12{fill:#c1b0a8;}</style></defs><title>kamzík horský</title><path class="cls-1" d="M1015.3,645.33v0c1,2,.51,7.65-4.08,10.71h-8.66s-2-2.51,5.42-10.52a1.7,1.7,0,0,0,.2-.29C1010.55,645.31,1012.93,645.83,1015.3,645.33Z" transform="translate(-866.89 -410.12)"/><path class="cls-2" d="M1016.83,573.47c-3.06,7.65-1.75,22,3.06,31.61,2.55,5.1-1,5.61-1.53,9.18s-3,30-3.06,31.07c-2.37.5-4.75,0-7.12-.07,1.52-10.72,2.76-28.42,1.51-35.59-2-11.73-13.76-30.08-18.86-42.83C986.06,564.45,1019.89,552.05,1016.83,573.47Z" transform="translate(-866.89 -410.12)"/><path class="cls-1" d="M941.19,639.44c-.1-.06.18,8,.18,8H928.12s6.13-9.61,6.16-9.91C937,637.41,939.54,637.72,941.19,639.44Z" transform="translate(-866.89 -410.12)"/><path class="cls-2" d="M946,558.68c0,5.1-1,28-6.63,39.26,1,17.34,0,29.06,2,34.16,2,4.91,2.51,8.87-.18,7.34-1.65-1.72-4.15-2-6.91-2,.36-3.82,2.76-16.8-.56-32.41-3.57-16.83-3.06-15.81-2.55-23.45s-2-38.75-2-38.75S955.93,557.84,946,558.68Z" transform="translate(-866.89 -410.12)"/><path class="cls-1" d="M1036.72,553.07a22.54,22.54,0,0,0,4.59-2.55c3-2,5.09-2.27,8.66-.74a24.35,24.35,0,0,0,4.59,1.76,14.88,14.88,0,0,0-4.34,2.58c-2,1.53-4.33,2.52-8.91.48S1036.72,553.07,1036.72,553.07Z" transform="translate(-866.89 -410.12)"/><path class="cls-3" d="M1012.24,567.35s-8.15,7.65-24.47,5.1-28.55-5.61-34.16-11.22S973.49,549,973.49,549,1009.18,540.33,1012.24,567.35Z" transform="translate(-866.89 -410.12)"/><path class="cls-1" d="M1032.64,645.33v0c1,2,.51,7.65-4.08,10.71h-8.67s-2-2.51,5.43-10.52a1.18,1.18,0,0,0,.19-.29C1027.89,645.31,1030.26,645.83,1032.64,645.33Z" transform="translate(-866.89 -410.12)"/><path class="cls-1" d="M953.43,639.44c-.11-.06.18,8,.18,8H940.35s6.14-9.61,6.17-9.91C949.27,637.41,951.77,637.72,953.43,639.44Z" transform="translate(-866.89 -410.12)"/><path class="cls-4" d="M913.84,467.42s8.67,14.78,9.69,16.82,3.06,9.69,15.29,9.69,27,13.77,51.5,20.9,44.87,19.38,48.95,34.67-2,16.32-5.1,24-1.75,22,3.06,31.61c2.55,5.1-1,5.61-1.53,9.18s-3,30-3.06,31.07c-2.38.5-4.75,0-7.13-.07,1.53-10.72,2.77-28.42,1.52-35.59-2-11.73-13.77-30.08-18.87-42.83-7.13-3.57-19.88-10.71-50-8.16,0,5.1-1,28-6.63,39.26,1,17.34,0,29.06,2,34.16,2,4.91,2.51,8.87-.18,7.34-1.66-1.72-4.16-2-6.91-2,.36-3.82,2.75-16.8-.56-32.41-3.57-16.83-3.06-15.81-2.55-23.45s-5.1-24-5.1-24-11.21-3.57-17.84-19.88S909.25,503.62,906.19,497s-9.69-26-9.69-26Z" transform="translate(-866.89 -410.12)"/><path class="cls-5" d="M970.94,662.69c4.08,2,10.2-1.53,15.3,0,4.45,1.28,7.32,4.53,10.33,7.92l-6.25.24c-7.91.31-7.46-1.92-11.73-3.06-2.88-.76-8.67-.51-16.82.51s-12.69,1.27-15.57,1.09C953,662.9,960.49,657.47,970.94,662.69Z" transform="translate(-866.89 -410.12)"/><path class="cls-6" d="M929.14,650c12.12-3.51,19.25,4.16,23.64,14a49.39,49.39,0,0,0-6.58,5.42c-3.88-.23-4.74-1.23-7.38-2.11a6,6,0,0,0-1.41-.22c-2.54-5.46-4.69-11.17-9.8-8.44-8.16,5.09-15.3,0-23,1a4.54,4.54,0,0,0-3.3,1.76,5.55,5.55,0,0,1-.27-1.25,6.42,6.42,0,0,1,1.45-5C911.1,656.84,920.8,652,929.14,650Z" transform="translate(-866.89 -410.12)"/><path class="cls-7" d="M929.14,650c-8.34,2.08-18,6.89-26.6,5.23,2.65-3.11,8.37-4.08,13.34-5.23a27.71,27.71,0,0,0,8.16-3.57c2.88-2.16,5.92,1.78,20.9.51,24-2,53,9.69,67.3,9.18s25,0,30.09,1.53l.35.11c-3,1.51-6,3.45-9.53,3.45-4.08,0-8.16-2.54-12.24,0A134.79,134.79,0,0,0,1009.7,670c-4.46.24-9,.44-13.13.61-3-3.39-5.88-6.64-10.33-7.92-5.1-1.53-11.22,2-15.3,0-7.22-3.61-13-2.13-18.16,1.28C948.39,654.11,941.26,646.44,929.14,650Z" transform="translate(-866.89 -410.12)"/><path class="cls-8" d="M904.66,659.64c7.65-1,14.79,4.07,23-1,5.11-2.73,7.26,3,9.8,8.44-7.33-.56-33,3.15-36-5.66A4.54,4.54,0,0,1,904.66,659.64Z" transform="translate(-866.89 -410.12)"/><path class="cls-6" d="M1033.15,661.16c3.48,0,6.48-1.94,9.53-3.45,4.77,1.48,5.51,2.89,4.74,4-2.55,3.57-12.23-2-17.33,4.08-1.06,1.28-1.24,2.83-3.57,3.06-4.79.48-10.75.87-16.82,1.19a134.79,134.79,0,0,1,11.21-8.84C1025,658.62,1029.07,661.16,1033.15,661.16Z" transform="translate(-866.89 -410.12)"/><path class="cls-2" d="M888.88,457.86S876.1,438.13,875,437.78c-2-.67-2.1,13,4.12,19.08,7.63,7.51,10.86,5.68,10.86,5.68Z" transform="translate(-866.89 -410.12)"/><path class="cls-2" d="M907.71,450s-5.11-22.94-4.6-24c1-1.94,10.71,7.58,10.72,16.31,0,10.71-3.56,11.73-3.56,11.73Z" transform="translate(-866.89 -410.12)"/><path class="cls-9" d="M904.18,468.23c7.29-3.23,7.28-9.94,6.67-14.9A51.33,51.33,0,0,1,914.91,469c1,9.17,2,9.68,0,12.74-1.13,1.7-3.19,1.83-4.82,1.61-1,1.31-2.52,2.69-4.52,2.31-3.61-.69-3.26-1.78-9.08-8.94a52.21,52.21,0,0,1-8-12.95C892.44,467.36,898.23,470.86,904.18,468.23Z" transform="translate(-866.89 -410.12)"/><path class="cls-4" d="M894.64,446.51c1.13-.62,8.83-4.6,12.6.59a35.47,35.47,0,0,1,3.61,6.23c.61,5,.62,11.67-6.67,14.9-5.95,2.63-11.74-.87-15.67-4.44a36.39,36.39,0,0,1-2.29-7.88C885.17,449.58,893.4,446.88,894.64,446.51Z" transform="translate(-866.89 -410.12)"/><path class="cls-10" d="M908.53,449a39.25,39.25,0,0,1,4.27,9.49,108.11,108.11,0,0,0-.44,19.2c-1.53-2-4.6-13.26-4.6-13.26Z" transform="translate(-866.89 -410.12)"/><path class="cls-10" d="M886.68,458.16l11.54,10.27s5.85,10.05,6.23,12.57a107.76,107.76,0,0,0-14-13.15A39.18,39.18,0,0,1,886.68,458.16Z" transform="translate(-866.89 -410.12)"/><path class="cls-11" d="M896.4,410.93c-.14,10.34,0,20.69.33,31,.32,10.76,7.24,15,7.4,13.17,1.07-12.1-2-13.63-2.67-17.77-1.88-11.4-3.78-26.16-3.82-26.48C897.53,409.88,896.41,409.83,896.4,410.93Z" transform="translate(-866.89 -410.12)"/><path class="cls-11" d="M868,422.83c7.47,7.14,14.73,14.52,21.89,22,7.46,7.77,5.6,15.65,4.21,14.5-9.38-7.71-8.33-11-10.8-14.36-6.82-9.32-16-21-16.21-21.28C866.49,422.9,867.24,422.07,868,422.83Z" transform="translate(-866.89 -410.12)"/><path class="cls-9" d="M900.12,480.32c.35-1.81-.43-8.29-4.81-15.47-4-6.56-1.94-18.11-.67-18.34,1.36-1,10.74,5.88,12.61,13.33,2,8.16,6.13,13.26,7.66,14.28s-7.14,1.53-7.14,1.53l-1.55.65S899.77,482.12,900.12,480.32Z" transform="translate(-866.89 -410.12)"/><path class="cls-1" d="M910.28,455.76a1,1,0,1,0,1-1.27A1.17,1.17,0,0,0,910.28,455.76Z" transform="translate(-866.89 -410.12)"/><path class="cls-1" d="M890.07,464.06a1,1,0,1,1-1.62-.2A1.17,1.17,0,0,1,890.07,464.06Z" transform="translate(-866.89 -410.12)"/><path class="cls-12" d="M905.84,473.78l.2-.07.2-.1c2.64-1.24,8.66-5.61,10.2,5.6.32,2.31-1.51,4.9-4.3,6.09l-2,.83c-2.83,1.23-6,.72-7.47-1.15C895.76,476,903.1,474.79,905.84,473.78Z" transform="translate(-866.89 -410.12)"/><path class="cls-1" d="M905.24,472.53a4.93,4.93,0,0,0,.53-.22c2.06-1.13,4.57-1.7,6.35-.58,0,2.74-4,3.92-3.5,6,.19.76,1.36,3.71.92,3.94s-1.76-2.15-2.45-3.27c-1.1-1.79-4.74.19-6.72-1.7C900.82,474.6,903,473.21,905.24,472.53Z" transform="translate(-866.89 -410.12)"/><path class="cls-1" d="M903.39,482.53a.76.76,0,0,1,1-.43,5.86,5.86,0,0,0,2.28.23c2.79-.49,2.79-.49,5.1-2.14a5.62,5.62,0,0,0,1.43-1.79.77.77,0,0,1,1.41.61,10.1,10.1,0,0,1-10.77,4.51A.76.76,0,0,1,903.39,482.53Z" transform="translate(-866.89 -410.12)"/></svg>