<svg id="Vrstva_1" data-name="Vrstva 1" xmlns="http://www.w3.org/2000/svg" viewBox="0 0 223.35 138.19"><defs><style>.cls-1{fill:#736c67;}.cls-2{fill:#918880;}.cls-3{fill:#564f4d;}.cls-4{fill:#c0ae9c;}.cls-5{fill:#e2ceb9;}.cls-6{fill:#efe3d5;}.cls-7{fill:#bdb7b0;}.cls-8{fill:#272733;}</style></defs><title>nosorožec dvourohý</title><path class="cls-1" d="M1065.9,536.71c-2.19,0-9.15,9.79,4.76,17.77-2.31-4.12-1.43-7.19-.25-9.14C1072,542.68,1070.66,536.71,1065.9,536.71Z" transform="translate(-847.7 -471.73)"/><path class="cls-2" d="M1064.13,537.89c-2-7-5.87-20.28-18.52-28-4.15-4.16-5.58-10.59-5.58-10.59,15.09,8.4,23.55,26.17,25.87,37.38C1065.9,538.25,1064.13,537.89,1064.13,537.89Z" transform="translate(-847.7 -471.73)"/><path class="cls-1" d="M894.69,490.5c-2.07-2-4.19-7.82-3-11.46,3.67.77,6.2,2.66,8.1,8.53A43.77,43.77,0,0,1,894.69,490.5Z" transform="translate(-847.7 -471.73)"/><path class="cls-3" d="M1015.73,571.44c0-5.84-.77-8.84-1.76-10.29a60.08,60.08,0,0,1-10,5.9c.12,1.25.19,2.7.19,4.39,0,13.69,8.31,13.67,4.76,30.64l-.25.18h0a9.39,9.39,0,0,0-3.88,7.65h13.6C1026.44,584.84,1015.73,587,1015.73,571.44Z" transform="translate(-847.7 -471.73)"/><polygon class="cls-2" points="12.49 67.04 2.83 67.04 0 53.13 12.49 53.13 12.49 67.04"/><path class="cls-2" d="M1025.58,491.75c-48.43,0-61.06-8.64-77.16-8.64h0a17.78,17.78,0,0,0-12.36-5.27c-6.12,0-16.34,1.81-25.39,4.38-.89-5.53-3.36-8.34-7.13-10.49-2.43,3.37-2.88,9.25-2.15,13.59a45,45,0,0,0-5,2.31c-5.26,2.94-5.81,6.47-6.69,8-2.41,4.12-23.81,15.26-25.94,16.61,0,0-8.08,7.06-10.95,8.83v1.61a24.23,24.23,0,0,0-5.15,2.19l12.5,13.91H873c1.72,0,4.61,1.54,6.46,1.54h8.18c9.21,0,18.85-2,27.33-4.7h0c0,5.56,1.56,20.33,2.84,24.69l.09.28a3,3,0,0,0,.13.36h0a6.44,6.44,0,0,0,6,4.07c3.58,15.12,6.33,28.34,2.64,44.91h24s-3.78-20.95,1.55-34.52c8.32,0,39.83,1.79,61.72-14.24,1,1.45,1.76,4.45,1.76,10.29,0,15.53,10.71,13.4,2.64,38.47h24c0-7.73-7.55-22.15,2-43.93C1054.43,545.85,1051.6,491.75,1025.58,491.75Z" transform="translate(-847.7 -471.73)"/><path class="cls-3" d="M924,565a6.44,6.44,0,0,1-6-4.07h0a3,3,0,0,1-.13-.36l-.09-.28c-1.28-4.36-2.84-19.13-2.84-24.69h0a115,115,0,0,1-12.64,3.21c.38,6.71,1.66,17.8,2.74,21.48,0,.1.05.19.08.28l.13.36h0a6.46,6.46,0,0,0,6,4.07c3,12.66,5.41,24,4,37.08a9.4,9.4,0,0,0-4.13,7.83h15.56C930.35,593.34,927.6,580.12,924,565Z" transform="translate(-847.7 -471.73)"/><path class="cls-4" d="M928,602.07a9.45,9.45,0,0,0-4.13,7.84h8.27A9.43,9.43,0,0,0,928,602.07Z" transform="translate(-847.7 -471.73)"/><path class="cls-5" d="M933.26,601a10.69,10.69,0,0,0-4.7,8.9H938A10.69,10.69,0,0,0,933.26,601Z" transform="translate(-847.7 -471.73)"/><path class="cls-6" d="M939.34,602.89a8.45,8.45,0,0,0-3.7,7h7.41A8.43,8.43,0,0,0,939.34,602.89Z" transform="translate(-847.7 -471.73)"/><path class="cls-4" d="M1020.49,602.07a9.45,9.45,0,0,0-4.13,7.84h8.27A9.43,9.43,0,0,0,1020.49,602.07Z" transform="translate(-847.7 -471.73)"/><path class="cls-5" d="M1025.78,601a10.68,10.68,0,0,0-4.69,8.9h9.39A10.69,10.69,0,0,0,1025.78,601Z" transform="translate(-847.7 -471.73)"/><path class="cls-6" d="M1031.87,602.89a8.43,8.43,0,0,0-3.71,7h7.41A8.45,8.45,0,0,0,1031.87,602.89Z" transform="translate(-847.7 -471.73)"/><path class="cls-1" d="M904.31,477.35a9.56,9.56,0,0,1,2.82,5,13,13,0,0,1-.91,6.18,12.16,12.16,0,0,1-3-5.55A9.52,9.52,0,0,1,904.31,477.35Z" transform="translate(-847.7 -471.73)"/><path class="cls-1" d="M952.45,558.72c-12.63-2.42-19.54,1.43-25.09,4.51-1.17.65-2.27,1.26-3.34,1.77.19.83.39,1.64.57,2.45a1.24,1.24,0,0,0,.53-.12c1.15-.54,2.29-1.18,3.49-1.84,5.46-3,11.64-6.48,23.36-4.24a1.29,1.29,0,1,0,.48-2.53Z" transform="translate(-847.7 -471.73)"/><path class="cls-1" d="M911.12,525.59c0-3.27-1-5.58-2.32-5.58s.51,12.07-4.86,18.48h0c3.79-.79,7.5-1.78,11-2.88,0-3.93,4.49-19.13,6.55-24.28C918.54,511.33,912.4,520.18,911.12,525.59Z" transform="translate(-847.7 -471.73)"/><path class="cls-1" d="M1032.93,534.12a51,51,0,0,1-19.09,27.12l.13-.09a10.54,10.54,0,0,1,1.38,4.3,51.08,51.08,0,0,0,20.79-28.61C1037.32,532.74,1033.43,532.58,1032.93,534.12Z" transform="translate(-847.7 -471.73)"/><path class="cls-7" d="M875.11,523s1.46-7.63,6.68-10.26,13-.07,13-.07-2.26,8.43-7.48,11.06S875.11,523,875.11,523Z" transform="translate(-847.7 -471.73)"/><path class="cls-8" d="M882.27,518.18a2.69,2.69,0,1,1,2.69,2.7A2.69,2.69,0,0,1,882.27,518.18Z" transform="translate(-847.7 -471.73)"/><path class="cls-5" d="M852.85,521.06c0-6.46-1.76-23.29,5.28-38.41,0,5.5,1.29,23,5.67,29.58C864.49,516.4,852.85,521.06,852.85,521.06Z" transform="translate(-847.7 -471.73)"/><path class="cls-5" d="M868.81,509.43c-.52-2.42,1.17-10.81,2.46-14.07a45.16,45.16,0,0,0,5.93,9.29C876.77,507.55,870.52,511.14,868.81,509.43Z" transform="translate(-847.7 -471.73)"/><path class="cls-8" d="M858.39,532.41a7.91,7.91,0,0,0-5,1.65l-.17.1a.78.78,0,0,0-.24,1.07.76.76,0,0,0,1.06.24l.17-.1a10.42,10.42,0,0,1,2.07-1.11,2.37,2.37,0,0,0,2.16,1c1.26,0,2.28-.64,2.28-1.43S859.65,532.41,858.39,532.41Z" transform="translate(-847.7 -471.73)"/></svg>