<svg id="Vrstva_1" data-name="Vrstva 1" xmlns="http://www.w3.org/2000/svg" viewBox="0 0 335.94 210.97"><defs><style>.cls-1{fill:#803f2e;}.cls-2{fill:#9c5035;}.cls-3{fill:#262e3e;}.cls-4{fill:#54332c;}.cls-5{fill:#b85f38;}.cls-6{fill:#d99860;}</style></defs><title>Bizon americký</title><path class="cls-1" d="M718.1,570.91c-2.1-8.63-22.5-8.42-27.34-14.94a23.57,23.57,0,0,1-1.51-2.45c-2.23,49.24,5,60.16,8.24,62.19s17.88,2.32,25.45,1a20.31,20.31,0,0,0,4.21-1.23C723.75,612.36,717.9,582.45,718.1,570.91Z" transform="translate(-616.5 -425.71)"/><path class="cls-2" d="M720.84,618.31c0-.37,0-.8,0-1.25a88.29,88.29,0,0,1-12.68.42c-.11,1.57-.27,2.82-.41,3.63H721C720.92,620.19,720.88,619.26,720.84,618.31Z" transform="translate(-616.5 -425.71)"/><path class="cls-3" d="M707.73,621.11c-1.33,1.69-8.13,9.75-9.46,15.57h16.26c0-6.8,4.56-8.2,7.3-7.57a69.58,69.58,0,0,1-.85-8Z" transform="translate(-616.5 -425.71)"/><path class="cls-2" d="M860.44,618.31a159.29,159.29,0,0,1,1.26-20.06c.56-9.81,6.45-25,1.12-28.32-4.42-2.8-7.19-8.51-8.25-14.37-2.43-2.41-4.78-4.15-6.57-4.11-2.91.06-15.25,2.9-25.71,5.46,3.58,3.83,7.16,8.66,9.26,11.05,18.72,20.41,16.76,47.33,15.78,53.15h13.24C860.52,620.19,860.48,619.26,860.44,618.31Z" transform="translate(-616.5 -425.71)"/><path class="cls-3" d="M847.33,621.11c-1.33,1.69-8.14,9.75-9.47,15.57h16.27c0-6.8,4.56-8.2,7.29-7.57a74.34,74.34,0,0,1-.85-8Z" transform="translate(-616.5 -425.71)"/><path class="cls-4" d="M909.78,503.83a28.34,28.34,0,0,0,8.09.53c3.86-.42,10.64.07,18.44,9.89,1.83,2.32,10,8.14,16.13,7.71-5.68,2.81-19.44,3.66-28.05-.56C914,516.28,909.68,509.75,909.78,503.83Z" transform="translate(-616.5 -425.71)"/><path class="cls-2" d="M909.78,503.83a52.46,52.46,0,0,1-5.38-2.76c-1.15-.62-2.23-1.37-3.34-2.06s-2.16-1.47-3.19-2.27a72.55,72.55,0,0,1-6-5c-1-1-4.82-4.34-8.38-7.58a30.69,30.69,0,0,1,4.38,7c.81.78,1.63,1.53,2.48,2.28a72.29,72.29,0,0,0,6.34,5c1.09.79,2.24,1.5,3.36,2.24s2.3,1.4,3.5,2a59.28,59.28,0,0,0,6.36,3A13.14,13.14,0,0,1,909.78,503.83Z" transform="translate(-616.5 -425.71)"/><path class="cls-5" d="M894,618.31a159.29,159.29,0,0,1,1.26-20.06c.56-9.81,6.45-25,1.13-28.32S888,559,887.72,552s4.77-35.63,2.24-53.58-21.87-26.08-26.36-28.32-52.73-17.39-65.35-19.5c-22.3-.84-33.66,1.06-38.08,16.2s2.53,37.87,4.42,42.07c1.47,3.26,7.87,32.12,6.69,56.84,13-1.05,31.71-3.69,36.37-5,5.89-1.68,35.62-9.12,40.35-9.22s13.36,12.2,17.14,16.51c18.72,20.41,16.76,47.33,15.78,53.15h13.24C894.11,620.19,894.07,619.26,894,618.31Z" transform="translate(-616.5 -425.71)"/><path class="cls-3" d="M880.92,621.11c-1.33,1.69-8.13,9.75-9.47,15.57h16.27c0-6.8,4.56-8.2,7.29-7.57a74.34,74.34,0,0,1-.85-8Z" transform="translate(-616.5 -425.71)"/><path class="cls-5" d="M750.72,618.31c0-.37,0-.8,0-1.25a88.24,88.24,0,0,1-12.68.42c-.11,1.57-.27,2.82-.41,3.63h13.25C750.79,620.19,750.75,619.26,750.72,618.31Z" transform="translate(-616.5 -425.71)"/><path class="cls-3" d="M737.6,621.11c-1.33,1.69-8.13,9.75-9.46,15.57h16.27c0-6.8,4.55-8.2,7.29-7.57a69.58,69.58,0,0,1-.85-8Z" transform="translate(-616.5 -425.71)"/><path class="cls-2" d="M650.58,456.47c4.21-8.41,26.5-32,66.47-30.71s74.05,19.78,81.2,24.82c-22.3-.84-33.66,1.06-38.08,16.2s2.53,37.87,4.42,42.07,12.06,51.26,3.37,76.78a3.65,3.65,0,0,0,3.71-1.75c.71,2.52-3.71,11.64-5.32,12.69a13.4,13.4,0,0,0,5.53-.77c.07,2.94-4.62,7.64-6.24,8.83,5.33.57,6.24.29,7.23,0-3.16,3.37-12.48,10.87-20.06,12.13s-22.09,1.06-25.45-1-9.47-33-9.26-44.8c-2.1-8.63-22.5-8.42-27.34-14.94S651.84,476.53,650.58,456.47Z" transform="translate(-616.5 -425.71)"/><path class="cls-4" d="M723.36,499.88a20.85,20.85,0,0,0-5-9.47,4.81,4.81,0,0,0-2.38.95c3.12-3.09,5.89-5.33,6.66-10.31-1.33,2.1-5.4,5.26-6.94,5.5a109,109,0,0,0-8.24-13.14C706,467.48,703.59,463,700.85,461s-1.08-7.29-.24-8.48a7.42,7.42,0,0,0-4,5.47c-1.14-2.95-10.92-9.1-15.87-8.21-2.22-1.36,0-7.36.69-8.41-2.77.49-7.12,6.24-7,9.5-.71-5.45-4.13-12.82-8.23-15.18,1.2,2.52,3.31,10.94,1.54,12-2.66,1.58-26.84.29-32.42,19.64-4.88,8.83-12.32,22-10.07,35.05a18.71,18.71,0,0,0-8.7-3.5c2,1.5,6.73,8,7.5,9.5a13.65,13.65,0,0,0-2.38,3.05c1.33.91,3,.56,3.86.77,13.82,17.18,20.26,57.36,25.38,64.93a25.06,25.06,0,0,0,4-6.45c1.43,5.17,11,11.33,9.88,18.86,2.81-1.89,3.58-8.21,3.37-10.24,2.56,3.73,5.19,10,5.33,14.24,2.72-2.63,7.85-14.55,8.62-16.62a23.2,23.2,0,0,1,1.33,3.22c.92-3.85,14.88-29.88,16.27-44.1.52-5.26,6.59-15.43,9.68-20.06s8.27-11.78,7.85-18.09C720.14,496.58,723.75,501.94,723.36,499.88Z" transform="translate(-616.5 -425.71)"/><path class="cls-6" d="M646.37,484.8c-5.75-3.5-19.21-18.37-4.91-36.6-17.11,5.19-22,36.18-4.2,48.52C640.48,496.3,645.74,488.24,646.37,484.8Z" transform="translate(-616.5 -425.71)"/><path class="cls-6" d="M693.77,484.8c5.75-3.5,19.21-18.37,4.91-36.6,17.11,5.19,22,36.18,4.21,48.52C699.66,496.3,694.4,488.24,693.77,484.8Z" transform="translate(-616.5 -425.71)"/><path class="cls-2" d="M702.89,496.72c-3.23-.42-8.49-8.48-9.12-11.92-2.66-1.47-12,.28-15.14,4.56a9.48,9.48,0,0,1-.35-5.75c-.85.35-5.54,4.77-7.65,9.89-.93.62-1-7.44-3.5-9.4a9.58,9.58,0,0,0-2.53,6.59c-2.69-4.25-10.8-7.06-15.13-8.68.24,1.19.73,2.18,1.11,3.71a12.23,12.23,0,0,0-4.21-.92c-.63,3.44-5.89,11.5-9.11,11.92-1.2,4.35-.25,17.6,7.22,26.12s3,15.36,4.1,22.19a43.24,43.24,0,0,0,3.15,8.16,40.3,40.3,0,0,0,3.08,5.31c.23.31,4.54,5.54,7,5.54h16.5c2.48,0,6.79-5.23,7-5.54a40.3,40.3,0,0,0,3.08-5.31,41.86,41.86,0,0,0,3.15-8.16c1.06-6.83-3.36-13.67,4.11-22.19S704.08,501.07,702.89,496.72Z" transform="translate(-616.5 -425.71)"/><path class="cls-3" d="M690.67,511.8a3.11,3.11,0,1,0,3.1-3.11A3.1,3.1,0,0,0,690.67,511.8Z" transform="translate(-616.5 -425.71)"/><path class="cls-3" d="M649.47,511.8a3.1,3.1,0,1,1-3.1-3.11A3.1,3.1,0,0,1,649.47,511.8Z" transform="translate(-616.5 -425.71)"/><path class="cls-5" d="M675.14,539.67H665a12.63,12.63,0,0,0-12.63,12.64v.74a5.45,5.45,0,0,0,5.45,5.45h24.51a5.45,5.45,0,0,0,5.45-5.45v-.74A12.64,12.64,0,0,0,675.14,539.67Z" transform="translate(-616.5 -425.71)"/><path class="cls-3" d="M677.7,553.36h3.84a1.66,1.66,0,0,0,1.66-1.67v-5.22a1.66,1.66,0,0,0-1.66-1.66h-1.39a5.5,5.5,0,0,0-5.5,5.5A3,3,0,0,0,677.7,553.36Z" transform="translate(-616.5 -425.71)"/><path class="cls-3" d="M662.45,553.36h-3.84a1.67,1.67,0,0,1-1.67-1.67v-5.22a1.66,1.66,0,0,1,1.67-1.66H660a5.51,5.51,0,0,1,5.51,5.5A3.06,3.06,0,0,1,662.45,553.36Z" transform="translate(-616.5 -425.71)"/></svg>