<svg id="Vrstva_1" data-name="Vrstva 1" xmlns="http://www.w3.org/2000/svg" viewBox="0 0 259.6 162.01"><defs><style>.cls-1{fill:#e58a38;}.cls-2{fill:#262e3e;}.cls-3{fill:#2e2223;}.cls-4{fill:#3b2f2f;}.cls-5{fill:#989898;}.cls-6{fill:#4a3939;}.cls-7{fill:#c8c1bc;}.cls-8{fill:#d6cfc9;}.cls-9{fill:#e3ded7;}.cls-10{fill:#efeae7;}.cls-11{fill:#5a4644;}.cls-12{fill:#f1a436;}.cls-13{fill:#674e4d;}</style></defs><title>orel bělohlavý</title><path class="cls-1" d="M977.19,587.67s3.75,7.11,4.71,9.41c-1.17.87-.58,1.92,0,2.78s5.22,6.15,6,6.49,3-.38,3-1.75-1.16-2.73-2.38-3.85a24.68,24.68,0,0,0,7.57.25,3.85,3.85,0,0,0,2.49-1.3,1.91,1.91,0,0,0,.32-1.83c-.37-1-5.59-2.52-11.28-1.4-2.09-.54-6.3-8.89-7-10.22S977.18,587.05,977.19,587.67Z" transform="translate(-828.82 -459.58)"/><path class="cls-1" d="M987.64,596.47a2.66,2.66,0,0,1-1-.64A9.59,9.59,0,0,1,993,592a1.07,1.07,0,0,1,1.11.57,5.91,5.91,0,0,1,0,3.63A21.69,21.69,0,0,0,987.64,596.47Z" transform="translate(-828.82 -459.58)"/><path class="cls-2" d="M993.32,594.1c-.15-.93.09-1.74.49-1.78a14.94,14.94,0,0,1,3,.68,14.39,14.39,0,0,1,1.79.69l.54.3.19.11-.22,0a4.51,4.51,0,0,0-.59.09,13.78,13.78,0,0,0-1.72.49c-1.24.42-2.46,1-2.63,1C993.84,595.76,993.46,595,993.32,594.1Z" transform="translate(-828.82 -459.58)"/><path class="cls-2" d="M996.72,598.82c.26-.84,1.25-1.33,1.86-.88a4.54,4.54,0,0,1,1.12,1.49,5.77,5.77,0,0,1,.52,3.06,8.78,8.78,0,0,1-.72,2.55c-.32.6-.52,1-.52,1s0-.44,0-1.11a7.85,7.85,0,0,0-.37-2.29,3.75,3.75,0,0,0-1.13-1.68,4.83,4.83,0,0,0-.81-.48C996.46,600.29,996.46,599.65,996.72,598.82Z" transform="translate(-828.82 -459.58)"/><path class="cls-2" d="M988.62,604.74a1.49,1.49,0,0,1,1.89.11,3.5,3.5,0,0,1,.34,1.14,5.66,5.66,0,0,1-.09,1.87,8.49,8.49,0,0,1-.47,1.59l-.28.65-.13-.69a8.36,8.36,0,0,0-.45-1.44,4.34,4.34,0,0,0-.7-1.21c-.23-.27-.8-.8-.82-.83S988,605.29,988.62,604.74Z" transform="translate(-828.82 -459.58)"/><path class="cls-1" d="M952.77,591.32c1.26,2.29,1.51,10.08,1.87,12.67a48,48,0,0,1,11.18.44.68.68,0,0,1,.53.41,2.88,2.88,0,0,1-.32,2.82,1.85,1.85,0,0,1-.78.16,23.22,23.22,0,0,1-4.93,0c2.45.86,6.41,1.65,7.27,2.19.58,1.4-1.18,3.1-3.81,2.7s-8.42-3.2-10.19-4.1a67.68,67.68,0,0,0,3.15,8.33c-.58,1.87-2,1.75-3.35.71a65.84,65.84,0,0,1-2.85-8.14,10.84,10.84,0,0,0-4,3.28,1.38,1.38,0,0,1-2.3-.46,2.9,2.9,0,0,1,.67-3.33,26.19,26.19,0,0,1,5.14-3.7c.51-3-1.15-11.48-1.44-12.64S950.68,587.54,952.77,591.32Z" transform="translate(-828.82 -459.58)"/><path class="cls-2" d="M965.3,605.27a.66.66,0,0,1,.55-.42,4,4,0,0,1,1.24.24,4,4,0,0,1,2.76,3c.06.24.06.45.09.59l0,.22-.12-.18a5.14,5.14,0,0,0-.34-.47,3.24,3.24,0,0,0-1.27-1,3.52,3.52,0,0,0-2.22,0c-.14,0-.28-.11-.43-.31a2.62,2.62,0,0,1-.34-.82A2.14,2.14,0,0,1,965.3,605.27Z" transform="translate(-828.82 -459.58)"/><path class="cls-2" d="M965.8,610.83c.24-.69.94-1,1.42-.7a3.92,3.92,0,0,1,.92,1.16,4,4,0,0,1,.25.55,4.4,4.4,0,0,1,.18.62,5,5,0,0,1,.08.66c0,.22,0,.44,0,.65a5.64,5.64,0,0,1-.7,2l-.5.75s.05-.35.11-.87a5.06,5.06,0,0,0-.21-1.81,2.4,2.4,0,0,0-.92-1.23,4.26,4.26,0,0,0-.68-.37C965.5,612.12,965.57,611.51,965.8,610.83Z" transform="translate(-828.82 -459.58)"/><path class="cls-2" d="M954.92,616.81c.69-.16,1.32,0,1.38.28a13.6,13.6,0,0,1-.23,2.39,14.71,14.71,0,0,1-.29,1.47c0,.2-.09.36-.13.47l0,.17-.06-.17c0-.11-.09-.26-.16-.44-.15-.37-.35-.84-.58-1.32-.46-.95-1-1.9-1-2S954.23,617,954.92,616.81Z" transform="translate(-828.82 -459.58)"/><path class="cls-2" d="M946,610.9c.3.7.48,1.3.32,1.45a3.3,3.3,0,0,0-.57.35,2.52,2.52,0,0,0-.8,1.22,5.49,5.49,0,0,0-.21,1.71c0,.49.07.82.07.82l-.48-.7a5.92,5.92,0,0,1-.76-1.86,4.38,4.38,0,0,1,.18-2.39,3.65,3.65,0,0,1,.75-1.23C944.91,609.88,945.67,610.2,946,610.9Z" transform="translate(-828.82 -459.58)"/><path class="cls-3" d="M919,554.55c-.09-.16-.18-.31-.26-.47.93,1.82,3.53,3.15,6.13,3.89-1.55,4-6,9.12-13.31,4.55A49.37,49.37,0,0,0,919,554.55Z" transform="translate(-828.82 -459.58)"/><path class="cls-4" d="M1034.68,506.76c-2.65,5.81-15.55,26.31-25.05,39.74S992.36,581,983.14,583c.29,3.36-2.11,6.14-7.87,6.43-2.3,0-4.17-.91-3.07-3.07-1.55.17-3.09,3.66-2.91,6.11-1-2.16-.36-7.06,0-8.46-1.87-1.39-3.59-5.33-4.17-7.29s-10.32-31.87,4.65-44.54,35.89-39.46,45.35-40.31,16.27.44,19.58,6.48S1035.64,504.65,1034.68,506.76Z" transform="translate(-828.82 -459.58)"/><path class="cls-5" d="M1025.28,468.52c-14.59-1.1-58-1.87-94.06,12s-63,53.36-69.87,66c13,5.38,33.4,3.07,40.31,2.78.1,3.84,4.32,10.66,17.08,4.8,2.21,4.32,8.16,8,22.46-.28,1.15,4.12,9.84,7.15,29-3.36s28.95-20.47,35.12-30,22-31.52,23.61-38.87S1027.39,471.55,1025.28,468.52Z" transform="translate(-828.82 -459.58)"/><path class="cls-3" d="M892.29,506.76a9,9,0,0,1-.28-3.69c1.25-12.08,15.24-14.14,22.88-14.35A137.16,137.16,0,0,0,892.29,506.76Z" transform="translate(-828.82 -459.58)"/><path class="cls-4" d="M878.53,521.78c-6.75-5.38-.43-13.24,4.85-16.26,4.82-2.76,13.64-5.67,19.66-8.33A171.71,171.71,0,0,0,878.53,521.78Z" transform="translate(-828.82 -459.58)"/><path class="cls-6" d="M882.15,517.5a190.33,190.33,0,0,0-18.89,25.68,22.21,22.21,0,0,1-6.23-6.13C860.93,527.67,874.92,520.61,882.15,517.5Z" transform="translate(-828.82 -459.58)"/><path class="cls-4" d="M845.81,559.38c-.9-2.08-1.32-5-.74-6.62,4.42-9.09,18.18-12.83,18.18-12.83a7.32,7.32,0,0,1,1.94.13c-1.42,2.66-2.54,5-3.34,6.71C861.85,546.77,856.47,553.67,845.81,559.38Z" transform="translate(-828.82 -459.58)"/><path class="cls-7" d="M852.27,569a33.43,33.43,0,0,0,5.18-1.64c6.63-2.6,22-11.62,30.17-17.32,3.16-.06,6.09-.22,8.57-.38A153,153,0,0,1,878,564.9c-10.29,7.27-25.74,8.56-27.86,6.44A17.82,17.82,0,0,1,852.27,569Z" transform="translate(-828.82 -459.58)"/><path class="cls-8" d="M844.62,569a33.43,33.43,0,0,0,5.18-1.64c6.65-2.61,22.14-11.69,30.26-17.38,2.79.11,5.53.11,8.11.05a153.64,153.64,0,0,1-17.8,14.92c-10.29,7.27-25.74,8.56-27.86,6.44A17.82,17.82,0,0,1,844.62,569Z" transform="translate(-828.82 -459.58)"/><path class="cls-9" d="M837.2,568.51c1.51-.29,2.84-.54,5-1,7.29-1.57,23.67-12.62,31.14-18.09,2.38.29,4.8.46,7.18.55a154.49,154.49,0,0,1-17.84,14.95c-10.29,7.27-25.74,8.56-27.86,6.44A30.9,30.9,0,0,1,837.2,568.51Z" transform="translate(-828.82 -459.58)"/><path class="cls-10" d="M861.36,546.48a44.94,44.94,0,0,0,12,2.92c-15,11.69-23.22,16.34-31.14,18.09-8.75,1.93-11,2-13.42-.73C834.36,565,855.81,554.08,861.36,546.48Z" transform="translate(-828.82 -459.58)"/><path class="cls-11" d="M1025.28,468.52c-14.59-1.1-58-1.87-94.06,12s-63,53.36-69.87,66c13,5.38,33.4,3.07,40.31,2.78.1,3.84,4.32,10.66,17.08,4.8,2.21,4.32,8.16,8,22.46-.28,1.15,4.12,9.84,7.15,29-3.36s28.95-20.47,35.12-30,22-31.52,23.61-38.87S1027.39,471.55,1025.28,468.52Z" transform="translate(-828.82 -459.58)"/><path class="cls-6" d="M879.49,563.78a157.46,157.46,0,0,0,14.65-14l-.28,0c3.27-.18,6-.39,7.8-.47a7.26,7.26,0,0,0,2.92,5.48c-3.3,8.54-20.33,16.67-25.05,15.06C878.72,568.42,879,565.92,879.49,563.78Z" transform="translate(-828.82 -459.58)"/><path class="cls-4" d="M904.58,554.76l0,0c2.56,1.93,7,2.64,14.2-.65.08.16.17.31.26.47-6,8.39-20.46,18.78-24.64,17.71-3.5-.9-3.74-3.32-3-5.51C897,563.84,902.8,559.36,904.58,554.76Z" transform="translate(-828.82 -459.58)"/><path class="cls-6" d="M910.62,567.64c4.64-.5,11.3-5.68,13.58-9.21,3.58.88,9,0,17-4.63,1.15,4.12,9.84,7.15,29-3.36a142.53,142.53,0,0,0,14.26-8.89c-5,17.18-15.82,44.42-25.11,45.55-1.25,3.41-3.26,8.44-8.73,8.44s-7.56-3-7.81-3.71c-1.62,1.26-3.8,3-4.2,4.3a24.29,24.29,0,0,1,.53-10.85c-2.44,1.23-4.78,3.91-6.9,7.16.37-5.64,1.12-8.32,2.06-9.79a11,11,0,0,1-7.18,3.27c2.12-1.26,3.13-3,4.45-7.11-4,2.45-12.88,3.12-16.12,2.79a12,12,0,0,0,9.16-8.41c-4.14.9-9.52.17-12.32-.51,6.73-1.33,8.58-2.73,10.05-4.49C918.21,569.32,912.85,568.36,910.62,567.64Z" transform="translate(-828.82 -459.58)"/><path class="cls-10" d="M994.52,492c5.51-17.43,19.25-25.78,25.94-27.65-.79-.51-1.87-1.73-6.19-1.3a37.7,37.7,0,0,1,3.69-1.85,21.54,21.54,0,0,1,8.2-1.6H1053c8.55,0,14.48,7.38,15.76,9.13-1.89.14,3.41,15.7,4.27,15.55-2.89,7.31-8.19,19.24-15.47,25.31a17,17,0,0,0,2.69-7c-1,1.82-9.36,11.18-14,13.1a12.9,12.9,0,0,0,3.22-5.71c-2.21,2.4-9.79,9.16-16.27,11,1.2-.81,3.21-2.44,3.65-4.56-1.54,1.4-8.74,5-13.34,6.29.81-.62,4.89-4.56,5-7.15-4.21,4.55-20.6,9.58-23.53,9.44,1.68-1.15,5.73-7.47,7.69-10.26-2.49.72-14.53,4.11-19.51,7.07,2.88-7.54,9.68-16,13.51-19.41-.75.36-13.25,2.36-15.75,3.77,2.74-6.56,13.23-17.73,16.36-21.23C1005.49,485.63,997.76,489.31,994.52,492Z" transform="translate(-828.82 -459.58)"/><path class="cls-8" d="M1062.64,469.8c-1.48-.09-3.65,0-6.49,0s-7.8,0-10.67,0C1048.31,472.87,1059.64,478.75,1062.64,469.8Z" transform="translate(-828.82 -459.58)"/><path class="cls-2" d="M1053.48,471.68a1.92,1.92,0,1,0,1.92-1.92A1.91,1.91,0,0,0,1053.48,471.68Z" transform="translate(-828.82 -459.58)"/><path class="cls-12" d="M1087.59,491.56c4-17.8-7.77-21.33-12.09-22.29s-10.16-.9-9.83,1c.66,3.87-.18,8.78-3.06,9.16-2.68.36-5.39,1-8.82,1.41a.71.71,0,1,0,.17,1.41c2.43-.29,7.88-.6,9.79,0,1.56.46,3,.22,3.89,1.22a3.06,3.06,0,0,0,2.44.81h12.58C1085.31,484.26,1087,489.65,1087.59,491.56Z" transform="translate(-828.82 -459.58)"/><path class="cls-13" d="M929.85,547.08a28.68,28.68,0,0,1-10.69-1.93,15.38,15.38,0,0,0,21.26-.07A28.76,28.76,0,0,1,929.85,547.08Z" transform="translate(-828.82 -459.58)"/><path class="cls-13" d="M942.84,536.48a28.71,28.71,0,0,1-10.55-2.56,15.36,15.36,0,0,0,21.22,1.21A28.57,28.57,0,0,1,942.84,536.48Z" transform="translate(-828.82 -459.58)"/><path class="cls-13" d="M974.9,513.47a28.78,28.78,0,0,1-10.78-1.38,15.35,15.35,0,0,0,21.23-1.16A28.66,28.66,0,0,1,974.9,513.47Z" transform="translate(-828.82 -459.58)"/><path class="cls-13" d="M902,541.91a28.69,28.69,0,0,1-10.64-2.19,15.37,15.37,0,0,0,21.26.46A28.62,28.62,0,0,1,902,541.91Z" transform="translate(-828.82 -459.58)"/><path class="cls-13" d="M916.42,534.19a28.83,28.83,0,0,1-10.32-3.37,15.37,15.37,0,0,0,21.07,2.84A28.78,28.78,0,0,1,916.42,534.19Z" transform="translate(-828.82 -459.58)"/><path class="cls-13" d="M929.79,523.52a28.73,28.73,0,0,1-10.46-2.93,15.37,15.37,0,0,0,21.17,1.94A28.58,28.58,0,0,1,929.79,523.52Z" transform="translate(-828.82 -459.58)"/><path class="cls-13" d="M974.1,533.26a28.63,28.63,0,0,1-10.82-1,15.36,15.36,0,0,0,21.17-1.95A28.62,28.62,0,0,1,974.1,533.26Z" transform="translate(-828.82 -459.58)"/><path class="cls-13" d="M958.36,524.92a28.82,28.82,0,0,1-10.82-1,15.37,15.37,0,0,0,21.17-2A28.69,28.69,0,0,1,958.36,524.92Z" transform="translate(-828.82 -459.58)"/><path class="cls-13" d="M959.4,543.85a28.87,28.87,0,0,1-10.86-.22,15.36,15.36,0,0,0,21-3.41A28.92,28.92,0,0,1,959.4,543.85Z" transform="translate(-828.82 -459.58)"/></svg>