<svg id="Vrstva_1" data-name="Vrstva 1" xmlns="http://www.w3.org/2000/svg" viewBox="0 0 231.88 167.67"><defs><style>.cls-1{fill:#111a20;}.cls-2{fill:#262e3e;}.cls-3{fill:#42536b;}.cls-4{fill:#f09c64;}</style></defs><title>medvěd baribal</title><path class="cls-1" d="M939.37,522.56c1.62,45.33-19.5,77.75-36.08,101.83H872.18c0-5.92,10.06-8.61,10.06-8.61,10-16.93,16.77-36.72,13.77-59C894.56,546,937.87,480.69,939.37,522.56Z" transform="translate(-844.61 -456.72)"/><path class="cls-1" d="M992.23,570.89c-1.7,4.9-4.1,5.69-3.12,7.12,8.11,11.82,11.25,34.47,10.42,37.77,0,0-10.06,2.69-10.06,8.61h31.11c8.71-15.17,14.22-32.56,17-53.5Z" transform="translate(-844.61 -456.72)"/><path class="cls-2" d="M1076.22,521c0-44.21-56.34-64.26-96.23-64.26-30,0-49.68.06-65.26,1.93a39.71,39.71,0,0,0-14.34,5,16.89,16.89,0,0,0-2.28,1.38c-19.26,12.38-30.39,37.88-37.84,40.89l28.27,59.35c8.24-5.67,18.86-2.94,31,.57,3.37,18.93,4.62,34,2.88,50,0,0-10.06,2.69-10.06,8.61h31.11c6.33-15.73,11.39-31.5,14.44-49.87,20.05,5,52.42,3.38,58.83,3.38a14.44,14.44,0,0,1,13,8.5c4.14,11.64,6.66,26,6.66,29.38,0,0-10.06,2.69-10.06,8.61h31.11C1072.28,598.56,1077.84,566.31,1076.22,521Z" transform="translate(-844.61 -456.72)"/><path class="cls-3" d="M859.41,504.3c-6.4-3.05-11.41-5.06-13.86-2.6s.49,9,3.43,15.41C853.27,518.45,859.41,504.3,859.41,504.3Z" transform="translate(-844.61 -456.72)"/><path class="cls-3" d="M903.06,504.3c6.4-3.05,11.41-5.06,13.86-2.6s-.49,9-3.43,15.41C909.2,518.45,903.06,504.3,903.06,504.3Z" transform="translate(-844.61 -456.72)"/><path class="cls-3" d="M916.6,527a35.81,35.81,0,0,0-70.65-.43s0,0,0,.06c-.09.49-.18,1.14-.26,1.93s-.17,1.64-.2,2.47a133,133,0,0,0-.05,13.9c.63,14,17.14,19.4,21.78,22l1.31-.74a35.76,35.76,0,0,0,24.43.37l.65.37c4.63-2.56,23.21-9.27,23.84-23.32A71.46,71.46,0,0,0,916.6,527Z" transform="translate(-844.61 -456.72)"/><path class="cls-1" d="M863.42,543.75a2.95,2.95,0,1,1,2.94,2.94A2.95,2.95,0,0,1,863.42,543.75Z" transform="translate(-844.61 -456.72)"/><path class="cls-1" d="M897.36,543.75a2.94,2.94,0,1,0-2.94,2.94A2.94,2.94,0,0,0,897.36,543.75Z" transform="translate(-844.61 -456.72)"/><path class="cls-4" d="M893.89,568.51c-1.08-5.87-2.59-12.47-3.26-15.74a5.17,5.17,0,0,0-.11-.54v-.1c-1.06-4-5.18-7-10.12-7s-9.06,3-10.11,7.06a.15.15,0,0,0,0,.08,5.17,5.17,0,0,0-.11.54c-.66,3.27-2.18,9.87-3.26,15.74-1.12,6.09,3.22,8.65,13.5,8.65S895,574.6,893.89,568.51Z" transform="translate(-844.61 -456.72)"/><path class="cls-2" d="M884,577c3.17-2.23,5.29-10,5.29-12.49,0-3.23-4-5.85-8.86-5.85s-8.86,2.62-8.86,5.85c0,2.46,2.13,10.26,5.3,12.49,1.09.08,2.28.12,3.56.12S882.86,577.12,884,577Z" transform="translate(-844.61 -456.72)"/><path class="cls-1" d="M885.4,565.65c-.12-.47-.9-.66-1.73-.44s-1.41.77-1.29,1.23c0,0,.41,1.6.64,2.37.5-.18.1-1.87.1-1.87a2.44,2.44,0,0,0,1-.06C884.94,566.66,885.52,566.11,885.4,565.65Z" transform="translate(-844.61 -456.72)"/><path class="cls-1" d="M875.38,565.65c.13-.47.9-.66,1.73-.44s1.42.77,1.3,1.23c0,0-.42,1.6-.65,2.37-.49-.18-.1-1.87-.1-1.87a2.44,2.44,0,0,1-1-.06C875.84,566.66,875.26,566.11,875.38,565.65Z" transform="translate(-844.61 -456.72)"/><path class="cls-2" d="M856.3,507c-5.09-2.25-6.83-2.36-7.33-2a1.63,1.63,0,0,0-.1.58c0,1.54,1.2,4.67,2.4,7.46A35.82,35.82,0,0,1,856.3,507Z" transform="translate(-844.61 -456.72)"/><path class="cls-2" d="M906.17,507c5.09-2.25,6.83-2.36,7.33-2a1.63,1.63,0,0,1,.1.58c0,1.54-1.2,4.67-2.4,7.46A35.82,35.82,0,0,0,906.17,507Z" transform="translate(-844.61 -456.72)"/></svg>