<svg id="Vrstva_1" data-name="Vrstva 1" xmlns="http://www.w3.org/2000/svg" viewBox="0 0 95.47 125.98"><defs><style>.cls-1{fill:#111a20;}.cls-2{fill:#262e3e;}.cls-3{fill:#efeae7;}.cls-4{fill:#42536b;}</style></defs><title>skunk pruhovaný</title><path class="cls-1" d="M1083.54,702.43c-2,5-4.25,11.61-4.6,17h-11.6a.43.43,0,0,1-.33-.7c1.37-1.58,5-2.87,7.38-2.78.3-3.57,4.63-17-2.94-27.45,1-3.29,12-8.07,16.43-4.58S1084.46,700.11,1083.54,702.43Z" transform="translate(-1060.96 -593.47)"/><path class="cls-2" d="M1152.94,604.08c.73-.34,1.26-.67,3.48-.29-8.76-6.87-14.64-8.61-17.28-8a9.48,9.48,0,0,1,4.43-2.3c-8-.25-16.49,2.59-19.47,5.63a18,18,0,0,1,2.69-5c-4.34,1.79-12.37,14.33-12.41,17.85a15.05,15.05,0,0,1-.89-5.15c-2.39,10.36-.7,15,1.56,19.16a14.17,14.17,0,0,1-3.66-2.22c.8,6.57,22.82,20.62,24.81,24.61-11.06-8.07-25.34-1.77-26.57-.57a1.89,1.89,0,0,1,.87-1.63,19.94,19.94,0,0,0-7.32,4,7.65,7.65,0,0,1,2-3.14c-.75.35-3.14,1.79-8.62,7.57a24.17,24.17,0,0,1-5.28,3.89c-1,1.44-2,2.19-2.22,2.78,1.45-1.39,3.64-1.26,3.34-.79a3.73,3.73,0,0,1,3.09.12c1.2-.6,2,.33,1.92.87h7.07c2.22,0,10.88-4,14.93-6.24s8-3.58,15.6.73c3.06,1.16,5.85-1.19,7.24-4.45s.8-8.43-4-14.14c-4.13-4.93-13.08-20.07-3-26.41a13.51,13.51,0,0,1,13.35-.54c3.37,1.73,6.17,4.68,6.35,8.42C1158.12,613.91,1155.53,606.4,1152.94,604.08Z" transform="translate(-1060.96 -593.47)"/><path class="cls-3" d="M1099.24,667.1c18.43,4,40.45,4.69,47.92,2.2-4-.2-5.88-1.45-6.43-1.9a9.61,9.61,0,0,0,6-2.79,7.38,7.38,0,0,1-4.68-.4c2.89-.59,4.58-2.78,4.68-3.48a5.54,5.54,0,0,1-1.82.4,10.6,10.6,0,0,0,3.76-4.64c.5-1.19,1.88-5.59,1.56-7.6a4.83,4.83,0,0,1-2,3.07,23.5,23.5,0,0,0-.69-8.67,9.51,9.51,0,0,1-.75,4.09,35.82,35.82,0,0,0-2-9,6.1,6.1,0,0,1-.65,3.28,23.5,23.5,0,0,0-3.92-7.91c-2.59-3.25-8.7-14.08-2.46-19.06s15.54,1.66,17.07,4.19c-.18-3.74-3-6.69-6.35-8.42a13.51,13.51,0,0,0-13.35.54c-10,6.34-1.1,21.48,3,26.41,4.78,5.71,5.38,10.89,4,14.14s-4.18,5.61-7.24,4.45c-7.63-4.31-11.55-2.92-15.6-.73s-12.71,6.24-14.93,6.24h-7.07a4.62,4.62,0,0,1,2.67-2.2,12.83,12.83,0,0,0-4.81,1.22,5.22,5.22,0,0,1,.88-1.34,35.32,35.32,0,0,0-3.75,1.33,7.24,7.24,0,0,1,1.62-1.79,13.06,13.06,0,0,0-3.76,1.57,6.32,6.32,0,0,1,1-1.77c-7.38,4.28-18.28,7.92-20.32,8.66-9.88,3.61-4.67,8.42,1.69,15.59C1076.09,676.7,1085.12,664.05,1099.24,667.1Z" transform="translate(-1060.96 -593.47)"/><path class="cls-2" d="M1144.94,661.13a5.54,5.54,0,0,0,1.82-.4c-.1.7-1.79,2.89-4.68,3.48a7.38,7.38,0,0,0,4.68.4,9.61,9.61,0,0,1-6,2.79c.55.45,2.39,1.7,6.43,1.9-7.47,2.49-29.49,1.79-47.92-2.2-14.12-3.05-23.15,9.6-26.6,15.69,1.56,1.77,3.19,3.67,4.68,5.73C1084.9,699,1084,712.4,1083.7,716c-2.4-.09-6,1.2-7.38,2.78a.42.42,0,0,0,.32.7h11.61c.34-5.41,2.55-12,4.6-17a7.39,7.39,0,0,1,6.85-4.59h11.2a2.19,2.19,0,0,1,2.11,1.6c1.55,5.52,2.1,14.49,1.47,16-5.23.35-8.61,2.44-8.07,4H1121c2.49,0,3.34-3,3.34-5.32,0-7.08,2.29-10.17,5.14-12.42,23.92-17.75,20.26-42.78,19.21-45.22A10.6,10.6,0,0,1,1144.94,661.13Z" transform="translate(-1060.96 -593.47)"/><path class="cls-1" d="M1114.48,715.42c.63-1.49.08-10.46-1.47-16a2.19,2.19,0,0,0-2.11-1.6h-9.05a2.18,2.18,0,0,1,2.11,1.6c1.56,5.52,2.11,14.49,1.48,16-5.23.35-8.62,2.44-8.07,4h9C1105.87,717.86,1109.25,715.77,1114.48,715.42Z" transform="translate(-1060.96 -593.47)"/><path class="cls-4" d="M1083.88,668.65c-2.69-2.34-10.4-2.34-10.4-2.34s-7.71,0-10.4,2.34-3.19,7.24.66,14.07c3.23,5.72,5.37,8.1,6.28,8.95a1.24,1.24,0,0,0,.86.34h5.2a1.24,1.24,0,0,0,.86-.34c.9-.85,3-3.23,6.27-8.95C1087.06,675.89,1086.57,671,1083.88,668.65Z" transform="translate(-1060.96 -593.47)"/><path class="cls-1" d="M1083.83,674.18s2.14-2.49,1.87-3.92-2-1.36-4,.6A5.77,5.77,0,0,1,1083.83,674.18Z" transform="translate(-1060.96 -593.47)"/><path class="cls-3" d="M1073.48,671.73s-3.6,9.27,0,12.31C1077.08,681,1073.48,671.73,1073.48,671.73Z" transform="translate(-1060.96 -593.47)"/><path class="cls-1" d="M1078.67,680.45a1.07,1.07,0,1,0,1.07-1.07A1.07,1.07,0,0,0,1078.67,680.45Z" transform="translate(-1060.96 -593.47)"/><path class="cls-1" d="M1073.43,688.89a2.51,2.51,0,0,0-2.64,2.35,2.2,2.2,0,0,0,.15.77h5a2,2,0,0,0,.15-.77A2.5,2.5,0,0,0,1073.43,688.89Z" transform="translate(-1060.96 -593.47)"/><path class="cls-1" d="M1063.13,674.18s-2.14-2.49-1.88-3.92,2-1.36,4,.6A5.72,5.72,0,0,0,1063.13,674.18Z" transform="translate(-1060.96 -593.47)"/><path class="cls-1" d="M1068.29,680.45a1.07,1.07,0,1,1-1.07-1.07A1.07,1.07,0,0,1,1068.29,680.45Z" transform="translate(-1060.96 -593.47)"/></svg>