<svg id="Vrstva_1" data-name="Vrstva 1" xmlns="http://www.w3.org/2000/svg" viewBox="0 0 218.3 189.56"><defs><style>.cls-1{fill:#ad6728}.cls-2{fill:#d28029}.cls-3{fill:#fcbf86}.cls-4{fill:#262f3d}.cls-5{fill:#ee9136}</style></defs><path class="cls-1" d="M1002.06 621.84h-16.82c-2.49 0-4.79-1-4.47-5l3.78-46.74a12.26 12.26 0 00.16-1.93v-.84l-18.42 14.92a6 6 0 015 6.22v33.42a5.54 5.54 0 005.54 5.54H1006v-1.66a3.92 3.92 0 00-3.94-3.93zM1040.26 553.31l-14.5-13.14-8.34 6.32 16.65 10.85c2.5 1.13 2.36 2.85 1.52 4.35l-.45.83a2.69 2.69 0 001 3.65l.24.13a.84.84 0 00.66.07.86.86 0 00.52-.41l4.15-7.48c1.05-1.84.16-3.74-1.45-5.17zM1041.8 470.1c2.57-5.27 10.27-16.89 19.6-20.54-1.76 7-6.62 19.6-13.79 21.76a40.24 40.24 0 00-5.81-1.22z" transform="translate(-851.29 -445.91)"/><path class="cls-2" d="M1039.37 471.72c-.68-8.24-4.87-17-17.43-25.81-1.9 8-1.49 24.46 10.67 30 3.25-1.91 6.76-4.19 6.76-4.19z" transform="translate(-851.29 -445.91)"/><path class="cls-1" d="M1023.82 453.79c0 6.59 1.73 15.06 8.7 19 1.48-.89 2.91-1.78 3.93-2.43-1-7.24-5-13.57-12.5-19.59-.07.97-.13 1.95-.13 3.02z" transform="translate(-851.29 -445.91)"/><path class="cls-2" d="M1057 477.36c-2.79-6.4-10.4-8.64-14.62-8.64-14.53 0-18 18-18 21.69v12.51c0 3.49-3.5 5.83-7.36 5.83h-25.63a62 62 0 00-62.16 61.93v28.76c0 23-21.49 27.45-76 33.77a2.31 2.31 0 00-1.92 2.27h60.19c34 0 43-42.14 58.29-52 16.76-10.81 78.66-41.08 78.66-69.74v-8.37h-.06l.06-.07v-11s2.75 2.48 11.3 2.48 9.86-8.55 9.86-11.43c-2.61-2.65-10.1-5.92-12.61-7.99z" transform="translate(-851.29 -445.91)"/><path class="cls-3" d="M1047.88 518.44c-.73-1.87-2.73-5.2-12.43 3.51s-26.22 7-43.29 34c-7.18 11.37-8.28 16.43-7.15 18.48 22.79-13.23 58.13-34.73 62.87-55.99zM1068.91 489.65l-4.84-4.65c-4 1-16.7 4.91-9.85 11.76h5.51c5.66 0 8.14-3.76 9.18-7.11z" transform="translate(-851.29 -445.91)"/><path class="cls-4" d="M1051 480.19a1.77 1.77 0 10-1.77 1.76 1.77 1.77 0 001.77-1.76zM1064.45 481.81c-1.37 4.44 1 8.91 3.75 9.67a15.08 15.08 0 001.39-6.15 27.25 27.25 0 00-5.14-3.52z" transform="translate(-851.29 -445.91)"/><path class="cls-5" d="M1016.12 621.84H999.3c-2.5 0-4.79-1-4.47-5l3.77-46.74a12.26 12.26 0 00.16-1.93 12 12 0 00-2.67-7.56c-6.3-10.45-24.52-14.67-36.86-14.67s-19 6.58-18.47 19.19 9.19 26.58 23.61 20.27 21-3.15 21 3.07v33.42a5.54 5.54 0 005.53 5.54h29.1v-1.66a3.91 3.91 0 00-3.88-3.93zM1026.37 567.52L1014.23 548c5.95-6 17.64-19.8 9.46-28-4.05-4.05-16.62 1.49-21.48 11.62s-3.18 16-1.16 18.31l17.37 20.07c2.36 2 1.67 3.82.3 5.18l-.75.75a3 3 0 000 4.27l.22.21a1 1 0 00.69.29 1 1 0 00.69-.28l6.8-6.81c1.63-1.72 1.3-4.05 0-6.09z" transform="translate(-851.29 -445.91)"/></svg>