<svg id="Vrstva_1" data-name="Vrstva 1" xmlns="http://www.w3.org/2000/svg" viewBox="0 0 283.5 148.43"><defs><style>.cls-1{fill:#b2762b;}.cls-2{fill:#d69730;}.cls-3{fill:#f2c535;}.cls-4{fill:#262f3d;}.cls-5{fill:#fede53;}</style></defs><title>moloch ostnitý</title><path class="cls-1" d="M900.16,547.59c-4.07,0-8.53-.66-13.79,1,0,7.63-3.15,16.44-6.93,24.55-2.1.08-5.74,1.77-6.15,2.39,1.28-.26,3.54.64,4.49,1-.61,1.23-1.23,2.43-1.84,3.6-2.42-.23-7.51,2.1-8.05,2.91,1.69-.34,4.8,1,5.74,1.4-.79,1.45-1.56,2.83-2.28,4.12-2-.11-6,1.74-6.47,2.38,1.31-.26,3.65.69,4.56,1.09-1.85,3.39-2.15,5.38-2.88,6.73-3.28,0-14,1.15-14,1.15l2.58,1.34a41,41,0,0,0-10.18,5,67.4,67.4,0,0,0,12-.05l-2.31,2c3.93,0,18-2.1,20.8-5.58,1.39-1.7,2.37-2.89,4.53-5.67.79.78,2.32,2.42,2.56,3.64.43-.63.61-4.83-.17-6.74,1-1.32,2.06-2.76,3.16-4.29.77.58,3.49,2.75,4,4.43.45-.85.09-6.32-1.22-8.39,1-1.4,1.92-2.84,2.86-4.31.73.52,2.87,2.13,3.33,3.44.34-.7-.11-5.15-1.23-6.81C900.06,566.68,905.14,554.31,900.16,547.59Z" transform="translate(-818.94 -466.08)"/><path class="cls-2" d="M856.18,507.17c-1.71,4.45-5.24,7.71-6.08,7.71,0,0,8.23,1.71,8.23,0C856.44,514.88,856.42,509.41,856.18,507.17ZM888,507c-1.58,4.5-5,7.86-5.86,7.88,0,0,8.27,1.48,8.23-.23C888.43,514.7,888.25,509.23,888,507Zm35.21.17c-1.71,4.45-5.23,7.71-6.08,7.71,0,0,8.23,1.71,8.23,0C923.42,514.88,923.4,509.41,923.16,507.17Zm36.94,0c-1.71,4.45-5.24,7.71-6.08,7.71,0,0,8.23,1.8,8.23.1C960.36,515,960.34,509.41,960.1,507.17ZM995.19,510c-2.07,4.29-5.86,7.25-6.71,7.18,0,0,8,2.48,8.2.78C994.8,517.83,995.24,512.28,995.19,510Zm29.72,4.57c-1.79,4.42-5.38,7.61-6.23,7.6,0,0,8.2,1.95,8.23.24C1025,522.4,1025.1,516.83,1024.91,514.59Zm12.16-1.08c-.16,4.76-2.43,9-3.23,9.27,0,0,8.37-1,7.81-2.59C1039.87,520.8,1038,515.55,1037.07,513.51Zm11.73-4.75c1,4.65-.08,9.33-.79,9.79,0,0,7.85-3.06,6.91-4.48C1053.35,515.12,1050.24,510.5,1048.8,508.76Zm11.92-7.76c1.62,4.48,1.08,9.26.44,9.81,0,0,7.41-4,6.3-5.31C1066,506.73,1062.37,502.54,1060.72,501Zm11.76-10.11c1.81,3.66,1.82,7.77,1.33,8.3,0,0,5.9-4.13,4.83-5.12C1077.55,495.25,1074,492,1072.48,490.89Zm15.46-7.67c-1,1.25-3.74-.76-5.35-1.82,1.4,2.5,1.29,6.66.83,7.22C1083.42,488.62,1089.07,484.14,1087.94,483.22Zm-216.08,20.1c-2,6.51-6.76,11.48-8,11.56,0,0,11.89,1.68,11.74-.76C873,514.3,872.4,506.5,871.86,503.32Zm34.56-.4c-1.72,6.59-6.21,11.79-7.41,11.93,0,0,12,1.11,11.69-1.32C908,513.83,907.11,506.07,906.42,502.92Zm35.48.94c-2.44,6.36-7.48,11-8.69,11,0,0,11.77,2.44,11.77,0C942.28,514.88,942.24,507.06,941.9,503.86Zm35.75.47c-2.32,6.4-7.28,11.16-8.49,11.18,0,0,11.81,2.23,11.76-.21C978.23,515.35,978.05,507.53,977.65,504.33ZM1013,510c-3.22,6-8.82,10-10,9.83,0,0,11.36,3.92,11.67,1.5C1011.93,521,1012.88,513.2,1013,510ZM838.74,494.67c-4.21,5.11-8.62,14.58-12.15,24.21a148.24,148.24,0,0,1,12.79-14.33C838.46,502.21,838.1,499,838.74,494.67Z" transform="translate(-818.94 -466.08)"/><path class="cls-3" d="M1102.44,466.08c-3.44,3.83-7.28,8.54-11.46,13.58-1,1.25-3.74-.76-5.35-1.82,1.4,2.5,1.29,6.66.83,7.22-1.63,1.92-3.31,3.87-5,5.8C1080,490.19,1078,488,1077,487c1.35,3.84.87,7.92.32,8.4-2.2,2.35-4.47,4.66-6.8,6.88-1.57-1.06-3.46-3.78-4.5-5,1,4.6-.06,9.22-.76,9.77-1.85,1.57-3.74,3.07-5.66,4.47-1.57,1-4.68-3.58-6.11-5.31,1,4.65-.09,9.32-.79,9.79l.12-.05a56.83,56.83,0,0,1-5.83,2.94c-1.78.58-3.62-4.64-4.57-6.68-.16,4.75-2.41,9-3.22,9.28a38.22,38.22,0,0,1-7.62,1c-1.87-.06-1.8-5.6-2-7.84-1.76,4.34-5.26,7.5-6.18,7.59-1.19-.08-2.39-.18-3.59-.3-2.6-.45-1.66-8.11-1.59-11.3-3.21,6-8.75,9.92-10,9.82q-3.45-.52-6.94-1.11c-1.87-.29-1-5.8-.94-8-2.36,4.14-6.35,6.83-7.19,6.7-2.17-.36-4.37-.7-6.58-1-2.51-.58-1.62-8.11-1.56-11.28-3.21,6-8.79,10-10,9.87h0c-2.67-.25-5.38-.44-8.13-.54-1.88,0-1.91-5.57-2.15-7.81-1.71,4.45-5.23,7.71-6.08,7.71h-9c-2.7,0-2.74-7.82-3.07-11-2.44,6.36-7.49,11-8.7,11H930c-1.88,0-1.91-5.47-2.15-7.71-1.7,4.45-5.23,7.71-6.08,7.71h-6.3c-2.7,0-2.73-7.82-3.08-11-2.43,6.36-7.47,11-8.69,11H895c-1.88,0-1.91-5.47-2.15-7.71-1.71,4.45-5.23,7.71-6.08,7.71h-6.42c-2.7,0-2.74-7.82-3.08-11-2.44,6.36-7.48,11-8.69,11H863c-1.88,0-1.91-5.47-2.15-7.71-1.7,4.45-5.23,7.71-6.08,7.71h-1.56c-5.16,0-11.51-5.19-5.16-17.35-8.78,5.34-21.54,20.47-29.11,31.82,4.12,4.11,14.47,19.13,37.39,21.81A201.44,201.44,0,0,1,888,548.63c7,15.88,15.46,28.69,36.83,28.34,9-.15,17.43-.17,25.29-.28.85,0,4,3.68,6.14,7.67.22-2.24,1.21-7.27,2.08-7.82,3.19-.09,6.28-.21,9.3-.37a21.93,21.93,0,0,1,3.76,5.1c.14-1.48.75-4.64,1.34-5.43,13.12-1,24.69-3.14,35.5-8,2.39-1.07,4.72-2.2,7-3.37l-.06,0c.75-.4,5.39.86,9,4-.83-2.1-2.25-7-1.72-7.91,1.23-.71,2.44-1.42,3.65-2.14,1.19,0,4.73,1.1,7.53,3.57a29.66,29.66,0,0,1-1.51-7.37c1-.65,1.93-1.3,2.88-2l0,0c.66-.34,4.73.76,7.86,3.52a25.73,25.73,0,0,1-1.5-8.12A186.59,186.59,0,0,0,1102.44,466.08Z" transform="translate(-818.94 -466.08)"/><path class="cls-2" d="M868.68,530.13c-13,0-22.17.66-22.17-5.12l-11,1.89c1.76,4.78,4.88,7,12.55,7h20.59c3.56,0,11.58,8.72,11.58,14.87,2.45-.09,5-.15,7.78-.15C888,538.25,881.7,530.13,868.68,530.13Z" transform="translate(-818.94 -466.08)"/><path class="cls-1" d="M840.86,530.66a5.64,5.64,0,0,0,5.65-5.65h-11.3A5.65,5.65,0,0,0,840.86,530.66Z" transform="translate(-818.94 -466.08)"/><path class="cls-2" d="M840.86,519.36a5.65,5.65,0,0,0-5.64,5.41,1.94,1.94,0,0,0,0,.24,1.89,1.89,0,1,0,3.77,0h3.77a1.89,1.89,0,1,0,3.77,0A5.64,5.64,0,0,0,840.86,519.36Z" transform="translate(-818.94 -466.08)"/><path class="cls-4" d="M839,525a1.89,1.89,0,1,1,1.89,1.89A1.89,1.89,0,0,1,839,525Z" transform="translate(-818.94 -466.08)"/><path class="cls-2" d="M943.1,594.12c0-1-3-5.83-5.13-6.93a47.9,47.9,0,0,0,.28-4.79v.06s3.62-.37,5.06.5c-.19-.76-3.29-3.82-5.23-4.44a31,31,0,0,0-.66-4.1,1.31,1.31,0,0,0,.07-.4c.06-2.3,1.18-3.89,3.23-5.49a11.18,11.18,0,0,0-4.85,1.31,20.31,20.31,0,0,0-2.11-3.63c-1-1.35-2-2.63-3-3.85-.32-2.34.5-4.33,2.23-6.56-2.28.52-3.7,1.82-5.37,3.06a33.68,33.68,0,0,0-12.79-8.47c-2.39-2.38-2.94-5.17-2.57-8.95-2.19,2.19-2.75,4.67-3.8,7.28h0l-1.1-4.31-2.51,3.83h.08a81.78,81.78,0,0,0-16.89.38c0,10.27,5.56,20.23,18.52,25.19-.64,2.47-1.44,4.69-1,7.51,1.83-3.18,3.83-5.09,6.94-5.72a57.94,57.94,0,0,0,9,1.3c0,1.07,0,2.44,0,4-1.75.82-4.27,4.9-4.27,5.71.92-.92,3.31-1.44,4.32-1.62,0,1.23,0,2.52.06,3.81-2.14,1-5.22,6-5.22,7,1.15-1.15,4.14-1.79,5.34-2,0,1.32.08,2.6.12,3.8-1.75.82-4.27,4.9-4.27,5.71,1-1,3.54-1.49,4.46-1.65.09,1.53.19,2.73.3,3.43-3.28,0-14,1.15-14,1.15l2.52,1.31a46.61,46.61,0,0,0-10.12,5,66.43,66.43,0,0,0,12-.05l-2.31,2c3.93,0,18-2.1,20.8-5.58a2.21,2.21,0,0,0,.34-.35,38.66,38.66,0,0,0,3.57-8.35s3.61.52,4.79,1.71c0-.73-2-4.09-3.71-5.36.39-1.46.75-3,1.06-4.61V592S941.65,592.67,943.1,594.12Z" transform="translate(-818.94 -466.08)"/><path class="cls-2" d="M1002.23,577.64c.84.07,3.59.36,4.67,1.28-.06-.68-2-3.44-3.73-4.74,1.2-5,1.53-9.26,0-11.56a7.22,7.22,0,0,0-1.07-1.27,11.69,11.69,0,0,0,2.34-4.73c-2,1.74-3.81,2.56-6.1,2.21a31.75,31.75,0,0,0-7.74-2.42c-1.7-2.18-2.09-4.73-1.76-8-2.19,2.19-2.75,4.67-3.8,7.28q-3.25-.28-7-.26a.88.88,0,0,0-.41-.23c-2.23-.84-3.4-2.47-4.27-5-.72,1.91-.45,3.58-.34,5.42-2.94.19-6.08.51-9.4,1,3.12,19.66,19.4,14.19,25.4,14-.27,1.3-.67,3.1-1.12,5.16-1.92.51-5.18,3.71-5.37,4.48,1.09-.66,3.43-.61,4.5-.55l-.8,3.74c-2.32.48-6.47,4.55-6.71,5.52,1.41-.85,4.54-.74,5.72-.66-.25,1.3-.49,2.56-.7,3.75-1.91.47-5.21,3.71-5.4,4.49,1.21-.73,4-.59,4.8-.53a15.18,15.18,0,0,0-.15,3.51c-3.28,0-14,1.15-14,1.15l2.52,1.31a46.16,46.16,0,0,0-10.12,5,72.32,72.32,0,0,0,11.76.14l-2.08,1.79c3.54,0,15.31-1.71,19.65-4.6.82-.4,1.35-.84,1.49-1.34.56-1.93,1.72-4.88,3.09-8.34,0,0,3.48,1.09,4.46,2.45.12-.76-1.5-4.72-3-6.09.51-1.32,1-2.67,1.55-4,.82.27,4.22,1.47,5.27,2.92.15-.91-1.8-5.69-3.65-7.4C1001.23,580.86,1001.76,579.23,1002.23,577.64Z" transform="translate(-818.94 -466.08)"/><polygon class="cls-5" points="103.22 66.09 95.05 74.16 104.7 77.48 103.22 66.09"/><polygon class="cls-5" points="134.17 77.81 130.35 83.93 136.73 84.55 134.17 77.81"/><polygon class="cls-5" points="121.17 60.9 118.35 65.41 123.05 65.87 121.17 60.9"/><polygon class="cls-5" points="175.93 68.22 174.68 73.39 179.29 72.36 175.93 68.22"/><polygon class="cls-5" points="206.56 73.55 202.31 76.74 206.53 78.87 206.56 73.55"/><polygon class="cls-5" points="219.36 60.33 217.94 65.46 222.58 64.57 219.36 60.33"/><polygon class="cls-5" points="140.01 58.4 139.17 65.56 145.2 63.4 140.01 58.4"/><polygon class="cls-5" points="160.47 58.99 152.38 64.57 160.01 68.81 160.47 58.99"/><polygon class="cls-5" points="186.97 76.42 178.88 81.99 186.51 86.23 186.97 76.42"/><polygon class="cls-5" points="75.13 59.58 73.57 69.94 82.43 67.1 75.13 59.58"/><polygon class="cls-2" points="115.74 74.02 113.17 81.68 120.28 80.7 115.74 74.02"/><polygon class="cls-2" points="135.54 64.55 131.38 68.34 136.05 70.16 135.54 64.55"/><polygon class="cls-2" points="148.93 55.4 148.24 60.99 152.96 59.34 148.93 55.4"/><polygon class="cls-2" points="66.59 55.76 62.62 59.75 67.37 61.34 66.59 55.76"/><polygon class="cls-2" points="96.55 62.64 95.48 70.52 102.17 68.26 96.55 62.64"/><polygon class="cls-2" points="128.23 91.19 124.49 95.17 129.13 96.57 128.23 91.19"/><polygon class="cls-2" points="161.75 69.76 158.3 76.73 165.21 76.73 161.75 69.76"/><polygon class="cls-2" points="183.6 77.29 181.32 81.88 185.88 81.88 183.6 77.29"/><polygon class="cls-2" points="196.95 82.63 194.68 87.22 199.23 87.22 196.95 82.63"/><polygon class="cls-2" points="197.3 65.11 193.12 68.06 197.12 70.23 197.3 65.11"/><polygon class="cls-2" points="213.93 68.09 211.52 72.61 216.07 72.75 213.93 68.09"/></svg>