<svg version="1.1" id="Vrstva_1" xmlns="http://www.w3.org/2000/svg" x="0" y="0" viewBox="0 0 1920 1080" xml:space="preserve"><style>.st1{fill:#472e16}.st2{fill:#fff}.st6{fill:#303030}.st11{fill:#867867}.st48{fill:#864344}.st67{fill:#3f1b00}</style><linearGradient id="SVGID_1_" gradientUnits="userSpaceOnUse" x1="919.249" y1="7.366" x2="1215.002" y2="952.208"><stop offset="0" stop-color="#dba76a"/><stop offset=".505" stop-color="#d6994f"/><stop offset="1" stop-color="#c07939"/></linearGradient><path fill="url(#SVGID_1_)" d="M240.9 37h1666.2v929.3H240.9z"/><path class="st1" d="M1910 969.3H237.9V34.1H1910v935.2zm-1666.2-5.9h1660.3V40H243.8v923.4z"/><path class="st2" d="M290 79h1567.9v845.3H290z"/><linearGradient id="SVGID_2_" gradientUnits="userSpaceOnUse" x1="1225.159" y1="-116.172" x2="979.805" y2="886.513"><stop offset="0" stop-color="#aeaeae"/><stop offset="1" stop-color="#fff"/></linearGradient><path opacity=".7" fill="url(#SVGID_2_)" d="M1857.9 924.3l-2.9-2.9-30.3-810.8L290.5 93.8 290 79h1567.9z"/><path class="st1" d="M1860.9 927.3H287.1V76.1h1573.8v851.2zm-1568-5.9H1855V82H292.9v839.4z"/><g><path class="st1" d="M1859.8 81.3l-3.8-4.5 49.2-42 3.8 4.5z"/></g><g><path class="st1" d="M1905.2 968.6l-49.2-42 3.8-4.5 49.2 42z"/></g><g><path class="st1" d="M288.1 81.3l-49.1-42 3.8-4.5 49.1 42z"/></g><g><radialGradient id="SVGID_3_" cx="270.452" cy="755.368" r="310.602" gradientTransform="matrix(1 0 0 1.0083 0 -.41)" gradientUnits="userSpaceOnUse"><stop offset="0" stop-color="#dbdbdb"/><stop offset=".565" stop-color="#bfbfbf"/><stop offset=".758" stop-color="#b7b7b7"/><stop offset="1" stop-color="#a6a6a6"/></radialGradient><path d="M493.8 620.7l-219.1 6.5 24.3 347s59.5 25.8 156.7-5.6c40.6-178 38.1-347.9 38.1-347.9z" fill="url(#SVGID_3_)"/><linearGradient id="SVGID_4_" gradientUnits="userSpaceOnUse" x1="380.074" y1="939.535" x2="383.358" y2="1009.81"><stop offset="0" stop-color="#bfbfbf"/><stop offset=".445" stop-color="#b7b7b7"/><stop offset="1" stop-color="#a6a6a6"/></linearGradient><path d="M297.3 949l1.8 25.1s59.5 25.8 156.7-5.6c2.6-11.5 5.1-23 7.4-34.4-57.8 29.3-110.9 24.5-165.9 14.9z" opacity=".7" fill="url(#SVGID_4_)"/><path class="st6" d="M362.8 986.1c-40.7 0-63.6-9.7-64.6-10.1l-1.1-.5-24.5-350.2 223.1-6.6v2c0 1.7 2.1 172.2-38.1 348.3l-.2 1.1-1.1.3c-32.1 10.4-63.6 15.7-93.5 15.7zm-61.9-13.3c5 1.9 27 9.4 61.9 9.4 29.1 0 59.8-5.1 91.2-15.1 37.5-165 37.9-324.7 37.8-344.3l-215.1 6.3 24.2 343.7z"/><linearGradient id="SVGID_5_" gradientUnits="userSpaceOnUse" x1="190.791" y1="830.312" x2="245.856" y2="990.592"><stop offset="0" stop-color="#dbdbdb"/><stop offset=".565" stop-color="#bfbfbf"/><stop offset=".758" stop-color="#b7b7b7"/><stop offset="1" stop-color="#a6a6a6"/></linearGradient><path d="M285.3 831.9s-133 30.7-172.6 44.7c20 31.8 68.5 145.6 68.5 145.6l114-62.1-9.9-128.2z" fill="url(#SVGID_5_)"/><linearGradient id="SVGID_6_" gradientUnits="userSpaceOnUse" x1="213.471" y1="908.237" x2="246.105" y2="1004.16"><stop offset="0" stop-color="#bfbfbf"/><stop offset=".445" stop-color="#b7b7b7"/><stop offset="1" stop-color="#a6a6a6"/></linearGradient><path d="M159.1 971.8c12.4 27.9 22.1 50.5 22.1 50.5l114-62.1-3.5-44.9-132.6 56.5z" opacity=".7" fill="url(#SVGID_6_)"/><path class="st6" d="M180.3 1025l-.8-2c-.5-1.1-48.7-114.1-68.4-145.4l-1.3-2.1 2.3-.8c39.3-13.8 171.5-44.4 172.8-44.7l2.2-.5 10.2 131.8-117 63.7zm-64.6-147.4c19 31.6 60.1 126.9 66.5 141.8l111-60.5-9.7-124.7c-17.1 4.1-129.2 30.4-167.8 43.4z"/><linearGradient id="SVGID_7_" gradientUnits="userSpaceOnUse" x1="136.194" y1="867.394" x2="152.368" y2="895.819"><stop offset=".005" stop-color="#fff0de"/><stop offset=".265" stop-color="#fcedd6"/><stop offset=".667" stop-color="#f3e4c0"/><stop offset="1" stop-color="#e9daa9"/></linearGradient><path d="M168.1 873.2c-.3-6.6-10.9-9.7-10.9-9.7-18.4 4.9-34.4 9.5-44.5 13.1 3.9 6.2 8.9 15.6 14.5 26.7 25.8-11.7 41.2-23.6 40.9-30.1z" fill="url(#SVGID_7_)"/><linearGradient id="SVGID_8_" gradientUnits="userSpaceOnUse" x1="138.731" y1="869.98" x2="148.231" y2="890.946"><stop offset="0" stop-color="#f8e9cc"/><stop offset=".737" stop-color="#e2d0b7"/><stop offset="1" stop-color="#d9c6af"/></linearGradient><path d="M115.7 881.6c2.2 4.1 9.1 16.9 11.5 21.7 25.9-11.7 41.2-23.6 40.9-30.1-.1-1.4-2-5.2-2.8-6.2-13.4 12.5-30.5 13.6-49.6 14.6z" fill="url(#SVGID_8_)"/><path class="st11" d="M126.3 905.8l-.8-1.7c-6-11.9-10.8-20.8-14.4-26.5l-1.3-2.1 2.3-.8c9.1-3.2 24.2-7.6 44.6-13.1l.5-.1.5.2c2 .6 12 4.1 12.3 11.5.4 9.4-21.5 22.7-42.1 32l-1.6.6zm-10.6-28.2c3.3 5.5 7.5 13.3 12.4 23.1 28.2-12.9 38.2-23.5 38.1-27.5-.2-3.8-5.7-6.6-9-7.7-18.5 5-32.4 9.1-41.5 12.1z"/><linearGradient id="SVGID_9_" gradientUnits="userSpaceOnUse" x1="157.364" y1="881.107" x2="173.57" y2="912.045"><stop offset=".005" stop-color="#fff0de"/><stop offset=".265" stop-color="#fcedd6"/><stop offset=".667" stop-color="#f3e4c0"/><stop offset="1" stop-color="#e9daa9"/></linearGradient><path d="M146 894s33.1-16 44.4-8.4c11.3 7.6-23 38.2-23 38.2l-23.4-8.3 2-21.5z" fill="url(#SVGID_9_)"/><linearGradient id="SVGID_10_" gradientUnits="userSpaceOnUse" x1="163.665" y1="891.317" x2="177.389" y2="913.865"><stop offset="0" stop-color="#f8e9cc"/><stop offset=".737" stop-color="#e2d0b7"/><stop offset="1" stop-color="#d9c6af"/></linearGradient><path d="M143.9 909.3l23.4 14.5s31.7-28.4 23.9-37.2c-10.2 10.5-28.4 19.7-47.3 22.7z" fill="url(#SVGID_10_)"/><path class="st11" d="M167.8 926l-26-9.2 2.4-24.1 1-.5c.9-.4 22.2-10.6 36.7-10.6 4 0 7.3.8 9.6 2.4 1.9 1.3 3 3.2 3.1 5.5.8 11.6-23.2 33.4-25.9 35.8l-.9.7zM146 914.1l20.9 7.4c7.5-6.9 24.3-23.9 23.8-31.8-.1-1.1-.5-1.9-1.4-2.5-1.7-1.1-4.2-1.7-7.4-1.7-11.9 0-29.7 7.8-34 9.8l-1.9 18.8z"/><linearGradient id="SVGID_11_" gradientUnits="userSpaceOnUse" x1="176.197" y1="917.957" x2="191.938" y2="950.916"><stop offset=".005" stop-color="#fff0de"/><stop offset=".265" stop-color="#fcedd6"/><stop offset=".667" stop-color="#f3e4c0"/><stop offset="1" stop-color="#e9daa9"/></linearGradient><path d="M167.4 923.8s26-16.8 36.8-5.6c8.7 9.1-23.1 39.7-23.1 39.7l-19.9-12 6.2-22.1z" fill="url(#SVGID_11_)"/><linearGradient id="SVGID_12_" gradientUnits="userSpaceOnUse" x1="177.187" y1="922.296" x2="193.33" y2="949.969"><stop offset="0" stop-color="#f8e9cc"/><stop offset=".737" stop-color="#e2d0b7"/><stop offset="1" stop-color="#d9c6af"/></linearGradient><path d="M203.4 917.4c-10.7 16.7-42.1 28.3-42.1 28.3l19.9 12s31.8-30.6 23.1-39.7c-.4-.1-.7-.3-.9-.6z" fill="url(#SVGID_12_)"/><path class="st11" d="M181.4 960.3L159 946.7l6.7-24.2.6-.4c.6-.4 15.3-9.8 27.6-9.8 4.9 0 8.8 1.5 11.7 4.4 1.4 1.5 2.1 3.4 2.1 5.7-.2 12.4-22.6 34.3-25.2 36.8l-1.1 1.1zm-17.9-15.5l17.3 10.5c7.2-7.2 22.8-24.3 22.9-33 0-1.2-.3-2.2-1-2.9-2.1-2.1-5.1-3.2-8.9-3.2-9.8 0-22 7-24.9 8.8l-5.4 19.8z"/><linearGradient id="SVGID_13_" gradientUnits="userSpaceOnUse" x1="101.109" y1="863.659" x2="167.969" y2="1031.793"><stop offset="0" stop-color="#a6a6a6"/><stop offset="1" stop-color="#7d7d7d"/></linearGradient><path d="M174.7 939.2c18 42.6 15.3 83.2-5.4 91.4-20.2 8-50.6-18-68.6-58.6-18.4-41.4-17.5-83.4 2.7-93.4 20.6-10.2 52.9 17.2 71.3 60.6z" fill="url(#SVGID_13_)"/><linearGradient id="SVGID_14_" gradientUnits="userSpaceOnUse" x1="128.805" y1="1014.136" x2="129.015" y2="1014.663"><stop offset="0" stop-color="#a6a6a6"/><stop offset="1" stop-color="#7d7d7d"/></linearGradient><path d="M128.6 1014.2l.4.4v-.3c-.1 0-.2 0-.4-.1z" fill="url(#SVGID_14_)"/><linearGradient id="SVGID_15_" gradientUnits="userSpaceOnUse" x1="147.186" y1="959.427" x2="214.375" y2="990.814"><stop offset="0" stop-color="#a6a6a6"/><stop offset="1" stop-color="#7d7d7d"/></linearGradient><path d="M174.7 939.2c-10.4-24.5-25.2-43.9-39.9-54.3l-.7 1.1c34 24.8 64.5 167.2-5.1 128.4v.3c14 13.9 28.8 20.5 40.3 15.9 20.7-8.2 23.5-48.8 5.4-91.4z" opacity=".5" fill="url(#SVGID_15_)"/><path class="st6" d="M161.6 1034c-20.9 0-46.6-25.2-62.6-61.2-19.2-43.3-17.7-85.5 3.6-96 3.1-1.6 6.6-2.3 10.3-2.3 21.6 0 47.8 26.3 63.7 64 12.6 29.8 15.7 59.9 8 78.5-3.2 7.6-8.2 13-14.4 15.4-2.8 1.1-5.6 1.6-8.6 1.6zm-48.8-155.6c-3.1 0-5.9.7-8.5 1.9-19 9.4-19.8 50.2-1.7 90.8 15.2 34.1 40 58.9 59.1 58.9 2.5 0 4.9-.4 7.1-1.3 5.3-2.1 9.4-6.6 12.2-13.3 7.2-17.4 4.1-47-8-75.5-15.2-35.6-40.5-61.5-60.2-61.5z"/><radialGradient id="SVGID_16_" cx="270.453" cy="755.368" r="310.602" gradientTransform="matrix(1 0 0 1.0083 0 -.41)" gradientUnits="userSpaceOnUse"><stop offset="0" stop-color="#dbdbdb"/><stop offset=".565" stop-color="#bfbfbf"/><stop offset=".758" stop-color="#b7b7b7"/><stop offset="1" stop-color="#a6a6a6"/></radialGradient><path d="M354.8 811.6l-80.1-184.4s-100.6 81-38.4 370.8c0 0 72.1 16.6 125.8-5.6 5.4-10.3-11.2-112.6-7.3-180.8z" fill="url(#SVGID_16_)"/><linearGradient id="SVGID_17_" gradientUnits="userSpaceOnUse" x1="303.894" y1="902.775" x2="378.724" y2="912.556"><stop offset="0" stop-color="#bfbfbf"/><stop offset=".445" stop-color="#b7b7b7"/><stop offset="1" stop-color="#a6a6a6"/></linearGradient><path d="M356.7 811.7c-7.7 27.3-23.1 60.5-27.9 103.5-2.3 21.4-1.5 70.8-10.1 87.5 13.1-1.7 31.1-5.3 43.3-10.3 5.4-10.2-8.4-112.5-5.3-180.7z" opacity=".7" fill="url(#SVGID_17_)"/><path class="st6" d="M294.6 1005.8c-32.3 0-58.3-5.8-58.7-5.9l-1.2-.3-.3-1.2c-61.7-287.6 38.1-371.9 39.1-372.8l2.4 3.1c-1 .8-98.5 83.7-38 367.6 9.6 2 74 14.2 122.6-5.4 1.7-5.5-.4-29.8-2.6-55.5-1.6-18.1-3.1-38.3-4.5-58.6-2.2-34 3.2-65.1 3.2-65.1-2.2 37.8 1.9 85.2 5.2 123.3 3 35 4.4 53.4 1.9 58.3l-.3.6-.7.3c-21.5 8.9-46.3 11.6-68.1 11.6z"/><linearGradient id="SVGID_18_" gradientUnits="userSpaceOnUse" x1="279.277" y1="980.585" x2="318.751" y2="980.585"><stop offset=".005" stop-color="#fff0de"/><stop offset=".265" stop-color="#fcedd6"/><stop offset=".667" stop-color="#f3e4c0"/><stop offset="1" stop-color="#e9daa9"/></linearGradient><path d="M296.9 957.3c-17.3 1.2-17.6 41.9-17.6 46.2 12 .7 25.6.6 39.5-.8-1.7-13-7.3-46.5-21.9-45.4z" fill="url(#SVGID_18_)"/><linearGradient id="SVGID_19_" gradientUnits="userSpaceOnUse" x1="294.1" y1="978.989" x2="314.657" y2="983.883"><stop offset="0" stop-color="#f8e9cc"/><stop offset=".737" stop-color="#e2d0b7"/><stop offset="1" stop-color="#d9c6af"/></linearGradient><path d="M296.9 957.3c-.3 0-.5.1-.8.2 4 14.1 5.6 30.5 6.2 46.3 5.4-.2 10.9-.5 16.5-1-1.7-13.1-7.3-46.6-21.9-45.5z" fill="url(#SVGID_19_)"/><path class="st11" d="M294.4 1005.9c-5 0-10.1-.1-15.2-.4l-1.8-.1v-1.9c0-7.8.8-46.8 19.4-48.2h.8c15 0 21 29.6 23.2 47.2l.2 2-2 .2c-7.9.8-16.1 1.2-24.6 1.2zm-13.2-4.3c4.4.2 8.8.3 13.1.3 7.6 0 15.1-.3 22.2-1-2.8-20.5-9.1-41.7-19-41.7h-.5c-12.1.9-15.6 26.2-15.8 42.4z"/><linearGradient id="SVGID_20_" gradientUnits="userSpaceOnUse" x1="239.505" y1="981.825" x2="278.43" y2="981.825"><stop offset=".005" stop-color="#fff0de"/><stop offset=".265" stop-color="#fcedd6"/><stop offset=".667" stop-color="#f3e4c0"/><stop offset="1" stop-color="#e9daa9"/></linearGradient><path d="M256.8 960.2c-13.3 1-16.5 25.3-17.3 38.4 6.1 1.2 20.7 3.8 38.9 4.8-1.9-14.2-7.7-44.2-21.6-43.2z" fill="url(#SVGID_20_)"/><linearGradient id="SVGID_21_" gradientUnits="userSpaceOnUse" x1="253.955" y1="979.922" x2="272.92" y2="983.657"><stop offset="0" stop-color="#f8e9cc"/><stop offset=".737" stop-color="#e2d0b7"/><stop offset="1" stop-color="#d9c6af"/></linearGradient><path d="M257 960.2c5.1 8.5 6.1 34.8 4.7 41.8 5.7.7 9.7 1 16.7 1.4-1.9-14.1-7.6-43.8-21.4-43.2z" fill="url(#SVGID_21_)"/><path class="st11" d="M280.7 1005.5l-2.4-.1c-18.7-1.1-33.6-3.8-39.2-4.8l-1.7-.3.1-1.7c.9-14.6 4.5-39.2 19.1-40.3h.8c14.6 0 20.6 28.2 22.9 44.9l.4 2.3zm-39.1-8.5c6.1 1.2 18.9 3.3 34.6 4.3-3.6-24.6-10.6-39.2-18.7-39.2h-.5c-11.5.9-14.6 23.5-15.4 34.9z"/><g><linearGradient id="SVGID_22_" gradientUnits="userSpaceOnUse" x1="319.428" y1="982.089" x2="356.746" y2="982.089"><stop offset=".005" stop-color="#fff0de"/><stop offset=".265" stop-color="#fcedd6"/><stop offset=".667" stop-color="#f3e4c0"/><stop offset="1" stop-color="#e9daa9"/></linearGradient><path d="M336.9 961.6c-14.3 1-17 29-17.5 41.1 12.6-1.3 25.3-4 37.3-8.3-2.9-14.9-8.8-33.6-19.8-32.8z" fill="url(#SVGID_22_)"/><linearGradient id="SVGID_23_" gradientUnits="userSpaceOnUse" x1="329.186" y1="980.379" x2="351.879" y2="979.891"><stop offset="0" stop-color="#f8e9cc"/><stop offset=".737" stop-color="#e2d0b7"/><stop offset="1" stop-color="#d9c6af"/></linearGradient><path d="M336.9 961.6c-.3 0-.6.1-.9.2 3.6 7.5 7 22.3 5.6 37 5.1-1.2 10.2-2.7 15.2-4.4-3-14.9-8.9-33.6-19.9-32.8z" fill="url(#SVGID_23_)"/><path class="st11" d="M317.4 1004.8l.1-2.3c.6-15.6 4-41.9 19.3-42.9 9.9-.9 17.3 10.9 21.9 34.3l.3 1.7-1.6.6c-11.5 4.1-24.2 7-37.8 8.4l-2.2.2zm20.2-41.3h-.5c-12.1.9-14.9 26.1-15.5 36.9 11.8-1.4 22.9-3.9 33-7.4-4.1-19-10.1-29.5-17-29.5z"/></g><g><linearGradient id="SVGID_24_" gradientUnits="userSpaceOnUse" x1="1130.335" y1="825.841" x2="1185.399" y2="986.119" gradientTransform="matrix(-1 0 0 1 1711.507 0)"><stop offset="0" stop-color="#dbdbdb"/><stop offset=".565" stop-color="#bfbfbf"/><stop offset=".758" stop-color="#b7b7b7"/><stop offset="1" stop-color="#a6a6a6"/></linearGradient><path d="M486.7 827.4s133 30.7 172.6 44.7c-20 31.8-68.5 145.6-68.5 145.6l-114-62.1 9.9-128.2z" fill="url(#SVGID_24_)"/><linearGradient id="SVGID_25_" gradientUnits="userSpaceOnUse" x1="1153.015" y1="903.764" x2="1185.649" y2="999.687" gradientTransform="matrix(-1 0 0 1 1711.507 0)"><stop offset="0" stop-color="#bfbfbf"/><stop offset=".445" stop-color="#b7b7b7"/><stop offset="1" stop-color="#a6a6a6"/></linearGradient><path d="M612.8 967.3c-12.4 27.9-22.1 50.5-22.1 50.5l-114-62.1 3.5-44.9 132.6 56.5z" opacity=".7" fill="url(#SVGID_25_)"/><path class="st6" d="M474.7 956.8L484.9 825l2.2.5c1.3.3 133.5 30.9 172.8 44.7l2.3.8-1.3 2.1c-19.7 31.3-67.9 144.2-68.4 145.4l-.8 2-117-63.7zm13.7-126.9l-9.7 124.7 111 60.5c6.4-15 47.5-110.2 66.5-141.8-38.6-13.2-150.6-39.4-167.8-43.4z"/></g><g><linearGradient id="SVGID_26_" gradientUnits="userSpaceOnUse" x1="1075.738" y1="862.922" x2="1091.911" y2="891.348" gradientTransform="matrix(-1 0 0 1 1711.507 0)"><stop offset=".005" stop-color="#fff0de"/><stop offset=".265" stop-color="#fcedd6"/><stop offset=".667" stop-color="#f3e4c0"/><stop offset="1" stop-color="#e9daa9"/></linearGradient><path d="M603.9 868.7c.3-6.6 10.9-9.7 10.9-9.7 18.4 4.9 34.4 9.5 44.5 13.1-3.9 6.2-8.9 15.6-14.5 26.7-25.9-11.6-41.2-23.5-40.9-30.1z" fill="url(#SVGID_26_)"/><linearGradient id="SVGID_27_" gradientUnits="userSpaceOnUse" x1="1078.275" y1="865.508" x2="1087.775" y2="886.473" gradientTransform="matrix(-1 0 0 1 1711.507 0)"><stop offset="0" stop-color="#f8e9cc"/><stop offset=".737" stop-color="#e2d0b7"/><stop offset="1" stop-color="#d9c6af"/></linearGradient><path d="M656.3 877.1c-2.2 4.1-9.1 16.9-11.5 21.7-25.9-11.7-41.2-23.6-40.9-30.1.1-1.4 2-5.2 2.8-6.2 13.3 12.5 30.5 13.6 49.6 14.6z" fill="url(#SVGID_27_)"/><path class="st11" d="M644 900.6c-20.6-9.3-42.5-22.6-42.1-32 .3-7.4 10.3-10.9 12.3-11.5l.5-.2.5.1c20.5 5.5 35.5 9.9 44.6 13.1l2.3.8-1.3 2.1c-3.6 5.7-8.4 14.6-14.4 26.5l-.8 1.7-1.6-.6zm-29.2-39.5c-3.3 1.1-8.9 3.9-9 7.7-.2 4 9.9 14.5 38.1 27.5 4.9-9.8 9.1-17.6 12.4-23.1-9.1-3.1-23-7.2-41.5-12.1z"/></g><g><linearGradient id="SVGID_28_" gradientUnits="userSpaceOnUse" x1="1096.907" y1="876.636" x2="1113.113" y2="907.574" gradientTransform="matrix(-1 0 0 1 1711.507 0)"><stop offset=".005" stop-color="#fff0de"/><stop offset=".265" stop-color="#fcedd6"/><stop offset=".667" stop-color="#f3e4c0"/><stop offset="1" stop-color="#e9daa9"/></linearGradient><path d="M625.9 889.5s-33.1-16-44.4-8.4c-11.3 7.6 23 38.2 23 38.2L628 911l-2.1-21.5z" fill="url(#SVGID_28_)"/><linearGradient id="SVGID_29_" gradientUnits="userSpaceOnUse" x1="1103.208" y1="886.844" x2="1116.933" y2="909.392" gradientTransform="matrix(-1 0 0 1 1711.507 0)"><stop offset="0" stop-color="#f8e9cc"/><stop offset=".737" stop-color="#e2d0b7"/><stop offset="1" stop-color="#d9c6af"/></linearGradient><path d="M628 904.8l-23.4 14.5s-31.7-28.4-23.9-37.2c10.3 10.5 28.4 19.7 47.3 22.7z" fill="url(#SVGID_29_)"/><path class="st11" d="M603.3 920.8c-2.7-2.4-26.7-24.2-25.9-35.8.2-2.3 1.2-4.2 3.1-5.5 2.3-1.6 5.6-2.4 9.6-2.4 14.5 0 35.8 10.2 36.7 10.6l1 .5 2.4 24.1-26 9.2-.9-.7zm20.8-30c-4.4-2-22.1-9.8-34-9.8-3.2 0-5.7.6-7.4 1.7-.9.6-1.3 1.4-1.4 2.5-.5 7.9 16.2 25 23.8 31.8l20.9-7.4-1.9-18.8z"/></g><g><linearGradient id="SVGID_30_" gradientUnits="userSpaceOnUse" x1="1115.741" y1="913.485" x2="1131.482" y2="946.444" gradientTransform="matrix(-1 0 0 1 1711.507 0)"><stop offset=".005" stop-color="#fff0de"/><stop offset=".265" stop-color="#fcedd6"/><stop offset=".667" stop-color="#f3e4c0"/><stop offset="1" stop-color="#e9daa9"/></linearGradient><path d="M604.6 919.3s-26-16.8-36.8-5.6c-8.7 9.1 23.1 39.7 23.1 39.7l19.9-12-6.2-22.1z" fill="url(#SVGID_30_)"/><linearGradient id="SVGID_31_" gradientUnits="userSpaceOnUse" x1="1116.731" y1="917.823" x2="1132.873" y2="945.496" gradientTransform="matrix(-1 0 0 1 1711.507 0)"><stop offset="0" stop-color="#f8e9cc"/><stop offset=".737" stop-color="#e2d0b7"/><stop offset="1" stop-color="#d9c6af"/></linearGradient><path d="M568.6 913c10.7 16.7 42.1 28.3 42.1 28.3l-19.9 12s-31.8-30.6-23.1-39.7l.9-.6z" fill="url(#SVGID_31_)"/><path class="st11" d="M589.5 954.8c-2.6-2.5-25-24.4-25.2-36.8 0-2.3.7-4.2 2.1-5.7 2.8-2.9 6.8-4.4 11.7-4.4 12.3 0 27 9.4 27.6 9.8l.6.4 6.7 24.2-22.4 13.6-1.1-1.1zm13.4-34.2c-2.9-1.7-15-8.8-24.9-8.8-3.8 0-6.8 1.1-8.9 3.2-.7.7-1 1.6-1 2.9.2 8.6 15.7 25.8 22.9 33l17.3-10.5-5.4-19.8z"/></g><g><linearGradient id="SVGID_32_" gradientUnits="userSpaceOnUse" x1="651.97" y1="868.438" x2="617.536" y2="1031.753"><stop offset="0" stop-color="#a6a6a6"/><stop offset="1" stop-color="#7d7d7d"/></linearGradient><path d="M597.2 934.7c-18 42.6-15.3 83.2 5.3 91.4 20.2 8 50.6-18 68.6-58.6 18.4-41.4 17.5-83.4-2.7-93.4-20.5-10.2-52.8 17.2-71.2 60.6z" fill="url(#SVGID_32_)"/><linearGradient id="SVGID_33_" gradientUnits="userSpaceOnUse" x1="637.032" y1="953.484" x2="679.457" y2="1024.52"><stop offset="0" stop-color="#a6a6a6"/><stop offset="1" stop-color="#7d7d7d"/></linearGradient><path d="M677.6 882.5c14.3 40.3-38.5 143-77.1 124.6-8.9-4.3-13.2-17.1-14.4-31.4-3 25.2 2.8 45 16.5 50.4 20.2 8 50.6-18 68.6-58.6 15.1-33.9 17.2-68.3 6.4-85z" opacity=".5" fill="url(#SVGID_33_)"/><path class="st6" d="M601.9 1028c-6.2-2.5-11.2-7.8-14.4-15.4-7.7-18.6-4.7-48.7 8-78.5 16-37.7 42.2-64 63.7-64 3.7 0 7.1.8 10.3 2.3 21.2 10.5 22.8 52.7 3.6 96-16 36-41.8 61.2-62.6 61.2-3.1-.1-6-.6-8.6-1.6zm-2.9-92.5c-12.1 28.5-15.2 58.1-8 75.5 2.8 6.7 6.9 11.2 12.2 13.3 2.2.9 4.6 1.3 7.1 1.3 19.1 0 43.9-24.8 59.1-58.9 18.1-40.7 17.3-81.4-1.7-90.8-2.6-1.3-5.5-1.9-8.5-1.9-19.8-.1-45 25.8-60.2 61.5z"/></g><g><radialGradient id="SVGID_34_" cx="270.453" cy="755.369" r="310.602" gradientTransform="matrix(1 0 0 1.0083 0 -.41)" gradientUnits="userSpaceOnUse"><stop offset="0" stop-color="#dbdbdb"/><stop offset=".565" stop-color="#bfbfbf"/><stop offset=".758" stop-color="#b7b7b7"/><stop offset="1" stop-color="#a6a6a6"/></radialGradient><path d="M493.8 620.7l-80.1 184.4c3.9 68.3-12.7 170.5-7.3 180.8 53.7 22.1 125.8 5.6 125.8 5.6 68-257-38.4-370.8-38.4-370.8z" fill="url(#SVGID_34_)"/><linearGradient id="SVGID_35_" gradientUnits="userSpaceOnUse" x1="484.01" y1="808.986" x2="634.615" y2="820.721"><stop offset="0" stop-color="#bfbfbf"/><stop offset=".445" stop-color="#b7b7b7"/><stop offset="1" stop-color="#a6a6a6"/></linearGradient><path d="M493.8 620.7l-9.4 21.7c60.4 91.1 44.6 256.4-8.3 355 31.3-.3 56.1-5.9 56.1-5.9 68-257-38.4-370.8-38.4-370.8z" opacity=".7" fill="url(#SVGID_35_)"/><path class="st6" d="M474 999.4c-21.9 0-46.6-2.7-68.3-11.6l-.7-.3-.3-.6c-2.5-4.9-1.1-23.3 1.9-58.3 3.3-38.1 7.3-85.5 5.2-123.3 0 0 5.1 35 3 67.3-1.2 19.5-2.8 38.9-4.3 56.4-2.2 25.7-4.3 50-2.6 55.5 48.8 19.7 113.3 7.4 122.7 5.4 66.3-252.1-37.2-366.7-38.2-367.8l2.8-2.7c1.1 1.1 106.4 117.5 38.9 372.7l-.3 1.1-1.1.3c-.5 0-26.5 5.9-58.7 5.9z"/></g><g><linearGradient id="SVGID_36_" gradientUnits="userSpaceOnUse" x1="449.19" y1="972.184" x2="485.64" y2="976.415"><stop offset=".005" stop-color="#fff0de"/><stop offset=".265" stop-color="#fcedd6"/><stop offset=".667" stop-color="#f3e4c0"/><stop offset="1" stop-color="#e9daa9"/></linearGradient><path d="M471.7 950.8c17.3 1.2 17.6 41.9 17.6 46.2-12 .7-25.6.6-39.5-.8 1.6-13 7.2-46.4 21.9-45.4z" fill="url(#SVGID_36_)"/><linearGradient id="SVGID_37_" gradientUnits="userSpaceOnUse" x1="460.503" y1="974.107" x2="486.862" y2="974.107"><stop offset="0" stop-color="#f8e9cc"/><stop offset=".737" stop-color="#e2d0b7"/><stop offset="1" stop-color="#d9c6af"/></linearGradient><path d="M471.7 950.8c-.9-.1-1.7 0-2.5.2 5.4 7.2 7.2 30.9 4.5 46.4 5.4 0 10.6-.1 15.5-.4.1-4.3-.2-44.9-17.5-46.2z" fill="url(#SVGID_37_)"/><path class="st11" d="M474.2 999.4c-8.5 0-16.8-.4-24.6-1.2l-2-.2.2-2c2.2-17.9 8.3-48.3 24-47.1 18.6 1.3 19.4 40.4 19.4 48.2v1.9l-1.8.1c-5.1.2-10.2.3-15.2.3zm-22.2-4.9c11.1 1 23.1 1.3 35.3.7-.2-16.2-3.7-41.5-15.7-42.4h-.5c-10 0-16.3 21.1-19.1 41.7z"/></g><g><linearGradient id="SVGID_38_" gradientUnits="userSpaceOnUse" x1="487.637" y1="975.039" x2="526.362" y2="976.016"><stop offset=".005" stop-color="#fff0de"/><stop offset=".265" stop-color="#fcedd6"/><stop offset=".667" stop-color="#f3e4c0"/><stop offset="1" stop-color="#e9daa9"/></linearGradient><path d="M511.7 953.8c13.3 1 16.5 25.3 17.3 38.4-6.1 1.2-20.7 3.8-38.9 4.8 2-14.2 7.7-44.2 21.6-43.2z" fill="url(#SVGID_38_)"/><linearGradient id="SVGID_39_" gradientUnits="userSpaceOnUse" x1="501.104" y1="972.939" x2="525.542" y2="975.22"><stop offset="0" stop-color="#f8e9cc"/><stop offset=".737" stop-color="#e2d0b7"/><stop offset="1" stop-color="#d9c6af"/></linearGradient><path d="M511.7 953.8c-.7-.1-1.5 0-2.2.1 6 14.3 7 27.4 6 40.5 5.2-.8 10.9-1.8 13.5-2.3-.7-13-4-37.4-17.3-38.3z" fill="url(#SVGID_39_)"/><path class="st11" d="M487.9 999.1l.3-2.4c2.3-17.1 8.6-46.1 23.7-44.9 14.6 1 18.3 25.7 19.1 40.2l.1 1.7-1.7.3c-5.5 1.1-20.4 3.7-39.2 4.8l-2.3.3zm23.1-43.4c-8.1 0-15 14.6-18.7 39.1 15.8-1 28.5-3.1 34.6-4.3-.8-11.4-3.9-34-15.4-34.8h-.5z"/><g><linearGradient id="SVGID_40_" gradientUnits="userSpaceOnUse" x1="414.046" y1="970.563" x2="446.928" y2="977.4"><stop offset=".005" stop-color="#fff0de"/><stop offset=".265" stop-color="#fcedd6"/><stop offset=".667" stop-color="#f3e4c0"/><stop offset="1" stop-color="#e9daa9"/></linearGradient><path d="M431.7 955.1c14.3 1 17 29 17.5 41.1-12.6-1.3-25.3-4-37.3-8.3 2.8-14.9 8.7-33.6 19.8-32.8z" fill="url(#SVGID_40_)"/><linearGradient id="SVGID_41_" gradientUnits="userSpaceOnUse" x1="429.403" y1="973.797" x2="448.655" y2="977.712"><stop offset="0" stop-color="#f8e9cc"/><stop offset=".737" stop-color="#e2d0b7"/><stop offset="1" stop-color="#d9c6af"/></linearGradient><path d="M431.7 955.1c4.5 13 1.8 25.4 0 38.4 4.6.9 12.8 2.2 17.4 2.7-.5-12.1-3.2-40-17.4-41.1z" fill="url(#SVGID_41_)"/><path class="st11" d="M451.2 998.4l-2.2-.2c-13.6-1.5-26.3-4.3-37.8-8.4l-1.6-.6.3-1.7c4.6-23.5 12.1-35.2 21.9-34.3 15.3 1.1 18.6 27.4 19.3 42.9l.1 2.3zm-37.1-11.8c10.1 3.5 21.2 6 33 7.4-.6-10.8-3.4-36-15.5-36.9h-.5c-7.1 0-13.1 10.4-17 29.5z"/></g></g><g><linearGradient id="SVGID_42_" gradientUnits="userSpaceOnUse" x1="-340.254" y1="650.624" x2="-103.317" y2="474.832" gradientTransform="rotate(1.621 1361.43 13651.111)"><stop offset="0" stop-color="#ffa8a9"/><stop offset=".337" stop-color="#ffa0a1"/><stop offset=".859" stop-color="#ff8a8b"/><stop offset="1" stop-color="#ff8384"/></linearGradient><path d="M243.5 650.3s-37.5 44.8-101 35.3c-47.1-6.8-68.4-33.5-69.9-62s7.2-49.7 2.1-93c-5.1-43.4-52.2-62.5-60.4-98.9 32-5.1 71.1-22 82.6-38.5 11.5-16.6 50.6-48.8 95.4-42.9 44.7 5.9 87.8 55.3 87.8 55.3s-19.2 85.4-33 144.1c-17.4 73.8-3.6 100.6-3.6 100.6z" fill="url(#SVGID_42_)"/><linearGradient id="SVGID_43_" gradientUnits="userSpaceOnUse" x1="2024.993" y1="364.866" x2="2029.53" y2="287.75" gradientTransform="scale(-1 1) rotate(4.002 -3.408 -30714.083)"><stop offset="0" stop-color="#ffa8a9"/><stop offset=".337" stop-color="#ffa0a1"/><stop offset=".859" stop-color="#ff8a8b"/><stop offset="1" stop-color="#ff8384"/></linearGradient><path d="M106 420.3c-22.2 14.4-65.3 25.7-90.9 11.3 31.9-5.2 70.5-22 81.9-38.4 11.5-16.6 50.6-48.8 95.4-42.9 44.7 5.9 87.8 55.3 87.8 55.3s-7 31.4-15.7 69.1c-2.3-12-6.4-23.5-13.5-34.2-49.3-71.7-98.8-50.2-145-20.2z" opacity=".7" fill="url(#SVGID_43_)"/><linearGradient id="SVGID_44_" gradientUnits="userSpaceOnUse" x1="2017.513" y1="492.169" x2="1865.198" y2="492.169" gradientTransform="scale(-1 1) rotate(4.002 -3.408 -30714.083)"><stop offset="0" stop-color="#ffa8a9"/><stop offset=".337" stop-color="#ffa0a1"/><stop offset=".859" stop-color="#ff8a8b"/><stop offset="1" stop-color="#ff8384"/></linearGradient><path d="M197.1 657.7c37.1-32.4 43.3-85.8 16-123.6-5.9-14.5-34.4-23.3-54.7-7.7 13.7-15.9 32.2-32.1 52.5-23.6-1.6-52.4-55.1-69-83.1-38.1 16.9-32.2 49.8-50.9 85.9-28.6 20 17.6 32.7 36.8 44.9 64.4-3.9 16.9-7.9 33.9-11.5 49.2-17.5 73.8-3.6 100.7-3.6 100.7s-37.5 44.8-101 35.3c-37.7-5.4-58.8-23.6-66.5-45.2 29.3 37.3 81.8 51.6 121.1 17.2z" opacity=".7" fill="url(#SVGID_44_)"/><path class="st48" d="M142.3 687.4c-42.9-6.2-69.6-30-71.5-63.7-.6-11.7.5-22.3 1.6-33.4 1.7-15.9 3.5-34 .5-59.5-2.7-22.8-17.4-38.9-31.7-54.5-12.7-13.9-24.8-27-28.6-44.3l-.4-1.9 1.9-.3c33.6-5.3 70.9-22.6 81.4-37.8 10.9-15.7 42.2-41.5 79.8-44.2 5.8-.4 11.7-.2 17.3.5 44.9 5.9 87.2 53.9 89 55.9l.6.7-.2 1.1c-.2.9-19.3 86.1-33 144.1-17.1 72-3.9 99.1-3.8 99.4l.6 1.1-.8.9c-.3.3-28.6 33.6-76.7 37-8.6.6-17.3.3-26-1.1zm103.1-138.2c12.9-54.7 30.7-133.6 32.8-143.1-5.4-6-45.4-48.6-86-54-5.4-.7-11-.9-16.6-.5-37.7 2.7-68.2 29.9-77 42.6-12.3 17.7-51.5 33.8-81.8 39 4.1 15.4 15.4 27.7 27.3 40.6 14.7 16 29.9 32.6 32.7 56.6 3 25.9 1.1 44.2-.5 60.3-1.1 11-2.2 21.4-1.6 32.8 1.7 31.8 27.3 54.3 68.3 60.2 8.5 1.3 16.9 1.6 25.1 1 42.2-3 68.7-29.7 73.4-34.8-2.6-5.9-11.8-34.6 3.9-100.7z"/></g><g><linearGradient id="SVGID_45_" gradientUnits="userSpaceOnUse" x1="2005.64" y1="257.556" x2="2016.775" y2="351.591" gradientTransform="scale(-1 1) rotate(4.002 -3.408 -30714.083)"><stop offset="0" stop-color="#dbdbdb"/><stop offset=".565" stop-color="#bfbfbf"/><stop offset=".758" stop-color="#b7b7b7"/><stop offset="1" stop-color="#a6a6a6"/></linearGradient><path d="M12.2 432s45 4.2 74-18.8c29-22.9 52.9-41.1 93.8-41.3 37.3-.2 70.9 21.2 85 42.2 32.2-36.8 37.3-45.1 37.3-45.1s-57.8-29.8-104.1-33.7c-35.3-3-68.8 13.4-91.4 34.4-26.4 24.8-49.3 57.6-94.6 62.3z" fill="url(#SVGID_45_)"/><linearGradient id="SVGID_46_" gradientUnits="userSpaceOnUse" x1="2020" y1="278.318" x2="2029.009" y2="354.392" gradientTransform="scale(-1 1) rotate(4.002 -3.408 -30714.083)"><stop offset="0" stop-color="#bfbfbf"/><stop offset=".445" stop-color="#b7b7b7"/><stop offset="1" stop-color="#a6a6a6"/></linearGradient><path d="M56.9 415.6c18.3 6.9 62-60.4 131.6-60.4 33.8 0 63.5 14.9 88.9 41.6-4.4 5.2-6 10.1-12.3 17.4-14-21-47.7-42.3-85-42.2-40.9.2-64.8 18.4-93.8 41.3s-74 18.8-74 18.8c17.8-1.9 32.1-8.2 44.6-16.5z" opacity=".7" fill="url(#SVGID_46_)"/><path class="st6" d="M12 433.8v-3.7c36.2-3.7 57.8-25.8 78.8-47.1 4.8-4.9 9.8-9.9 14.8-14.6 26-24.3 60.9-37.6 92.8-34.9 46.2 3.9 104.2 33.6 104.8 33.9l1.8.9-1.1 1.7c-.2.3-5.6 8.8-37.5 45.3l-1.6 1.8-1.3-2c-13.8-20.7-46.9-41.5-83.4-41.3-41.2.2-64.9 18.9-92.7 40.9-17.4 13.7-40.2 18-56.3 19.1-11.1.8-18.8.1-19.1 0zm168-63.7c36.7-.1 70.1 20.2 85.2 41 23-26.4 31.6-37.5 34.4-41.4-10.4-5.1-60.8-29.1-101.5-32.5-30.9-2.6-64.7 10.3-90 33.9-4.9 4.6-9.9 9.6-14.6 14.5C76 403.5 57.9 421.8 31.4 430c15.6-1.2 37.3-5.3 53.7-18.3 25.2-19.9 49-38.7 86.1-41.4 2.8-.1 5.8-.2 8.8-.2z"/></g><g><path class="st48" d="M244.3 481.5c-.2-.5-22.3-50.3-57.4-53.8-34.9-3.5-58.9 37-58.9 37 .9-1.9 21.4-45.5 59.4-41.6 37.8 3.8 60.2 54.4 61.2 56.6l-4.3 1.8z"/></g><g><path class="st48" d="M159 526.6c.5-.9 11.4-22.6 33.8-27.5 15.9-3.5 33.4 2.5 51.8 17.6l-2.9 3.6c-17.3-14.2-33.5-19.8-48-16.7-20.2 4.4-34.7 23-34.7 23z"/></g><g><linearGradient id="SVGID_47_" gradientUnits="userSpaceOnUse" x1="1069.927" y1="570.337" x2="1306.789" y2="394.601" gradientTransform="scale(-1 1) rotate(4.048 -117.444 -24999.804)"><stop offset="0" stop-color="#ffa8a9"/><stop offset=".337" stop-color="#ffa0a1"/><stop offset=".859" stop-color="#ff8a8b"/><stop offset="1" stop-color="#ff8384"/></linearGradient><path d="M534.2 642.8s39.3 43.2 102.4 31c46.8-8.7 66.9-36.3 67.3-64.8.4-28.5-9.2-49.3-6-92.8 3.3-43.5 49.6-64.6 56.3-101.4-32.2-3.7-71.9-19-84.1-35-12.2-16.1-52.6-46.7-97.1-38.9-44.4 7.8-85.5 58.9-85.5 58.9s22.7 84.6 39 142.6c20.5 73 7.7 100.4 7.7 100.4z" fill="url(#SVGID_47_)"/><linearGradient id="SVGID_48_" gradientUnits="userSpaceOnUse" x1="614.398" y1="423.727" x2="618.936" y2="346.585" gradientTransform="rotate(1.621 769.839 598.637)"><stop offset="0" stop-color="#ffa8a9"/><stop offset=".337" stop-color="#ffa0a1"/><stop offset=".859" stop-color="#ff8a8b"/><stop offset="1" stop-color="#ff8384"/></linearGradient><path d="M662.1 407.2c22.8 13.5 66.3 22.9 91.3 7.5-32.1-3.9-71.3-19-83.4-34.9-12.2-16.1-52.6-46.7-97.1-38.9-44.4 7.8-85.5 58.9-85.5 58.9s8.3 31 18.5 68.4c1.9-12.1 5.4-23.7 12.1-34.8 46.4-73.6 96.8-54.2 144.1-26.2z" opacity=".7" fill="url(#SVGID_48_)"/><linearGradient id="SVGID_49_" gradientUnits="userSpaceOnUse" x1="606.873" y1="551.017" x2="454.587" y2="551.017" gradientTransform="rotate(1.621 769.839 598.637)"><stop offset="0" stop-color="#ffa8a9"/><stop offset=".337" stop-color="#ffa0a1"/><stop offset=".859" stop-color="#ff8a8b"/><stop offset="1" stop-color="#ff8384"/></linearGradient><path d="M580.9 648.3c-38.4-30.8-46.8-83.9-21.1-122.8 5.3-14.7 33.4-24.7 54.3-10-14.3-15.3-33.5-30.7-53.5-21.3-.6-52.5 52.2-71.3 81.5-41.6-18.2-31.4-51.9-48.8-87-25-19.3 18.4-31.2 38.1-42.2 66.2 4.6 16.7 9.3 33.6 13.5 48.7 20.5 73 7.8 100.4 7.8 100.4s39.3 43.2 102.4 31c37.4-7 57.8-26.1 64.6-48-27.8 38.6-79.6 55-120.3 22.4z" opacity=".7" fill="url(#SVGID_49_)"/><path class="st48" d="M611 677.8c-48.2-1.4-77.9-33.4-78.2-33.7l-.8-.9.5-1.1c.1-.3 12.2-27.9-7.9-99.1-16.1-57.4-38.7-141.8-39-142.6l-.2-.9.6-.7c1.7-2.1 42-51.8 86.6-59.6 5.6-1 11.5-1.4 17.3-1.2 37.7 1.1 70 25.6 81.5 40.8 11.1 14.7 49.1 30.4 82.9 34.3l2 .2-.4 2c-3.1 17.4-14.6 31-26.8 45.4-13.6 16.2-27.8 32.9-29.5 55.8-1.9 25.6.7 43.6 3 59.4 1.6 11.1 3.1 21.6 3 33.3-.4 33.8-26.2 58.7-68.8 66.6-8.5 1.5-17.3 2.3-25.8 2zm-74.6-35.4c4.9 5 32.5 30.5 74.8 31.7 8.2.2 16.7-.5 25.1-2.1 40.8-7.6 65.4-31.2 65.8-63 .1-11.5-1.4-21.8-3-32.7-2.3-16-5-34.2-3-60.2 1.8-24.1 16.3-41.3 30.3-57.9 11.3-13.5 22.1-26.2 25.6-41.7-30.5-3.9-70.4-18.4-83.4-35.5-9.4-12.4-41-38.3-78.7-39.4-5.6-.2-11.2.2-16.6 1.2-40.4 7.1-78.6 51.3-83.7 57.6 2.5 9.4 23.5 87.5 38.7 141.6 18.3 65.3 10.3 94.3 8.1 100.4z"/></g><g><linearGradient id="SVGID_50_" gradientUnits="userSpaceOnUse" x1="595.054" y1="316.411" x2="606.182" y2="410.385" gradientTransform="rotate(1.621 769.839 598.637)"><stop offset="0" stop-color="#dbdbdb"/><stop offset=".565" stop-color="#bfbfbf"/><stop offset=".758" stop-color="#b7b7b7"/><stop offset="1" stop-color="#a6a6a6"/></linearGradient><path d="M756.3 415s-44.8 6.1-74.7-15.6c-29.9-21.7-54.6-38.9-95.4-37.3-37.3 1.4-70 24.1-83.2 45.7-33.6-35.4-39.2-43.5-39.2-43.5s56.5-32.2 102.6-38c35.2-4.4 69.3 10.5 92.7 30.6 27.6 23.5 51.7 55.3 97.2 58.1z" fill="url(#SVGID_50_)"/><linearGradient id="SVGID_51_" gradientUnits="userSpaceOnUse" x1="609.411" y1="337.174" x2="618.413" y2="413.186" gradientTransform="rotate(1.621 769.839 598.637)"><stop offset="0" stop-color="#bfbfbf"/><stop offset=".445" stop-color="#b7b7b7"/><stop offset="1" stop-color="#a6a6a6"/></linearGradient><path d="M711 400.4c-18 7.7-64.5-57.8-134-54.8-33.7 1.4-62.8 17.5-87.1 45.3 4.6 5 6.4 9.8 13 16.8 13.2-21.6 45.9-44.3 83.2-45.7 40.9-1.6 65.5 15.6 95.4 37.3 29.9 21.7 74.7 15.6 74.7 15.6-17.8-1-32.4-6.7-45.2-14.5z" opacity=".7" fill="url(#SVGID_51_)"/><path class="st6" d="M737.6 417.5c-16.1-.5-39.1-3.7-57-16.7-28.7-20.8-53.1-38.5-94.3-37-36.5 1.4-68.7 23.6-81.7 44.8l-1.3 2-1.7-1.7c-33.4-35.1-39.1-43.3-39.3-43.7l-1.2-1.7 1.8-1c.6-.3 57.4-32.4 103.3-38.2 31.7-4 67.1 7.8 94.1 31 5.2 4.5 10.3 9.3 15.3 14 21.8 20.4 44.4 41.6 80.7 43.8l.1 3.7c-.1 0-7.7 1-18.8.7zm-142.7-57.4c37.2 1.1 61.8 18.9 87.8 37.7 17 12.3 38.9 15.5 54.5 16-26.9-7-45.6-24.6-63.9-41.7-5-4.7-10.1-9.5-15.2-13.9-26.2-22.5-60.6-34-91.3-30.1-40.6 5.1-89.9 31.2-100.1 36.7 3 3.7 12 14.5 36.1 39.9 14.2-21.4 46.7-43.2 83.4-44.6 2.9-.1 5.9-.1 8.7 0z"/></g><g><path class="st48" d="M526.5 474.2c.2-.5 20.2-51.2 55.2-56.2 34.8-5 60.4 34.5 60.4 34.5-.9-1.8-23.2-44.5-61.1-39.1-37.6 5.4-57.9 56.9-58.8 59.1l4.3 1.7z"/></g><g><path class="st48" d="M613.5 515.6c-.5-.9-12.3-22.1-34.9-26-16.1-2.8-33.2 3.9-51 19.8l3 3.5c16.7-14.9 32.6-21.2 47.2-18.7 20.5 3.5 35.7 21.4 35.7 21.4z"/></g><g><radialGradient id="SVGID_52_" cx="319.267" cy="504.463" r="331.559" gradientTransform="matrix(1 0 0 1.0083 0 -.41)" gradientUnits="userSpaceOnUse"><stop offset="0" stop-color="#dbdbdb"/><stop offset=".565" stop-color="#bfbfbf"/><stop offset=".758" stop-color="#b7b7b7"/><stop offset="1" stop-color="#a6a6a6"/></radialGradient><path d="M543.5 521.3c-.5-182.2-144.1-193.7-168.7-192.2 0 0-153.7 7.7-147.5 198.9 0 0-35.8 48.9-20.9 101.7 17.1 60.4 104.6 81.1 177.6 74l4.6 4.1c73.2 3.6 164.9-24.8 179.7-85.9 12.8-53.4-24.8-100.6-24.8-100.6z" fill="url(#SVGID_52_)"/><linearGradient id="SVGID_53_" gradientUnits="userSpaceOnUse" x1="423.703" y1="575.016" x2="602.336" y2="700.141" gradientTransform="rotate(1.621 769.839 598.637)"><stop offset="0" stop-color="#bfbfbf"/><stop offset=".445" stop-color="#b7b7b7"/><stop offset="1" stop-color="#a6a6a6"/></linearGradient><path d="M543.5 521.3c-.3-109.3-52-157.1-98.7-177.6 51.7 39.5 88.3 104.2 64 164.8 43.2 33.1 43.3 106.7 4.5 139.1-57.9 51.5-185.5 50.1-255.6 35.5 30.1 20.2 95 23.7 126.3 20.7l4.6 4.1c73.2 3.6 164.9-24.8 179.7-85.9 12.8-53.5-24.8-100.7-24.8-100.7z" opacity=".7" fill="url(#SVGID_53_)"/><path class="st6" d="M393.6 710c-1.7 0-3.4-.1-5.1-.2h-.6l-4.5-4c-11.6 1.1-23.4 1.5-35.2 1.1-59.4-1.7-128.3-22.7-143.5-76.6-14.1-50.1 16.9-97.3 20.8-102.8-5.8-190.2 147.8-200.1 149.3-200.2 2-.1 4.5-.2 7.3-.1 16.7.5 162.5 9.9 163.4 193.5 4.1 5.4 36.9 51 24.7 101.7-14.6 59.7-101.8 89.7-176.6 87.6zm-4.3-3.9c1.5.1 2.9.1 4.4.2 73.3 2.1 158.8-26.9 172.7-84.7 12.5-52-24-98.6-24.4-99.1l-.4-.5v-.6c-.5-180.6-143.5-189.9-159.8-190.4-3.3-.1-5.6 0-7 .1-1.5.1-151.9 9.9-145.8 197v.6l-.4.5c-.3.5-35.1 48.9-20.6 100.1 14.7 52 82 72.2 140.1 73.9 11.9.3 23.9-.1 35.6-1.2l.8-.1 4.8 4.2z"/></g><g><linearGradient id="SVGID_54_" gradientUnits="userSpaceOnUse" x1="275.558" y1="670.721" x2="317.118" y2="670.721" gradientTransform="rotate(1.621 769.839 598.637)"><stop offset=".005" stop-color="#fff0de"/><stop offset=".265" stop-color="#fcedd6"/><stop offset=".667" stop-color="#f3e4c0"/><stop offset="1" stop-color="#e9daa9"/></linearGradient><path d="M316.9 599.8s-2.5 91.4-36.4 121.7c-4.9-.3-.2-45.4-.9-69.3-1.2-38.9-4-59.9-4-59.9l41.3 7.5z" fill="url(#SVGID_54_)"/><linearGradient id="SVGID_55_" gradientUnits="userSpaceOnUse" x1="267.053" y1="671.093" x2="307.787" y2="672.624" gradientTransform="rotate(1.621 769.839 598.637)"><stop offset="0" stop-color="#f8e9cc"/><stop offset=".737" stop-color="#e2d0b7"/><stop offset="1" stop-color="#d9c6af"/></linearGradient><path d="M297.3 596.2c6.7 38.4-.4 88-16 124.5 33.1-31 35.6-120.9 35.6-120.9l-19.6-3.6z" fill="url(#SVGID_55_)"/><path class="st11" d="M281.1 723.4l-.8-.1c-4.3-.3-4.6-8.2-3.3-39.4.5-11.3.9-23 .7-31.7-1.2-38.4-4-59.5-4-59.7l-.3-2.5 45.4 8.3v1.6c-.1 3.8-2.9 92.6-37 123l-.7.5zm-3.4-128.9c.8 6.7 2.8 26.6 3.7 57.6.3 8.9-.2 20.7-.7 32-.5 12.7-1.2 29.6 0 34.6 29.2-28.4 33.7-105.3 34.2-117.4l-37.2-6.8z"/></g><g><linearGradient id="SVGID_56_" gradientUnits="userSpaceOnUse" x1="450.308" y1="660.69" x2="499.293" y2="660.69" gradientTransform="rotate(1.621 769.839 598.637)"><stop offset=".005" stop-color="#fff0de"/><stop offset=".265" stop-color="#fcedd6"/><stop offset=".667" stop-color="#f3e4c0"/><stop offset="1" stop-color="#e9daa9"/></linearGradient><path d="M450.2 598.5s8.4 91.1 44.2 119c4.9-.7-2.8-45.3-3.6-69.2-1.3-38.9.1-60.1.1-60.1l-40.7 10.3z" fill="url(#SVGID_56_)"/><linearGradient id="SVGID_57_" gradientUnits="userSpaceOnUse" x1="458.779" y1="658.697" x2="497.351" y2="660.749" gradientTransform="rotate(1.621 769.839 598.637)"><stop offset="0" stop-color="#f8e9cc"/><stop offset=".737" stop-color="#e2d0b7"/><stop offset="1" stop-color="#d9c6af"/></linearGradient><path d="M494.6 717.4c4.3-2.2-3-45.6-3.8-69-1.3-38.9.1-60.1.1-60.1l-18.6 4.7c-.8 32.4 11.1 96.2 22.3 124.4z" fill="url(#SVGID_57_)"/><path class="st11" d="M493.9 719.5l-.6-.5c-36-28.1-44.6-116.6-44.9-120.3l-.1-1.6 44.8-11.3-.2 2.6c0 .2-1.5 21.5-.1 59.9.3 8.8 1.5 20.4 2.7 31.6 3.3 31 3.5 38.9-.7 39.5l-.9.1zm-41.7-119.6c1.3 12 10.8 88.4 41.8 114.9.9-5-.9-21.9-2.2-34.5-1.2-11.3-2.4-23-2.7-31.9-1.1-31-.3-51 0-57.7l-36.9 9.2z"/></g><g><path class="st6" d="M385.1 332.8c-.6-2.9-1.3-5.9-2-9-.8-3.1-2.2-6.1-3.4-9.3-1.4-3-3.2-6-5-9l-3.2-4.1-1.6-2-1.8-1.8c-1.2-1.2-2.4-2.3-3.6-3.5l-3.9-3c-2.5-2-5.4-3.3-7.9-4.8-2.7-1.2-5.2-2.4-7.6-3.1-2.4-.9-4.7-1.4-6.6-1.9-2-.4-3.8-.7-5.2-.9-2.9-.4-4.6-.3-4.6-.3s1.7.2 4.5.9 6.8 1.9 11.3 3.9c2.3.9 4.6 2.2 7.1 3.5 1.2.7 2.4 1.6 3.6 2.4 1.2.8 2.5 1.6 3.6 2.6 1.2 1 2.4 1.9 3.6 2.9 1.1 1.1 2.2 2.3 3.3 3.4l1.7 1.7 1.5 1.9 2.9 3.9c1.7 2.8 3.4 5.6 4.8 8.4 1.1 3 2.6 5.8 3.5 8.8.9 3 1.7 5.9 2.5 8.6.5 2.8.9 5.5 1.3 7.9.2 1.2.4 2.4.6 3.5.1 1.1.2 2.2.2 3.2.1 2 .3 3.8.4 5.3.3 2.9.4 4.6.4 4.6s.1-1.7.3-4.6c.1-1.5.1-3.3.2-5.3 0-1 .1-2.1.1-3.3l-.3-3.6c-.2-2.2-.5-5-.7-7.9zM364.8 343.7c-.4-1.2-1.1-2.6-1.7-4.1-.6-1.5-1.6-3-2.6-4.5-.5-.8-1-1.6-1.7-2.4-.7-.7-1.4-1.4-2.1-2.2-1.4-1.6-3-2.9-4.7-4.2-1.7-1.4-3.7-2.3-5.5-3.5-3.9-1.9-8-3.5-11.9-4.3-3.9-1-7.7-1.3-10.8-1.5-6.4-.2-10.6.6-10.6.6s1 .1 2.9.3c1.8.1 4.4.6 7.5 1.1 3 .6 6.6 1.3 10.3 2.5 1.9.5 3.7 1.3 5.6 1.9 1.9.7 3.7 1.6 5.5 2.5 1.7 1.1 3.6 1.9 5.2 3.1 1.6 1.2 3.3 2.2 4.6 3.6.7.6 1.4 1.3 2.1 1.9.6.7 1.2 1.4 1.7 2 1.1 1.3 2.2 2.6 3 4 .8 1.3 1.6 2.5 2.3 3.6.5 1.2 1 2.2 1.4 3 .8 1.7 1.3 2.6 1.3 2.6s-.2-1-.6-2.9c-.6-.7-.9-1.8-1.2-3.1zM423.8 305c-2 2-4.2 4.5-6.5 7.2-2.2 2.8-4.5 5.8-6.5 9-1.1 1.5-1.9 3.2-2.9 4.8-.9 1.6-1.7 3.3-2.5 4.8-.8 1.6-1.4 3.2-2.1 4.6-.7 1.5-1.2 2.9-1.7 4.3-.5 1.3-1.1 2.5-1.4 3.7-.4 1.1-.7 2.1-.9 2.9-.5 1.6-.9 2.5-.9 2.5s.1-1 .2-2.7c.2-1.7.4-4.1 1.1-7 .3-1.4.6-3 1.2-4.6.6-1.6 1-3.3 1.8-5 .8-1.7 1.4-3.5 2.4-5.2 1-1.7 1.8-3.5 2.9-5.1 2.1-3.3 4.5-6.4 7.1-9.1 2.5-2.7 5.1-5 7.4-6.7 4.7-3.5 8.3-5 8.3-5s-3 2.5-7 6.6z"/></g><g><path class="st6" d="M222.2 539.6l-3.3-1.6c7.8-16.1 26.9-21.6 26.9-21.6-.2.1-16.4 8.3-23.6 23.2z"/></g><g><radialGradient id="SVGID_58_" cx="319.268" cy="504.466" r="331.551" gradientTransform="matrix(1 0 0 1.0083 0 -.41)" gradientUnits="userSpaceOnUse"><stop offset="0" stop-color="#dbdbdb"/><stop offset=".565" stop-color="#bfbfbf"/><stop offset=".758" stop-color="#b7b7b7"/><stop offset="1" stop-color="#a6a6a6"/></radialGradient><path d="M259.2 580.5s5.8 20.8 30.8 24.8c9.6 1.5 23.1 1.9 34.4-9.5l-20.8-27.6-44.4 12.3z" fill="url(#SVGID_58_)"/><linearGradient id="SVGID_59_" gradientUnits="userSpaceOnUse" x1="1850.457" y1="597.983" x2="1850.045" y2="625.639" gradientTransform="scale(-1 1) rotate(-1.616 288.905 76374.11)"><stop offset="0" stop-color="#bfbfbf"/><stop offset=".445" stop-color="#b7b7b7"/><stop offset="1" stop-color="#a6a6a6"/></linearGradient><path d="M259.2 580.5s4.8 20.7 32 26.2c16.5 1.5 23.5-1.6 23.5-1.6l-5.1-18.7c0 .1-27.4 17.1-50.4-5.9z" opacity=".7" fill="url(#SVGID_59_)"/><path class="st6" d="M297.4 607.9c-3.4-.1-6.1-.5-7.8-.8-9.3-1.5-16.3-5.2-21.4-9.3-9.1-7.3-9.1-18-9.1-18 .3.8 7.5 19.9 31.1 23.6 8.8 1.4 21.9 2 32.8-9l2.6 2.6c-9.4 9.5-20.4 11.1-28.2 10.9z"/></g><g><linearGradient id="SVGID_60_" gradientUnits="userSpaceOnUse" x1="1541.78" y1="473.445" x2="1542.429" y2="397.167" gradientTransform="scale(-1 1) rotate(2.161 -643.944 -48491.468)"><stop offset="0" stop-color="#bfbfbf"/><stop offset=".445" stop-color="#b7b7b7"/><stop offset="1" stop-color="#a6a6a6"/></linearGradient><path d="M305 437.3c30.3 1.6 35.1 51.2 27.9 64.4-5.9 10.9-46.6 13.2-56.5-2.2-11-17.4-.9-63.8 28.6-62.2z" opacity=".7" fill="url(#SVGID_60_)"/><path d="M308.8 447.3c21.9 1.7 35.4 39.2 23.7 52.5-7.9 9-47 13.8-56-.4-10.6-16.6 2.7-54.4 32.3-52.1z"/><radialGradient id="SVGID_61_" cx="286.134" cy="538.334" r="48.891" gradientTransform="matrix(.9955 .09539 -.0946 1.0038 52.489 -81.6)" gradientUnits="userSpaceOnUse"><stop offset=".078" stop-color="#fff"/><stop offset=".335" stop-color="#fcfcfc"/><stop offset=".488" stop-color="#f4f4f4"/><stop offset=".614" stop-color="#e6e6e6"/><stop offset=".725" stop-color="#d2d2d2"/><stop offset=".826" stop-color="#b8b8b8"/><stop offset=".856" stop-color="#c4c4c4"/><stop offset=".949" stop-color="#e5e5e5"/><stop offset="1" stop-color="#f1f1f1"/></radialGradient><path d="M308.3 451c21.8 1.6 35.3 38.7 23.7 51.9-7.9 9-46.8 13.8-55.8-.2-10.6-16.5 2.6-53.8 32.1-51.7z" fill="url(#SVGID_61_)"/><path d="M276.2 468.9c-6.2 11.8-6.7 26.1-1.3 34.6 6.1 9.6 25.1 10.9 39.9 8.1 8.6-1.6 15.2-4.5 18.2-7.8 5.5-6.2 6.2-17.8 1.8-29.7-3.9-10.6-13.1-23.5-26.3-24.4-13.5-1.1-25.5 6.1-32.3 19.2zm2.6 1.2c3-5.7 9.9-15.5 22.7-17.4 2.1-.3 4.3-.4 6.6-.2 11.9.9 20.4 12.8 24.1 22.8 4 10.9 3.5 21.5-1.2 26.9-2.5 2.8-8.6 5.3-16.5 6.8-14.3 2.7-31.8 1.2-37-7-5-7.8-4.4-21 1.3-31.9z"/></g><path d="M307.3 404c6.9 1.5 7.7 17.3 7.7 17.3s-24.7-1.3-42.4 16.5c2-12.7 13.4-29.9 34.7-33.8z"/><g><linearGradient id="SVGID_62_" gradientUnits="userSpaceOnUse" x1="322.061" y1="418.408" x2="321.476" y2="460.495" gradientTransform="rotate(-1.985 1627.558 948.618)"><stop offset="0" stop-color="#4a1f00"/><stop offset=".149" stop-color="#552906"/><stop offset=".414" stop-color="#734317"/><stop offset=".759" stop-color="#a36d32"/><stop offset=".995" stop-color="#c88d46"/></linearGradient><path d="M304.8 464.1c-8.9 0-16.1 9.4-16.1 20.9 0 11.6 7.2 21 16 21 8.9 0 16.1-9.4 16.1-20.9 0-11.5-7.2-20.9-16-21z" fill="url(#SVGID_62_)"/><path class="st67" d="M304.8 463.2c-9.5 0-17.1 9.8-17.1 21.9 0 5.8 1.7 11.3 4.9 15.4 3.2 4.2 7.5 6.5 12.1 6.5h.5c9.3-.3 16.6-10 16.6-21.9 0-5.8-1.7-11.3-4.9-15.4-3.2-4.2-7.5-6.5-12.1-6.5zm.3 41.9h-.4c-4 0-7.7-2.1-10.6-5.8-2.9-3.8-4.5-8.8-4.5-14.2 0-10.7 6.6-19.7 14.7-19.9h.4c4 0 7.7 2.1 10.6 5.8 2.9 3.8 4.5 8.8 4.5 14.2 0 10.7-6.6 19.6-14.7 19.9z"/><linearGradient id="SVGID_63_" gradientUnits="userSpaceOnUse" x1="321.716" y1="447.855" x2="321.716" y2="465.499" gradientTransform="rotate(-1.985 1627.558 948.618)"><stop offset=".118" stop-color="#bba799"/><stop offset=".218" stop-color="#af9c8f"/><stop offset=".398" stop-color="#8f7f75"/><stop offset=".638" stop-color="#5b514a"/><stop offset=".926" stop-color="#131110"/><stop offset="1"/></linearGradient><path d="M293 494.8c1.5 5.6 5.9 9.2 11.3 9.3 5.7 0 10.4-3.2 12.6-11.2-4.2 6.1-14.8 11.6-23.9 1.9z" fill="url(#SVGID_63_)"/><path d="M304.5 474.7c-4.9 0-8.9 5.2-8.9 11.6 0 6.4 4 11.6 8.9 11.6s8.9-5.2 8.9-11.6c0-6.4-3.9-11.6-8.9-11.6z"/><linearGradient id="SVGID_64_" gradientUnits="userSpaceOnUse" x1="312.386" y1="440.375" x2="321.354" y2="426.595" gradientTransform="rotate(-1.985 1627.558 948.618)"><stop offset="0" stop-color="#fff"/><stop offset="1"/></linearGradient><path d="M300.2 472.3c-3.5 0-6.4 2.9-6.4 6.4 0 3.5 2.8 6.4 6.4 6.4 3.5 0 6.4-2.9 6.4-6.4-.1-3.5-2.9-6.4-6.4-6.4z" opacity=".6" fill="url(#SVGID_64_)"/><path class="st2" d="M299.4 472.3c-2.7 0-4.9 2.2-4.9 4.9s2.2 4.9 4.9 4.9 4.9-2.2 4.9-4.9-2.2-4.9-4.9-4.9zM301 493.8c-1.1 0-1.9.9-1.9 1.9 0 1.1.9 1.9 1.9 1.9 1.1 0 1.9-.9 1.9-1.9 0-1-.9-1.9-1.9-1.9z"/></g><g><path class="st6" d="M549 532.7c-7.7-14.6-24.3-22-24.4-22 0 0 19.3 4.5 27.7 20.3l-3.3 1.7z"/></g><g><radialGradient id="SVGID_65_" cx="319.268" cy="504.463" r="331.559" gradientTransform="matrix(1 0 0 1.0083 0 -.41)" gradientUnits="userSpaceOnUse"><stop offset="0" stop-color="#dbdbdb"/><stop offset=".565" stop-color="#bfbfbf"/><stop offset=".758" stop-color="#b7b7b7"/><stop offset="1" stop-color="#a6a6a6"/></radialGradient><path d="M442.5 594.9c12 10.7 25.3 8.5 34.9 7.3 21-2.7 29.1-23 29.1-23l-47.2-4.1-16.8 19.8z" fill="url(#SVGID_65_)"/><linearGradient id="SVGID_66_" gradientUnits="userSpaceOnUse" x1="477.479" y1="589.281" x2="477.067" y2="616.917" gradientTransform="rotate(1.621 769.839 598.637)"><stop offset="0" stop-color="#bfbfbf"/><stop offset=".445" stop-color="#b7b7b7"/><stop offset="1" stop-color="#a6a6a6"/></linearGradient><path d="M505.9 579.1s-6 20.4-33.4 24.4c-16.6.6-23.4-2.9-23.4-2.9l6.1-18.4s26.4 18.5 50.7-3.1z" opacity=".7" fill="url(#SVGID_66_)"/><path class="st6" d="M463.9 605.1c-7.2-.2-15.1-2.1-22.6-8.8l2.4-2.8c10.9 9.7 22.8 8.2 32.4 6.9l1.1-.1c19.8-2.5 29.6-22.9 29.7-23.1 0 0-1.7 12-11.2 19.2-4.8 3.6-10.8 6.6-18 7.6l-1.1.1c-3.8.5-8.1 1.1-12.7 1z"/></g><g><linearGradient id="SVGID_67_" gradientUnits="userSpaceOnUse" x1="507.521" y1="485.43" x2="508.17" y2="409.15" gradientTransform="translate(-44.371 34.592)"><stop offset="0" stop-color="#bfbfbf"/><stop offset=".445" stop-color="#b7b7b7"/><stop offset="1" stop-color="#a6a6a6"/></linearGradient><path d="M462.6 433.9c-30.2 2.9-32.9 52.6-25.2 65.5 6.3 10.7 47.1 11.2 56.3-4.6 10.4-17.8-1.6-63.8-31.1-60.9z" opacity=".7" fill="url(#SVGID_67_)"/><path d="M459.3 444.1c-21.8 2.6-33.7 40.6-21.5 53.5 8.3 8.7 47.6 11.7 55.9-2.8 9.9-17.1-4.9-54.2-34.4-50.7z"/><radialGradient id="SVGID_68_" cx="1314.301" cy="414.422" r="48.895" gradientTransform="matrix(-.9905 .1379 .1368 .9988 1728.377 -113.335)" gradientUnits="userSpaceOnUse"><stop offset=".078" stop-color="#fff"/><stop offset=".335" stop-color="#fcfcfc"/><stop offset=".488" stop-color="#f4f4f4"/><stop offset=".614" stop-color="#e6e6e6"/><stop offset=".725" stop-color="#d2d2d2"/><stop offset=".826" stop-color="#b8b8b8"/><stop offset=".856" stop-color="#c4c4c4"/><stop offset=".949" stop-color="#e5e5e5"/><stop offset="1" stop-color="#f1f1f1"/></radialGradient><path d="M459.9 447.8c-21.7 2.5-33.7 40.2-21.4 52.9 8.3 8.6 47.4 11.8 55.7-2.6 9.8-16.9-4.9-53.7-34.3-50.3z" fill="url(#SVGID_68_)"/><path d="M459.7 446.4c-13.1 1.5-21.8 14.8-25.2 25.5-3.8 12-2.6 23.6 3.1 29.6 3.1 3.2 9.8 5.8 18.5 7 14.9 2.1 33.8.1 39.5-9.8 5.1-8.7 3.9-23-2.7-34.5-7.6-12.7-19.8-19.4-33.2-17.8zm33.2 50.9c-4.9 8.4-22.3 10.6-36.7 8.6-7.9-1.1-14.2-3.4-16.7-6.1-5-5.2-5.9-15.7-2.4-26.8 3.2-10.1 11.2-22.4 23.1-23.8 2.2-.3 4.5-.3 6.6-.1 12.9 1.4 20.2 10.9 23.4 16.4 6.2 10.8 7.3 23.9 2.7 31.8z"/></g><path d="M458.9 400.8c-6.9 1.8-6.9 17.7-6.9 17.7s24.6-2.3 43.1 14.6c-2.6-12.7-14.8-29.3-36.2-32.3z"/><g><linearGradient id="SVGID_69_" gradientUnits="userSpaceOnUse" x1="1356.206" y1="428.442" x2="1355.622" y2="470.529" gradientTransform="matrix(-1 .0074 .0074 1 1817.511 22.522)"><stop offset="0" stop-color="#4a1f00"/><stop offset=".149" stop-color="#552906"/><stop offset=".414" stop-color="#734317"/><stop offset=".759" stop-color="#a36d32"/><stop offset=".995" stop-color="#c88d46"/></linearGradient><path d="M464 460.7c8.9-.4 16.5 8.7 17 20.2.5 11.6-6.3 21.3-15.1 21.7-8.9.4-16.5-8.7-17-20.2-.5-11.6 6.2-21.3 15.1-21.7z" fill="url(#SVGID_69_)"/><path class="st67" d="M452.1 466.8c-3 4.3-4.5 9.8-4.2 15.6.5 12 8.2 21.3 17.5 21.2h.5c4.6-.2 8.8-2.7 11.8-7.1 3-4.3 4.5-9.8 4.2-15.6-.5-12.2-8.5-21.6-18-21.2-4.5.3-8.7 2.8-11.8 7.1zm-2.2 15.6c-.2-5.4 1.1-10.5 3.9-14.4 2.7-3.8 6.3-6 10.3-6.2h.4c8.1-.1 15 8.6 15.5 19.3.2 5.4-1.1 10.5-3.9 14.4-2.7 3.8-6.3 6-10.3 6.2h-.4c-8.1 0-15.1-8.6-15.5-19.3z"/><linearGradient id="SVGID_70_" gradientUnits="userSpaceOnUse" x1="1355.863" y1="457.894" x2="1355.863" y2="475.527" gradientTransform="matrix(-1 .0074 .0074 1 1817.511 22.522)"><stop offset=".118" stop-color="#bba799"/><stop offset=".218" stop-color="#af9c8f"/><stop offset=".398" stop-color="#8f7f75"/><stop offset=".638" stop-color="#5b514a"/><stop offset=".926" stop-color="#131110"/><stop offset="1"/></linearGradient><path d="M477 490.9c-1.3 5.7-5.5 9.5-10.9 9.7-5.7.3-10.5-2.8-13-10.6 4.4 5.9 15.3 10.9 23.9.9z" fill="url(#SVGID_70_)"/><path d="M464.7 471.2c4.9-.2 9.1 4.8 9.4 11.2s-3.5 11.8-8.4 12c-4.9.2-9.1-4.8-9.4-11.2-.3-6.4 3.5-11.7 8.4-12z"/><linearGradient id="SVGID_71_" gradientUnits="userSpaceOnUse" x1="1346.531" y1="450.404" x2="1355.496" y2="436.629" gradientTransform="matrix(-1 .0074 .0074 1 1817.511 22.522)"><stop offset="0" stop-color="#fff"/><stop offset="1"/></linearGradient><path d="M468.9 468.7c3.5-.2 6.5 2.6 6.6 6.1.2 3.5-2.6 6.5-6.1 6.7-3.5.2-6.5-2.6-6.6-6.1-.1-3.5 2.6-6.5 6.1-6.7z" opacity=".6" fill="url(#SVGID_71_)"/><path class="st2" d="M469.7 468.7c2.7-.1 5 2 5.1 4.7.1 2.7-2 5-4.7 5.1-2.7.1-5-2-5.1-4.7-.1-2.7 2-5 4.7-5.1zM469 490.2c1.1 0 2 .8 2 1.8 0 1.1-.8 2-1.8 2-1.1 0-2-.8-2-1.8-.1-1 .8-1.9 1.8-2z"/></g><g><radialGradient id="SVGID_72_" cx="319.267" cy="504.463" r="331.559" gradientTransform="matrix(1 0 0 1.0083 0 -.41)" gradientUnits="userSpaceOnUse"><stop offset="0" stop-color="#dbdbdb"/><stop offset=".565" stop-color="#bfbfbf"/><stop offset=".758" stop-color="#b7b7b7"/><stop offset="1" stop-color="#a6a6a6"/></radialGradient><path d="M302.1 573.4s29.1 59.1 18.7 106.9c-6.2 28.4-9.7 53-45.1 64.1-23 7.2-49.4 3.7-73.1.3-38.8-5.6-50.3 2.4-50.3 2.4s-15.9-11.3-28.5-1.5c-9.3 7.2-5 21.6 9 26.1 11.4 3.7 14.2 12 17.7 20.7 4.8 11.8 25.4 10.5 26.2-12.4 19.9 6 80.3 27.7 143.7 18.9 44.6-6.2 67.8-25 86.5-52.8 41.3-61.2 31.1-151.7 55.7-178.6 0 0-33-24.3-82.9-24.3-49.3.1-77.6 30.2-77.6 30.2z" fill="url(#SVGID_72_)"/><linearGradient id="SVGID_73_" gradientUnits="userSpaceOnUse" x1="335.675" y1="716.371" x2="436.581" y2="818.579"><stop offset="0" stop-color="#bfbfbf"/><stop offset=".445" stop-color="#b7b7b7"/><stop offset="1" stop-color="#a6a6a6"/></linearGradient><path d="M363.2 753.4c-46.4 31.5-105.4 34.9-199.5 7.4 2.6 6.6 8.3 30.2-15.2 27 .6 1.5 1.3 3.1 1.9 4.7 4.8 11.8 25.4 10.5 26.2-12.4 19.9 6 80.3 27.7 143.7 18.9 44.6-6.2 67.8-25 86.5-52.8 38.1-56.5 32.5-137.8 50.7-171.2-30.4 25.6-30.5 135.1-94.3 178.4z" opacity=".7" fill="url(#SVGID_73_)"/><path class="st6" d="M289.4 802.9c-46.3 0-87.5-12.9-107.2-19.1-1.4-.4-2.7-.8-3.8-1.2-1.3 12.2-8.1 17.8-14.4 18.9-6.6 1.2-12.9-2.2-15.4-8.3l-.6-1.4c-3.2-8-6-15-15.9-18.2-8.1-2.6-13.8-8.6-15-15.7-.9-5.4 1.1-10.5 5.5-13.9 11.9-9.2 25.9-1.7 29.8.8 3.9-1.9 17.6-6.8 50.5-2.1 21.8 3.1 49 7.1 72.2-.2 32.5-10.1 37.1-31.4 42.8-58.3l.9-4.4c5.7-26.3-.8-56.5-7.7-77.8-5.3-16.4-7.4-29.6-7.4-29.6 1.2 2.4 29.3 60.2 18.9 108.2l-.9 4.4c-5.8 27-10.8 50.4-45.5 61.2-24.1 7.5-51.7 3.5-73.9.3-37.2-5.3-48.8 2-48.9 2.1l-1.1.7-1.1-.8c-.1-.1-14.9-10.3-26.2-1.6-3.3 2.5-4.7 6.1-4 10.1 1 5.6 5.7 10.4 12.4 12.6 11.6 3.8 15 12.3 18.3 20.5l.6 1.4c1.8 4.4 6.3 6.8 11.1 6 5.2-.9 10.9-6.1 11.4-17.7l.1-2.5 2.4.7c1.8.5 3.8 1.2 6.2 1.9 23.7 7.5 79.2 24.9 136.6 16.9 39.3-5.5 64-20.5 85.2-51.9 22.7-33.6 29.6-75.4 35.6-112.3 4.8-29 8.9-54.1 20.2-66.5 0 0-6.8 19.3-9.8 32.1-2.5 10.4-4.5 22.3-6.6 35.1-5.8 35.4-13.1 79.5-36.3 113.8-21.9 32.4-47.3 48-87.9 53.6-10.4 1.6-20.8 2.2-31.1 2.2z"/></g><g><path class="st6" d="M162.4 758c-.1-.1-9-9-17.1-12.6l1.6-3.6c8.8 3.9 15.5 16.2 15.5 16.2z"/></g><path class="st6" d="M335.7 579.6s1.1-1.2 3.4-2.9c2.3-1.6 5.5-4.1 9.9-6.3 4.3-2.3 9.5-4.6 15.4-6.3 5.9-1.7 12.3-2.8 18.9-3.1 3.3-.3 6.5.1 9.7.1 3.2.2 6.3.8 9.3 1.2 3 .5 5.8 1.5 8.5 2.2 2.7.6 5.1 1.8 7.4 2.6 2.3.9 4.4 1.6 6 2.7 1.7.9 3.2 1.8 4.5 2.5 2.4 1.4 3.8 2.2 3.8 2.2s-1.5-.5-4.2-1.5c-1.3-.5-2.9-1.1-4.7-1.8-1.8-.8-3.9-1.2-6.2-1.9-2.3-.6-4.7-1.6-7.4-2-2.7-.4-5.4-1.1-8.4-1.5-2.9-.3-5.9-.7-9-.8-3.1 0-6.2-.3-9.3 0-6.2.2-12.4 1.2-18.2 2.5-5.7 1.4-11 3-15.4 4.9-8.6 3.6-14 7.2-14 7.2zM344.9 613.9s4.1-3.1 11.2-6.3c3.6-1.5 7.7-3.3 12.5-4.5 4.7-1.3 9.8-2.1 15.1-2.5 2.6 0 5.2-.2 7.8.1 2.6.2 5.1.4 7.5 1.1 2.4.5 4.7 1 6.8 2 2.1.8 4.1 1.5 5.8 2.5 1.7.9 3.3 1.8 4.6 2.6 1.2 1 2.3 1.8 3.2 2.6 1.7 1.4 2.7 2.3 2.7 2.3s-1.1-.6-3.1-1.6c-1-.5-2.1-1.2-3.5-1.9-1.4-.5-3.1-1.1-4.8-1.9-1.7-.8-3.7-1.2-5.7-1.8-2-.7-4.3-.9-6.6-1.3-2.3-.5-4.7-.5-7.1-.7-2.4-.3-4.9 0-7.4 0-9.9.5-19.7 2.9-26.9 5.1-7.4 2.3-12.1 4.2-12.1 4.2zM347.8 647s3.5-2.3 9.4-4.6c3-1 6.4-2.4 10.3-3.2 3.8-1 8-1.5 12.3-1.9 4.2-.2 8.5-.1 12.5.6 2 .4 3.9.7 5.6 1.4 1.7.6 3.4 1.1 4.8 1.8 2.9 1.3 5.1 2.8 6.6 4 1.4 1.1 2.3 1.8 2.3 1.8s-1-.4-2.6-1.1c-1.6-.9-4.1-1.6-6.9-2.5-1.4-.5-3.1-.7-4.8-1.1-1.7-.4-3.5-.4-5.4-.7-3.7-.3-7.8-.4-11.8-.1-8 .5-16.1 1.9-22.1 3.3-6.1 1.2-10.2 2.3-10.2 2.3zM350.8 680.7s2.6-2 7.1-3.9c2.3-.9 4.9-1.9 7.9-2.5 3-.7 6.3-1 9.6-1.1 3.3.1 6.6.3 9.6 1.2 3 .7 5.7 2 7.8 3.1 2.2 1.1 3.8 2.5 4.8 3.4 1.1.9 1.7 1.5 1.7 1.5s-.7-.3-2.1-.8c-1.2-.6-3.1-1.3-5.3-2-2.2-.8-4.8-1.4-7.6-1.8-2.8-.5-5.9-.7-8.9-.7-6.1-.1-12.2.9-16.9 1.8-4.5.9-7.7 1.8-7.7 1.8z"/></g></svg>