<?xml version="1.0" encoding="utf-8"?>
<!-- Generator: Adobe Illustrator 23.0.3, SVG Export Plug-In . SVG Version: 6.00 Build 0)  -->
<svg version="1.1" id="Vrstva_1" xmlns="http://www.w3.org/2000/svg" xmlns:xlink="http://www.w3.org/1999/xlink" x="0px" y="0px"
	 viewBox="0 0 1920 1080" style="enable-background:new 0 0 1920 1080;" xml:space="preserve">
<style type="text/css">
	.st0{fill:url(#SVGID_1_);}
	.st1{fill:#472E16;}
	.st2{fill:#FFFFFF;}
	.st3{opacity:0.7;fill:url(#SVGID_2_);}
	.st4{fill:url(#SVGID_3_);}
	.st5{opacity:0.7;fill:url(#SVGID_4_);}
	.st6{fill:#303030;}
	.st7{fill:url(#SVGID_5_);}
	.st8{opacity:0.7;fill:url(#SVGID_6_);}
	.st9{fill:url(#SVGID_7_);}
	.st10{fill:url(#SVGID_8_);}
	.st11{fill:#867867;}
	.st12{fill:url(#SVGID_9_);}
	.st13{fill:url(#SVGID_10_);}
	.st14{fill:url(#SVGID_11_);}
	.st15{fill:url(#SVGID_12_);}
	.st16{fill:url(#SVGID_13_);}
	.st17{fill:url(#SVGID_14_);}
	.st18{opacity:0.5;fill:url(#SVGID_15_);}
	.st19{fill:url(#SVGID_16_);}
	.st20{opacity:0.7;fill:url(#SVGID_17_);}
	.st21{fill:url(#SVGID_18_);}
	.st22{fill:url(#SVGID_19_);}
	.st23{fill:url(#SVGID_20_);}
	.st24{fill:url(#SVGID_21_);}
	.st25{fill:url(#SVGID_22_);}
	.st26{fill:url(#SVGID_23_);}
	.st27{fill:url(#SVGID_24_);}
	.st28{opacity:0.7;fill:url(#SVGID_25_);}
	.st29{fill:url(#SVGID_26_);}
	.st30{fill:url(#SVGID_27_);}
	.st31{fill:url(#SVGID_28_);}
	.st32{fill:url(#SVGID_29_);}
	.st33{fill:url(#SVGID_30_);}
	.st34{fill:url(#SVGID_31_);}
	.st35{fill:url(#SVGID_32_);}
	.st36{opacity:0.5;fill:url(#SVGID_33_);}
	.st37{fill:url(#SVGID_34_);}
	.st38{opacity:0.7;fill:url(#SVGID_35_);}
	.st39{fill:url(#SVGID_36_);}
	.st40{fill:url(#SVGID_37_);}
	.st41{fill:url(#SVGID_38_);}
	.st42{fill:url(#SVGID_39_);}
	.st43{fill:url(#SVGID_40_);}
	.st44{fill:url(#SVGID_41_);}
	.st45{fill:url(#SVGID_42_);}
	.st46{opacity:0.7;fill:url(#SVGID_43_);}
	.st47{opacity:0.7;fill:url(#SVGID_44_);}
	.st48{fill:#864344;}
	.st49{fill:url(#SVGID_45_);}
	.st50{opacity:0.7;fill:url(#SVGID_46_);}
	.st51{fill:url(#SVGID_47_);}
	.st52{opacity:0.7;fill:url(#SVGID_48_);}
	.st53{opacity:0.7;fill:url(#SVGID_49_);}
	.st54{fill:url(#SVGID_50_);}
	.st55{opacity:0.7;fill:url(#SVGID_51_);}
	.st56{fill:url(#SVGID_52_);}
	.st57{opacity:0.7;fill:url(#SVGID_53_);}
	.st58{fill:url(#SVGID_54_);}
	.st59{fill:url(#SVGID_55_);}
	.st60{fill:url(#SVGID_56_);}
	.st61{fill:url(#SVGID_57_);}
	.st62{fill:url(#SVGID_58_);}
	.st63{opacity:0.7;fill:url(#SVGID_59_);}
	.st64{opacity:0.7;fill:url(#SVGID_60_);}
	.st65{fill:url(#SVGID_61_);}
	.st66{fill:url(#SVGID_62_);}
	.st67{fill:#3F1B00;}
	.st68{fill:url(#SVGID_63_);}
	.st69{opacity:0.6;fill:url(#SVGID_64_);}
	.st70{fill:url(#SVGID_65_);}
	.st71{opacity:0.7;fill:url(#SVGID_66_);}
	.st72{opacity:0.7;fill:url(#SVGID_67_);}
	.st73{fill:url(#SVGID_68_);}
	.st74{fill:url(#SVGID_69_);}
	.st75{fill:url(#SVGID_70_);}
	.st76{opacity:0.6;fill:url(#SVGID_71_);}
	.st77{fill:url(#SVGID_72_);}
	.st78{opacity:0.7;fill:url(#SVGID_73_);}
</style>
<g>
	<g>
		<g>
			<linearGradient id="SVGID_1_" gradientUnits="userSpaceOnUse" x1="919.2486" y1="7.3659" x2="1215.002" y2="952.2083">
				<stop  offset="0" style="stop-color:#DBA76A"/>
				<stop  offset="0.5054" style="stop-color:#D6994F"/>
				<stop  offset="1" style="stop-color:#C07939"/>
			</linearGradient>
			<rect x="240.9" y="37" class="st0" width="1666.2" height="929.3"/>
			<path class="st1" d="M1910,969.3H237.9V34.1H1910V969.3z M243.8,963.4h1660.3V40H243.8V963.4z"/>
		</g>
		<g>
			<rect x="290" y="79" class="st2" width="1567.9" height="845.3"/>
			<linearGradient id="SVGID_2_" gradientUnits="userSpaceOnUse" x1="1225.1588" y1="-116.1719" x2="979.8052" y2="886.5132">
				<stop  offset="0" style="stop-color:#AEAEAE"/>
				<stop  offset="1" style="stop-color:#FFFFFF"/>
			</linearGradient>
			<polygon class="st3" points="1857.9,924.3 1855,921.4 1824.7,110.6 290.5,93.8 290,79 1857.9,79 			"/>
			<path class="st1" d="M1860.9,927.3H287.1V76.1h1573.8V927.3z M292.9,921.4H1855V82H292.9V921.4z"/>
		</g>
		<g>
			<polygon class="st1" points="1859.8,81.3 1856,76.8 1905.2,34.8 1909,39.3 			"/>
		</g>
		<g>
			<polygon class="st1" points="1905.2,968.6 1856,926.6 1859.8,922.1 1909,964.1 			"/>
		</g>
		<g>
			<polygon class="st1" points="288.1,81.3 239,39.3 242.8,34.8 291.9,76.8 			"/>
		</g>
	</g>
	<g>
		<g>
			
				<radialGradient id="SVGID_3_" cx="270.4525" cy="755.3681" r="310.6022" gradientTransform="matrix(1 0 0 1.0083 0 -0.4093)" gradientUnits="userSpaceOnUse">
				<stop  offset="0" style="stop-color:#DBDBDB"/>
				<stop  offset="0.5645" style="stop-color:#BFBFBF"/>
				<stop  offset="0.7583" style="stop-color:#B7B7B7"/>
				<stop  offset="1" style="stop-color:#A6A6A6"/>
			</radialGradient>
			<path class="st4" d="M493.8,620.7l-219.1,6.5l24.3,347c0,0,59.5,25.8,156.7-5.6C496.3,790.6,493.8,620.7,493.8,620.7z"/>
			<linearGradient id="SVGID_4_" gradientUnits="userSpaceOnUse" x1="380.0742" y1="939.5353" x2="383.3581" y2="1009.8097">
				<stop  offset="0" style="stop-color:#BFBFBF"/>
				<stop  offset="0.445" style="stop-color:#B7B7B7"/>
				<stop  offset="1" style="stop-color:#A6A6A6"/>
			</linearGradient>
			<path class="st5" d="M297.3,949l1.8,25.1c0,0,59.5,25.8,156.7-5.6c2.6-11.5,5.1-23,7.4-34.4C405.4,963.4,352.3,958.6,297.3,949z"
				/>
			<path class="st6" d="M362.8,986.1L362.8,986.1c-40.7,0-63.6-9.7-64.6-10.1l-1.1-0.5l-24.5-350.2l223.1-6.6l0,2
				c0,1.7,2.1,172.2-38.1,348.3l-0.2,1.1l-1.1,0.3C424.2,980.8,392.7,986.1,362.8,986.1z M300.9,972.8c5,1.9,27,9.4,61.9,9.4h0
				c29.1,0,59.8-5.1,91.2-15.1c37.5-165,37.9-324.7,37.8-344.3l-215.1,6.3L300.9,972.8z"/>
		</g>
		<g>
			<linearGradient id="SVGID_5_" gradientUnits="userSpaceOnUse" x1="190.7907" y1="830.3121" x2="245.8562" y2="990.5917">
				<stop  offset="0" style="stop-color:#DBDBDB"/>
				<stop  offset="0.5645" style="stop-color:#BFBFBF"/>
				<stop  offset="0.7583" style="stop-color:#B7B7B7"/>
				<stop  offset="1" style="stop-color:#A6A6A6"/>
			</linearGradient>
			<path class="st7" d="M285.3,831.9c0,0-133,30.7-172.6,44.7c20,31.8,68.5,145.6,68.5,145.6l114-62.1L285.3,831.9z"/>
			<linearGradient id="SVGID_6_" gradientUnits="userSpaceOnUse" x1="213.4712" y1="908.2366" x2="246.1048" y2="1004.1599">
				<stop  offset="0" style="stop-color:#BFBFBF"/>
				<stop  offset="0.445" style="stop-color:#B7B7B7"/>
				<stop  offset="1" style="stop-color:#A6A6A6"/>
			</linearGradient>
			<path class="st8" d="M159.1,971.8c12.4,27.9,22.1,50.5,22.1,50.5l114-62.1l-3.5-44.9L159.1,971.8z"/>
			<path class="st6" d="M180.3,1025l-0.8-2c-0.5-1.1-48.7-114.1-68.4-145.4l-1.3-2.1l2.3-0.8c39.3-13.8,171.5-44.4,172.8-44.7
				l2.2-0.5l10.2,131.8L180.3,1025z M115.7,877.6c19,31.6,60.1,126.9,66.5,141.8l111-60.5l-9.7-124.7
				C266.4,838.3,154.3,864.6,115.7,877.6z"/>
		</g>
		<g>
			<g>
				<linearGradient id="SVGID_7_" gradientUnits="userSpaceOnUse" x1="136.1942" y1="867.3935" x2="152.3675" y2="895.8193">
					<stop  offset="5.376340e-03" style="stop-color:#FFF0DE"/>
					<stop  offset="0.265" style="stop-color:#FCEDD6"/>
					<stop  offset="0.6671" style="stop-color:#F3E4C0"/>
					<stop  offset="1" style="stop-color:#E9DAA9"/>
				</linearGradient>
				<path class="st9" d="M168.1,873.2c-0.3-6.6-10.9-9.7-10.9-9.7c-18.4,4.9-34.4,9.5-44.5,13.1c3.9,6.2,8.9,15.6,14.5,26.7
					c0,0,0,0,0,0C153,891.6,168.4,879.7,168.1,873.2z"/>
				<linearGradient id="SVGID_8_" gradientUnits="userSpaceOnUse" x1="138.7307" y1="869.9802" x2="148.2309" y2="890.9462">
					<stop  offset="0" style="stop-color:#F8E9CC"/>
					<stop  offset="0.7368" style="stop-color:#E2D0B7"/>
					<stop  offset="1" style="stop-color:#D9C6AF"/>
				</linearGradient>
				<path class="st10" d="M115.7,881.6c2.2,4.1,9.1,16.9,11.5,21.7l0,0c25.9-11.7,41.2-23.6,40.9-30.1c-0.1-1.4-2-5.2-2.8-6.2
					C151.9,879.5,134.8,880.6,115.7,881.6z"/>
				<path class="st11" d="M126.3,905.8l-0.8-1.7c-6-11.9-10.8-20.8-14.4-26.5l-1.3-2.1l2.3-0.8c9.1-3.2,24.2-7.6,44.6-13.1l0.5-0.1
					l0.5,0.2c2,0.6,12,4.1,12.3,11.5c0.4,9.4-21.5,22.7-42.1,32L126.3,905.8z M115.7,877.6c3.3,5.5,7.5,13.3,12.4,23.1
					c28.2-12.9,38.2-23.5,38.1-27.5c-0.2-3.8-5.7-6.6-9-7.7C138.7,870.5,124.8,874.6,115.7,877.6z"/>
			</g>
		</g>
		<g>
			<linearGradient id="SVGID_9_" gradientUnits="userSpaceOnUse" x1="157.3637" y1="881.1069" x2="173.5697" y2="912.0455">
				<stop  offset="5.376340e-03" style="stop-color:#FFF0DE"/>
				<stop  offset="0.265" style="stop-color:#FCEDD6"/>
				<stop  offset="0.6671" style="stop-color:#F3E4C0"/>
				<stop  offset="1" style="stop-color:#E9DAA9"/>
			</linearGradient>
			<path class="st12" d="M146,894c0,0,33.1-16,44.4-8.4c11.3,7.6-23,38.2-23,38.2l-23.4-8.3L146,894z"/>
			<linearGradient id="SVGID_10_" gradientUnits="userSpaceOnUse" x1="163.6645" y1="891.3168" x2="177.3892" y2="913.8645">
				<stop  offset="0" style="stop-color:#F8E9CC"/>
				<stop  offset="0.7368" style="stop-color:#E2D0B7"/>
				<stop  offset="1" style="stop-color:#D9C6AF"/>
			</linearGradient>
			<path class="st13" d="M143.9,909.3l23.4,14.5c0,0,31.7-28.4,23.9-37.2C181,897.1,162.8,906.3,143.9,909.3z"/>
			<path class="st11" d="M167.8,926l-26-9.2l2.4-24.1l1-0.5c0.9-0.4,22.2-10.6,36.7-10.6c4,0,7.3,0.8,9.6,2.4c1.9,1.3,3,3.2,3.1,5.5
				c0.8,11.6-23.2,33.4-25.9,35.8L167.8,926z M146,914.1l20.9,7.4c7.5-6.9,24.3-23.9,23.8-31.8c-0.1-1.1-0.5-1.9-1.4-2.5
				c-1.7-1.1-4.2-1.7-7.4-1.7c-11.9,0-29.7,7.8-34,9.8L146,914.1z"/>
		</g>
		<g>
			<linearGradient id="SVGID_11_" gradientUnits="userSpaceOnUse" x1="176.1967" y1="917.9574" x2="191.9383" y2="950.9164">
				<stop  offset="5.376340e-03" style="stop-color:#FFF0DE"/>
				<stop  offset="0.265" style="stop-color:#FCEDD6"/>
				<stop  offset="0.6671" style="stop-color:#F3E4C0"/>
				<stop  offset="1" style="stop-color:#E9DAA9"/>
			</linearGradient>
			<path class="st14" d="M167.4,923.8c0,0,26-16.8,36.8-5.6c8.7,9.1-23.1,39.7-23.1,39.7l-19.9-12L167.4,923.8z"/>
			<linearGradient id="SVGID_12_" gradientUnits="userSpaceOnUse" x1="177.1869" y1="922.2961" x2="193.3296" y2="949.9694">
				<stop  offset="0" style="stop-color:#F8E9CC"/>
				<stop  offset="0.7368" style="stop-color:#E2D0B7"/>
				<stop  offset="1" style="stop-color:#D9C6AF"/>
			</linearGradient>
			<path class="st15" d="M203.4,917.4c-10.7,16.7-42.1,28.3-42.1,28.3l19.9,12c0,0,31.8-30.6,23.1-39.7
				C203.9,917.9,203.6,917.7,203.4,917.4z"/>
			<path class="st11" d="M181.4,960.3L159,946.7l6.7-24.2l0.6-0.4c0.6-0.4,15.3-9.8,27.6-9.8c4.9,0,8.8,1.5,11.7,4.4
				c1.4,1.5,2.1,3.4,2.1,5.7c-0.2,12.4-22.6,34.3-25.2,36.8L181.4,960.3z M163.5,944.8l17.3,10.5c7.2-7.2,22.8-24.3,22.9-33
				c0-1.2-0.3-2.2-1-2.9c-2.1-2.1-5.1-3.2-8.9-3.2c-9.8,0-22,7-24.9,8.8L163.5,944.8z"/>
		</g>
		<g>
			<linearGradient id="SVGID_13_" gradientUnits="userSpaceOnUse" x1="101.109" y1="863.6594" x2="167.9694" y2="1031.7935">
				<stop  offset="0" style="stop-color:#A6A6A6"/>
				<stop  offset="1" style="stop-color:#7D7D7D"/>
			</linearGradient>
			<path class="st16" d="M174.7,939.2c18,42.6,15.3,83.2-5.4,91.4c-20.2,8-50.6-18-68.6-58.6c-18.4-41.4-17.5-83.4,2.7-93.4
				C124,868.4,156.3,895.8,174.7,939.2z"/>
			<linearGradient id="SVGID_14_" gradientUnits="userSpaceOnUse" x1="128.8053" y1="1014.1365" x2="129.0146" y2="1014.6628">
				<stop  offset="0" style="stop-color:#A6A6A6"/>
				<stop  offset="1" style="stop-color:#7D7D7D"/>
			</linearGradient>
			<path class="st17" d="M128.6,1014.2c0.1,0.1,0.3,0.3,0.4,0.4l0-0.3C128.9,1014.3,128.8,1014.3,128.6,1014.2z"/>
			<linearGradient id="SVGID_15_" gradientUnits="userSpaceOnUse" x1="147.1864" y1="959.4269" x2="214.3746" y2="990.8141">
				<stop  offset="0" style="stop-color:#A6A6A6"/>
				<stop  offset="1" style="stop-color:#7D7D7D"/>
			</linearGradient>
			<path class="st18" d="M174.7,939.2c-10.4-24.5-25.2-43.9-39.9-54.3l-0.7,1.1c34,24.8,64.5,167.2-5.1,128.4l0,0.3
				c14,13.9,28.8,20.5,40.3,15.9C190,1022.4,192.8,981.8,174.7,939.2z"/>
			<path class="st6" d="M161.6,1034c-20.9,0-46.6-25.2-62.6-61.2c-19.2-43.3-17.7-85.5,3.6-96c3.1-1.6,6.6-2.3,10.3-2.3
				c21.6,0,47.8,26.3,63.7,64c12.6,29.8,15.7,59.9,8,78.5c-3.2,7.6-8.2,13-14.4,15.4C167.4,1033.5,164.6,1034,161.6,1034z
				 M112.8,878.4c-3.1,0-5.9,0.7-8.5,1.9c-19,9.4-19.8,50.2-1.7,90.8c15.2,34.1,40,58.9,59.1,58.9c2.5,0,4.9-0.4,7.1-1.3
				c5.3-2.1,9.4-6.6,12.2-13.3c7.2-17.4,4.1-47-8-75.5C157.8,904.3,132.5,878.4,112.8,878.4z"/>
		</g>
		<g>
			
				<radialGradient id="SVGID_16_" cx="270.4529" cy="755.3684" r="310.6023" gradientTransform="matrix(1 0 0 1.0083 0 -0.4093)" gradientUnits="userSpaceOnUse">
				<stop  offset="0" style="stop-color:#DBDBDB"/>
				<stop  offset="0.5645" style="stop-color:#BFBFBF"/>
				<stop  offset="0.7583" style="stop-color:#B7B7B7"/>
				<stop  offset="1" style="stop-color:#A6A6A6"/>
			</radialGradient>
			<path class="st19" d="M354.8,811.6l-80.1-184.4c0,0-100.6,81-38.4,370.8c0,0,72.1,16.6,125.8-5.6
				C367.5,982.1,350.9,879.8,354.8,811.6z"/>
			<linearGradient id="SVGID_17_" gradientUnits="userSpaceOnUse" x1="303.8938" y1="902.7747" x2="378.724" y2="912.5564">
				<stop  offset="0" style="stop-color:#BFBFBF"/>
				<stop  offset="0.445" style="stop-color:#B7B7B7"/>
				<stop  offset="1" style="stop-color:#A6A6A6"/>
			</linearGradient>
			<path class="st20" d="M356.7,811.7c-7.7,27.3-23.1,60.5-27.9,103.5c-2.3,21.4-1.5,70.8-10.1,87.5c13.1-1.7,31.1-5.3,43.3-10.3
				C367.4,982.2,353.6,879.9,356.7,811.7z"/>
			<path class="st6" d="M294.6,1005.8c-32.3,0-58.3-5.8-58.7-5.9l-1.2-0.3l-0.3-1.2c-61.7-287.6,38.1-371.9,39.1-372.8l2.4,3.1
				c-1,0.8-98.5,83.7-38,367.6c9.6,2,74,14.2,122.6-5.4c1.7-5.5-0.4-29.8-2.6-55.5c-1.6-18.1-3.1-38.3-4.5-58.6
				c-2.2-34,3.2-65.1,3.2-65.1c-2.2,37.8,1.9,85.2,5.2,123.3c3,35,4.4,53.4,1.9,58.3l-0.3,0.6l-0.7,0.3
				C341.2,1003.1,316.4,1005.8,294.6,1005.8z"/>
		</g>
		<g>
			<g>
				<linearGradient id="SVGID_18_" gradientUnits="userSpaceOnUse" x1="279.2769" y1="980.5845" x2="318.751" y2="980.5845">
					<stop  offset="5.376340e-03" style="stop-color:#FFF0DE"/>
					<stop  offset="0.265" style="stop-color:#FCEDD6"/>
					<stop  offset="0.6671" style="stop-color:#F3E4C0"/>
					<stop  offset="1" style="stop-color:#E9DAA9"/>
				</linearGradient>
				<path class="st21" d="M296.9,957.3c-17.3,1.2-17.6,41.9-17.6,46.2c12,0.7,25.6,0.6,39.5-0.8
					C317.1,989.7,311.5,956.2,296.9,957.3z"/>
				<linearGradient id="SVGID_19_" gradientUnits="userSpaceOnUse" x1="294.0999" y1="978.989" x2="314.6568" y2="983.8834">
					<stop  offset="0" style="stop-color:#F8E9CC"/>
					<stop  offset="0.7368" style="stop-color:#E2D0B7"/>
					<stop  offset="1" style="stop-color:#D9C6AF"/>
				</linearGradient>
				<path class="st22" d="M296.9,957.3c-0.3,0-0.5,0.1-0.8,0.2c4,14.1,5.6,30.5,6.2,46.3c5.4-0.2,10.9-0.5,16.5-1
					C317.1,989.7,311.5,956.2,296.9,957.3z"/>
				<path class="st11" d="M294.4,1005.9L294.4,1005.9c-5,0-10.1-0.1-15.2-0.4l-1.8-0.1l0-1.9c0-7.8,0.8-46.8,19.4-48.2
					c0.3,0,0.5,0,0.8,0c15,0,21,29.6,23.2,47.2l0.2,2l-2,0.2C311.1,1005.5,302.9,1005.9,294.4,1005.9z M281.2,1001.6
					c4.4,0.2,8.8,0.3,13.1,0.3l0,0c7.6,0,15.1-0.3,22.2-1c-2.8-20.5-9.1-41.7-19-41.7l-0.5,0C284.9,960.1,281.4,985.4,281.2,1001.6z
					"/>
			</g>
		</g>
		<g>
			<g>
				<linearGradient id="SVGID_20_" gradientUnits="userSpaceOnUse" x1="239.5049" y1="981.825" x2="278.4298" y2="981.825">
					<stop  offset="5.376340e-03" style="stop-color:#FFF0DE"/>
					<stop  offset="0.265" style="stop-color:#FCEDD6"/>
					<stop  offset="0.6671" style="stop-color:#F3E4C0"/>
					<stop  offset="1" style="stop-color:#E9DAA9"/>
				</linearGradient>
				<path class="st23" d="M256.8,960.2c-13.3,1-16.5,25.3-17.3,38.4c6.1,1.2,20.7,3.8,38.9,4.8C276.5,989.2,270.7,959.2,256.8,960.2
					z"/>
				<linearGradient id="SVGID_21_" gradientUnits="userSpaceOnUse" x1="253.9546" y1="979.9216" x2="272.9203" y2="983.6573">
					<stop  offset="0" style="stop-color:#F8E9CC"/>
					<stop  offset="0.7368" style="stop-color:#E2D0B7"/>
					<stop  offset="1" style="stop-color:#D9C6AF"/>
				</linearGradient>
				<path class="st24" d="M257,960.2c5.1,8.5,6.1,34.8,4.7,41.8c5.7,0.7,9.7,1,16.7,1.4C276.5,989.3,270.8,959.6,257,960.2z"/>
				<path class="st11" d="M280.7,1005.5l-2.4-0.1c-18.7-1.1-33.6-3.8-39.2-4.8l-1.7-0.3l0.1-1.7c0.9-14.6,4.5-39.2,19.1-40.3
					c0.3,0,0.5,0,0.8,0c14.6,0,20.6,28.2,22.9,44.9L280.7,1005.5z M241.6,997c6.1,1.2,18.9,3.3,34.6,4.3
					c-3.6-24.6-10.6-39.2-18.7-39.2l-0.5,0C245.5,963,242.4,985.6,241.6,997z"/>
			</g>
			<g>
				<linearGradient id="SVGID_22_" gradientUnits="userSpaceOnUse" x1="319.4282" y1="982.0893" x2="356.7458" y2="982.0893">
					<stop  offset="5.376340e-03" style="stop-color:#FFF0DE"/>
					<stop  offset="0.265" style="stop-color:#FCEDD6"/>
					<stop  offset="0.6671" style="stop-color:#F3E4C0"/>
					<stop  offset="1" style="stop-color:#E9DAA9"/>
				</linearGradient>
				<path class="st25" d="M336.9,961.6c-14.3,1-17,29-17.5,41.1c12.6-1.3,25.3-4,37.3-8.3C353.8,979.5,347.9,960.8,336.9,961.6z"/>
				<linearGradient id="SVGID_23_" gradientUnits="userSpaceOnUse" x1="329.1858" y1="980.3786" x2="351.8792" y2="979.8906">
					<stop  offset="0" style="stop-color:#F8E9CC"/>
					<stop  offset="0.7368" style="stop-color:#E2D0B7"/>
					<stop  offset="1" style="stop-color:#D9C6AF"/>
				</linearGradient>
				<path class="st26" d="M336.9,961.6c-0.3,0-0.6,0.1-0.9,0.2c3.6,7.5,7,22.3,5.6,37c5.1-1.2,10.2-2.7,15.2-4.4
					C353.8,979.5,347.9,960.8,336.9,961.6z"/>
				<path class="st11" d="M317.4,1004.8l0.1-2.3c0.6-15.6,4-41.9,19.3-42.9c9.9-0.9,17.3,10.9,21.9,34.3l0.3,1.7l-1.6,0.6
					c-11.5,4.1-24.2,7-37.8,8.4L317.4,1004.8z M337.6,963.5l-0.5,0c-12.1,0.9-14.9,26.1-15.5,36.9c11.8-1.4,22.9-3.9,33-7.4
					C350.5,974,344.5,963.5,337.6,963.5z"/>
			</g>
		</g>
		<g>
			
				<linearGradient id="SVGID_24_" gradientUnits="userSpaceOnUse" x1="1130.3346" y1="825.8409" x2="1185.3994" y2="986.1191" gradientTransform="matrix(-1 0 0 1 1711.507 0)">
				<stop  offset="0" style="stop-color:#DBDBDB"/>
				<stop  offset="0.5645" style="stop-color:#BFBFBF"/>
				<stop  offset="0.7583" style="stop-color:#B7B7B7"/>
				<stop  offset="1" style="stop-color:#A6A6A6"/>
			</linearGradient>
			<path class="st27" d="M486.7,827.4c0,0,133,30.7,172.6,44.7c-20,31.8-68.5,145.6-68.5,145.6l-114-62.1L486.7,827.4z"/>
			
				<linearGradient id="SVGID_25_" gradientUnits="userSpaceOnUse" x1="1153.0146" y1="903.7635" x2="1185.6486" y2="999.6873" gradientTransform="matrix(-1 0 0 1 1711.507 0)">
				<stop  offset="0" style="stop-color:#BFBFBF"/>
				<stop  offset="0.445" style="stop-color:#B7B7B7"/>
				<stop  offset="1" style="stop-color:#A6A6A6"/>
			</linearGradient>
			<path class="st28" d="M612.8,967.3c-12.4,27.9-22.1,50.5-22.1,50.5l-114-62.1l3.5-44.9L612.8,967.3z"/>
			<path class="st6" d="M474.7,956.8L484.9,825l2.2,0.5c1.3,0.3,133.5,30.9,172.8,44.7l2.3,0.8l-1.3,2.1
				c-19.7,31.3-67.9,144.2-68.4,145.4l-0.8,2L474.7,956.8z M488.4,829.9l-9.7,124.7l111,60.5c6.4-15,47.5-110.2,66.5-141.8
				C617.6,860.1,505.6,833.9,488.4,829.9z"/>
		</g>
		<g>
			<g>
				
					<linearGradient id="SVGID_26_" gradientUnits="userSpaceOnUse" x1="1075.738" y1="862.9223" x2="1091.9115" y2="891.3483" gradientTransform="matrix(-1 0 0 1 1711.507 0)">
					<stop  offset="5.376340e-03" style="stop-color:#FFF0DE"/>
					<stop  offset="0.265" style="stop-color:#FCEDD6"/>
					<stop  offset="0.6671" style="stop-color:#F3E4C0"/>
					<stop  offset="1" style="stop-color:#E9DAA9"/>
				</linearGradient>
				<path class="st29" d="M603.9,868.7c0.3-6.6,10.9-9.7,10.9-9.7c18.4,4.9,34.4,9.5,44.5,13.1c-3.9,6.2-8.9,15.6-14.5,26.7l0,0
					C618.9,887.2,603.6,875.3,603.9,868.7z"/>
				
					<linearGradient id="SVGID_27_" gradientUnits="userSpaceOnUse" x1="1078.2748" y1="865.5076" x2="1087.7748" y2="886.4731" gradientTransform="matrix(-1 0 0 1 1711.507 0)">
					<stop  offset="0" style="stop-color:#F8E9CC"/>
					<stop  offset="0.7368" style="stop-color:#E2D0B7"/>
					<stop  offset="1" style="stop-color:#D9C6AF"/>
				</linearGradient>
				<path class="st30" d="M656.3,877.1c-2.2,4.1-9.1,16.9-11.5,21.7l0,0c-25.9-11.7-41.2-23.6-40.9-30.1c0.1-1.4,2-5.2,2.8-6.2
					C620,875,637.2,876.1,656.3,877.1z"/>
				<path class="st11" d="M644,900.6c-20.6-9.3-42.5-22.6-42.1-32c0.3-7.4,10.3-10.9,12.3-11.5l0.5-0.2l0.5,0.1
					c20.5,5.5,35.5,9.9,44.6,13.1l2.3,0.8l-1.3,2.1c-3.6,5.7-8.4,14.6-14.4,26.5l-0.8,1.7L644,900.6z M614.8,861.1
					c-3.3,1.1-8.9,3.9-9,7.7c-0.2,4,9.9,14.5,38.1,27.5c4.9-9.8,9.1-17.6,12.4-23.1C647.2,870.1,633.3,866,614.8,861.1z"/>
			</g>
		</g>
		<g>
			
				<linearGradient id="SVGID_28_" gradientUnits="userSpaceOnUse" x1="1096.9072" y1="876.636" x2="1113.1127" y2="907.5737" gradientTransform="matrix(-1 0 0 1 1711.507 0)">
				<stop  offset="5.376340e-03" style="stop-color:#FFF0DE"/>
				<stop  offset="0.265" style="stop-color:#FCEDD6"/>
				<stop  offset="0.6671" style="stop-color:#F3E4C0"/>
				<stop  offset="1" style="stop-color:#E9DAA9"/>
			</linearGradient>
			<path class="st31" d="M625.9,889.5c0,0-33.1-16-44.4-8.4c-11.3,7.6,23,38.2,23,38.2L628,911L625.9,889.5z"/>
			
				<linearGradient id="SVGID_29_" gradientUnits="userSpaceOnUse" x1="1103.2079" y1="886.8437" x2="1116.933" y2="909.392" gradientTransform="matrix(-1 0 0 1 1711.507 0)">
				<stop  offset="0" style="stop-color:#F8E9CC"/>
				<stop  offset="0.7368" style="stop-color:#E2D0B7"/>
				<stop  offset="1" style="stop-color:#D9C6AF"/>
			</linearGradient>
			<path class="st32" d="M628,904.8l-23.4,14.5c0,0-31.7-28.4-23.9-37.2C591,892.6,609.1,901.8,628,904.8z"/>
			<path class="st11" d="M603.3,920.8c-2.7-2.4-26.7-24.2-25.9-35.8c0.2-2.3,1.2-4.2,3.1-5.5c2.3-1.6,5.6-2.4,9.6-2.4
				c14.5,0,35.8,10.2,36.7,10.6l1,0.5l2.4,24.1l-26,9.2L603.3,920.8z M624.1,890.8c-4.4-2-22.1-9.8-34-9.8c-3.2,0-5.7,0.6-7.4,1.7
				c-0.9,0.6-1.3,1.4-1.4,2.5c-0.5,7.9,16.2,25,23.8,31.8l20.9-7.4L624.1,890.8z"/>
		</g>
		<g>
			
				<linearGradient id="SVGID_30_" gradientUnits="userSpaceOnUse" x1="1115.7406" y1="913.4849" x2="1131.4822" y2="946.4439" gradientTransform="matrix(-1 0 0 1 1711.507 0)">
				<stop  offset="5.376340e-03" style="stop-color:#FFF0DE"/>
				<stop  offset="0.265" style="stop-color:#FCEDD6"/>
				<stop  offset="0.6671" style="stop-color:#F3E4C0"/>
				<stop  offset="1" style="stop-color:#E9DAA9"/>
			</linearGradient>
			<path class="st33" d="M604.6,919.3c0,0-26-16.8-36.8-5.6c-8.7,9.1,23.1,39.7,23.1,39.7l19.9-12L604.6,919.3z"/>
			
				<linearGradient id="SVGID_31_" gradientUnits="userSpaceOnUse" x1="1116.7306" y1="917.8231" x2="1132.8733" y2="945.4962" gradientTransform="matrix(-1 0 0 1 1711.507 0)">
				<stop  offset="0" style="stop-color:#F8E9CC"/>
				<stop  offset="0.7368" style="stop-color:#E2D0B7"/>
				<stop  offset="1" style="stop-color:#D9C6AF"/>
			</linearGradient>
			<path class="st34" d="M568.6,913c10.7,16.7,42.1,28.3,42.1,28.3l-19.9,12c0,0-31.8-30.6-23.1-39.7
				C568,913.4,568.3,913.2,568.6,913z"/>
			<path class="st11" d="M589.5,954.8c-2.6-2.5-25-24.4-25.2-36.8c0-2.3,0.7-4.2,2.1-5.7c2.8-2.9,6.8-4.4,11.7-4.4
				c12.3,0,27,9.4,27.6,9.8l0.6,0.4l6.7,24.2l-22.4,13.6L589.5,954.8z M602.9,920.6c-2.9-1.7-15-8.8-24.9-8.8
				c-3.8,0-6.8,1.1-8.9,3.2c-0.7,0.7-1,1.6-1,2.9c0.2,8.6,15.7,25.8,22.9,33l17.3-10.5L602.9,920.6z"/>
		</g>
		<g>
			<linearGradient id="SVGID_32_" gradientUnits="userSpaceOnUse" x1="651.9698" y1="868.4381" x2="617.5358" y2="1031.7531">
				<stop  offset="0" style="stop-color:#A6A6A6"/>
				<stop  offset="1" style="stop-color:#7D7D7D"/>
			</linearGradient>
			<path class="st35" d="M597.2,934.7c-18,42.6-15.3,83.2,5.3,91.4c20.2,8,50.6-18,68.6-58.6c18.4-41.4,17.5-83.4-2.7-93.4
				C647.9,863.9,615.6,891.3,597.2,934.7z"/>
			<linearGradient id="SVGID_33_" gradientUnits="userSpaceOnUse" x1="637.0323" y1="953.4835" x2="679.4568" y2="1024.5197">
				<stop  offset="0" style="stop-color:#A6A6A6"/>
				<stop  offset="1" style="stop-color:#7D7D7D"/>
			</linearGradient>
			<path class="st36" d="M677.6,882.5c14.3,40.3-38.5,143-77.1,124.6c-8.9-4.3-13.2-17.1-14.4-31.4c-3,25.2,2.8,45,16.5,50.4
				c20.2,8,50.6-18,68.6-58.6C686.3,933.6,688.4,899.2,677.6,882.5z"/>
			<path class="st6" d="M601.9,1028c-6.2-2.5-11.2-7.8-14.4-15.4c-7.7-18.6-4.7-48.7,8-78.5c16-37.7,42.2-64,63.7-64
				c3.7,0,7.1,0.8,10.3,2.3c21.2,10.5,22.8,52.7,3.6,96c-16,36-41.8,61.2-62.6,61.2C607.4,1029.5,604.5,1029,601.9,1028z M599,935.5
				c-12.1,28.5-15.2,58.1-8,75.5c2.8,6.7,6.9,11.2,12.2,13.3c2.2,0.9,4.6,1.3,7.1,1.3c19.1,0,43.9-24.8,59.1-58.9
				c18.1-40.7,17.3-81.4-1.7-90.8c-2.6-1.3-5.5-1.9-8.5-1.9C639.4,873.9,614.2,899.8,599,935.5z"/>
		</g>
		<g>
			
				<radialGradient id="SVGID_34_" cx="270.4529" cy="755.3685" r="310.602" gradientTransform="matrix(1 0 0 1.0083 0 -0.4093)" gradientUnits="userSpaceOnUse">
				<stop  offset="0" style="stop-color:#DBDBDB"/>
				<stop  offset="0.5645" style="stop-color:#BFBFBF"/>
				<stop  offset="0.7583" style="stop-color:#B7B7B7"/>
				<stop  offset="1" style="stop-color:#A6A6A6"/>
			</radialGradient>
			<path class="st37" d="M493.8,620.7l-80.1,184.4c3.9,68.3-12.7,170.5-7.3,180.8c53.7,22.1,125.8,5.6,125.8,5.6
				C600.2,734.5,493.8,620.7,493.8,620.7z"/>
			<linearGradient id="SVGID_35_" gradientUnits="userSpaceOnUse" x1="484.0095" y1="808.9857" x2="634.6152" y2="820.7213">
				<stop  offset="0" style="stop-color:#BFBFBF"/>
				<stop  offset="0.445" style="stop-color:#B7B7B7"/>
				<stop  offset="1" style="stop-color:#A6A6A6"/>
			</linearGradient>
			<path class="st38" d="M493.8,620.7l-9.4,21.7c60.4,91.1,44.6,256.4-8.3,355c31.3-0.3,56.1-5.9,56.1-5.9
				C600.2,734.5,493.8,620.7,493.8,620.7z"/>
			<path class="st6" d="M474,999.4c-21.9,0-46.6-2.7-68.3-11.6l-0.7-0.3l-0.3-0.6c-2.5-4.9-1.1-23.3,1.9-58.3
				c3.3-38.1,7.3-85.5,5.2-123.3c0,0,5.1,35,3,67.3c-1.2,19.5-2.8,38.9-4.3,56.4c-2.2,25.7-4.3,50-2.6,55.5
				c48.8,19.7,113.3,7.4,122.7,5.4c66.3-252.1-37.2-366.7-38.2-367.8l2.8-2.7c1.1,1.1,106.4,117.5,38.9,372.7l-0.3,1.1l-1.1,0.3
				C532.2,993.5,506.2,999.4,474,999.4z"/>
		</g>
		<g>
			<g>
				<linearGradient id="SVGID_36_" gradientUnits="userSpaceOnUse" x1="449.1903" y1="972.1839" x2="485.6399" y2="976.4147">
					<stop  offset="5.376340e-03" style="stop-color:#FFF0DE"/>
					<stop  offset="0.265" style="stop-color:#FCEDD6"/>
					<stop  offset="0.6671" style="stop-color:#F3E4C0"/>
					<stop  offset="1" style="stop-color:#E9DAA9"/>
				</linearGradient>
				<path class="st39" d="M471.7,950.8c17.3,1.2,17.6,41.9,17.6,46.2c-12,0.7-25.6,0.6-39.5-0.8C451.4,983.2,457,949.8,471.7,950.8z
					"/>
				<linearGradient id="SVGID_37_" gradientUnits="userSpaceOnUse" x1="460.5031" y1="974.1069" x2="486.8621" y2="974.1069">
					<stop  offset="0" style="stop-color:#F8E9CC"/>
					<stop  offset="0.7368" style="stop-color:#E2D0B7"/>
					<stop  offset="1" style="stop-color:#D9C6AF"/>
				</linearGradient>
				<path class="st40" d="M471.7,950.8c-0.9-0.1-1.7,0-2.5,0.2c5.4,7.2,7.2,30.9,4.5,46.4c5.4,0,10.6-0.1,15.5-0.4
					C489.3,992.7,489,952.1,471.7,950.8z"/>
				<path class="st11" d="M474.2,999.4c-8.5,0-16.8-0.4-24.6-1.2l-2-0.2l0.2-2c2.2-17.9,8.3-48.3,24-47.1
					c18.6,1.3,19.4,40.4,19.4,48.2l0,1.9l-1.8,0.1C484.3,999.3,479.2,999.4,474.2,999.4z M452,994.5c11.1,1,23.1,1.3,35.3,0.7
					c-0.2-16.2-3.7-41.5-15.7-42.4l-0.5,0C461.1,952.8,454.8,973.9,452,994.5z"/>
			</g>
		</g>
		<g>
			<g>
				<linearGradient id="SVGID_38_" gradientUnits="userSpaceOnUse" x1="487.6368" y1="975.0394" x2="526.3621" y2="976.0157">
					<stop  offset="5.376340e-03" style="stop-color:#FFF0DE"/>
					<stop  offset="0.265" style="stop-color:#FCEDD6"/>
					<stop  offset="0.6671" style="stop-color:#F3E4C0"/>
					<stop  offset="1" style="stop-color:#E9DAA9"/>
				</linearGradient>
				<path class="st41" d="M511.7,953.8c13.3,1,16.5,25.3,17.3,38.4c-6.1,1.2-20.7,3.8-38.9,4.8C492.1,982.8,497.8,952.8,511.7,953.8
					z"/>
				<linearGradient id="SVGID_39_" gradientUnits="userSpaceOnUse" x1="501.1043" y1="972.9387" x2="525.5422" y2="975.2195">
					<stop  offset="0" style="stop-color:#F8E9CC"/>
					<stop  offset="0.7368" style="stop-color:#E2D0B7"/>
					<stop  offset="1" style="stop-color:#D9C6AF"/>
				</linearGradient>
				<path class="st42" d="M511.7,953.8c-0.7-0.1-1.5,0-2.2,0.1c6,14.3,7,27.4,6,40.5c5.2-0.8,10.9-1.8,13.5-2.3
					C528.3,979.1,525,954.7,511.7,953.8z"/>
				<path class="st11" d="M487.9,999.1l0.3-2.4c2.3-17.1,8.6-46.1,23.7-44.9c14.6,1,18.3,25.7,19.1,40.2l0.1,1.7l-1.7,0.3
					c-5.5,1.1-20.4,3.7-39.2,4.8L487.9,999.1z M511,955.7c-8.1,0-15,14.6-18.7,39.1c15.8-1,28.5-3.1,34.6-4.3
					c-0.8-11.4-3.9-34-15.4-34.8L511,955.7z"/>
			</g>
			<g>
				<linearGradient id="SVGID_40_" gradientUnits="userSpaceOnUse" x1="414.0465" y1="970.5629" x2="446.9279" y2="977.3996">
					<stop  offset="5.376340e-03" style="stop-color:#FFF0DE"/>
					<stop  offset="0.265" style="stop-color:#FCEDD6"/>
					<stop  offset="0.6671" style="stop-color:#F3E4C0"/>
					<stop  offset="1" style="stop-color:#E9DAA9"/>
				</linearGradient>
				<path class="st43" d="M431.7,955.1c14.3,1,17,29,17.5,41.1c-12.6-1.3-25.3-4-37.3-8.3C414.7,973,420.6,954.3,431.7,955.1z"/>
				<linearGradient id="SVGID_41_" gradientUnits="userSpaceOnUse" x1="429.403" y1="973.7968" x2="448.6548" y2="977.7124">
					<stop  offset="0" style="stop-color:#F8E9CC"/>
					<stop  offset="0.7368" style="stop-color:#E2D0B7"/>
					<stop  offset="1" style="stop-color:#D9C6AF"/>
				</linearGradient>
				<path class="st44" d="M431.7,955.1c4.5,13,1.8,25.4,0,38.4c4.6,0.9,12.8,2.2,17.4,2.7C448.6,984.1,445.9,956.2,431.7,955.1z"/>
				<path class="st11" d="M451.2,998.4l-2.2-0.2c-13.6-1.5-26.3-4.3-37.8-8.4l-1.6-0.6l0.3-1.7c4.6-23.5,12.1-35.2,21.9-34.3
					c15.3,1.1,18.6,27.4,19.3,42.9L451.2,998.4z M414.1,986.6c10.1,3.5,21.2,6,33,7.4c-0.6-10.8-3.4-36-15.5-36.9l-0.5,0
					C424,957.1,418,967.5,414.1,986.6z"/>
			</g>
		</g>
		<g>
			<g>
				
					<linearGradient id="SVGID_42_" gradientUnits="userSpaceOnUse" x1="-340.2543" y1="650.6239" x2="-103.3167" y2="474.8317" gradientTransform="matrix(0.9996 2.900000e-02 -2.900000e-02 0.9996 396.4268 -34.021)">
					<stop  offset="0" style="stop-color:#FFA8A9"/>
					<stop  offset="0.3368" style="stop-color:#FFA0A1"/>
					<stop  offset="0.8589" style="stop-color:#FF8A8B"/>
					<stop  offset="1" style="stop-color:#FF8384"/>
				</linearGradient>
				<path class="st45" d="M243.5,650.3c0,0-37.5,44.8-101,35.3c-47.1-6.8-68.4-33.5-69.9-62c-1.5-28.5,7.2-49.7,2.1-93
					c-5.1-43.4-52.2-62.5-60.4-98.9c32-5.1,71.1-22,82.6-38.5c11.5-16.6,50.6-48.8,95.4-42.9c44.7,5.9,87.8,55.3,87.8,55.3
					s-19.2,85.4-33,144.1C229.7,623.5,243.5,650.3,243.5,650.3z"/>
				
					<linearGradient id="SVGID_43_" gradientUnits="userSpaceOnUse" x1="2024.9933" y1="364.8665" x2="2029.5295" y2="287.7504" gradientTransform="matrix(-0.9976 6.980000e-02 6.980000e-02 0.9976 2143.8513 -74.6707)">
					<stop  offset="0" style="stop-color:#FFA8A9"/>
					<stop  offset="0.3368" style="stop-color:#FFA0A1"/>
					<stop  offset="0.8589" style="stop-color:#FF8A8B"/>
					<stop  offset="1" style="stop-color:#FF8384"/>
				</linearGradient>
				<path class="st46" d="M106,420.3c-22.2,14.4-65.3,25.7-90.9,11.3c31.9-5.2,70.5-22,81.9-38.4c11.5-16.6,50.6-48.8,95.4-42.9
					c44.7,5.9,87.8,55.3,87.8,55.3s-7,31.4-15.7,69.1c-2.3-12-6.4-23.5-13.5-34.2C201.7,368.8,152.2,390.3,106,420.3z"/>
				
					<linearGradient id="SVGID_44_" gradientUnits="userSpaceOnUse" x1="2017.5128" y1="492.1693" x2="1865.1982" y2="492.1693" gradientTransform="matrix(-0.9976 6.980000e-02 6.980000e-02 0.9976 2143.8513 -74.6707)">
					<stop  offset="0" style="stop-color:#FFA8A9"/>
					<stop  offset="0.3368" style="stop-color:#FFA0A1"/>
					<stop  offset="0.8589" style="stop-color:#FF8A8B"/>
					<stop  offset="1" style="stop-color:#FF8384"/>
				</linearGradient>
				<path class="st47" d="M197.1,657.7c37.1-32.4,43.3-85.8,16-123.6c-5.9-14.5-34.4-23.3-54.7-7.7c13.7-15.9,32.2-32.1,52.5-23.6
					c-1.6-52.4-55.1-69-83.1-38.1c16.9-32.2,49.8-50.9,85.9-28.6c20,17.6,32.7,36.8,44.9,64.4c-3.9,16.9-7.9,33.9-11.5,49.2
					c-17.5,73.8-3.6,100.7-3.6,100.7s-37.5,44.8-101,35.3c-37.7-5.4-58.8-23.6-66.5-45.2C105.3,677.8,157.8,692.1,197.1,657.7z"/>
				<path class="st48" d="M142.3,687.4c-42.9-6.2-69.6-30-71.5-63.7c-0.6-11.7,0.5-22.3,1.6-33.4c1.7-15.9,3.5-34,0.5-59.5
					c-2.7-22.8-17.4-38.9-31.7-54.5c-12.7-13.9-24.8-27-28.6-44.3l-0.4-1.9l1.9-0.3c33.6-5.3,70.9-22.6,81.4-37.8
					c10.9-15.7,42.2-41.5,79.8-44.2c5.8-0.4,11.7-0.2,17.3,0.5c44.9,5.9,87.2,53.9,89,55.9l0.6,0.7L282,406
					c-0.2,0.9-19.3,86.1-33,144.1c-17.1,72-3.9,99.1-3.8,99.4l0.6,1.1l-0.8,0.9c-0.3,0.3-28.6,33.6-76.7,37h0
					C159.7,689.1,151,688.8,142.3,687.4z M245.4,549.2c12.9-54.7,30.7-133.6,32.8-143.1c-5.4-6-45.4-48.6-86-54
					c-5.4-0.7-11-0.9-16.6-0.5c-37.7,2.7-68.2,29.9-77,42.6c-12.3,17.7-51.5,33.8-81.8,39c4.1,15.4,15.4,27.7,27.3,40.6
					c14.7,16,29.9,32.6,32.7,56.6c3,25.9,1.1,44.2-0.5,60.3c-1.1,11-2.2,21.4-1.6,32.8c1.7,31.8,27.3,54.3,68.3,60.2
					c8.5,1.3,16.9,1.6,25.1,1l0,0c42.2-3,68.7-29.7,73.4-34.8C238.9,644,229.7,615.3,245.4,549.2z"/>
			</g>
		</g>
		<g>
			<g>
				
					<linearGradient id="SVGID_45_" gradientUnits="userSpaceOnUse" x1="2005.6398" y1="257.5558" x2="2016.7755" y2="351.591" gradientTransform="matrix(-0.9976 6.980000e-02 6.980000e-02 0.9976 2143.8513 -74.6707)">
					<stop  offset="0" style="stop-color:#DBDBDB"/>
					<stop  offset="0.5645" style="stop-color:#BFBFBF"/>
					<stop  offset="0.7583" style="stop-color:#B7B7B7"/>
					<stop  offset="1" style="stop-color:#A6A6A6"/>
				</linearGradient>
				<path class="st49" d="M12.2,432c0,0,45,4.2,74-18.8c29-22.9,52.9-41.1,93.8-41.3c37.3-0.2,70.9,21.2,85,42.2
					c32.2-36.8,37.3-45.1,37.3-45.1s-57.8-29.8-104.1-33.7c-35.3-3-68.8,13.4-91.4,34.4C80.4,394.5,57.5,427.3,12.2,432z"/>
				
					<linearGradient id="SVGID_46_" gradientUnits="userSpaceOnUse" x1="2020" y1="278.3184" x2="2029.0088" y2="354.392" gradientTransform="matrix(-0.9976 6.980000e-02 6.980000e-02 0.9976 2143.8513 -74.6707)">
					<stop  offset="0" style="stop-color:#BFBFBF"/>
					<stop  offset="0.445" style="stop-color:#B7B7B7"/>
					<stop  offset="1" style="stop-color:#A6A6A6"/>
				</linearGradient>
				<path class="st50" d="M56.9,415.6c18.3,6.9,62-60.4,131.6-60.4c33.8,0,63.5,14.9,88.9,41.6c-4.4,5.2-6,10.1-12.3,17.4
					c-14-21-47.7-42.3-85-42.2c-40.9,0.2-64.8,18.4-93.8,41.3c-29,22.9-74,18.8-74,18.8C30.1,430.2,44.4,423.9,56.9,415.6z"/>
				<path class="st6" d="M12,433.8l0-3.7c36.2-3.7,57.8-25.8,78.8-47.1c4.8-4.9,9.8-9.9,14.8-14.6c26-24.3,60.9-37.6,92.8-34.9
					c46.2,3.9,104.2,33.6,104.8,33.9l1.8,0.9l-1.1,1.7c-0.2,0.3-5.6,8.8-37.5,45.3l-1.6,1.8l-1.3-2c-13.8-20.7-46.9-41.5-83.4-41.3
					c-41.2,0.2-64.9,18.9-92.7,40.9c-17.4,13.7-40.2,18-56.3,19.1C20,434.6,12.3,433.9,12,433.8z M180,370.1
					c36.7-0.1,70.1,20.2,85.2,41c23-26.4,31.6-37.5,34.4-41.4c-10.4-5.1-60.8-29.1-101.5-32.5c-30.9-2.6-64.7,10.3-90,33.9
					c-4.9,4.6-9.9,9.6-14.6,14.5c-17.5,17.9-35.6,36.2-62.1,44.4c15.6-1.2,37.3-5.3,53.7-18.3c25.2-19.9,49-38.7,86.1-41.4
					C174,370.2,177,370.1,180,370.1z"/>
			</g>
		</g>
		<g>
			<path class="st48" d="M244.3,481.5c-0.2-0.5-22.3-50.3-57.4-53.8c-34.9-3.5-58.9,37-58.9,37c0.9-1.9,21.4-45.5,59.4-41.6
				c37.8,3.8,60.2,54.4,61.2,56.6L244.3,481.5z"/>
		</g>
		<g>
			<path class="st48" d="M159,526.6c0.5-0.9,11.4-22.6,33.8-27.5c15.9-3.5,33.4,2.5,51.8,17.6l-2.9,3.6
				c-17.3-14.2-33.5-19.8-48-16.7C173.5,508,159,526.6,159,526.6z"/>
		</g>
		<g>
			<g>
				
					<linearGradient id="SVGID_47_" gradientUnits="userSpaceOnUse" x1="1069.9272" y1="570.3372" x2="1306.7891" y2="394.6012" gradientTransform="matrix(-0.9975 7.060000e-02 7.060000e-02 0.9975 1765.2792 -54.0906)">
					<stop  offset="0" style="stop-color:#FFA8A9"/>
					<stop  offset="0.3368" style="stop-color:#FFA0A1"/>
					<stop  offset="0.8589" style="stop-color:#FF8A8B"/>
					<stop  offset="1" style="stop-color:#FF8384"/>
				</linearGradient>
				<path class="st51" d="M534.2,642.8c0,0,39.3,43.2,102.4,31c46.8-8.7,66.9-36.3,67.3-64.8c0.4-28.5-9.2-49.3-6-92.8
					c3.3-43.5,49.6-64.6,56.3-101.4c-32.2-3.7-71.9-19-84.1-35c-12.2-16.1-52.6-46.7-97.1-38.9c-44.4,7.8-85.5,58.9-85.5,58.9
					s22.7,84.6,39,142.6C547,615.4,534.2,642.8,534.2,642.8z"/>
				
					<linearGradient id="SVGID_48_" gradientUnits="userSpaceOnUse" x1="614.3978" y1="423.7266" x2="618.9355" y2="346.5851" gradientTransform="matrix(0.9996 2.820000e-02 -2.820000e-02 0.9996 17.1895 -21.47)">
					<stop  offset="0" style="stop-color:#FFA8A9"/>
					<stop  offset="0.3368" style="stop-color:#FFA0A1"/>
					<stop  offset="0.8589" style="stop-color:#FF8A8B"/>
					<stop  offset="1" style="stop-color:#FF8384"/>
				</linearGradient>
				<path class="st52" d="M662.1,407.2c22.8,13.5,66.3,22.9,91.3,7.5c-32.1-3.9-71.3-19-83.4-34.9c-12.2-16.1-52.6-46.7-97.1-38.9
					c-44.4,7.8-85.5,58.9-85.5,58.9s8.3,31,18.5,68.4c1.9-12.1,5.4-23.7,12.1-34.8C564.4,359.8,614.8,379.2,662.1,407.2z"/>
				
					<linearGradient id="SVGID_49_" gradientUnits="userSpaceOnUse" x1="606.8729" y1="551.0168" x2="454.5874" y2="551.0168" gradientTransform="matrix(0.9996 2.820000e-02 -2.820000e-02 0.9996 17.1895 -21.47)">
					<stop  offset="0" style="stop-color:#FFA8A9"/>
					<stop  offset="0.3368" style="stop-color:#FFA0A1"/>
					<stop  offset="0.8589" style="stop-color:#FF8A8B"/>
					<stop  offset="1" style="stop-color:#FF8384"/>
				</linearGradient>
				<path class="st53" d="M580.9,648.3c-38.4-30.8-46.8-83.9-21.1-122.8c5.3-14.7,33.4-24.7,54.3-10c-14.3-15.3-33.5-30.7-53.5-21.3
					c-0.6-52.5,52.2-71.3,81.5-41.6c-18.2-31.4-51.9-48.8-87-25c-19.3,18.4-31.2,38.1-42.2,66.2c4.6,16.7,9.3,33.6,13.5,48.7
					c20.5,73,7.8,100.4,7.8,100.4s39.3,43.2,102.4,31c37.4-7,57.8-26.1,64.6-48C673.4,664.5,621.6,680.9,580.9,648.3z"/>
				<path class="st48" d="M611,677.8L611,677.8c-48.2-1.4-77.9-33.4-78.2-33.7l-0.8-0.9l0.5-1.1c0.1-0.3,12.2-27.9-7.9-99.1
					c-16.1-57.4-38.7-141.8-39-142.6l-0.2-0.9l0.6-0.7c1.7-2.1,42-51.8,86.6-59.6c5.6-1,11.5-1.4,17.3-1.2
					c37.7,1.1,70,25.6,81.5,40.8c11.1,14.7,49.1,30.4,82.9,34.3l2,0.2l-0.4,2c-3.1,17.4-14.6,31-26.8,45.4
					c-13.6,16.2-27.8,32.9-29.5,55.8c-1.9,25.6,0.7,43.6,3,59.4c1.6,11.1,3.1,21.6,3,33.3c-0.4,33.8-26.2,58.7-68.8,66.6
					C628.3,677.3,619.5,678.1,611,677.8z M536.4,642.4c4.9,5,32.5,30.5,74.8,31.7l0,0c8.2,0.2,16.7-0.5,25.1-2.1
					c40.8-7.6,65.4-31.2,65.8-63c0.1-11.5-1.4-21.8-3-32.7c-2.3-16-5-34.2-3-60.2c1.8-24.1,16.3-41.3,30.3-57.9
					c11.3-13.5,22.1-26.2,25.6-41.7c-30.5-3.9-70.4-18.4-83.4-35.5c-9.4-12.4-41-38.3-78.7-39.4c-5.6-0.2-11.2,0.2-16.6,1.2
					c-40.4,7.1-78.6,51.3-83.7,57.6c2.5,9.4,23.5,87.5,38.7,141.6C546.6,607.3,538.6,636.3,536.4,642.4z"/>
			</g>
		</g>
		<g>
			<g>
				
					<linearGradient id="SVGID_50_" gradientUnits="userSpaceOnUse" x1="595.0538" y1="316.411" x2="606.1823" y2="410.3847" gradientTransform="matrix(0.9996 2.820000e-02 -2.820000e-02 0.9996 17.1895 -21.47)">
					<stop  offset="0" style="stop-color:#DBDBDB"/>
					<stop  offset="0.5645" style="stop-color:#BFBFBF"/>
					<stop  offset="0.7583" style="stop-color:#B7B7B7"/>
					<stop  offset="1" style="stop-color:#A6A6A6"/>
				</linearGradient>
				<path class="st54" d="M756.3,415c0,0-44.8,6.1-74.7-15.6c-29.9-21.7-54.6-38.9-95.4-37.3c-37.3,1.4-70,24.1-83.2,45.7
					c-33.6-35.4-39.2-43.5-39.2-43.5s56.5-32.2,102.6-38c35.2-4.4,69.3,10.5,92.7,30.6C686.7,380.4,710.8,412.2,756.3,415z"/>
				
					<linearGradient id="SVGID_51_" gradientUnits="userSpaceOnUse" x1="609.4111" y1="337.1738" x2="618.4126" y2="413.186" gradientTransform="matrix(0.9996 2.820000e-02 -2.820000e-02 0.9996 17.1895 -21.47)">
					<stop  offset="0" style="stop-color:#BFBFBF"/>
					<stop  offset="0.445" style="stop-color:#B7B7B7"/>
					<stop  offset="1" style="stop-color:#A6A6A6"/>
				</linearGradient>
				<path class="st55" d="M711,400.4c-18,7.7-64.5-57.8-134-54.8c-33.7,1.4-62.8,17.5-87.1,45.3c4.6,5,6.4,9.8,13,16.8
					c13.2-21.6,45.9-44.3,83.2-45.7c40.9-1.6,65.5,15.6,95.4,37.3c29.9,21.7,74.7,15.6,74.7,15.6C738.4,413.9,723.8,408.2,711,400.4
					z"/>
				<path class="st6" d="M737.6,417.5c-16.1-0.5-39.1-3.7-57-16.7c-28.7-20.8-53.1-38.5-94.3-37c-36.5,1.4-68.7,23.6-81.7,44.8
					l-1.3,2l-1.7-1.7c-33.4-35.1-39.1-43.3-39.3-43.7l-1.2-1.7l1.8-1c0.6-0.3,57.4-32.4,103.3-38.2c31.7-4,67.1,7.8,94.1,31
					c5.2,4.5,10.3,9.3,15.3,14c21.8,20.4,44.4,41.6,80.7,43.8l0.1,3.7C756.3,416.8,748.7,417.8,737.6,417.5z M594.9,360.1
					c37.2,1.1,61.8,18.9,87.8,37.7c17,12.3,38.9,15.5,54.5,16c-26.9-7-45.6-24.6-63.9-41.7c-5-4.7-10.1-9.5-15.2-13.9
					c-26.2-22.5-60.6-34-91.3-30.1c-40.6,5.1-89.9,31.2-100.1,36.7c3,3.7,12,14.5,36.1,39.9c14.2-21.4,46.7-43.2,83.4-44.6
					C589.1,360,592.1,360,594.9,360.1z"/>
			</g>
		</g>
		<g>
			<path class="st48" d="M526.5,474.2c0.2-0.5,20.2-51.2,55.2-56.2c34.8-5,60.4,34.5,60.4,34.5c-0.9-1.8-23.2-44.5-61.1-39.1
				c-37.6,5.4-57.9,56.9-58.8,59.1L526.5,474.2z"/>
		</g>
		<g>
			<path class="st48" d="M613.5,515.6c-0.5-0.9-12.3-22.1-34.9-26c-16.1-2.8-33.2,3.9-51,19.8l3,3.5c16.7-14.9,32.6-21.2,47.2-18.7
				C598.3,497.7,613.5,515.6,613.5,515.6z"/>
		</g>
		<g>
			
				<radialGradient id="SVGID_52_" cx="319.2674" cy="504.4633" r="331.5588" gradientTransform="matrix(1 0 0 1.0083 0 -0.4093)" gradientUnits="userSpaceOnUse">
				<stop  offset="0" style="stop-color:#DBDBDB"/>
				<stop  offset="0.5645" style="stop-color:#BFBFBF"/>
				<stop  offset="0.7583" style="stop-color:#B7B7B7"/>
				<stop  offset="1" style="stop-color:#A6A6A6"/>
			</radialGradient>
			<path class="st56" d="M543.5,521.3C543,339.1,399.4,327.6,374.8,329.1l0,0c0,0-153.7,7.7-147.5,198.9c0,0-35.8,48.9-20.9,101.7
				c17.1,60.4,104.6,81.1,177.6,74l4.6,4.1c73.2,3.6,164.9-24.8,179.7-85.9C581.1,568.5,543.5,521.3,543.5,521.3z"/>
			
				<linearGradient id="SVGID_53_" gradientUnits="userSpaceOnUse" x1="423.7028" y1="575.0161" x2="602.3356" y2="700.1412" gradientTransform="matrix(0.9996 2.820000e-02 -2.820000e-02 0.9996 17.1895 -21.47)">
				<stop  offset="0" style="stop-color:#BFBFBF"/>
				<stop  offset="0.445" style="stop-color:#B7B7B7"/>
				<stop  offset="1" style="stop-color:#A6A6A6"/>
			</linearGradient>
			<path class="st57" d="M543.5,521.3c-0.3-109.3-52-157.1-98.7-177.6c51.7,39.5,88.3,104.2,64,164.8
				c43.2,33.1,43.3,106.7,4.5,139.1c-57.9,51.5-185.5,50.1-255.6,35.5c30.1,20.2,95,23.7,126.3,20.7l4.6,4.1
				c73.2,3.6,164.9-24.8,179.7-85.9C581.1,568.5,543.5,521.3,543.5,521.3z"/>
			<path class="st6" d="M393.6,710L393.6,710c-1.7,0-3.4-0.1-5.1-0.2l-0.6,0l-4.5-4c-11.6,1.1-23.4,1.5-35.2,1.1
				c-59.4-1.7-128.3-22.7-143.5-76.6c-14.1-50.1,16.9-97.3,20.8-102.8c-5.8-190.2,147.8-200.1,149.3-200.2c2-0.1,4.5-0.2,7.3-0.1
				c16.7,0.5,162.5,9.9,163.4,193.5c4.1,5.4,36.9,51,24.7,101.7C555.6,682.1,468.4,712.1,393.6,710z M389.3,706.1
				c1.5,0.1,2.9,0.1,4.4,0.2c73.3,2.1,158.8-26.9,172.7-84.7c12.5-52-24-98.6-24.4-99.1l-0.4-0.5l0-0.6
				c-0.5-180.6-143.5-189.9-159.8-190.4c-3.3-0.1-5.6,0-7,0.1c-1.5,0.1-151.9,9.9-145.8,197l0,0.6l-0.4,0.5
				c-0.3,0.5-35.1,48.9-20.6,100.1c14.7,52,82,72.2,140.1,73.9c11.9,0.3,23.9-0.1,35.6-1.2l0.8-0.1L389.3,706.1z"/>
		</g>
		<g>
			
				<linearGradient id="SVGID_54_" gradientUnits="userSpaceOnUse" x1="275.5576" y1="670.7208" x2="317.1178" y2="670.7208" gradientTransform="matrix(0.9996 2.820000e-02 -2.820000e-02 0.9996 17.1895 -21.47)">
				<stop  offset="5.376340e-03" style="stop-color:#FFF0DE"/>
				<stop  offset="0.265" style="stop-color:#FCEDD6"/>
				<stop  offset="0.6671" style="stop-color:#F3E4C0"/>
				<stop  offset="1" style="stop-color:#E9DAA9"/>
			</linearGradient>
			<path class="st58" d="M316.9,599.8c0,0-2.5,91.4-36.4,121.7c-4.9-0.3-0.2-45.4-0.9-69.3c-1.2-38.9-4-59.9-4-59.9L316.9,599.8z"/>
			
				<linearGradient id="SVGID_55_" gradientUnits="userSpaceOnUse" x1="267.0528" y1="671.093" x2="307.7873" y2="672.6244" gradientTransform="matrix(0.9996 2.820000e-02 -2.820000e-02 0.9996 17.1895 -21.47)">
				<stop  offset="0" style="stop-color:#F8E9CC"/>
				<stop  offset="0.7368" style="stop-color:#E2D0B7"/>
				<stop  offset="1" style="stop-color:#D9C6AF"/>
			</linearGradient>
			<path class="st59" d="M297.3,596.2c6.7,38.4-0.4,88-16,124.5c33.1-31,35.6-120.9,35.6-120.9L297.3,596.2z"/>
			<path class="st11" d="M281.1,723.4l-0.8-0.1c-4.3-0.3-4.6-8.2-3.3-39.4c0.5-11.3,0.9-23,0.7-31.7c-1.2-38.4-4-59.5-4-59.7
				l-0.3-2.5l45.4,8.3l0,1.6c-0.1,3.8-2.9,92.6-37,123L281.1,723.4z M277.7,594.5c0.8,6.7,2.8,26.6,3.7,57.6
				c0.3,8.9-0.2,20.7-0.7,32c-0.5,12.7-1.2,29.6,0,34.6c29.2-28.4,33.7-105.3,34.2-117.4L277.7,594.5z"/>
		</g>
		<g>
			
				<linearGradient id="SVGID_56_" gradientUnits="userSpaceOnUse" x1="450.3076" y1="660.6897" x2="499.2925" y2="660.6897" gradientTransform="matrix(0.9996 2.820000e-02 -2.820000e-02 0.9996 17.1895 -21.47)">
				<stop  offset="5.376340e-03" style="stop-color:#FFF0DE"/>
				<stop  offset="0.265" style="stop-color:#FCEDD6"/>
				<stop  offset="0.6671" style="stop-color:#F3E4C0"/>
				<stop  offset="1" style="stop-color:#E9DAA9"/>
			</linearGradient>
			<path class="st60" d="M450.2,598.5c0,0,8.4,91.1,44.2,119c4.9-0.7-2.8-45.3-3.6-69.2c-1.3-38.9,0.1-60.1,0.1-60.1L450.2,598.5z"
				/>
			
				<linearGradient id="SVGID_57_" gradientUnits="userSpaceOnUse" x1="458.7787" y1="658.6971" x2="497.3506" y2="660.7488" gradientTransform="matrix(0.9996 2.820000e-02 -2.820000e-02 0.9996 17.1895 -21.47)">
				<stop  offset="0" style="stop-color:#F8E9CC"/>
				<stop  offset="0.7368" style="stop-color:#E2D0B7"/>
				<stop  offset="1" style="stop-color:#D9C6AF"/>
			</linearGradient>
			<path class="st61" d="M494.6,717.4c4.3-2.2-3-45.6-3.8-69c-1.3-38.9,0.1-60.1,0.1-60.1l-18.6,4.7
				C471.5,625.4,483.4,689.2,494.6,717.4z"/>
			<path class="st11" d="M493.9,719.5l-0.6-0.5c-36-28.1-44.6-116.6-44.9-120.3l-0.1-1.6l44.8-11.3l-0.2,2.6
				c0,0.2-1.5,21.5-0.1,59.9c0.3,8.8,1.5,20.4,2.7,31.6c3.3,31,3.5,38.9-0.7,39.5L493.9,719.5z M452.2,599.9
				c1.3,12,10.8,88.4,41.8,114.9c0.9-5-0.9-21.9-2.2-34.5c-1.2-11.3-2.4-23-2.7-31.9c-1.1-31-0.3-51,0-57.7L452.2,599.9z"/>
		</g>
		<g>
			<path class="st6" d="M385.1,332.8c-0.6-2.9-1.3-5.9-2-9c-0.8-3.1-2.2-6.1-3.4-9.3c-1.4-3-3.2-6-5-9l-3.2-4.1l-1.6-2l-1.8-1.8
				c-1.2-1.2-2.4-2.3-3.6-3.5c-1.3-1-2.6-2-3.9-3c-2.5-2-5.4-3.3-7.9-4.8c-2.7-1.2-5.2-2.4-7.6-3.1c-2.4-0.9-4.7-1.4-6.6-1.9
				c-2-0.4-3.8-0.7-5.2-0.9c-2.9-0.4-4.6-0.3-4.6-0.3s1.7,0.2,4.5,0.9c2.8,0.7,6.8,1.9,11.3,3.9c2.3,0.9,4.6,2.2,7.1,3.5
				c1.2,0.7,2.4,1.6,3.6,2.4c1.2,0.8,2.5,1.6,3.6,2.6c1.2,1,2.4,1.9,3.6,2.9c1.1,1.1,2.2,2.3,3.3,3.4l1.7,1.7l1.5,1.9l2.9,3.9
				c1.7,2.8,3.4,5.6,4.8,8.4c1.1,3,2.6,5.8,3.5,8.8c0.9,3,1.7,5.9,2.5,8.6c0.5,2.8,0.9,5.5,1.3,7.9c0.2,1.2,0.4,2.4,0.6,3.5
				c0.1,1.1,0.2,2.2,0.2,3.2c0.1,2,0.3,3.8,0.4,5.3c0.3,2.9,0.4,4.6,0.4,4.6s0.1-1.7,0.3-4.6c0.1-1.5,0.1-3.3,0.2-5.3
				c0-1,0.1-2.1,0.1-3.3c-0.1-1.2-0.2-2.4-0.3-3.6C385.6,338.5,385.3,335.7,385.1,332.8z"/>
			<path class="st6" d="M364.8,343.7c-0.4-1.2-1.1-2.6-1.7-4.1c-0.6-1.5-1.6-3-2.6-4.5c-0.5-0.8-1-1.6-1.7-2.4
				c-0.7-0.7-1.4-1.4-2.1-2.2c-1.4-1.6-3-2.9-4.7-4.2c-1.7-1.4-3.7-2.3-5.5-3.5c-3.9-1.9-8-3.5-11.9-4.3c-3.9-1-7.7-1.3-10.8-1.5
				c-6.4-0.2-10.6,0.6-10.6,0.6s1,0.1,2.9,0.3c1.8,0.1,4.4,0.6,7.5,1.1c3,0.6,6.6,1.3,10.3,2.5c1.9,0.5,3.7,1.3,5.6,1.9
				c1.9,0.7,3.7,1.6,5.5,2.5c1.7,1.1,3.6,1.9,5.2,3.1c1.6,1.2,3.3,2.2,4.6,3.6c0.7,0.6,1.4,1.3,2.1,1.9c0.6,0.7,1.2,1.4,1.7,2
				c1.1,1.3,2.2,2.6,3,4c0.8,1.3,1.6,2.5,2.3,3.6c0.5,1.2,1,2.2,1.4,3c0.8,1.7,1.3,2.6,1.3,2.6s-0.2-1-0.6-2.9
				C365.4,346.1,365.1,345,364.8,343.7z"/>
			<path class="st6" d="M423.8,305c-2,2-4.2,4.5-6.5,7.2c-2.2,2.8-4.5,5.8-6.5,9c-1.1,1.5-1.9,3.2-2.9,4.8c-0.9,1.6-1.7,3.3-2.5,4.8
				c-0.8,1.6-1.4,3.2-2.1,4.6c-0.7,1.5-1.2,2.9-1.7,4.3c-0.5,1.3-1.1,2.5-1.4,3.7c-0.4,1.1-0.7,2.1-0.9,2.9
				c-0.5,1.6-0.9,2.5-0.9,2.5s0.1-1,0.2-2.7c0.2-1.7,0.4-4.1,1.1-7c0.3-1.4,0.6-3,1.2-4.6c0.6-1.6,1-3.3,1.8-5
				c0.8-1.7,1.4-3.5,2.4-5.2c1-1.7,1.8-3.5,2.9-5.1c2.1-3.3,4.5-6.4,7.1-9.1c2.5-2.7,5.1-5,7.4-6.7c4.7-3.5,8.3-5,8.3-5
				S427.8,300.9,423.8,305z"/>
		</g>
		<g>
			<path class="st6" d="M222.2,539.6l-3.3-1.6c7.8-16.1,26.9-21.6,26.9-21.6C245.6,516.5,229.4,524.7,222.2,539.6z"/>
		</g>
		<g>
			
				<radialGradient id="SVGID_58_" cx="319.2679" cy="504.4656" r="331.5508" gradientTransform="matrix(1 0 0 1.0083 0 -0.4093)" gradientUnits="userSpaceOnUse">
				<stop  offset="0" style="stop-color:#DBDBDB"/>
				<stop  offset="0.5645" style="stop-color:#BFBFBF"/>
				<stop  offset="0.7583" style="stop-color:#B7B7B7"/>
				<stop  offset="1" style="stop-color:#A6A6A6"/>
			</radialGradient>
			<path class="st62" d="M259.2,580.5c0,0,5.8,20.8,30.8,24.8c9.6,1.5,23.1,1.9,34.4-9.5l-20.8-27.6L259.2,580.5z"/>
			
				<linearGradient id="SVGID_59_" gradientUnits="userSpaceOnUse" x1="1850.4574" y1="597.983" x2="1850.0446" y2="625.6385" gradientTransform="matrix(-0.9996 -2.820000e-02 -2.820000e-02 0.9996 2153.635 38.5211)">
				<stop  offset="0" style="stop-color:#BFBFBF"/>
				<stop  offset="0.445" style="stop-color:#B7B7B7"/>
				<stop  offset="1" style="stop-color:#A6A6A6"/>
			</linearGradient>
			<path class="st63" d="M259.2,580.5c0,0,4.8,20.7,32,26.2c16.5,1.5,23.5-1.6,23.5-1.6l-5.1-18.7
				C309.6,586.5,282.2,603.5,259.2,580.5z"/>
			<path class="st6" d="M297.4,607.9c-3.4-0.1-6.1-0.5-7.8-0.8c-9.3-1.5-16.3-5.2-21.4-9.3c-9.1-7.3-9.1-18-9.1-18
				c0.3,0.8,7.5,19.9,31.1,23.6c8.8,1.4,21.9,2,32.8-9l2.6,2.6C316.2,606.5,305.2,608.1,297.4,607.9z"/>
		</g>
		<g>
			<g>
				
					<linearGradient id="SVGID_60_" gradientUnits="userSpaceOnUse" x1="1541.7804" y1="473.4453" x2="1542.4286" y2="397.1672" gradientTransform="matrix(-0.9993 3.770000e-02 3.770000e-02 0.9993 1828.5861 -10.1954)">
					<stop  offset="0" style="stop-color:#BFBFBF"/>
					<stop  offset="0.445" style="stop-color:#B7B7B7"/>
					<stop  offset="1" style="stop-color:#A6A6A6"/>
				</linearGradient>
				<path class="st64" d="M305,437.3c30.3,1.6,35.1,51.2,27.9,64.4c-5.9,10.9-46.6,13.2-56.5-2.2C265.4,482.1,275.5,435.7,305,437.3
					z"/>
				<path d="M308.8,447.3c21.9,1.7,35.4,39.2,23.7,52.5c-7.9,9-47,13.8-56-0.4C265.9,482.8,279.2,445,308.8,447.3z"/>
				<g>
					
						<radialGradient id="SVGID_61_" cx="286.134" cy="538.3337" r="48.8912" gradientTransform="matrix(0.9955 9.538908e-02 -9.460000e-02 1.0038 52.4886 -81.6004)" gradientUnits="userSpaceOnUse">
						<stop  offset="7.759980e-02" style="stop-color:#FFFFFF"/>
						<stop  offset="0.3353" style="stop-color:#FCFCFC"/>
						<stop  offset="0.4885" style="stop-color:#F4F4F4"/>
						<stop  offset="0.6144" style="stop-color:#E6E6E6"/>
						<stop  offset="0.7247" style="stop-color:#D2D2D2"/>
						<stop  offset="0.8255" style="stop-color:#B8B8B8"/>
						<stop  offset="0.8562" style="stop-color:#C4C4C4"/>
						<stop  offset="0.9489" style="stop-color:#E5E5E5"/>
						<stop  offset="1" style="stop-color:#F1F1F1"/>
					</radialGradient>
					<path class="st65" d="M308.3,451c21.8,1.6,35.3,38.7,23.7,51.9c-7.9,9-46.8,13.8-55.8-0.2C265.6,486.2,278.8,448.9,308.3,451z"
						/>
					<path d="M276.2,468.9c-6.2,11.8-6.7,26.1-1.3,34.6c6.1,9.6,25.1,10.9,39.9,8.1c8.6-1.6,15.2-4.5,18.2-7.8
						c5.5-6.2,6.2-17.8,1.8-29.7c-3.9-10.6-13.1-23.5-26.3-24.4C295,448.6,283,455.8,276.2,468.9z M278.8,470.1
						c3-5.7,9.9-15.5,22.7-17.4c2.1-0.3,4.3-0.4,6.6-0.2c11.9,0.9,20.4,12.8,24.1,22.8c4,10.9,3.5,21.5-1.2,26.9
						c-2.5,2.8-8.6,5.3-16.5,6.8c-14.3,2.7-31.8,1.2-37-7C272.5,494.2,273.1,481,278.8,470.1z"/>
				</g>
			</g>
		</g>
		<path d="M307.3,404c6.9,1.5,7.7,17.3,7.7,17.3s-24.7-1.3-42.4,16.5C274.6,425.1,286,407.9,307.3,404z"/>
		<g>
			<g>
				<g>
					<g>
						<g>
							
								<linearGradient id="SVGID_62_" gradientUnits="userSpaceOnUse" x1="322.061" y1="418.4083" x2="321.4764" y2="460.4954" gradientTransform="matrix(0.9994 -3.500000e-02 3.500000e-02 0.9994 -32.2251 57.5337)">
								<stop  offset="0" style="stop-color:#4A1F00"/>
								<stop  offset="0.1493" style="stop-color:#552906"/>
								<stop  offset="0.4136" style="stop-color:#734317"/>
								<stop  offset="0.7594" style="stop-color:#A36D32"/>
								<stop  offset="0.9946" style="stop-color:#C88D46"/>
							</linearGradient>
							<path class="st66" d="M304.8,464.1c-8.9,0-16.1,9.4-16.1,20.9c0,11.6,7.2,21,16,21c8.9,0,16.1-9.4,16.1-20.9
								C320.8,473.6,313.6,464.2,304.8,464.1z"/>
							<path class="st67" d="M304.8,463.2c-9.5,0-17.1,9.8-17.1,21.9c0,5.8,1.7,11.3,4.9,15.4c3.2,4.2,7.5,6.5,12.1,6.5
								c0.2,0,0.3,0,0.5,0l0,0c9.3-0.3,16.6-10,16.6-21.9c0-5.8-1.7-11.3-4.9-15.4C313.7,465.5,309.4,463.2,304.8,463.2z
								 M305.1,505.1c-0.1,0-0.3,0-0.4,0c-4,0-7.7-2.1-10.6-5.8c-2.9-3.8-4.5-8.8-4.5-14.2c0-10.7,6.6-19.7,14.7-19.9
								c0.1,0,0.3,0,0.4,0c4,0,7.7,2.1,10.6,5.8c2.9,3.8,4.5,8.8,4.5,14.2C319.8,495.9,313.2,504.8,305.1,505.1z"/>
						</g>
						
							<linearGradient id="SVGID_63_" gradientUnits="userSpaceOnUse" x1="321.7157" y1="447.8546" x2="321.7157" y2="465.4988" gradientTransform="matrix(0.9994 -3.500000e-02 3.500000e-02 0.9994 -32.2251 57.5337)">
							<stop  offset="0.1183" style="stop-color:#BBA799"/>
							<stop  offset="0.2176" style="stop-color:#AF9C8F"/>
							<stop  offset="0.3976" style="stop-color:#8F7F75"/>
							<stop  offset="0.638" style="stop-color:#5B514A"/>
							<stop  offset="0.9265" style="stop-color:#131110"/>
							<stop  offset="1" style="stop-color:#000000"/>
						</linearGradient>
						<path class="st68" d="M293,494.8c1.5,5.6,5.9,9.2,11.3,9.3c5.7,0,10.4-3.2,12.6-11.2C312.7,499,302.1,504.5,293,494.8z"/>
					</g>
				</g>
			</g>
			<path d="M304.5,474.7c-4.9,0-8.9,5.2-8.9,11.6c0,6.4,4,11.6,8.9,11.6c4.9,0,8.9-5.2,8.9-11.6
				C313.4,479.9,309.5,474.7,304.5,474.7z"/>
			
				<linearGradient id="SVGID_64_" gradientUnits="userSpaceOnUse" x1="312.3862" y1="440.3752" x2="321.3541" y2="426.5952" gradientTransform="matrix(0.9994 -3.500000e-02 3.500000e-02 0.9994 -32.2251 57.5337)">
				<stop  offset="0" style="stop-color:#FFFFFF"/>
				<stop  offset="1" style="stop-color:#000000"/>
			</linearGradient>
			<path class="st69" d="M300.2,472.3c-3.5,0-6.4,2.9-6.4,6.4c0,3.5,2.8,6.4,6.4,6.4c3.5,0,6.4-2.9,6.4-6.4
				C306.5,475.2,303.7,472.3,300.2,472.3z"/>
			<path class="st2" d="M299.4,472.3c-2.7,0-4.9,2.2-4.9,4.9c0,2.7,2.2,4.9,4.9,4.9c2.7,0,4.9-2.2,4.9-4.9
				C304.3,474.5,302.1,472.3,299.4,472.3z"/>
			<path class="st2" d="M301,493.8c-1.1,0-1.9,0.9-1.9,1.9c0,1.1,0.9,1.9,1.9,1.9c1.1,0,1.9-0.9,1.9-1.9
				C302.9,494.7,302,493.8,301,493.8z"/>
		</g>
		<g>
			<path class="st6" d="M549,532.7c-7.7-14.6-24.3-22-24.4-22c0,0,19.3,4.5,27.7,20.3L549,532.7z"/>
		</g>
		<g>
			
				<radialGradient id="SVGID_65_" cx="319.2677" cy="504.4628" r="331.5593" gradientTransform="matrix(1 0 0 1.0083 0 -0.4093)" gradientUnits="userSpaceOnUse">
				<stop  offset="0" style="stop-color:#DBDBDB"/>
				<stop  offset="0.5645" style="stop-color:#BFBFBF"/>
				<stop  offset="0.7583" style="stop-color:#B7B7B7"/>
				<stop  offset="1" style="stop-color:#A6A6A6"/>
			</radialGradient>
			<path class="st70" d="M442.5,594.9c12,10.7,25.3,8.5,34.9,7.3c21-2.7,29.1-23,29.1-23l-47.2-4.1L442.5,594.9z"/>
			
				<linearGradient id="SVGID_66_" gradientUnits="userSpaceOnUse" x1="477.4791" y1="589.2809" x2="477.0666" y2="616.9174" gradientTransform="matrix(0.9996 2.820000e-02 -2.820000e-02 0.9996 17.1895 -21.47)">
				<stop  offset="0" style="stop-color:#BFBFBF"/>
				<stop  offset="0.445" style="stop-color:#B7B7B7"/>
				<stop  offset="1" style="stop-color:#A6A6A6"/>
			</linearGradient>
			<path class="st71" d="M505.9,579.1c0,0-6,20.4-33.4,24.4c-16.6,0.6-23.4-2.9-23.4-2.9l6.1-18.4
				C455.2,582.2,481.6,600.7,505.9,579.1z"/>
			<path class="st6" d="M463.9,605.1c-7.2-0.2-15.1-2.1-22.6-8.8l2.4-2.8c10.9,9.7,22.8,8.2,32.4,6.9l1.1-0.1
				c19.8-2.5,29.6-22.9,29.7-23.1c0,0-1.7,12-11.2,19.2c-4.8,3.6-10.8,6.6-18,7.6l-1.1,0.1C472.8,604.6,468.5,605.2,463.9,605.1z"/>
		</g>
		<g>
			<g>
				
					<linearGradient id="SVGID_67_" gradientUnits="userSpaceOnUse" x1="507.5214" y1="485.4298" x2="508.1696" y2="409.1496" gradientTransform="matrix(1 -4.700000e-03 4.700000e-03 1 -44.3711 34.5923)">
					<stop  offset="0" style="stop-color:#BFBFBF"/>
					<stop  offset="0.445" style="stop-color:#B7B7B7"/>
					<stop  offset="1" style="stop-color:#A6A6A6"/>
				</linearGradient>
				<path class="st72" d="M462.6,433.9c-30.2,2.9-32.9,52.6-25.2,65.5c6.3,10.7,47.1,11.2,56.3-4.6C504.1,477,492.1,431,462.6,433.9
					z"/>
				<path d="M459.3,444.1c-21.8,2.6-33.7,40.6-21.5,53.5c8.3,8.7,47.6,11.7,55.9-2.8C503.6,477.7,488.8,440.6,459.3,444.1z"/>
				<g>
					
						<radialGradient id="SVGID_68_" cx="1314.301" cy="414.4221" r="48.8953" gradientTransform="matrix(-0.9905 0.1379 0.1368 0.9988 1728.3774 -113.3349)" gradientUnits="userSpaceOnUse">
						<stop  offset="7.759980e-02" style="stop-color:#FFFFFF"/>
						<stop  offset="0.3353" style="stop-color:#FCFCFC"/>
						<stop  offset="0.4885" style="stop-color:#F4F4F4"/>
						<stop  offset="0.6144" style="stop-color:#E6E6E6"/>
						<stop  offset="0.7247" style="stop-color:#D2D2D2"/>
						<stop  offset="0.8255" style="stop-color:#B8B8B8"/>
						<stop  offset="0.8562" style="stop-color:#C4C4C4"/>
						<stop  offset="0.9489" style="stop-color:#E5E5E5"/>
						<stop  offset="1" style="stop-color:#F1F1F1"/>
					</radialGradient>
					<path class="st73" d="M459.9,447.8c-21.7,2.5-33.7,40.2-21.4,52.9c8.3,8.6,47.4,11.8,55.7-2.6
						C504,481.2,489.3,444.4,459.9,447.8z"/>
					<path d="M459.7,446.4c-13.1,1.5-21.8,14.8-25.2,25.5c-3.8,12-2.6,23.6,3.1,29.6c3.1,3.2,9.8,5.8,18.5,7
						c14.9,2.1,33.8,0.1,39.5-9.8c5.1-8.7,3.9-23-2.7-34.5C485.3,451.5,473.1,444.8,459.7,446.4z M492.9,497.3
						c-4.9,8.4-22.3,10.6-36.7,8.6c-7.9-1.1-14.2-3.4-16.7-6.1c-5-5.2-5.9-15.7-2.4-26.8c3.2-10.1,11.2-22.4,23.1-23.8
						c2.2-0.3,4.5-0.3,6.6-0.1c12.9,1.4,20.2,10.9,23.4,16.4C496.4,476.3,497.5,489.4,492.9,497.3z"/>
				</g>
			</g>
		</g>
		<path d="M458.9,400.8c-6.9,1.8-6.9,17.7-6.9,17.7s24.6-2.3,43.1,14.6C492.5,420.4,480.3,403.8,458.9,400.8z"/>
		<g>
			<g>
				<g>
					<g>
						<g>
							
								<linearGradient id="SVGID_69_" gradientUnits="userSpaceOnUse" x1="1356.2062" y1="428.4421" x2="1355.6217" y2="470.5287" gradientTransform="matrix(-1 7.400000e-03 7.400000e-03 1 1817.5111 22.5216)">
								<stop  offset="0" style="stop-color:#4A1F00"/>
								<stop  offset="0.1493" style="stop-color:#552906"/>
								<stop  offset="0.4136" style="stop-color:#734317"/>
								<stop  offset="0.7594" style="stop-color:#A36D32"/>
								<stop  offset="0.9946" style="stop-color:#C88D46"/>
							</linearGradient>
							<path class="st74" d="M464,460.7c8.9-0.4,16.5,8.7,17,20.2c0.5,11.6-6.3,21.3-15.1,21.7c-8.9,0.4-16.5-8.7-17-20.2
								C448.4,470.8,455.1,461.1,464,460.7z"/>
							<path class="st67" d="M452.1,466.8c-3,4.3-4.5,9.8-4.2,15.6c0.5,12,8.2,21.3,17.5,21.2h0c0.2,0,0.3,0,0.5,0
								c4.6-0.2,8.8-2.7,11.8-7.1c3-4.3,4.5-9.8,4.2-15.6c-0.5-12.2-8.5-21.6-18-21.2C459.4,460,455.2,462.5,452.1,466.8z
								 M449.9,482.4c-0.2-5.4,1.1-10.5,3.9-14.4c2.7-3.8,6.3-6,10.3-6.2c0.1,0,0.3,0,0.4,0c8.1-0.1,15,8.6,15.5,19.3
								c0.2,5.4-1.1,10.5-3.9,14.4c-2.7,3.8-6.3,6-10.3,6.2c-0.1,0-0.3,0-0.4,0C457.3,501.7,450.3,493.1,449.9,482.4z"/>
						</g>
						
							<linearGradient id="SVGID_70_" gradientUnits="userSpaceOnUse" x1="1355.8628" y1="457.8935" x2="1355.8628" y2="475.5269" gradientTransform="matrix(-1 7.400000e-03 7.400000e-03 1 1817.5111 22.5216)">
							<stop  offset="0.1183" style="stop-color:#BBA799"/>
							<stop  offset="0.2176" style="stop-color:#AF9C8F"/>
							<stop  offset="0.3976" style="stop-color:#8F7F75"/>
							<stop  offset="0.638" style="stop-color:#5B514A"/>
							<stop  offset="0.9265" style="stop-color:#131110"/>
							<stop  offset="1" style="stop-color:#000000"/>
						</linearGradient>
						<path class="st75" d="M477,490.9c-1.3,5.7-5.5,9.5-10.9,9.7c-5.7,0.3-10.5-2.8-13-10.6C457.5,495.9,468.4,500.9,477,490.9z"/>
					</g>
				</g>
			</g>
			<path d="M464.7,471.2c4.9-0.2,9.1,4.8,9.4,11.2s-3.5,11.8-8.4,12c-4.9,0.2-9.1-4.8-9.4-11.2C456,476.8,459.8,471.5,464.7,471.2z"
				/>
			
				<linearGradient id="SVGID_71_" gradientUnits="userSpaceOnUse" x1="1346.5314" y1="450.404" x2="1355.4963" y2="436.6286" gradientTransform="matrix(-1 7.400000e-03 7.400000e-03 1 1817.5111 22.5216)">
				<stop  offset="0" style="stop-color:#FFFFFF"/>
				<stop  offset="1" style="stop-color:#000000"/>
			</linearGradient>
			<path class="st76" d="M468.9,468.7c3.5-0.2,6.5,2.6,6.6,6.1c0.2,3.5-2.6,6.5-6.1,6.7c-3.5,0.2-6.5-2.6-6.6-6.1
				C462.7,471.9,465.4,468.9,468.9,468.7z"/>
			<path class="st2" d="M469.7,468.7c2.7-0.1,5,2,5.1,4.7c0.1,2.7-2,5-4.7,5.1c-2.7,0.1-5-2-5.1-4.7
				C464.9,471.1,467,468.8,469.7,468.7z"/>
			<path class="st2" d="M469,490.2c1.1,0,2,0.8,2,1.8c0,1.1-0.8,2-1.8,2c-1.1,0-2-0.8-2-1.8C467.1,491.2,468,490.3,469,490.2z"/>
		</g>
		<g>
			
				<radialGradient id="SVGID_72_" cx="319.267" cy="504.4632" r="331.5594" gradientTransform="matrix(1 0 0 1.0083 0 -0.4093)" gradientUnits="userSpaceOnUse">
				<stop  offset="0" style="stop-color:#DBDBDB"/>
				<stop  offset="0.5645" style="stop-color:#BFBFBF"/>
				<stop  offset="0.7583" style="stop-color:#B7B7B7"/>
				<stop  offset="1" style="stop-color:#A6A6A6"/>
			</radialGradient>
			<path class="st77" d="M302.1,573.4c0,0,29.1,59.1,18.7,106.9c-6.2,28.4-9.7,53-45.1,64.1c-23,7.2-49.4,3.7-73.1,0.3
				c-38.8-5.6-50.3,2.4-50.3,2.4s-15.9-11.3-28.5-1.5c-9.3,7.2-5,21.6,9,26.1c11.4,3.7,14.2,12,17.7,20.7
				c4.8,11.8,25.4,10.5,26.2-12.4c19.9,6,80.3,27.7,143.7,18.9c44.6-6.2,67.8-25,86.5-52.8c41.3-61.2,31.1-151.7,55.7-178.6
				c0,0-33-24.3-82.9-24.3C330.4,543.3,302.1,573.4,302.1,573.4z"/>
			<linearGradient id="SVGID_73_" gradientUnits="userSpaceOnUse" x1="335.6749" y1="716.3708" x2="436.5811" y2="818.5792">
				<stop  offset="0" style="stop-color:#BFBFBF"/>
				<stop  offset="0.445" style="stop-color:#B7B7B7"/>
				<stop  offset="1" style="stop-color:#A6A6A6"/>
			</linearGradient>
			<path class="st78" d="M363.2,753.4c-46.4,31.5-105.4,34.9-199.5,7.4c2.6,6.6,8.3,30.2-15.2,27c0.6,1.5,1.3,3.1,1.9,4.7
				c4.8,11.8,25.4,10.5,26.2-12.4c19.9,6,80.3,27.7,143.7,18.9c44.6-6.2,67.8-25,86.5-52.8c38.1-56.5,32.5-137.8,50.7-171.2
				C427.1,600.6,427,710.1,363.2,753.4z"/>
			<path class="st6" d="M289.4,802.9c-46.3,0-87.5-12.9-107.2-19.1c-1.4-0.4-2.7-0.8-3.8-1.2c-1.3,12.2-8.1,17.8-14.4,18.9
				c-6.6,1.2-12.9-2.2-15.4-8.3l-0.6-1.4c-3.2-8-6-15-15.9-18.2c-8.1-2.6-13.8-8.6-15-15.7c-0.9-5.4,1.1-10.5,5.5-13.9
				c11.9-9.2,25.9-1.7,29.8,0.8c3.9-1.9,17.6-6.8,50.5-2.1c21.8,3.1,49,7.1,72.2-0.2c32.5-10.1,37.1-31.4,42.8-58.3l0.9-4.4
				c5.7-26.3-0.8-56.5-7.7-77.8c-5.3-16.4-7.4-29.6-7.4-29.6c1.2,2.4,29.3,60.2,18.9,108.2l-0.9,4.4c-5.8,27-10.8,50.4-45.5,61.2
				c-24.1,7.5-51.7,3.5-73.9,0.3c-37.2-5.3-48.8,2-48.9,2.1l-1.1,0.7l-1.1-0.8c-0.1-0.1-14.9-10.3-26.2-1.6c-3.3,2.5-4.7,6.1-4,10.1
				c1,5.6,5.7,10.4,12.4,12.6c11.6,3.8,15,12.3,18.3,20.5l0.6,1.4c1.8,4.4,6.3,6.8,11.1,6c5.2-0.9,10.9-6.1,11.4-17.7l0.1-2.5
				l2.4,0.7c1.8,0.5,3.8,1.2,6.2,1.9c23.7,7.5,79.2,24.9,136.6,16.9c39.3-5.5,64-20.5,85.2-51.9c22.7-33.6,29.6-75.4,35.6-112.3
				c4.8-29,8.9-54.1,20.2-66.5c0,0-6.8,19.3-9.8,32.1c-2.5,10.4-4.5,22.3-6.6,35.1c-5.8,35.4-13.1,79.5-36.3,113.8
				c-21.9,32.4-47.3,48-87.9,53.6C310.1,802.3,299.7,802.9,289.4,802.9z"/>
		</g>
		<g>
			<path class="st6" d="M162.4,758c-0.1-0.1-9-9-17.1-12.6l1.6-3.6C155.7,745.7,162.4,758,162.4,758z"/>
		</g>
		<path class="st6" d="M335.7,579.6c0,0,1.1-1.2,3.4-2.9c2.3-1.6,5.5-4.1,9.9-6.3c4.3-2.3,9.5-4.6,15.4-6.3
			c5.9-1.7,12.3-2.8,18.9-3.1c3.3-0.3,6.5,0.1,9.7,0.1c3.2,0.2,6.3,0.8,9.3,1.2c3,0.5,5.8,1.5,8.5,2.2c2.7,0.6,5.1,1.8,7.4,2.6
			c2.3,0.9,4.4,1.6,6,2.7c1.7,0.9,3.2,1.8,4.5,2.5c2.4,1.4,3.8,2.2,3.8,2.2s-1.5-0.5-4.2-1.5c-1.3-0.5-2.9-1.1-4.7-1.8
			c-1.8-0.8-3.9-1.2-6.2-1.9c-2.3-0.6-4.7-1.6-7.4-2c-2.7-0.4-5.4-1.1-8.4-1.5c-2.9-0.3-5.9-0.7-9-0.8c-3.1,0-6.2-0.3-9.3,0
			c-6.2,0.2-12.4,1.2-18.2,2.5c-5.7,1.4-11,3-15.4,4.9C341.1,576,335.7,579.6,335.7,579.6z"/>
		<path class="st6" d="M344.9,613.9c0,0,4.1-3.1,11.2-6.3c3.6-1.5,7.7-3.3,12.5-4.5c4.7-1.3,9.8-2.1,15.1-2.5c2.6,0,5.2-0.2,7.8,0.1
			c2.6,0.2,5.1,0.4,7.5,1.1c2.4,0.5,4.7,1,6.8,2c2.1,0.8,4.1,1.5,5.8,2.5c1.7,0.9,3.3,1.8,4.6,2.6c1.2,1,2.3,1.8,3.2,2.6
			c1.7,1.4,2.7,2.3,2.7,2.3s-1.1-0.6-3.1-1.6c-1-0.5-2.1-1.2-3.5-1.9c-1.4-0.5-3.1-1.1-4.8-1.9c-1.7-0.8-3.7-1.2-5.7-1.8
			c-2-0.7-4.3-0.9-6.6-1.3c-2.3-0.5-4.7-0.5-7.1-0.7c-2.4-0.3-4.9,0-7.4,0c-9.9,0.5-19.7,2.9-26.9,5.1
			C349.6,612,344.9,613.9,344.9,613.9z"/>
		<path class="st6" d="M347.8,647c0,0,3.5-2.3,9.4-4.6c3-1,6.4-2.4,10.3-3.2c3.8-1,8-1.5,12.3-1.9c4.2-0.2,8.5-0.1,12.5,0.6
			c2,0.4,3.9,0.7,5.6,1.4c1.7,0.6,3.4,1.1,4.8,1.8c2.9,1.3,5.1,2.8,6.6,4c1.4,1.1,2.3,1.8,2.3,1.8s-1-0.4-2.6-1.1
			c-1.6-0.9-4.1-1.6-6.9-2.5c-1.4-0.5-3.1-0.7-4.8-1.1c-1.7-0.4-3.5-0.4-5.4-0.7c-3.7-0.3-7.8-0.4-11.8-0.1
			c-8,0.5-16.1,1.9-22.1,3.3C351.9,645.9,347.8,647,347.8,647z"/>
		<path class="st6" d="M350.8,680.7c0,0,2.6-2,7.1-3.9c2.3-0.9,4.9-1.9,7.9-2.5c3-0.7,6.3-1,9.6-1.1c3.3,0.1,6.6,0.3,9.6,1.2
			c3,0.7,5.7,2,7.8,3.1c2.2,1.1,3.8,2.5,4.8,3.4c1.1,0.9,1.7,1.5,1.7,1.5s-0.7-0.3-2.1-0.8c-1.2-0.6-3.1-1.3-5.3-2
			c-2.2-0.8-4.8-1.4-7.6-1.8c-2.8-0.5-5.9-0.7-8.9-0.7c-6.1-0.1-12.2,0.9-16.9,1.8C354,679.8,350.8,680.7,350.8,680.7z"/>
	</g>
</g>
</svg>
