<svg id="Vrstva_1" data-name="Vrstva 1" xmlns="http://www.w3.org/2000/svg" viewBox="0 0 134.57 205.66"><defs><style>.cls-1{fill:#f4c03e;}.cls-2{fill:#e59c38;}.cls-3{fill:#d57f37;}.cls-4{fill:#f6d54e;}.cls-5{fill:#272733;}.cls-6{fill:#c7652c;}</style></defs><title>žirafa</title><path class="cls-1" d="M1012.75,553.37c3,18,9.26,43.82,9.32,44.08l1.34-.32h0c-.06-.26-6.29-26-9.3-44Z" transform="translate(-892.73 -437.7)"/><path class="cls-2" d="M1020.52,587.82c-1.81,11.27-.6,18.41,5.55,25.09C1028.83,604.26,1026.92,597.28,1020.52,587.82Z" transform="translate(-892.73 -437.7)"/><path class="cls-2" d="M998.56,605.83v-36h-5.3v-4.51c-.32,0-.65-.06-1-.06-8.32,0-15.07,11.05-15.07,24.67s6.75,24.67,15.07,24.67v22.24h-1.53a3.25,3.25,0,0,0-3.26,3.25v3.26H997c1.46,0,3.56-4,3.56-6.51v-29A2,2,0,0,0,998.56,605.83Z" transform="translate(-892.73 -437.7)"/><path class="cls-2" d="M953.18,591.15a35,35,0,0,1-8.3-7.81v53.52h-1.53a3.25,3.25,0,0,0-3.26,3.25v3.26h9.53c1.46,0,3.56-4,3.56-6.51V613.18c0-3.9.73-14.39,5.35-19A9.92,9.92,0,0,0,953.18,591.15Z" transform="translate(-892.73 -437.7)"/><path class="cls-1" d="M1015.49,605.83V556.56a13.13,13.13,0,0,0-13.13-13.13c-8.72-1.53-20.1-7.74-36.72-21.95-25.81-22.07-36.51-53.53-39.94-62l-10.52,4.37,4,8.74L917.43,476c0,7.5,12.46,54.38,20.1,69.89h0a53.2,53.2,0,0,0-1.13,11.16c0,17.9,9.66,33,25.09,38.12h0v41.66H960a3.25,3.25,0,0,0-3.26,3.25v3.26h9.52c1.47,0,3.57-4,3.57-6.51V613.18c0-3.44.58-11.22,3.9-16.16h21.07c1.85,10.18,7.61,17.6,14.43,17.6v22.24h-1.52a3.25,3.25,0,0,0-3.26,3.25v3.26h9.52c1.47,0,3.57-4,3.57-6.51v-29A2,2,0,0,0,1015.49,605.83Z" transform="translate(-892.73 -437.7)"/><path class="cls-3" d="M953.18,591.15c-.35-.23-.69-.47-1-.72h0l-1.7,9.39a3.32,3.32,0,0,0,2.44,3.76l.38.09a2.81,2.81,0,0,0,.9.06c.77-3.62,2.1-7.29,4.36-9.55A9.92,9.92,0,0,0,953.18,591.15Zm-4.84-3.93-.15-.15c-.33-.32-.65-.65-1-1l-.24-.25c-.29-.31-.57-.63-.85-1l-.25-.29c-.35-.41-.69-.83-1-1.26v18.23a2.83,2.83,0,0,0,2.6-2.47l2-10.78h0C949.11,588,948.72,587.6,948.34,587.22Zm-1.83,18-1.63-.39v6.91l1.71-.59c1.6-.56,2.91-2,2.91-3.1S948.15,605.59,946.51,605.19Z" transform="translate(-892.73 -437.7)"/><path class="cls-3" d="M981.54,604.06l-1.3.73a22,22,0,0,0,4,6v-5.18C984.22,603.93,983,603.22,981.54,604.06Zm-3.69-7a33.34,33.34,0,0,0,1.79,6.35L990.87,597Zm19.31,7.73c-1.77,2.08-1.29,4.66,1.55,2.9A25.64,25.64,0,0,1,997.16,604.75Zm-7.69,3.83c-1.19-.28-2.17.86-2.17,2.56v1.67c0,.16,0,.3,0,.44a11.48,11.48,0,0,0,1.22.6,4.86,4.86,0,0,0,.42-.55l1-1.6C990.89,610.27,990.66,608.87,989.47,608.58ZM994,597l-4,2.27c-1.47.83-2.68,2.43-2.68,3.56s1.2,2.33,2.67,2.69a4.28,4.28,0,0,0,4.27-2l1.51-2.5a33,33,0,0,1-1-4Z" transform="translate(-892.73 -437.7)"/><path class="cls-2" d="M964.59,600.82l-3.1-1.75v8l3.4-2.76A2,2,0,0,0,964.59,600.82Z" transform="translate(-892.73 -437.7)"/><path class="cls-2" d="M970.83,604.13l-2,1.64a2,2,0,0,0,.29,3.46l.85.48A38.91,38.91,0,0,1,970.83,604.13Z" transform="translate(-892.73 -437.7)"/><path class="cls-2" d="M1001.94,587.31c0-1-1.38-1.92-3.06-2.11l-4.74-.53V590q0,1.08.06,2.13l4.87-1.9C1000.65,589.57,1001.94,588.27,1001.94,587.31Z" transform="translate(-892.73 -437.7)"/><path class="cls-2" d="M1000.79,596.91l-.18-.7a2.65,2.65,0,0,0-3.61-1.88l-2.5,1a33.87,33.87,0,0,0,2.26,8.56l2.4-2A5.39,5.39,0,0,0,1000.79,596.91Z" transform="translate(-892.73 -437.7)"/><path class="cls-2" d="M998.77,579l.16-3c.09-1.69-.7-3.41-1.74-3.83s-2.24.3-3.05,1.54v7.82l1.41.16A2.87,2.87,0,0,0,998.77,579Z" transform="translate(-892.73 -437.7)"/><path class="cls-2" d="M1009,594.82c0,1.11,1.24,2.65,2.75,3.41l3.72,1.86v-6l-3.45-.7C1010.38,593.06,1009,593.7,1009,594.82Z" transform="translate(-892.73 -437.7)"/><path class="cls-2" d="M1005.09,597.49c.47-.3.85-1.62.85-2.93s-.52-2.49-1.16-2.62a1.7,1.7,0,0,0-1.45.31c-.18.18-.24,1.15.16,2.79S1004.62,597.78,1005.09,597.49Z" transform="translate(-892.73 -437.7)"/><path class="cls-2" d="M1002,576.57l-.15,2.77a3.25,3.25,0,0,0,0,.63,13.17,13.17,0,0,0,3.3,7.88,4.5,4.5,0,0,0,2.87,1.6l7.46,1.51V573.57s-7.78-.06-10.69-.06A3.07,3.07,0,0,0,1002,576.57Z" transform="translate(-892.73 -437.7)"/><path class="cls-2" d="M970.54,535.8l8.24,3.94a4,4,0,0,0,4.64-1.12l1.85-2.43q-3.66-2.25-7.82-5.29l0,0-1.24-.92-.21-.15-1.05-.8-.34-.26-4.46,3.74A1.84,1.84,0,0,0,970.54,535.8Z" transform="translate(-892.73 -437.7)"/><path class="cls-2" d="M974.22,561.93a12.77,12.77,0,0,0,3-.29l2.44-.39a9.43,9.43,0,0,0,5-2.84L987,555.6a3.74,3.74,0,0,0-.06-4.68L984.39,548a1.94,1.94,0,0,0-3.42.44L975.64,559C974.88,560.51,974.24,561.83,974.22,561.93Z" transform="translate(-892.73 -437.7)"/><path class="cls-2" d="M977.13,582.9l14.24.89c1.12.07,2.46.19,3,.68V573.81a4.75,4.75,0,0,1-3.51-1l-7-6.63a7.07,7.07,0,0,0-5.27-1.65l-2,.32a4.66,4.66,0,0,0-3.61,3.5l-1.15,6.24a9.82,9.82,0,0,0,.81,5.57A6,6,0,0,0,977.13,582.9Z" transform="translate(-892.73 -437.7)"/><path class="cls-2" d="M992.41,565l-3.17-.45c-1.68-.23-2,.53-.82,1.7l1.34,1.28a2.7,2.7,0,0,0,4,0C994.68,566.39,994.09,565.25,992.41,565Z" transform="translate(-892.73 -437.7)"/><path class="cls-2" d="M953,531.41l3,5a2.55,2.55,0,0,0,3.94.66l12.16-10.23-.16-.13-.94-.75-.69-.55-.53-.43q-2-1.66-4.18-3.49c-.73-.63-1.45-1.27-2.16-1.91l-.32-.3c-.63-.57-1.25-1.15-1.86-1.73l-.75-.73-.43-.41-6.88,9.87A5.17,5.17,0,0,0,953,531.41Z" transform="translate(-892.73 -437.7)"/><path class="cls-2" d="M926.75,479.3l4.18,7.94a5.61,5.61,0,0,0,4.51,2.73h4.32c-2.78-4.75-5.08-9.29-7-13.39h-4.38A1.7,1.7,0,0,0,926.75,479.3Z" transform="translate(-892.73 -437.7)"/><path class="cls-2" d="M935.41,495.77l4.6,8.73a5.61,5.61,0,0,0,4.51,2.72h7.21c-.25-.3-.49-.61-.74-.92-.08-.1-.17-.2-.25-.31A133.26,133.26,0,0,1,941.62,493h-4.56C935.36,493,934.62,494.27,935.41,495.77Z" transform="translate(-892.73 -437.7)"/><path class="cls-2" d="M1003.85,550.58c-.74.25-1.29,1.73-1.21,3.31a3.13,3.13,0,0,0,3.21,2.84l5.39,0c1.69,0,2-.82.58-1.81l-4.13-3C1006.32,551,1004.59,550.34,1003.85,550.58Z" transform="translate(-892.73 -437.7)"/><path class="cls-2" d="M1009.93,549.64l5.06,3.47a13.15,13.15,0,0,0-5.14-7.32l-.05,0c-.27-.19-.55-.35-.83-.52l-.27-.16h0v0A3.79,3.79,0,0,0,1009.93,549.64Z" transform="translate(-892.73 -437.7)"/><path class="cls-2" d="M986,545.24l3.4,3.87a5.07,5.07,0,0,0,5,1.35l7-2.31a8.15,8.15,0,0,0,4.21-3.76l.22-.48a13.29,13.29,0,0,0-3.48-.48,45.82,45.82,0,0,1-14.42-5.66l-2.07,2.71A3.92,3.92,0,0,0,986,545.24Z" transform="translate(-892.73 -437.7)"/><path class="cls-2" d="M973.23,557l5.31-10.52a3,3,0,0,0-1.38-4.07L968,538a5.2,5.2,0,0,0-5.13.65l-2.13,1.78a25.92,25.92,0,0,0-4,4.45,5.75,5.75,0,0,0-.28,5.22l3.44,6.88a5.45,5.45,0,0,0,4.45,2.76h4.46A5.52,5.52,0,0,0,973.23,557Z" transform="translate(-892.73 -437.7)"/><path class="cls-2" d="M956.58,557.3,954.43,553c-.75-1.51-2.14-1.6-3.09-.2L949,556.33a35.8,35.8,0,0,0-2.4,4c-.38.83.68,1.3,2.35,1l6-.91A2.11,2.11,0,0,0,956.58,557.3Z" transform="translate(-892.73 -437.7)"/><path class="cls-2" d="M956.8,571.2a8.11,8.11,0,0,0,4.58,3.29l4.1.89A3,3,0,0,0,969,573l1.33-7.19a2.47,2.47,0,0,0-2.51-3h-4.4a48.05,48.05,0,0,0-6.11.47l-1.8.27a1.93,1.93,0,0,0-1.47,3.1Z" transform="translate(-892.73 -437.7)"/><path class="cls-2" d="M940.85,513.32l-2.12,10.83a2.44,2.44,0,0,0,2.49,3h4.5a6.65,6.65,0,0,0,4.84-2.52l7.32-10.5-.65-.69-.8-.85c-.71-.77-1.41-1.54-2.09-2.31h-9.82A3.91,3.91,0,0,0,940.85,513.32Z" transform="translate(-892.73 -437.7)"/><path class="cls-2" d="M980.79,586.21l-1.95-.12c-1.68-.11-2.41,1-1.61,2.51l4.52,8.39h2.11v-7.51A3.32,3.32,0,0,0,980.79,586.21Z" transform="translate(-892.73 -437.7)"/><path class="cls-2" d="M968.39,584s-4.18,6.88-4.73,11.55c-.36,3,4.61,4.83,8.27,5A18.05,18.05,0,0,1,973.7,597h4.46l0,0-7-13C970.41,582.45,969.15,582.47,968.39,584Z" transform="translate(-892.73 -437.7)"/><path class="cls-2" d="M964.44,578.3l-3-.65a3.55,3.55,0,0,0-4,2.26l-3.89,11.46a33.17,33.17,0,0,0,6.19,3.18h0l6.36-12.83A2.29,2.29,0,0,0,964.44,578.3Z" transform="translate(-892.73 -437.7)"/><path class="cls-2" d="M994.34,586a5.11,5.11,0,0,1-3.16.87l-1.17-.08a2.87,2.87,0,0,0-3.07,2.89V597h8a39.31,39.31,0,0,1-.63-7.07Z" transform="translate(-892.73 -437.7)"/><path class="cls-2" d="M999.84,559.9l-.23-4.8a2.22,2.22,0,0,0-3.06-2.11l-1.73.57a12.66,12.66,0,0,0-4.89,3.33l-1.49,1.81c-1.09,1.3-.6,2.56,1.08,2.8l7.41,1A2.46,2.46,0,0,0,999.84,559.9Z" transform="translate(-892.73 -437.7)"/><path class="cls-2" d="M1006.23,559.8a3.78,3.78,0,0,0-2.58.88c-2.29,2.25-5.92,4.21-6.3,6.72-.37.71.31,1.68,1.49,2.15a6.57,6.57,0,0,0,.75.25h0a18,18,0,0,0,3,.54l.56.11,12.33,0V559.75Z" transform="translate(-892.73 -437.7)"/><path class="cls-2" d="M937.54,545.92c-.1.46-.19.92-.27,1.39l6.23,6.23a2.43,2.43,0,0,0,3.89-.38l6.26-9.3a5.28,5.28,0,0,0,.14-5.19l-3.47-5.78a6,6,0,0,0-4.67-2.64h-5a3.89,3.89,0,0,0-3.66,3l-1.54,7.85c.74,1.82,1.45,3.43,2.12,4.8Z" transform="translate(-892.73 -437.7)"/><path class="cls-2" d="M932.89,497.58l-1-1.81a5.59,5.59,0,0,0-4.51-2.73H920.7c1,4.18,2.22,8.79,3.53,13.55l7.48-4.66A3.36,3.36,0,0,0,932.89,497.58Z" transform="translate(-892.73 -437.7)"/><path class="cls-2" d="M927.45,487.24l-4.18-7.94a5.64,5.64,0,0,0-4.51-2.72h-1.31A101.2,101.2,0,0,0,920,490h5.84C927.5,490,928.24,488.74,927.45,487.24Z" transform="translate(-892.73 -437.7)"/><path class="cls-2" d="M937.22,505.81l0-.05a2.82,2.82,0,0,0-4-1.1l-8,5c2.58,9.14,5.5,18.53,8.23,26l4.73-24.17A10.13,10.13,0,0,0,937.22,505.81Z" transform="translate(-892.73 -437.7)"/><path class="cls-2" d="M941.89,556.28l-5.17-5.17a55.74,55.74,0,0,0-.31,6,46.55,46.55,0,0,0,2,13.56l4.37-9.4A4.72,4.72,0,0,0,941.89,556.28Z" transform="translate(-892.73 -437.7)"/><path class="cls-2" d="M918.88,473.17a1.22,1.22,0,0,0,.27-1.69c-.59-1.12-.45-2.35.3-2.75s2,.51,2.79,2l0,0a5.61,5.61,0,0,0,4.51,2.72h4.61c-2.56-5.79-4.65-11.43-5.7-14l-10.5,4.36,4,8.74Z" transform="translate(-892.73 -437.7)"/><path class="cls-2" d="M954.14,572.74l-3.26-5.47a12.1,12.1,0,0,1-1.4-2.74,17.43,17.43,0,0,0-2.47.3,6,6,0,0,0-3.91,3.2L940,574.94c.09.21.18.43.28.64l.18.4q.47,1,1,1.92c.13.24.25.48.38.71s.35.62.53.92.52.86.79,1.29l.49.73c.25.37.51.74.78,1.1l.39.53c.39.51.79,1,1.2,1.49l.24.28c.42.48.85.95,1.28,1.4l.13.14c.51.52,1,1,1.58,1.52l0,0c.55.5,1.12,1,1.7,1.44l3.81-11.19A7.61,7.61,0,0,0,954.14,572.74Z" transform="translate(-892.73 -437.7)"/><path class="cls-1" d="M923.31,453.19a2,2,0,0,0,3.87-.84c1.35-.91,5.77-1.51,8.33-1,.53.1.61.79.57,1.23-.18,2-6.66,5.65-8.53,6.79h-2l-3.07-6Z" transform="translate(-892.73 -437.7)"/><path class="cls-1" d="M905.51,453.19a2,2,0,0,1-3.87-.84c-1.35-.91-5.77-1.51-8.33-1-.53.1-.61.79-.57,1.23.18,2,6.66,5.65,8.53,6.79h2l3.08-6Z" transform="translate(-892.73 -437.7)"/><path class="cls-1" d="M926.07,457.94a7.88,7.88,0,0,0-2.74-6h0s-3.91-3.59-7.06-4.32a7.22,7.22,0,0,0-1.87-.26,7.14,7.14,0,0,0-1.86.26c-3.16.73-7.06,4.32-7.06,4.32h0a7.82,7.82,0,0,0-2.47,8h0l4.93,20.85,6.47-3.17,6.47,3.17L925.81,460h0A7.94,7.94,0,0,0,926.07,457.94Z" transform="translate(-892.73 -437.7)"/><path class="cls-4" d="M916.51,458.53a2.1,2.1,0,0,0-4.2,0c0,11.29-2,16-5.35,18.12h0l.91,3.85.07.31h0a6.27,6.27,0,0,0,.55,1.46h0s.07.13.1.17a4.1,4.1,0,0,0,.26.43.56.56,0,0,1,0,.08c1.31,1.91,4.15,4,5.51,4s3.72-1.79,5.15-3.56l0,0,.3-.41a1.63,1.63,0,0,0,.11-.17,3.6,3.6,0,0,0,.22-.37l.09-.14,0,0h0a7.32,7.32,0,0,0,.55-1.46h0l.07-.31.91-3.85h0C918.51,474.48,916.51,469.82,916.51,458.53Z" transform="translate(-892.73 -437.7)"/><path class="cls-5" d="M904.76,460.07a1.45,1.45,0,1,1,1.45,1.45A1.44,1.44,0,0,1,904.76,460.07Z" transform="translate(-892.73 -437.7)"/><path class="cls-5" d="M924.06,460.07a1.45,1.45,0,1,0-1.44,1.45A1.44,1.44,0,0,0,924.06,460.07Z" transform="translate(-892.73 -437.7)"/><path class="cls-6" d="M912.49,480.77a3.89,3.89,0,0,1-1-2.36h0a.62.62,0,0,0-.62-.62.61.61,0,0,0-.61.62h0a5.08,5.08,0,0,0,1.31,3.23h0a.62.62,0,1,0,.87-.87Z" transform="translate(-892.73 -437.7)"/><path class="cls-6" d="M917.21,481.64a5.13,5.13,0,0,0,1.3-3.23h0a.61.61,0,0,0-.61-.62.62.62,0,0,0-.62.62h0a3.94,3.94,0,0,1-.94,2.36h0a.61.61,0,0,0,0,.87.63.63,0,0,0,.88,0Z" transform="translate(-892.73 -437.7)"/><path class="cls-2" d="M911.39,439.11h0a1.59,1.59,0,0,0-3.13-.15h0v0c-.19,1.36-2.08,10.93-2.74,13,0,0,3.9-3.59,7.06-4.32Z" transform="translate(-892.73 -437.7)"/><path class="cls-2" d="M917.43,439.11h0a1.59,1.59,0,0,1,3.13-.15h0v0c.19,1.36,2.09,10.93,2.75,13,0,0-3.91-3.59-7.06-4.32Z" transform="translate(-892.73 -437.7)"/></svg>