<svg id="Vrstva_1" data-name="Vrstva 1" xmlns="http://www.w3.org/2000/svg" viewBox="0 0 157.44 150.7"><defs><style>.cls-1{fill:#080405;}.cls-2{fill:#131318;}.cls-3{fill:#0f0b0e;}.cls-4{fill:#272733;}.cls-5{fill:#5a6477;}.cls-6{fill:#383c4a;}</style></defs><title>gorila</title><path class="cls-1" d="M1008.82,563c0,11.61-1.43,22.21-5.81,28.27v25H974.07c0-3.78,2.69-9.84,6.9-9.84,0-7.4-3-22.48-5-28.15S1008.82,563,1008.82,563Z" transform="translate(-883.52 -465.6)"/><path class="cls-2" d="M933.94,472.1c-15,10.48-54,37.93-50.16,75,2.58,25.33,4.37,35.16,11.86,53.26,3,7.32,7.32,15.9,12.88,15.9h17.42c0-6.56-.13-11.73-6.57-16.28,0-6.31-.76-51.45,9.11-76C934.14,509.86,933.94,472.1,933.94,472.1Z" transform="translate(-883.52 -465.6)"/><path class="cls-2" d="M922.33,548.91c1,5,1.24,15.86,1.24,19.39a38.54,38.54,0,0,0-4.19-5.25C917.17,560.84,922.33,548.91,922.33,548.91Z" transform="translate(-883.52 -465.6)"/><path class="cls-2" d="M920.57,564.33c1.25,4.38,2.33,14,2.61,17.09a33.9,33.9,0,0,0-4.13-4.33C916.92,575.31,920.57,564.33,920.57,564.33Z" transform="translate(-883.52 -465.6)"/><path class="cls-2" d="M919.73,577.69a98.79,98.79,0,0,1,2,13.14,26,26,0,0,0-3.18-3.32C916.93,586.13,919.73,577.69,919.73,577.69Z" transform="translate(-883.52 -465.6)"/><path class="cls-2" d="M887.07,572.5c-.38,4.53.41,14.14.75,17.27a34.11,34.11,0,0,1,3.21-5C892.78,582.56,887.07,572.5,887.07,572.5Z" transform="translate(-883.52 -465.6)"/><path class="cls-2" d="M890.33,585.29a98.76,98.76,0,0,0,.57,13.29,25.93,25.93,0,0,1,2.47-3.88C894.71,593,890.33,585.29,890.33,585.29Z" transform="translate(-883.52 -465.6)"/><path class="cls-3" d="M907.7,524.8c0,11.65,27.24,53.64,64.6,53.64h35.09c2.77,0,33.57-15.4,33.57-15.4,0-7.82-6.81-31-26.5-38.37s-34.86-14.6-42.59-23C961.44,506.5,907.7,524.8,907.7,524.8Z" transform="translate(-883.52 -465.6)"/><path class="cls-3" d="M1041,563c0,11.61-1.43,22.21-5.8,28.27v25h-29c0-3.78,2.69-9.84,6.9-9.84,0-7.4-3-22.48-5-28.15S1041,563,1041,563Z" transform="translate(-883.52 -465.6)"/><path class="cls-2" d="M938,472.1c15,10.48,54,37.93,50.16,75-2.58,25.33-4.37,35.16-11.86,53.26-3,7.32-7.32,15.9-12.88,15.9H946.05c0-6.56.12-11.73,6.56-16.28,0-6.31.76-51.45-9.11-76C937.84,509.86,938,472.1,938,472.1Z" transform="translate(-883.52 -465.6)"/><path class="cls-2" d="M949.65,548.91c-1,5-1.24,15.86-1.24,19.39a38.54,38.54,0,0,1,4.19-5.25C954.81,560.84,949.65,548.91,949.65,548.91Z" transform="translate(-883.52 -465.6)"/><path class="cls-2" d="M951.41,564.33c-1.25,4.38-2.33,14-2.61,17.09a33.9,33.9,0,0,1,4.13-4.33C955.06,575.31,951.41,564.33,951.41,564.33Z" transform="translate(-883.52 -465.6)"/><path class="cls-2" d="M952.25,577.69a98.79,98.79,0,0,0-2,13.14,26,26,0,0,1,3.18-3.32C955.06,586.13,952.25,577.69,952.25,577.69Z" transform="translate(-883.52 -465.6)"/><path class="cls-2" d="M984.91,572.5c.38,4.53-.41,14.14-.75,17.27a33.31,33.31,0,0,0-3.21-5C979.21,582.56,984.91,572.5,984.91,572.5Z" transform="translate(-883.52 -465.6)"/><path class="cls-2" d="M981.65,585.29a98.76,98.76,0,0,1-.57,13.29,25.93,25.93,0,0,0-2.47-3.88C977.27,593,981.65,585.29,981.65,585.29Z" transform="translate(-883.52 -465.6)"/><path class="cls-4" d="M904,503.78c-5.17-5.17-5.78-12.94-1.36-17.35s12.18-3.15,17.35,2,5.78,12.28,1.37,16.7S909.16,509,904,503.78Z" transform="translate(-883.52 -465.6)"/><path class="cls-4" d="M945.52,503.78c5.17-5.17,5.78-12.94,1.37-17.35s-12.19-3.15-17.36,2-5.78,12.28-1.36,16.7S940.35,509,945.52,503.78Z" transform="translate(-883.52 -465.6)"/><path class="cls-4" d="M948,498.16s-6.94-10.51-3.86-13.6c-3.8-16-15.07-19-19.4-19s-15.61,2.93-19.41,19c3.08,3.09-3.86,13.6-3.86,13.6-2.9,6.32-13.55,27.56,23.27,30.38C961.57,525.72,950.93,504.48,948,498.16Z" transform="translate(-883.52 -465.6)"/><path class="cls-5" d="M942.78,496.52a8.37,8.37,0,0,0-12.52-7.29h0a14.06,14.06,0,0,1-11,0h0a8.38,8.38,0,0,0-12.53,7.29c0,4.64,3.76,7.58,8.39,7.58a46.15,46.15,0,0,0-3.32,15.77c0,6.31,6.56,8.67,13,8.67s13-2.36,13-8.67a46.14,46.14,0,0,0-3.33-15.77C939,504.1,942.78,501.16,942.78,496.52Z" transform="translate(-883.52 -465.6)"/><path class="cls-3" d="M913.27,496.52a1.85,1.85,0,1,1,1.85,1.85A1.85,1.85,0,0,1,913.27,496.52Z" transform="translate(-883.52 -465.6)"/><path class="cls-3" d="M920.77,506.93c-.68-.67-.9-1.56-.49-2s1.77-.45,2,.49c.24,1.11,1.51,1.86,1.1,2.27S921.45,507.61,920.77,506.93Z" transform="translate(-883.52 -465.6)"/><path class="cls-3" d="M936.24,496.52a1.85,1.85,0,1,0-1.85,1.85A1.85,1.85,0,0,0,936.24,496.52Z" transform="translate(-883.52 -465.6)"/><path class="cls-3" d="M928.75,506.93c.67-.67.89-1.56.48-2s-1.77-.45-2,.49c-.24,1.11-1.51,1.86-1.1,2.27S928.07,507.61,928.75,506.93Z" transform="translate(-883.52 -465.6)"/><path class="cls-6" d="M924.76,517.52c-5.1,0-10.49.87-12.91,3.24.59,5.64,6.82,7.78,12.91,7.78s12.32-2.14,12.91-7.78C935.24,518.39,929.86,517.52,924.76,517.52Z" transform="translate(-883.52 -465.6)"/><path class="cls-6" d="M918.36,503.61a17.07,17.07,0,0,1-3.24.49,47.11,47.11,0,0,0-3,11.87c1.8-4.52,4.6-6.73,6.52-7.58A3.77,3.77,0,0,1,918.36,503.61Z" transform="translate(-883.52 -465.6)"/><path class="cls-6" d="M934.39,504.1a17.32,17.32,0,0,1-3.24-.49,3.76,3.76,0,0,1-.23,4.78c1.92.85,4.73,3.06,6.53,7.58A46.65,46.65,0,0,0,934.39,504.1Z" transform="translate(-883.52 -465.6)"/></svg>