<svg id="Vrstva_1" data-name="Vrstva 1" xmlns="http://www.w3.org/2000/svg" viewBox="0 0 181.88 135.56"><defs><style>.cls-1{fill:#bdb7b0;}.cls-2{fill:#918880;}.cls-3{fill:#736c67;}.cls-4{fill:#eae8e7;}.cls-5{fill:#272733;}</style></defs><title>hroch</title><path class="cls-1" d="M881.08,499.24h0a5.26,5.26,0,0,0,.9.67c2.21,1.5,4.12,1.63,5.34,2.41.34-.65.72-1.29,1.12-1.94a27.34,27.34,0,0,1,2.45-3.31,15.31,15.31,0,0,0-2.74-4.86,1.89,1.89,0,0,0-.2-.2v0h0a5,5,0,0,0-6.87,7.24Z" transform="translate(-868.33 -472.8)"/><path class="cls-2" d="M889.32,499.1a27.88,27.88,0,0,1-2.45-3.32h0a1.44,1.44,0,0,0-2.53,1.36,1.46,1.46,0,0,0,.55.65,28.41,28.41,0,0,1,3.56,2.6q.43-.67.87-1.29Z" transform="translate(-868.33 -472.8)"/><path class="cls-3" d="M914.85,568.69l-.9.65s6.55,19.34,6.55,30.59h-5a4.22,4.22,0,1,0,0,8.44h11.69a3.43,3.43,0,0,0,3.59-3c.24-1.26,3.52-19.06,5.33-28.81A100.93,100.93,0,0,1,914.85,568.69Z" transform="translate(-868.33 -472.8)"/><path class="cls-2" d="M1039.18,498.12h0l-.09-.11c-11.22-14.71-40.41-25.2-74.66-25.2a151.11,151.11,0,0,0-34.88,3.9c-9.57,2.26-19.08,5.58-27.5,10.72-8,4.9-15.19,11.63-17,21.22-1.57,8.36,1.29,15.58.57,18.56-1.1,4.57-16.08,14.35-17.26,37.61-.83,16.25,13.7,18.67,20.51,16.34,2.87,4.75,8.66,7.78,17.93,7.78,12.33,0,22.6-5.82,25-13.55a131.74,131.74,0,0,0,37.14,5.16c42,0,76.42-18.24,80.42-41.59C1052.14,525.05,1048.17,509.56,1039.18,498.12Z" transform="translate(-868.33 -472.8)"/><path class="cls-3" d="M997.31,577.6a187.11,187.11,0,0,1,1.83,22.33h-5a4.22,4.22,0,1,0,0,8.44H1013a3.44,3.44,0,0,0,3.59-3c.17-.92,3.32-19.45,6.23-36.62A103.92,103.92,0,0,1,997.31,577.6Z" transform="translate(-868.33 -472.8)"/><path class="cls-2" d="M938.06,577.05c2.08,6.89,4.53,16.4,4.53,22.88h-5a4.22,4.22,0,1,0,0,8.44h11.69a3.44,3.44,0,0,0,3.6-3c.2-1.12,2.82-15.32,4.67-25.31A131,131,0,0,1,938.06,577.05Z" transform="translate(-868.33 -472.8)"/><path class="cls-2" d="M1021.14,569.6c4,9.16,8.5,21.5,8.5,30.33h-5a4.22,4.22,0,1,0,0,8.44h18.85a3.44,3.44,0,0,0,3.59-3c.24-1.31.3-40.54.31-59.95C1043.27,555,1033.9,563.42,1021.14,569.6Z" transform="translate(-868.33 -472.8)"/><path class="cls-3" d="M952.41,526.59c2.84,11.17-15.3,11.66-16.84,26.61a25,25,0,0,0-1.33,6.91c-.25,2.78-.4,5.57-.78,8.33a34.27,34.27,0,0,1-.7,3.77c-.15.63-.33,1.25-.53,1.86-.09.27-.17.56-.27.82s-.14.33-.2.49c1,.29,2,.56,2.94.82,6.23-9,3-18.14,6.35-24.33C946,540,958.89,534.63,952.41,526.59Z" transform="translate(-868.33 -472.8)"/><path class="cls-3" d="M959.44,520.9a1.41,1.41,0,0,1-1.42-1.42c0-16.7-11.11-30-21.85-33.12a1.4,1.4,0,0,1-1-1.76,1.42,1.42,0,0,1,1.76-1c11.74,3.46,23.89,17.81,23.89,35.84A1.42,1.42,0,0,1,959.44,520.9Z" transform="translate(-868.33 -472.8)"/><path class="cls-3" d="M965.66,529.31h-.23a1.42,1.42,0,0,1-1.17-1.63,37.59,37.59,0,0,0-.32-13.75,1.42,1.42,0,1,1,2.77-.6,40.23,40.23,0,0,1,.35,14.8A1.42,1.42,0,0,1,965.66,529.31Z" transform="translate(-868.33 -472.8)"/><path class="cls-1" d="M876.45,539.87a48.86,48.86,0,0,0-8.08,24.94c-.83,16.25,13.7,18.67,20.51,16.34,2.87,4.75,8.66,7.78,17.93,7.78.78,0,1.56,0,2.34-.07A32.25,32.25,0,0,0,924,584.47a20.42,20.42,0,0,0,5-4.24,19.13,19.13,0,0,0,3-5.32c.11-.27.18-.55.27-.82.2-.62.38-1.24.53-1.86a37.34,37.34,0,0,0,.71-3.77c.38-2.77.52-5.56.78-8.33a24.58,24.58,0,0,1,1.32-6.91c-4.1-5.52-17.58-20.35-37.21-20.35C884,532.87,878.38,537.45,876.45,539.87Z" transform="translate(-868.33 -472.8)"/><path class="cls-1" d="M934.5,501.32h0a4.67,4.67,0,0,1-.74.86c-1.84,1.92-3.68,2.45-4.7,3.47-.47-.55-1-1.11-1.51-1.65a27.63,27.63,0,0,0-3.09-2.72,15,15,0,0,1,1.64-5.33l.16-.24v0h0a5,5,0,0,1,8.24,5.62Z" transform="translate(-868.33 -472.8)"/><path class="cls-2" d="M926.42,502.93a27.23,27.23,0,0,0,1.69-3.77h0a1.44,1.44,0,0,1,2.76.8,1.48,1.48,0,0,1-.4.75,27.5,27.5,0,0,0-2.93,3.3c-.38-.38-.75-.74-1.12-1.08Z" transform="translate(-868.33 -472.8)"/><path class="cls-4" d="M915.16,568.53c1.88-3.52,1.93-7.16.12-8.12s-4.8,1.1-6.68,4.61-1.93,7.16-.12,8.13S913.28,572.05,915.16,568.53Z" transform="translate(-868.33 -472.8)"/><path class="cls-5" d="M918.2,519.15a2.05,2.05,0,1,0-2.05,2.06A2.05,2.05,0,0,0,918.2,519.15Z" transform="translate(-868.33 -472.8)"/><path class="cls-5" d="M913.65,567.72c1-1.9,1-3.86.06-4.38s-2.59.6-3.6,2.49-1,3.86-.06,4.38S912.64,569.62,913.65,567.72Z" transform="translate(-868.33 -472.8)"/><path class="cls-4" d="M870.06,555.1l-.27-.09a51.77,51.77,0,0,0-1.42,9.8,22.29,22.29,0,0,0,0,2.59,3.66,3.66,0,0,0,2.58-.94,7.24,7.24,0,0,0,2.13-5C873.31,558.36,872.09,555.81,870.06,555.1Z" transform="translate(-868.33 -472.8)"/><path class="cls-5" d="M868.36,565l.1,0c1.11.08,2.13-1.6,2.27-3.75.14-2-.5-3.62-1.45-4a51.36,51.36,0,0,0-.91,7.48C868.36,564.88,868.37,565,868.36,565Z" transform="translate(-868.33 -472.8)"/><path class="cls-5" d="M894.55,519.15a2.06,2.06,0,1,0-2.06,2.06A2.05,2.05,0,0,0,894.55,519.15Z" transform="translate(-868.33 -472.8)"/></svg>