<svg id="Vrstva_1" data-name="Vrstva 1" xmlns="http://www.w3.org/2000/svg" viewBox="0 0 114.83 121.44"><defs><style>.cls-1{fill:#615447;}.cls-2{fill:#dbd1c1;}.cls-3{fill:#7e6e58;}.cls-4{fill:#ae9f86;}.cls-5{fill:#131318;}</style></defs><title>lemur</title><path class="cls-1" d="M966,484.27c4.91,2.45,6.3,7.65,3.89,10.36s-6.64,3.13-9.86,1.56a30,30,0,0,0-6.28-2.33L957,480.92A42.61,42.61,0,0,1,966,484.27Z" transform="translate(-902.1 -479.61)"/><path class="cls-2" d="M947.08,493a30.51,30.51,0,0,1,6.66.9L957,480.92a43.81,43.81,0,0,0-9.53-1.29Z" transform="translate(-902.1 -479.61)"/><path class="cls-1" d="M940.18,493.42a41,41,0,0,1,6.9-.46l.35-13.33a52.74,52.74,0,0,0-9.4.63Z" transform="translate(-902.1 -479.61)"/><path class="cls-2" d="M933.57,495.18a36,36,0,0,1,6.61-1.76L938,480.26a49.36,49.36,0,0,0-9.18,2.44Z" transform="translate(-902.1 -479.61)"/><path class="cls-1" d="M927.59,498.23a31.17,31.17,0,0,1,6-3.05l-4.72-12.48a44.37,44.37,0,0,0-8.57,4.37Z" transform="translate(-902.1 -479.61)"/><path class="cls-2" d="M922.53,502.43a27.36,27.36,0,0,1,5.06-4.2l-7.31-11.16a40.78,40.78,0,0,0-7.48,6.24Z" transform="translate(-902.1 -479.61)"/><path class="cls-1" d="M918.72,507.69a25.74,25.74,0,0,1,3.81-5.26l-9.73-9.12a39.46,39.46,0,0,0-5.77,8Z" transform="translate(-902.1 -479.61)"/><path class="cls-2" d="M916.35,513.73a24.26,24.26,0,0,1,2.37-6L907,501.27a37.81,37.81,0,0,0-3.6,9.14Z" transform="translate(-902.1 -479.61)"/><path class="cls-1" d="M915.46,520.29a28.11,28.11,0,0,1,.89-6.56l-12.92-3.32a41.41,41.41,0,0,0-1.31,9.61Z" transform="translate(-902.1 -479.61)"/><path class="cls-2" d="M916.11,526.62a22.29,22.29,0,0,1-.65-6.33L902.12,520a36.08,36.08,0,0,0,1.06,9.89Z" transform="translate(-902.1 -479.61)"/><path class="cls-1" d="M918.48,532.18a19.81,19.81,0,0,1-2.37-5.56l-12.93,3.29a33.68,33.68,0,0,0,4,9.43Z" transform="translate(-902.1 -479.61)"/><path class="cls-2" d="M922.48,536.65a19.53,19.53,0,0,1-4-4.47l-11.26,7.16a32.47,32.47,0,0,0,6.87,7.67Z" transform="translate(-902.1 -479.61)"/><path class="cls-1" d="M927.84,539.79a22.14,22.14,0,0,1-5.36-3.14L914.09,547a35.19,35.19,0,0,0,8.7,5.13Z" transform="translate(-902.1 -479.61)"/><path class="cls-2" d="M934.13,541.45a26.59,26.59,0,0,1-6.29-1.66l-5.05,12.35a40.25,40.25,0,0,0,9.49,2.52Z" transform="translate(-902.1 -479.61)"/><path class="cls-1" d="M940.89,541.66a32.35,32.35,0,0,1-6.76-.21l-1.85,13.21a45.21,45.21,0,0,0,9.57.3Z" transform="translate(-902.1 -479.61)"/><path class="cls-2" d="M947.77,540.52a40,40,0,0,1-6.88,1.14l1,13.3a52.53,52.53,0,0,0,9.25-1.53Z" transform="translate(-902.1 -479.61)"/><path class="cls-3" d="M1006.13,566.09v30.57h2.61a2.2,2.2,0,0,1,0,4.4h-7.5c-1,0-2.41-2.71-2.41-4.4V566.09Z" transform="translate(-902.1 -479.61)"/><path class="cls-3" d="M971,596.66h-2.6v-12c1.17-1.6,1.7-5.17,1.93-8.8H950.94c4.33,4.33,10.18,10.11,10.18,12.92v7.84c0,1.69,1.41,4.4,2.41,4.4H971a2.2,2.2,0,0,0,0-4.4Z" transform="translate(-902.1 -479.61)"/><path class="cls-4" d="M1006.38,565.29c0-2.87-21.33-21.39-21.33-21.39-6.29-3.11-18.29-10.66-30.7-7.42-11.94,3.11-23.9,15.72-23.9,30.5,0,3.87-.17,14.59,2.13,17.72v12H930a2.2,2.2,0,0,0,0,4.4h7.5c1,0,2.4-2.71,2.4-4.4v-7.84c0-2.76,5.65-8.39,10-12.68,4.84,2.06,12.36,3.26,20.88,3.7v16.82c0,1.69,1.41,4.4,2.4,4.4h7.5a2.2,2.2,0,0,0,0-4.4H978v-9.13c.56-3.07,3.2-5.71,5.07-7.57h0c4.87-.14,9.79-.49,14.51-1C1008.42,577.66,1006.38,568.16,1006.38,565.29Z" transform="translate(-902.1 -479.61)"/><path class="cls-2" d="M990.11,563.12c-6.69,1.42-7.05,13.09-7.05,16.84,4.87-.14,9.79-.49,14.51-1,.45,0,.87-.12,1.27-.2,4.48-3.14,4.78-8.53,4.78-12.17S996.8,561.7,990.11,563.12Z" transform="translate(-902.1 -479.61)"/><path class="cls-2" d="M985.05,543.89c-1.34-2.37-3.42-4.64-4.86-5s-4.32,9.09,1.61,11.71C985.2,545.79,985.05,543.89,985.05,543.89Z" transform="translate(-902.1 -479.61)"/><path class="cls-2" d="M1010.1,543.89c1.34-2.37,3.41-4.64,4.85-5s4.32,9.09-1.6,11.71C1009.94,545.79,1010.1,543.89,1010.1,543.89Z" transform="translate(-902.1 -479.61)"/><path class="cls-4" d="M997.57,539.47c-8.33,0-15.93,5.28-15.93,10.74,0,8,3.51,17.24,15.93,17.24s15.94-9.28,15.94-17.24C1013.51,544.75,1005.91,539.47,997.57,539.47Z" transform="translate(-902.1 -479.61)"/><path class="cls-2" d="M1013.5,550.48c-.8.81-3.67,3.29-4.51,1.82-1.37-2.37-6-4.11-11.42-4.11s-10,1.74-11.41,4.11c-.85,1.47-3.71-1-4.52-1.82.08,7.9,3.65,17,15.93,17S1013.43,558.38,1013.5,550.48Z" transform="translate(-902.1 -479.61)"/><path class="cls-1" d="M1008.93,552.22a60.23,60.23,0,0,1-7.87,3.73,4.34,4.34,0,0,0-.48.2h0c-.61.3-1,.7-1,1.21a4.45,4.45,0,0,0,4.45,4.45c2,0,3.42-1.85,4-3A13.56,13.56,0,0,0,1008.93,552.22Z" transform="translate(-902.1 -479.61)"/><path class="cls-1" d="M997.57,561.1c-1.53,0-5,1.53-5,3.26a5,5,0,0,0,9.91,0C1002.53,562.63,999.11,561.1,997.57,561.1Z" transform="translate(-902.1 -479.61)"/><path class="cls-5" d="M995.61,564.4c0-.72.88-1.3,2-1.3s2,.58,2,1.3-.88,1.29-2,1.29S995.61,565.11,995.61,564.4Z" transform="translate(-902.1 -479.61)"/><path class="cls-1" d="M986.22,552.22a60.23,60.23,0,0,0,7.87,3.73c.17.06.33.13.48.2h0c.61.3,1,.7,1,1.21a4.44,4.44,0,0,1-4.44,4.45c-2,0-3.43-1.85-4-3A13.44,13.44,0,0,1,986.22,552.22Z" transform="translate(-902.1 -479.61)"/><path class="cls-5" d="M1006.08,558.09a1.48,1.48,0,1,0-1.47,1.47A1.47,1.47,0,0,0,1006.08,558.09Z" transform="translate(-902.1 -479.61)"/><path class="cls-5" d="M989.07,558.09a1.47,1.47,0,1,1,1.47,1.47A1.47,1.47,0,0,1,989.07,558.09Z" transform="translate(-902.1 -479.61)"/></svg>