<svg id="Vrstva_1" data-name="Vrstva 1" xmlns="http://www.w3.org/2000/svg" viewBox="0 0 359.68 191.41"><defs><style>.cls-1{fill:#f89e7d;}.cls-2{fill:#8c936b;}.cls-3{fill:#5e6150;}.cls-4{fill:#262f3d;}</style></defs><title>anakonda</title><path class="cls-1" d="M1130.4,539.35s6.26-5.65,8-7.57c-.52,1.17-.69,1.65-1,2.2l3.06-1.79a81.55,81.55,0,0,1-10.08,8Z" transform="translate(-780.8 -444.87)"/><path class="cls-2" d="M1091.14,527.79c-2,1-4.25,2.89-6.42,2.79-14.59,0-44.06,0-44.06,28v19.1a3.42,3.42,0,1,1-6.84,0V517.38a38.27,38.27,0,1,0-76.53,0V598h.13a3.43,3.43,0,0,1-6.85,0V483.14a38.26,38.26,0,1,0-76.52,0V572a3.22,3.22,0,1,1-6.43,0V522.14a29.7,29.7,0,1,0-59.39,0v37.22a2.51,2.51,0,0,1-5,0s-.56-25.35-4.07-34.6-15.86-9.32-18.34-4.94c8.13-1.28,10.85,3.73,10.85,10.52s-2.23,16.59-2.23,29,6.64,22.5,19.06,22.5A22.49,22.49,0,0,0,831,559.36V522.14a3,3,0,1,1,6,0V572a36,36,0,1,0,72,0V483.14a3.42,3.42,0,0,1,6.84,0V598a38.27,38.27,0,1,0,76.53,0h-.13V517.38a3.43,3.43,0,0,1,6.85,0v60.28a38.26,38.26,0,1,0,76.52,0V560.24c0-3.11,2-6.94,9.22-6.94,2.16-.15,4.41,2.58,6.42,3.53,8.25,3.89,30.38-6.27,39.26-10.05,1.68-.71,1.7-8.18,0-8.95C1120.31,533.31,1099.39,523.72,1091.14,527.79Z" transform="translate(-780.8 -444.87)"/><path class="cls-3" d="M1096.39,534.67c-5,4.27,0,7.64,0,7.64s-5,3.37,0,7.64c4.8,4.14,24.28-3.82,35.13-5.63a14.25,14.25,0,0,0,0-4C1120.67,538.48,1101.19,530.53,1096.39,534.67Z" transform="translate(-780.8 -444.87)"/><path class="cls-4" d="M1115.52,538.19a1.78,1.78,0,1,0-1.78-1.78A1.78,1.78,0,0,0,1115.52,538.19Z" transform="translate(-780.8 -444.87)"/><path class="cls-4" d="M1115.52,546.42a1.79,1.79,0,1,1-1.78,1.79A1.79,1.79,0,0,1,1115.52,546.42Z" transform="translate(-780.8 -444.87)"/><path class="cls-3" d="M892.36,501.47c.86-2.05-1.8-5.12-5.94-6.85s-8.2-1.48-9,.57,1.8,5.11,5.94,6.84S891.51,503.51,892.36,501.47ZM890,569.31c-4.07,1.89-6.42,5.46-5.25,8s5.4,3,9.47,1.09,6.42-5.47,5.26-8S894.06,567.41,890,569.31Zm7-29.51c-4,4.92-3.8,11.6.34,14.93,3.17,2.55,7.75,2.38,11.5,0l0-3.46q0-4,0-8.1v-7.66C905,534.26,900.14,535.86,897,539.8ZM916,456c-1.61-.45-3.65,1.85-4.54,5.12s-.31,6.29,1.31,6.73,3.66-1.85,4.55-5.13S917.65,456.46,916,456ZM892.9,466c2.89-.43,4.52-5.52,3.65-11.37a19.29,19.29,0,0,0-1.69-5.57,38.14,38.14,0,0,0-8.88,6.3c0,.28,0,.56.1.84C887,462.08,890,466.46,892.9,466Zm34.58,105c-3.68,2.1-5.86,5.22-4.87,7s4.78,1.43,8.47-.67,5.86-5.22,4.87-7S931.17,568.87,927.48,571Zm-10.13,18a16.89,16.89,0,0,0-1.62,1.08V598a38.39,38.39,0,0,0,.35,5.06,12.72,12.72,0,0,0,8.32-1.72c5-2.86,7.48-7.94,5.53-11.34S922.36,586.16,917.35,589Zm16.53-55.92c-4.1-1.12-8.19.81-9.14,4.31s1.59,7.23,5.68,8.35,8.19-.82,9.14-4.31S938,534.21,933.88,533.1ZM915.73,512c1.72.43,4.37-.12,7-1.6,3.68-2.1,5.83-5.29,4.78-7.11s-4.87-1.59-8.55.52a13.94,13.94,0,0,0-3.19,2.46Zm97.48-8.34c1.57-5.77.72-11-1.91-11.74s-6,3.38-7.6,9.15-.72,11,1.91,11.75S1011.64,509.39,1013.21,503.62Zm41.61,78.15c-1.69,1-1.52,4.41.37,7.68s4.78,5.13,6.46,4.16,1.52-4.41-.37-7.68S1056.5,580.8,1054.82,581.77Zm-21-64.12v-.27a38.19,38.19,0,0,0-2.29-13.06,14.29,14.29,0,0,0-3.33,1.37c-4.73,2.71-7.09,7.46-5.28,10.63C1024.61,519.28,1029.35,519.8,1033.82,517.65Zm36.9,22c-2.88-.4-5.37.47-5.58,2s1.94,3,4.81,3.42,5.37-.46,5.58-1.94S1073.59,540,1070.72,539.62Zm-39.59,22.11c-1.37-2.38-5.61-2.51-9.49-.3s-5.91,5.94-4.55,8.33,5.61,2.51,9.48.3S1032.49,564.12,1031.13,561.73Zm30.92-4c-.57-1.72-3.72-2.22-7-1.13s-5.56,3.37-5,5.09,3.72,2.22,7,1.13S1062.61,559.47,1062.05,557.75Zm-40.42-5.42c.48-1.76-2.62-4.13-6.93-5.31s-8.19-.7-8.67,1.05,2.63,4.13,6.94,5.31S1021.15,554.08,1021.63,552.33Zm12.18,42.12c-3.15,3.16-4.4,7-2.77,8.66s5.5.38,8.66-2.77,4.4-7,2.77-8.66S1037,591.29,1033.81,594.45ZM932.6,490.81c3.69-2.11,5.83-5.29,4.79-7.12s-4.88-1.59-8.56.52-5.82,5.29-4.78,7.11S928.92,492.91,932.6,490.81ZM814.82,515.26c-.27-3.41-1.82-6.07-3.48-5.95l-.23.05a29.68,29.68,0,0,0-2.25,6.68c.33,3.25,1.84,5.75,3.44,5.63S815.08,518.67,814.82,515.26Zm134.06,90.19c-1.74,1-1.44,4.79.66,8.47s5.22,5.87,7,4.87,1.44-4.78-.67-8.47S950.61,604.46,948.88,605.45ZM819.62,560.9c-1.42.24-2.26,2.33-1.85,4.65s1.88,4,3.31,3.76,2.25-2.33,1.85-4.66S821.05,560.65,819.62,560.9Zm.71-13.49c-.48-1-2.52-1.1-4.55-.15s-3.29,2.55-2.81,3.59,2.52,1.1,4.56.15S820.81,548.44,820.33,547.41Zm42.06-29.88c-.33-2.19-4.19-3.43-8.63-2.77s-7.77,3-7.45,5.18,4.2,3.44,8.64,2.77S862.72,519.73,862.39,517.53Zm2.8,65.8c-2.15-1.73-6.17-.29-9,3.21s-3.36,7.73-1.21,9.46,6.17.29,9-3.21S867.33,585.05,865.19,583.33ZM854.39,555c.71,2.49,5.5,3.31,10.71,1.83a18.69,18.69,0,0,0,2.52-.9v-8.82a18.22,18.22,0,0,0-5.07.72C857.34,549.25,853.69,552.46,854.39,555Zm-49.48,8.66c-3.36,0-6.08,1.66-6.08,3.72s2.72,3.72,6.08,3.72,6.09-1.67,6.09-3.72S808.27,563.61,804.91,563.61Zm35.9-71a12.23,12.23,0,0,0-.91,1.35c-1.92,3.32-2.07,6.83-.34,7.83s4.69-.89,6.61-4.21a11.94,11.94,0,0,0,1.38-3.51A29.12,29.12,0,0,0,840.81,492.58ZM971,497c.54-2-1.1-4.2-3.77-5.33a38.31,38.31,0,0,0-5.1,7.12,9.4,9.4,0,0,0,1.66.65C967.13,500.38,970.35,499.29,971,497Zm12.15,21.54c-5.26-1.44-10.32.27-11.28,3.82s2.52,7.58,7.78,9,10.32-.28,11.29-3.82S988.39,520,983.12,518.56Zm-18.59,87.11c-2.5,1.43-2.07,6.9,1,12.21s7.53,8.46,10,7,2.07-6.9-1-12.21S967,604.24,964.53,605.67Zm14.33-47.43c.67-2.48-3.05-5.66-8.32-7.1s-10.08-.58-10.76,1.9,3.05,5.66,8.31,7.09S978.18,560.72,978.86,558.24Zm-176.94-19c-.14-1.3-.3-2.6-.47-3.86a22.17,22.17,0,0,0-4.36.2,18.63,18.63,0,0,0-5.94,1.77c-.11,1-.23,2-.35,3.07a31.2,31.2,0,0,0,7.09-.52C799.38,539.73,800.75,539.52,801.92,539.28ZM803,553.8c-.1-2-.23-4.3-.41-6.83-1.65-.61-3.68.52-4.6,2.63s-.36,4.5,1.31,5.23A3.35,3.35,0,0,0,803,553.8ZM825.44,534c-2.48,2.23-3.55,5.09-2.39,6.38s4.11.53,6.59-1.7a10.46,10.46,0,0,0,1.33-1.44v-5.49C829.54,531.43,827.35,532.26,825.44,534ZM978,576c-3.43-.94-6.56-.39-7,1.23s2,3.68,5.41,4.62,6.56.38,7-1.24S981.42,577,978,576Z" transform="translate(-780.8 -444.87)"/></svg>