<svg id="Vrstva_1" data-name="Vrstva 1" xmlns="http://www.w3.org/2000/svg" viewBox="0 0 183.15 264.65"><defs><style>.cls-1{fill:#c17c3d;}.cls-2{fill:#cc986e;}.cls-3{fill:#fcbf86;}.cls-4{fill:#818181;}.cls-5{fill:#1a1a1a;}.cls-6{fill:#dd9650;}.cls-7{fill:#eaaa6e;}.cls-8{fill:#f7c9a5;}.cls-9{fill:#262f3d;}.cls-10{fill:#aa805f;}.cls-11{fill:#f1b888;}</style></defs><title>lama alpaka</title><path class="cls-1" d="M908,588.68v39.71c0,1.58,1.14,5.26,2.67,6.16a1.45,1.45,0,0,1,.67,1.26v26.78H928V635.81a1.45,1.45,0,0,1,.67-1.26c1.52-.9,2.66-4.58,2.66-6.16V588.68Z" transform="translate(-870.53 -408.34)"/><path class="cls-2" d="M921.3,662.59h-9.95a4.5,4.5,0,0,1-.81.26,11.17,11.17,0,0,0-9,10.13h9.34A11.32,11.32,0,0,1,921.3,662.59Z" transform="translate(-870.53 -408.34)"/><path class="cls-3" d="M919.55,662.59A11.3,11.3,0,0,0,908,673h20V662.59C925.81,662.59,921.72,662.64,919.55,662.59Z" transform="translate(-870.53 -408.34)"/><path class="cls-4" d="M1007.6,662.53A11.37,11.37,0,0,0,996.05,673h17.15V662.59C1011,662.46,1009.75,662.49,1007.6,662.53Z" transform="translate(-870.53 -408.34)"/><path class="cls-5" d="M1000,662.85A11.17,11.17,0,0,0,991,673h5a11.3,11.3,0,0,1,10.42-10.39h-5.64A4.5,4.5,0,0,1,1000,662.85Z" transform="translate(-870.53 -408.34)"/><path class="cls-3" d="M1007.59,662.59A11.3,11.3,0,0,0,996.05,673h17.15V662.59C1011.07,662.59,1009.74,662.55,1007.59,662.59Z" transform="translate(-870.53 -408.34)"/><path class="cls-2" d="M1000,662.85A11.17,11.17,0,0,0,991,673h5a11.3,11.3,0,0,1,10.42-10.39h-5.64A4.5,4.5,0,0,1,1000,662.85Z" transform="translate(-870.53 -408.34)"/><path class="cls-1" d="M1023.36,588.68h-50c1.44,6.9,6.24,18.81,22,27.38,20.88,11.32,10.4,35.3,7.72,44a4.08,4.08,0,0,1-2.29,2.53h12.37c2.84-1.84,23.87-32.22,17.41-46.27S1018.48,611.22,1023.36,588.68Z" transform="translate(-870.53 -408.34)"/><path class="cls-6" d="M1000.66,504.34H916.84V453.22H872.08V557.79c0,14.74,12.46,30.89,30.15,30.89h140c2.36-9.71,4.58-28.27,5.38-35.25a34.21,34.21,0,0,0,.13-6.71C1045.73,523,1025.41,504.34,1000.66,504.34Z" transform="translate(-870.53 -408.34)"/><path class="cls-1" d="M1024.39,510.59l.06.05a46.34,46.34,0,0,1,23,33.29,11.12,11.12,0,0,0,3.66-.75,4.2,4.2,0,0,0,2.57-3.88C1053.6,522,1024.39,510.59,1024.39,510.59Z" transform="translate(-870.53 -408.34)"/><path class="cls-6" d="M926.92,588.68v39.71c0,1.58,1.15,5.26,2.67,6.16a1.45,1.45,0,0,1,.67,1.26v26.78h16.65V635.81a1.45,1.45,0,0,1,.67-1.26c1.52-.9,2.66-4.58,2.66-6.16V588.68Z" transform="translate(-870.53 -408.34)"/><path class="cls-2" d="M940.21,662.59h-10a4.5,4.5,0,0,1-.81.26,11.17,11.17,0,0,0-9,10.13h9.35A11.3,11.3,0,0,1,940.21,662.59Z" transform="translate(-870.53 -408.34)"/><path class="cls-3" d="M938.46,662.59A11.3,11.3,0,0,0,926.92,673h20V662.59C944.72,662.59,940.63,662.64,938.46,662.59Z" transform="translate(-870.53 -408.34)"/><path class="cls-3" d="M1026.51,662.53A11.37,11.37,0,0,0,1015,673h17.15V662.59C1029.94,662.46,1028.66,662.49,1026.51,662.53Z" transform="translate(-870.53 -408.34)"/><path class="cls-2" d="M1018.93,662.85a11.17,11.17,0,0,0-9,10.13h5a11.3,11.3,0,0,1,10.42-10.39h-5.64A4.5,4.5,0,0,1,1018.93,662.85Z" transform="translate(-870.53 -408.34)"/><path class="cls-6" d="M1049.52,616.32c-6.46-14.05-12.13-5.1-7.25-27.64h-50c1.44,6.9,6.24,18.81,22,27.38,20.88,11.32,10.4,35.3,7.72,44a4.08,4.08,0,0,1-2.29,2.53h12.37C1035,660.75,1056,630.37,1049.52,616.32Z" transform="translate(-870.53 -408.34)"/><path class="cls-7" d="M913.64,430.45a17,17,0,0,0-11.5-12.2,4.64,4.64,0,0,1,1.41-2.5,11.68,11.68,0,0,0-4.22,1.75c.15-1.07,1.7-3.29,3.22-5-2.47.67-8.09,4.54-8.09,4.54-.23,0-15.42-.69-19.18,13.4s-9.74,47.43,19.17,47.45a30.07,30.07,0,0,0,6-.59v0c.59,1.17.64,1.45,1.22,2.64a7.25,7.25,0,0,1,1.85-3.48,9.65,9.65,0,0,0,2.62,4,16.25,16.25,0,0,1,.15-5,10.77,10.77,0,0,0,3.14,2.74,27.49,27.49,0,0,1-.2-4.9,36.25,36.25,0,0,0,3.43,1.58,5.92,5.92,0,0,1-.44-4.84l3,1.94a13.43,13.43,0,0,1-.72-6h0C919.08,455,916,439.15,913.64,430.45Z" transform="translate(-870.53 -408.34)"/><path class="cls-8" d="M911,441.79a9.09,9.09,0,0,0-9.18-9H887.1a9.09,9.09,0,0,0-9.18,9,8.94,8.94,0,0,0,4.16,7.53s-2.18,9.57,4.16,9.89c7.39.37,7.93-2,8.22-3.77.29,1.8.83,4.14,8.23,3.77,6.34-.32,4.16-9.89,4.16-9.89A9,9,0,0,0,911,441.79Z" transform="translate(-870.53 -408.34)"/><path class="cls-9" d="M883.31,442.72a1.86,1.86,0,1,1-1.85-1.82A1.84,1.84,0,0,1,883.31,442.72Z" transform="translate(-870.53 -408.34)"/><path class="cls-9" d="M894.47,455.44s-.37-4.25-5.61-6.27c-3.08-1.19-.84-3.91,2-1.45A9.54,9.54,0,0,1,894.47,455.44Z" transform="translate(-870.53 -408.34)"/><path class="cls-10" d="M872,410.67c-4.23,11.14,1.78,15.14,4.56,16.34a16.45,16.45,0,0,1,3.46-4.79C879.26,416,874.46,412.23,872,410.67Z" transform="translate(-870.53 -408.34)"/><path class="cls-6" d="M881.59,420.89c-.05-9.11-5.7-12-8.62-12.55-.37.81-.7,1.59-1,2.33,2.47,1.56,7.27,5.34,8,11.55A17.41,17.41,0,0,1,881.59,420.89Z" transform="translate(-870.53 -408.34)"/><path class="cls-9" d="M905.61,442.72a1.86,1.86,0,1,0,1.86-1.82A1.84,1.84,0,0,0,905.61,442.72Z" transform="translate(-870.53 -408.34)"/><path class="cls-9" d="M894.45,455.44s.37-4.25,5.61-6.27c3.09-1.19.84-3.91-2-1.45A9.55,9.55,0,0,0,894.45,455.44Z" transform="translate(-870.53 -408.34)"/><path class="cls-11" d="M902.69,459.21c-7.4.37-7.94-2-8.23-3.77-.29,1.8-.83,4.14-8.22,3.77h-.07c.48,2.65,1.61,6.79,4.07,6.79h8.45c2.46,0,3.59-4.14,4.06-6.79Z" transform="translate(-870.53 -408.34)"/><path class="cls-10" d="M916.94,410.67c4.22,11.14-1.78,15.14-4.56,16.34a16.29,16.29,0,0,0-3.47-4.79C909.66,416,914.47,412.23,916.94,410.67Z" transform="translate(-870.53 -408.34)"/><path class="cls-6" d="M907.33,420.89c.06-9.11,5.71-12,8.62-12.55.38.81.71,1.59,1,2.33-2.47,1.56-7.28,5.34-8,11.55A16.14,16.14,0,0,0,907.33,420.89Z" transform="translate(-870.53 -408.34)"/></svg>