<svg id="Vrstva_1" data-name="Vrstva 1" xmlns="http://www.w3.org/2000/svg" viewBox="0 0 183.15 264.65"><defs><style>.cls-1{fill:#c17c3d}.cls-2{fill:#cc986e}.cls-3{fill:#fcbf86}.cls-6{fill:#dd9650}.cls-9{fill:#262f3d}.cls-10{fill:#aa805f}</style></defs><path class="cls-1" d="M908 588.68v39.71c0 1.58 1.14 5.26 2.67 6.16a1.45 1.45 0 01.67 1.26v26.78H928v-26.78a1.45 1.45 0 01.67-1.26c1.52-.9 2.66-4.58 2.66-6.16v-39.71z" transform="translate(-870.53 -408.34)"/><path class="cls-2" d="M921.3 662.59h-9.95a4.5 4.5 0 01-.81.26 11.17 11.17 0 00-9 10.13h9.34a11.32 11.32 0 0110.42-10.39z" transform="translate(-870.53 -408.34)"/><path class="cls-3" d="M919.55 662.59A11.3 11.3 0 00908 673h20v-10.41c-2.19 0-6.28.05-8.45 0z" transform="translate(-870.53 -408.34)"/><path d="M1007.6 662.53A11.37 11.37 0 00996.05 673h17.15v-10.41c-2.2-.13-3.45-.1-5.6-.06z" transform="translate(-870.53 -408.34)" fill="#818181"/><path d="M1000 662.85a11.17 11.17 0 00-9 10.15h5a11.3 11.3 0 0110.42-10.39h-5.64a4.5 4.5 0 01-.78.24z" transform="translate(-870.53 -408.34)" fill="#1a1a1a"/><path class="cls-3" d="M1007.59 662.59A11.3 11.3 0 00996.05 673h17.15v-10.41c-2.13 0-3.46-.04-5.61 0z" transform="translate(-870.53 -408.34)"/><path class="cls-2" d="M1000 662.85a11.17 11.17 0 00-9 10.15h5a11.3 11.3 0 0110.42-10.39h-5.64a4.5 4.5 0 01-.78.24z" transform="translate(-870.53 -408.34)"/><path class="cls-1" d="M1023.36 588.68h-50c1.44 6.9 6.24 18.81 22 27.38 20.88 11.32 10.4 35.3 7.72 44a4.08 4.08 0 01-2.29 2.53h12.37c2.84-1.84 23.87-32.22 17.41-46.27s-12.09-5.1-7.21-27.64z" transform="translate(-870.53 -408.34)"/><path class="cls-6" d="M1000.66 504.34h-83.82v-51.12h-44.76v104.57c0 14.74 12.46 30.89 30.15 30.89h140c2.36-9.71 4.58-28.27 5.38-35.25a34.21 34.21 0 00.13-6.71c-2.01-23.72-22.33-42.38-47.08-42.38z" transform="translate(-870.53 -408.34)"/><path class="cls-1" d="M1024.39 510.59l.06.05a46.34 46.34 0 0123 33.29 11.12 11.12 0 003.66-.75 4.2 4.2 0 002.57-3.88c-.08-17.3-29.29-28.71-29.29-28.71z" transform="translate(-870.53 -408.34)"/><path class="cls-6" d="M926.92 588.68v39.71c0 1.58 1.15 5.26 2.67 6.16a1.45 1.45 0 01.67 1.26v26.78h16.65v-26.78a1.45 1.45 0 01.67-1.26c1.52-.9 2.66-4.58 2.66-6.16v-39.71z" transform="translate(-870.53 -408.34)"/><path class="cls-2" d="M940.21 662.59h-10a4.5 4.5 0 01-.81.26 11.17 11.17 0 00-9 10.13h9.35a11.3 11.3 0 0110.46-10.39z" transform="translate(-870.53 -408.34)"/><path class="cls-3" d="M938.46 662.59A11.3 11.3 0 00926.92 673h20v-10.41c-2.2 0-6.29.05-8.46 0zM1026.51 662.53A11.37 11.37 0 001015 673h17.15v-10.41c-2.21-.13-3.49-.1-5.64-.06z" transform="translate(-870.53 -408.34)"/><path class="cls-2" d="M1018.93 662.85a11.17 11.17 0 00-9 10.13h5a11.3 11.3 0 0110.42-10.39h-5.64a4.5 4.5 0 01-.78.26z" transform="translate(-870.53 -408.34)"/><path class="cls-6" d="M1049.52 616.32c-6.46-14.05-12.13-5.1-7.25-27.64h-50c1.44 6.9 6.24 18.81 22 27.38 20.88 11.32 10.4 35.3 7.72 44a4.08 4.08 0 01-2.29 2.53h12.37c2.93-1.84 23.93-32.22 17.45-46.27z" transform="translate(-870.53 -408.34)"/><path d="M913.64 430.45a17 17 0 00-11.5-12.2 4.64 4.64 0 011.41-2.5 11.68 11.68 0 00-4.22 1.75c.15-1.07 1.7-3.29 3.22-5-2.47.67-8.09 4.54-8.09 4.54-.23 0-15.42-.69-19.18 13.4s-9.74 47.43 19.17 47.45a30.07 30.07 0 006-.59c.59 1.17.64 1.45 1.22 2.64a7.25 7.25 0 011.85-3.48 9.65 9.65 0 002.62 4 16.25 16.25 0 01.15-5 10.77 10.77 0 003.14 2.74 27.49 27.49 0 01-.2-4.9 36.25 36.25 0 003.43 1.58 5.92 5.92 0 01-.44-4.84l3 1.94a13.43 13.43 0 01-.72-6c4.58-10.98 1.5-26.83-.86-35.53z" transform="translate(-870.53 -408.34)" fill="#eaaa6e"/><path d="M911 441.79a9.09 9.09 0 00-9.18-9H887.1a9.09 9.09 0 00-9.18 9 8.94 8.94 0 004.16 7.53s-2.18 9.57 4.16 9.89c7.39.37 7.93-2 8.22-3.77.29 1.8.83 4.14 8.23 3.77 6.34-.32 4.16-9.89 4.16-9.89a9 9 0 004.15-7.53z" transform="translate(-870.53 -408.34)" fill="#f7c9a5"/><path class="cls-9" d="M883.31 442.72a1.86 1.86 0 11-1.85-1.82 1.84 1.84 0 011.85 1.82zM894.47 455.44s-.37-4.25-5.61-6.27c-3.08-1.19-.84-3.91 2-1.45a9.54 9.54 0 013.61 7.72z" transform="translate(-870.53 -408.34)"/><path class="cls-10" d="M872 410.67c-4.23 11.14 1.78 15.14 4.56 16.34a16.45 16.45 0 013.46-4.79c-.76-6.22-5.56-9.99-8.02-11.55z" transform="translate(-870.53 -408.34)"/><path class="cls-6" d="M881.59 420.89c-.05-9.11-5.7-12-8.62-12.55-.37.81-.7 1.59-1 2.33 2.47 1.56 7.27 5.34 8 11.55a17.41 17.41 0 011.62-1.33z" transform="translate(-870.53 -408.34)"/><path class="cls-9" d="M905.61 442.72a1.86 1.86 0 101.86-1.82 1.84 1.84 0 00-1.86 1.82zM894.45 455.44s.37-4.25 5.61-6.27c3.09-1.19.84-3.91-2-1.45a9.55 9.55 0 00-3.61 7.72z" transform="translate(-870.53 -408.34)"/><path d="M902.69 459.21c-7.4.37-7.94-2-8.23-3.77-.29 1.8-.83 4.14-8.22 3.77h-.07c.48 2.65 1.61 6.79 4.07 6.79h8.45c2.46 0 3.59-4.14 4.06-6.79z" transform="translate(-870.53 -408.34)" fill="#f1b888"/><path class="cls-10" d="M916.94 410.67c4.22 11.14-1.78 15.14-4.56 16.34a16.29 16.29 0 00-3.47-4.79c.75-6.22 5.56-9.99 8.03-11.55z" transform="translate(-870.53 -408.34)"/><path class="cls-6" d="M907.33 420.89c.06-9.11 5.71-12 8.62-12.55.38.81.71 1.59 1 2.33-2.47 1.56-7.28 5.34-8 11.55a16.14 16.14 0 00-1.62-1.33z" transform="translate(-870.53 -408.34)"/></svg>